%TF.GenerationSoftware,KiCad,Pcbnew,10.0.3*%
%TF.CreationDate,2026-09-02T16:40:23+08:00*%
%TF.ProjectId,FOC_V1_PCB,464f435f-5631-45f5-9043-422e6b696361,rev?*%
%TF.SameCoordinates,Original*%
%TF.FileFunction,Copper,L2,Inr*%
%TF.FilePolarity,Positive*%
%FSLAX46Y46*%
G04 Gerber Fmt 4.6, Leading zero omitted, Abs format (unit mm)*
G04 Created by KiCad (PCBNEW 10.0.3) date 2026-09-02 16:40:23*
%MOMM*%
%LPD*%
G01*
G04 APERTURE LIST*
G04 Aperture macros list*
%AMRoundRect*
0 Rectangle with rounded corners*
0 $1 Rounding radius*
0 $2 $3 $4 $5 $6 $7 $8 $9 X,Y pos of 4 corners*
0 Add a 4 corners polygon primitive as box body*
4,1,4,$2,$3,$4,$5,$6,$7,$8,$9,$2,$3,0*
0 Add four circle primitives for the rounded corners*
1,1,$1+$1,$2,$3*
1,1,$1+$1,$4,$5*
1,1,$1+$1,$6,$7*
1,1,$1+$1,$8,$9*
0 Add four rect primitives between the rounded corners*
20,1,$1+$1,$2,$3,$4,$5,0*
20,1,$1+$1,$4,$5,$6,$7,0*
20,1,$1+$1,$6,$7,$8,$9,0*
20,1,$1+$1,$8,$9,$2,$3,0*%
G04 Aperture macros list end*
%TA.AperFunction,ComponentPad*%
%ADD10RoundRect,0.250002X2.749998X-2.749998X2.749998X2.749998X-2.749998X2.749998X-2.749998X-2.749998X0*%
%TD*%
%TA.AperFunction,ComponentPad*%
%ADD11R,1.700000X1.700000*%
%TD*%
%TA.AperFunction,ComponentPad*%
%ADD12C,1.700000*%
%TD*%
%TA.AperFunction,ComponentPad*%
%ADD13O,1.000000X2.100000*%
%TD*%
%TA.AperFunction,ComponentPad*%
%ADD14O,1.000000X1.800000*%
%TD*%
%TA.AperFunction,ComponentPad*%
%ADD15C,1.600000*%
%TD*%
%TA.AperFunction,ComponentPad*%
%ADD16RoundRect,0.250002X2.749998X2.749998X-2.749998X2.749998X-2.749998X-2.749998X2.749998X-2.749998X0*%
%TD*%
%TA.AperFunction,ViaPad*%
%ADD17C,0.600000*%
%TD*%
%TA.AperFunction,ViaPad*%
%ADD18C,0.700000*%
%TD*%
%TA.AperFunction,ViaPad*%
%ADD19C,0.800000*%
%TD*%
G04 APERTURE END LIST*
D10*
%TO.N,DRV_SH_B*%
%TO.C,J9*%
X203400000Y-84562500D03*
%TD*%
%TO.N,DRV_SH_C*%
%TO.C,J10*%
X203200000Y-107200000D03*
%TD*%
%TO.N,DRV_SH_A*%
%TO.C,J8*%
X203400000Y-61300000D03*
%TD*%
D11*
%TO.N,LDO_+3.3V*%
%TO.C,J1*%
X148285000Y-62480000D03*
D12*
%TO.N,MCU_SWDIO*%
X148285000Y-59940000D03*
%TO.N,MCU_SWCLK*%
X148285000Y-57400000D03*
%TO.N,GND*%
X148285000Y-54860000D03*
%TO.N,MCU_NRST*%
X148285000Y-52320000D03*
%TD*%
D13*
%TO.N,GND*%
%TO.C,USB1*%
X149280000Y-113670000D03*
%TO.N,N/C*%
X157920000Y-113670000D03*
D14*
X149280000Y-117850000D03*
X157920000Y-117850000D03*
%TD*%
D15*
%TO.N,V_Supply_+42V*%
%TO.C,C40*%
X174700000Y-58200000D03*
%TO.N,GND*%
X174700000Y-53200000D03*
%TD*%
%TO.N,V_Supply_+42V*%
%TO.C,C41*%
X177700000Y-93700000D03*
%TO.N,GND*%
X177700000Y-88700000D03*
%TD*%
%TO.N,V_Supply_+42V*%
%TO.C,C39*%
X176800000Y-115400000D03*
%TO.N,GND*%
X176800000Y-110400000D03*
%TD*%
D16*
%TO.N,V_Supply_+42V*%
%TO.C,J6*%
X176800000Y-71100000D03*
%TD*%
%TO.N,GND*%
%TO.C,J7*%
X176800000Y-79300000D03*
%TD*%
D17*
%TO.N,GND*%
X137400000Y-57200000D03*
X146480827Y-119942519D03*
X172100000Y-67360700D03*
X207943834Y-84202669D03*
X149100000Y-96200000D03*
X156275901Y-49525300D03*
X155400000Y-103500000D03*
X156480827Y-119942519D03*
X161267814Y-68199999D03*
X159500000Y-55800000D03*
X170701000Y-61900000D03*
X186480827Y-119942519D03*
X165300000Y-106000000D03*
X160800000Y-92000000D03*
X141480827Y-119942519D03*
X163300000Y-86000000D03*
X191480827Y-119942519D03*
X162267814Y-70199999D03*
X207943834Y-69202669D03*
X162267814Y-68199999D03*
X137218359Y-92167047D03*
X141300000Y-90100000D03*
X162267814Y-69199999D03*
X171480826Y-119942519D03*
X181480827Y-119942519D03*
X137400000Y-102200000D03*
X171275900Y-49525300D03*
X207943834Y-59202669D03*
X137400000Y-97200000D03*
X201275900Y-49525300D03*
X207943834Y-64202669D03*
X160900000Y-104700000D03*
X174900000Y-104000000D03*
X160267814Y-67199999D03*
X137600000Y-52200000D03*
X167300000Y-113500000D03*
X191275900Y-49525300D03*
X207949334Y-114202668D03*
X161275899Y-49525300D03*
X162267814Y-66199999D03*
X206100000Y-50200000D03*
X168400000Y-91100000D03*
X207943834Y-79202669D03*
X176480827Y-119942519D03*
X146275900Y-49525300D03*
X151480827Y-119942519D03*
X160800000Y-89100000D03*
X206200000Y-119000000D03*
X207943834Y-54202669D03*
X149600000Y-82050000D03*
X160267814Y-68199999D03*
X196275900Y-49525300D03*
X176275900Y-49525300D03*
X161267814Y-70199999D03*
X161267814Y-69199999D03*
X207943834Y-89202669D03*
X146900000Y-82400000D03*
X151275901Y-49525300D03*
X181275900Y-49525300D03*
X207943834Y-99202669D03*
X160267814Y-66199999D03*
X166275900Y-49525300D03*
X137400000Y-77200000D03*
X162100000Y-99800000D03*
X169650000Y-74800000D03*
X201480827Y-119942519D03*
X156200000Y-107200000D03*
X163200000Y-95000000D03*
X160267814Y-69199999D03*
X171800000Y-80900000D03*
X169544975Y-79255025D03*
X143800000Y-88300000D03*
X171800000Y-76700000D03*
X186275900Y-49525300D03*
X141275900Y-49525300D03*
X137208250Y-87176246D03*
X162200000Y-58500000D03*
X155800000Y-77300000D03*
X161267814Y-66199999D03*
X150100000Y-111700000D03*
X137400000Y-72200000D03*
X207943834Y-94202669D03*
X170600000Y-64800000D03*
X162267814Y-67199999D03*
X160267814Y-70199999D03*
X207943834Y-109202669D03*
X137400000Y-82200000D03*
X156518413Y-75518413D03*
X137600000Y-117200000D03*
X157200000Y-111700000D03*
X148700000Y-89800000D03*
X137400000Y-62200000D03*
X161267814Y-67199999D03*
X196480827Y-119942519D03*
X137400000Y-67200000D03*
X207943834Y-104202669D03*
X207943834Y-74202669D03*
X167500000Y-94100000D03*
X157200000Y-90000000D03*
X155700000Y-58000000D03*
D18*
%TO.N,DRV_GL_B*%
X171700000Y-73100000D03*
D17*
X163843887Y-69034944D03*
%TO.N,DRV_SH_B*%
X168400000Y-69800000D03*
X188900000Y-78700000D03*
%TO.N,DRV_SL_A*%
X163665940Y-67352679D03*
D18*
X179500000Y-54200000D03*
D17*
%TO.N,DRV_SN1*%
X176300000Y-51000000D03*
X162500000Y-64624988D03*
X161800000Y-73700000D03*
X161600000Y-81300000D03*
%TO.N,DRV_SP1*%
X179700000Y-56700000D03*
D18*
%TO.N,BUCK_+5V*%
X157200000Y-53200000D03*
D17*
%TO.N,LDO_+3.3V*%
X152300000Y-64400000D03*
D18*
X154900000Y-88100000D03*
X161100000Y-90400000D03*
X144400000Y-114800000D03*
X161700000Y-63700000D03*
D17*
%TO.N,DRV_SO1*%
X158725000Y-73188172D03*
X152250000Y-77700000D03*
%TO.N,DRV_nFAULT*%
X145000000Y-88200000D03*
X159300000Y-64500000D03*
X149800000Y-88800000D03*
D18*
%TO.N,DRV_GL_C*%
X180200000Y-97300000D03*
D17*
X163487043Y-71980649D03*
D18*
%TO.N,DRV_SL_C*%
X177700000Y-96600000D03*
D17*
X163342228Y-72784456D03*
D18*
%TO.N,DRV_SH_C*%
X175600000Y-87100000D03*
D17*
X168800000Y-73100000D03*
D19*
%TO.N,V_Supply_+42V*%
X185400000Y-118000000D03*
X182400000Y-72000000D03*
X190400000Y-66000000D03*
X186400000Y-108000000D03*
X190400000Y-68000000D03*
X180400000Y-88100000D03*
X190400000Y-116000000D03*
X180400000Y-86100000D03*
X180400000Y-113000000D03*
X163600000Y-84400000D03*
X185400000Y-108000000D03*
X190400000Y-117000000D03*
X184400000Y-72000000D03*
X164200000Y-84900000D03*
X186400000Y-85100000D03*
X181400000Y-72000000D03*
X186400000Y-62000000D03*
X190400000Y-65000000D03*
X180400000Y-109000000D03*
X190400000Y-93100000D03*
X181400000Y-118000000D03*
X187400000Y-95100000D03*
X163136260Y-83830992D03*
X184400000Y-62000000D03*
X180400000Y-85100000D03*
X190400000Y-108000000D03*
X182400000Y-85100000D03*
X190400000Y-71000000D03*
X183400000Y-108000000D03*
X180400000Y-70000000D03*
X164200000Y-84000000D03*
X183400000Y-118000000D03*
X180400000Y-72000000D03*
X184400000Y-108000000D03*
X188400000Y-85100000D03*
X190400000Y-94100000D03*
X190400000Y-88100000D03*
X181400000Y-95100000D03*
X165800000Y-84400000D03*
X188400000Y-118000000D03*
X180400000Y-94100000D03*
X182400000Y-95100000D03*
X183400000Y-85100000D03*
X183400000Y-95100000D03*
X188400000Y-72000000D03*
X187400000Y-118000000D03*
X180400000Y-110000000D03*
X180400000Y-63000000D03*
X184400000Y-118000000D03*
X185400000Y-95100000D03*
X190400000Y-110000000D03*
X183400000Y-62000000D03*
X180400000Y-115000000D03*
X190400000Y-64000000D03*
X180400000Y-111000000D03*
X185400000Y-72000000D03*
X180400000Y-68000000D03*
X188400000Y-108000000D03*
X184400000Y-85100000D03*
X181400000Y-108000000D03*
X190400000Y-72000000D03*
X188400000Y-95100000D03*
X163500000Y-62600000D03*
X180400000Y-108000000D03*
X165300000Y-85100000D03*
X190400000Y-67000000D03*
X164200000Y-82600000D03*
X190400000Y-114000000D03*
X190400000Y-70000000D03*
X181400000Y-62000000D03*
X164900000Y-84400000D03*
X182400000Y-108000000D03*
X182400000Y-118000000D03*
X187400000Y-72000000D03*
X180400000Y-91100000D03*
X180400000Y-69000000D03*
X180400000Y-65000000D03*
X187400000Y-62000000D03*
X182384912Y-62022000D03*
X190400000Y-118000000D03*
X190400000Y-109000000D03*
X188400000Y-62000000D03*
X190400000Y-86100000D03*
X180400000Y-95100000D03*
X190400000Y-87100000D03*
X190400000Y-115000000D03*
X190400000Y-89100000D03*
X190400000Y-90100000D03*
X180400000Y-93100000D03*
X180400000Y-116000000D03*
X190400000Y-62000000D03*
X190400000Y-112000000D03*
X190400000Y-69000000D03*
X190400000Y-95100000D03*
X180400000Y-67000000D03*
X189400000Y-95100000D03*
X180400000Y-89100000D03*
X187400000Y-108000000D03*
X180400000Y-62000000D03*
X180400000Y-92100000D03*
X190400000Y-91100000D03*
X190400000Y-85100000D03*
X189400000Y-118000000D03*
X181400000Y-85100000D03*
X190400000Y-63000000D03*
X190400000Y-92100000D03*
X189400000Y-85100000D03*
X187400000Y-85100000D03*
X186400000Y-72000000D03*
X190400000Y-111000000D03*
X180400000Y-112000000D03*
X163100000Y-82800000D03*
X180400000Y-87100000D03*
X180400000Y-117000000D03*
X163800000Y-83300000D03*
X180400000Y-114000000D03*
X185400000Y-85100000D03*
X180400000Y-64000000D03*
X180400000Y-71000000D03*
X180400000Y-118000000D03*
X189400000Y-62000000D03*
X183400000Y-72000000D03*
X189400000Y-108000000D03*
X185400000Y-62000000D03*
X189400000Y-72000000D03*
X186400000Y-95100000D03*
X184400000Y-95100000D03*
X186400000Y-118000000D03*
X190400000Y-113000000D03*
X180400000Y-66000000D03*
X180400000Y-90100000D03*
D17*
%TO.N,DRV_SN2*%
X175194975Y-95900000D03*
X166400000Y-81700000D03*
%TO.N,DRV_SP2*%
X167200000Y-81500000D03*
X173000000Y-87600000D03*
D18*
%TO.N,DRV_SH_A*%
X188637500Y-55562500D03*
D17*
X168300000Y-66600000D03*
D18*
%TO.N,DRV_GH_A*%
X171500000Y-68800000D03*
D17*
X163800000Y-65600000D03*
D18*
X195100000Y-71900000D03*
D17*
%TO.N,Net-(U2-RT_CLK)*%
X158100000Y-60800000D03*
%TO.N,Net-(U2-VSENSE)*%
X158700000Y-62500000D03*
%TO.N,DRV_SPI_SCS*%
X159850000Y-76250000D03*
X158434402Y-64720611D03*
X156800000Y-94800000D03*
%TO.N,DRV_SPI_SDI*%
X156700000Y-92825000D03*
X158049997Y-76700000D03*
X158328942Y-65552049D03*
%TO.N,DRV_SPI_SDO*%
X156400000Y-65999994D03*
X157466649Y-93439266D03*
%TO.N,DRV_SPI_SCLK*%
X158439602Y-67000000D03*
X157268523Y-94214347D03*
%TO.N,DRV_DC_CAL*%
X145075000Y-86800000D03*
X156015657Y-66908237D03*
X148700000Y-88800000D03*
%TO.N,DRV_EN_GATE*%
X152713219Y-70028228D03*
X145950000Y-86200000D03*
X149600000Y-86200000D03*
X158400000Y-69000000D03*
%TO.N,DRV_HA*%
X156134176Y-69575000D03*
X149800000Y-97700000D03*
%TO.N,DRV_LA*%
X158345709Y-70072474D03*
X152599998Y-70799997D03*
X146300000Y-97853097D03*
%TO.N,DRV_HB*%
X150700000Y-97600000D03*
X156239618Y-70499986D03*
%TO.N,DRV_LB*%
X158458149Y-70889147D03*
X152338909Y-71738909D03*
X147176388Y-97781635D03*
%TO.N,DRV_HC*%
X151700000Y-97600000D03*
X156299080Y-71492580D03*
%TO.N,DRV_LC*%
X151900000Y-72900000D03*
X148000000Y-97800000D03*
X158275389Y-71999982D03*
%TO.N,MCU_VDDA*%
X147775000Y-86200000D03*
X143768046Y-86248345D03*
%TO.N,DRV_SO2*%
X158470297Y-74130700D03*
X152825000Y-77200000D03*
%TO.N,Net-(U2-SP2)*%
X166283884Y-74783884D03*
%TO.N,Net-(U2-SN2)*%
X166241938Y-73941946D03*
%TO.N,Net-(U2-SP1)*%
X166200000Y-73100000D03*
%TO.N,Net-(U2-SN1)*%
X163700000Y-73500000D03*
%TO.N,DRV_GH_C*%
X164005578Y-70999996D03*
D18*
X193500000Y-117500000D03*
D17*
%TO.N,DRV_GH_B*%
X163807196Y-68140112D03*
D18*
X194900000Y-95000000D03*
%TO.N,DRV_GL_A*%
X181700000Y-50500000D03*
D17*
X163719637Y-66522492D03*
%TO.N,Net-(U2-EN_BUCK)*%
X166100000Y-61700000D03*
%TO.N,Net-(U2-SS_TR)*%
X165000000Y-60800000D03*
%TO.N,CAN_L*%
X164900000Y-111900000D03*
X166000000Y-114000000D03*
%TO.N,MCU_NTC*%
X145500000Y-89400000D03*
X175100000Y-108300000D03*
X153300000Y-92600000D03*
%TO.N,MCU_NRST*%
X148700000Y-76600000D03*
%TO.N,MCU_BUS_VSENSE*%
X143800000Y-87100000D03*
%TO.N,MCU_SWDIO*%
X152500003Y-97600000D03*
%TO.N,MCU_SWCLK*%
X157300000Y-96900000D03*
X142200000Y-93000000D03*
%TO.N,ENC_SPI_SCS*%
X143800000Y-106300000D03*
X154553097Y-97100000D03*
%TO.N,ENC_SPI_SCLK*%
X154200000Y-96050001D03*
X145000000Y-110000000D03*
%TO.N,ENC_SPI_SDO*%
X145100000Y-108700000D03*
X153200000Y-95700000D03*
%TO.N,ENC_SPI_SDI*%
X145000000Y-107600000D03*
X153151471Y-94848529D03*
%TO.N,MCU_CAN_RX*%
X153900000Y-91000000D03*
X163000000Y-104100000D03*
%TO.N,MCU_CAN_TX*%
X154000000Y-90100000D03*
X168600000Y-104000000D03*
%TD*%
%TA.AperFunction,Conductor*%
%TO.N,GND*%
G36*
X204002701Y-48900617D02*
G01*
X204386772Y-48917386D01*
X204397504Y-48918326D01*
X204775962Y-48968150D01*
X204786600Y-48970025D01*
X205159278Y-49052647D01*
X205169719Y-49055445D01*
X205533764Y-49170227D01*
X205543910Y-49173920D01*
X205896577Y-49320000D01*
X205906368Y-49324566D01*
X206244941Y-49500816D01*
X206254309Y-49506224D01*
X206576243Y-49711318D01*
X206585104Y-49717523D01*
X206887929Y-49949889D01*
X206896216Y-49956843D01*
X207177634Y-50214715D01*
X207185283Y-50222364D01*
X207443155Y-50503782D01*
X207450109Y-50512069D01*
X207682475Y-50814894D01*
X207688680Y-50823755D01*
X207893774Y-51145689D01*
X207899182Y-51155057D01*
X208075429Y-51493623D01*
X208080001Y-51503427D01*
X208226074Y-51856078D01*
X208229774Y-51866244D01*
X208344552Y-52230276D01*
X208347352Y-52240724D01*
X208429971Y-52613390D01*
X208431849Y-52624044D01*
X208481670Y-53002472D01*
X208482613Y-53013248D01*
X208499381Y-53397297D01*
X208499499Y-53402706D01*
X208499499Y-115997293D01*
X208499381Y-116002702D01*
X208482613Y-116386751D01*
X208481670Y-116397527D01*
X208431849Y-116775955D01*
X208429971Y-116786609D01*
X208347352Y-117159275D01*
X208344552Y-117169723D01*
X208229774Y-117533755D01*
X208226074Y-117543921D01*
X208080001Y-117896572D01*
X208075429Y-117906376D01*
X207899182Y-118244942D01*
X207893774Y-118254310D01*
X207688680Y-118576244D01*
X207682475Y-118585105D01*
X207450109Y-118887930D01*
X207443155Y-118896217D01*
X207185283Y-119177635D01*
X207177634Y-119185284D01*
X206896216Y-119443156D01*
X206887929Y-119450110D01*
X206585104Y-119682476D01*
X206576243Y-119688681D01*
X206254309Y-119893775D01*
X206244941Y-119899183D01*
X205906375Y-120075430D01*
X205896571Y-120080002D01*
X205543920Y-120226075D01*
X205533754Y-120229775D01*
X205169722Y-120344553D01*
X205159274Y-120347353D01*
X204786608Y-120429972D01*
X204775954Y-120431850D01*
X204397526Y-120481671D01*
X204386750Y-120482614D01*
X204002702Y-120499382D01*
X203997293Y-120499500D01*
X141402706Y-120499500D01*
X141397297Y-120499382D01*
X141013248Y-120482614D01*
X141002474Y-120481671D01*
X140940007Y-120473447D01*
X140624044Y-120431850D01*
X140613390Y-120429972D01*
X140240724Y-120347353D01*
X140230276Y-120344553D01*
X139866244Y-120229775D01*
X139856078Y-120226075D01*
X139503427Y-120080002D01*
X139493623Y-120075430D01*
X139155057Y-119899183D01*
X139145689Y-119893775D01*
X138823755Y-119688681D01*
X138814894Y-119682476D01*
X138512069Y-119450110D01*
X138503782Y-119443156D01*
X138222364Y-119185284D01*
X138214715Y-119177635D01*
X137956843Y-118896217D01*
X137949889Y-118887930D01*
X137717523Y-118585105D01*
X137711318Y-118576244D01*
X137547432Y-118318995D01*
X148579499Y-118318995D01*
X148606418Y-118454322D01*
X148606421Y-118454332D01*
X148659221Y-118581804D01*
X148659228Y-118581817D01*
X148735885Y-118696541D01*
X148735888Y-118696545D01*
X148833454Y-118794111D01*
X148833458Y-118794114D01*
X148948182Y-118870771D01*
X148948195Y-118870778D01*
X149075667Y-118923578D01*
X149075672Y-118923580D01*
X149075676Y-118923580D01*
X149075677Y-118923581D01*
X149211004Y-118950500D01*
X149211007Y-118950500D01*
X149348995Y-118950500D01*
X149440041Y-118932389D01*
X149484328Y-118923580D01*
X149611811Y-118870775D01*
X149726542Y-118794114D01*
X149824114Y-118696542D01*
X149900775Y-118581811D01*
X149953580Y-118454328D01*
X149970609Y-118368717D01*
X149980500Y-118318995D01*
X157219499Y-118318995D01*
X157246418Y-118454322D01*
X157246421Y-118454332D01*
X157299221Y-118581804D01*
X157299228Y-118581817D01*
X157375885Y-118696541D01*
X157375888Y-118696545D01*
X157473454Y-118794111D01*
X157473458Y-118794114D01*
X157588182Y-118870771D01*
X157588195Y-118870778D01*
X157715667Y-118923578D01*
X157715672Y-118923580D01*
X157715676Y-118923580D01*
X157715677Y-118923581D01*
X157851004Y-118950500D01*
X157851007Y-118950500D01*
X157988995Y-118950500D01*
X158080041Y-118932389D01*
X158124328Y-118923580D01*
X158251811Y-118870775D01*
X158366542Y-118794114D01*
X158464114Y-118696542D01*
X158540775Y-118581811D01*
X158593580Y-118454328D01*
X158610609Y-118368717D01*
X158620500Y-118318995D01*
X158620500Y-117381004D01*
X158593581Y-117245677D01*
X158593580Y-117245676D01*
X158593580Y-117245672D01*
X158587828Y-117231786D01*
X158540778Y-117118195D01*
X158540771Y-117118182D01*
X158464114Y-117003458D01*
X158464111Y-117003454D01*
X158366545Y-116905888D01*
X158366541Y-116905885D01*
X158251817Y-116829228D01*
X158251804Y-116829221D01*
X158124332Y-116776421D01*
X158124322Y-116776418D01*
X157988995Y-116749500D01*
X157988993Y-116749500D01*
X157851007Y-116749500D01*
X157851005Y-116749500D01*
X157715677Y-116776418D01*
X157715667Y-116776421D01*
X157588195Y-116829221D01*
X157588182Y-116829228D01*
X157473458Y-116905885D01*
X157473454Y-116905888D01*
X157375888Y-117003454D01*
X157375885Y-117003458D01*
X157299228Y-117118182D01*
X157299221Y-117118195D01*
X157246421Y-117245667D01*
X157246418Y-117245677D01*
X157219500Y-117381004D01*
X157219500Y-117381007D01*
X157219500Y-118318993D01*
X157219500Y-118318995D01*
X157219499Y-118318995D01*
X149980500Y-118318995D01*
X149980500Y-117381004D01*
X149953581Y-117245677D01*
X149953580Y-117245676D01*
X149953580Y-117245672D01*
X149947828Y-117231786D01*
X149900778Y-117118195D01*
X149900771Y-117118182D01*
X149824114Y-117003458D01*
X149824111Y-117003454D01*
X149726545Y-116905888D01*
X149726541Y-116905885D01*
X149611817Y-116829228D01*
X149611804Y-116829221D01*
X149484332Y-116776421D01*
X149484322Y-116776418D01*
X149348995Y-116749500D01*
X149348993Y-116749500D01*
X149211007Y-116749500D01*
X149211005Y-116749500D01*
X149075677Y-116776418D01*
X149075667Y-116776421D01*
X148948195Y-116829221D01*
X148948182Y-116829228D01*
X148833458Y-116905885D01*
X148833454Y-116905888D01*
X148735888Y-117003454D01*
X148735885Y-117003458D01*
X148659228Y-117118182D01*
X148659221Y-117118195D01*
X148606421Y-117245667D01*
X148606418Y-117245677D01*
X148579500Y-117381004D01*
X148579500Y-117381007D01*
X148579500Y-118318993D01*
X148579500Y-118318995D01*
X148579499Y-118318995D01*
X137547432Y-118318995D01*
X137547431Y-118318993D01*
X137506223Y-118254309D01*
X137500816Y-118244942D01*
X137324566Y-117906369D01*
X137319997Y-117896572D01*
X137295742Y-117838015D01*
X137173920Y-117543911D01*
X137170224Y-117533755D01*
X137165723Y-117519481D01*
X137055445Y-117169720D01*
X137052646Y-117159275D01*
X137043539Y-117118195D01*
X136970025Y-116786601D01*
X136968149Y-116775955D01*
X136918326Y-116397505D01*
X136917386Y-116386773D01*
X136900618Y-116002702D01*
X136900500Y-115997293D01*
X136900500Y-115498543D01*
X175799499Y-115498543D01*
X175837947Y-115691829D01*
X175837950Y-115691839D01*
X175913364Y-115873907D01*
X175913371Y-115873920D01*
X176022860Y-116037781D01*
X176022863Y-116037785D01*
X176162214Y-116177136D01*
X176162218Y-116177139D01*
X176326079Y-116286628D01*
X176326092Y-116286635D01*
X176508160Y-116362049D01*
X176508165Y-116362051D01*
X176508169Y-116362051D01*
X176508170Y-116362052D01*
X176701456Y-116400500D01*
X176701459Y-116400500D01*
X176898543Y-116400500D01*
X177058363Y-116368709D01*
X177091835Y-116362051D01*
X177273914Y-116286632D01*
X177437782Y-116177139D01*
X177577139Y-116037782D01*
X177686632Y-115873914D01*
X177762051Y-115691835D01*
X177800500Y-115498541D01*
X177800500Y-115301459D01*
X177800500Y-115301456D01*
X177762052Y-115108170D01*
X177762051Y-115108169D01*
X177762051Y-115108165D01*
X177722421Y-115012488D01*
X177686635Y-114926092D01*
X177686628Y-114926079D01*
X177577139Y-114762218D01*
X177577136Y-114762214D01*
X177437785Y-114622863D01*
X177437781Y-114622860D01*
X177273920Y-114513371D01*
X177273907Y-114513364D01*
X177091839Y-114437950D01*
X177091829Y-114437947D01*
X176898543Y-114399500D01*
X176898541Y-114399500D01*
X176701459Y-114399500D01*
X176701457Y-114399500D01*
X176508170Y-114437947D01*
X176508160Y-114437950D01*
X176326092Y-114513364D01*
X176326079Y-114513371D01*
X176162218Y-114622860D01*
X176162214Y-114622863D01*
X176022863Y-114762214D01*
X176022860Y-114762218D01*
X175913371Y-114926079D01*
X175913364Y-114926092D01*
X175837950Y-115108160D01*
X175837947Y-115108170D01*
X175799500Y-115301456D01*
X175799500Y-115301459D01*
X175799500Y-115498541D01*
X175799500Y-115498543D01*
X175799499Y-115498543D01*
X136900500Y-115498543D01*
X136900500Y-114727525D01*
X143849500Y-114727525D01*
X143849500Y-114872475D01*
X143863867Y-114926092D01*
X143887017Y-115012488D01*
X143959488Y-115138011D01*
X143959490Y-115138013D01*
X143959491Y-115138015D01*
X144061985Y-115240509D01*
X144061986Y-115240510D01*
X144061988Y-115240511D01*
X144187511Y-115312982D01*
X144187512Y-115312982D01*
X144187515Y-115312984D01*
X144327525Y-115350500D01*
X144327528Y-115350500D01*
X144472472Y-115350500D01*
X144472475Y-115350500D01*
X144612485Y-115312984D01*
X144738015Y-115240509D01*
X144840509Y-115138015D01*
X144912984Y-115012485D01*
X144950500Y-114872475D01*
X144950500Y-114727525D01*
X144912984Y-114587515D01*
X144893267Y-114553365D01*
X144840511Y-114461988D01*
X144840506Y-114461982D01*
X144738017Y-114359493D01*
X144738011Y-114359488D01*
X144612488Y-114287017D01*
X144612489Y-114287017D01*
X144601006Y-114283940D01*
X144472475Y-114249500D01*
X144327525Y-114249500D01*
X144198993Y-114283940D01*
X144187511Y-114287017D01*
X144061988Y-114359488D01*
X144061982Y-114359493D01*
X143959493Y-114461982D01*
X143959488Y-114461988D01*
X143887017Y-114587511D01*
X143882583Y-114604055D01*
X143849500Y-114727525D01*
X136900500Y-114727525D01*
X136900500Y-113021504D01*
X148280000Y-113021504D01*
X148280000Y-113420000D01*
X148980001Y-113420000D01*
X148980001Y-113920000D01*
X148280000Y-113920000D01*
X148280000Y-114318495D01*
X148318427Y-114511681D01*
X148318430Y-114511693D01*
X148393807Y-114693671D01*
X148393814Y-114693684D01*
X148503248Y-114857462D01*
X148503251Y-114857466D01*
X148642533Y-114996748D01*
X148642537Y-114996751D01*
X148806315Y-115106185D01*
X148806328Y-115106192D01*
X148988308Y-115181569D01*
X149030000Y-115189862D01*
X149030000Y-114386997D01*
X149039941Y-114404216D01*
X149095796Y-114460071D01*
X149164205Y-114499567D01*
X149240504Y-114520011D01*
X149319496Y-114520011D01*
X149395795Y-114499567D01*
X149464204Y-114460071D01*
X149520059Y-114404216D01*
X149530000Y-114386997D01*
X149530000Y-115189862D01*
X149571690Y-115181569D01*
X149571692Y-115181569D01*
X149573538Y-115180805D01*
X149573538Y-115180804D01*
X149753671Y-115106192D01*
X149753684Y-115106185D01*
X149917462Y-114996751D01*
X149917466Y-114996748D01*
X150056748Y-114857466D01*
X150056751Y-114857462D01*
X150169574Y-114688613D01*
X150171007Y-114689570D01*
X150214198Y-114645580D01*
X150282332Y-114630103D01*
X150348018Y-114653919D01*
X150350089Y-114655697D01*
X150350189Y-114655568D01*
X150356630Y-114660510D01*
X150356635Y-114660515D01*
X150487865Y-114736281D01*
X150634234Y-114775500D01*
X150634236Y-114775500D01*
X150785764Y-114775500D01*
X150785766Y-114775500D01*
X150932135Y-114736281D01*
X151063365Y-114660515D01*
X151170515Y-114553365D01*
X151246281Y-114422135D01*
X151285500Y-114275766D01*
X151285500Y-114124234D01*
X155914500Y-114124234D01*
X155914500Y-114275766D01*
X155917515Y-114287017D01*
X155953719Y-114422136D01*
X155976728Y-114461988D01*
X156029485Y-114553365D01*
X156136635Y-114660515D01*
X156267865Y-114736281D01*
X156414234Y-114775500D01*
X156414236Y-114775500D01*
X156565764Y-114775500D01*
X156565766Y-114775500D01*
X156712135Y-114736281D01*
X156843365Y-114660515D01*
X156950515Y-114553365D01*
X157026281Y-114422135D01*
X157026281Y-114422134D01*
X157028207Y-114418799D01*
X157078774Y-114370583D01*
X157147381Y-114357361D01*
X157212246Y-114383329D01*
X157250155Y-114433346D01*
X157299223Y-114551808D01*
X157299228Y-114551817D01*
X157375885Y-114666541D01*
X157375888Y-114666545D01*
X157473454Y-114764111D01*
X157473458Y-114764114D01*
X157588182Y-114840771D01*
X157588195Y-114840778D01*
X157715667Y-114893578D01*
X157715672Y-114893580D01*
X157715676Y-114893580D01*
X157715677Y-114893581D01*
X157851004Y-114920500D01*
X157851007Y-114920500D01*
X157988995Y-114920500D01*
X158080041Y-114902389D01*
X158124328Y-114893580D01*
X158251811Y-114840775D01*
X158366542Y-114764114D01*
X158464114Y-114666542D01*
X158540775Y-114551811D01*
X158593580Y-114424328D01*
X158614632Y-114318495D01*
X158620500Y-114288995D01*
X158620500Y-113934108D01*
X165499500Y-113934108D01*
X165499500Y-114065891D01*
X165533608Y-114193187D01*
X165555896Y-114231790D01*
X165599500Y-114307314D01*
X165692686Y-114400500D01*
X165806814Y-114466392D01*
X165934108Y-114500500D01*
X165934110Y-114500500D01*
X166065890Y-114500500D01*
X166065892Y-114500500D01*
X166193186Y-114466392D01*
X166307314Y-114400500D01*
X166400500Y-114307314D01*
X166466392Y-114193186D01*
X166500500Y-114065892D01*
X166500500Y-113934108D01*
X166466392Y-113806814D01*
X166400500Y-113692686D01*
X166307314Y-113599500D01*
X166250250Y-113566554D01*
X166193187Y-113533608D01*
X166129539Y-113516554D01*
X166065892Y-113499500D01*
X165934108Y-113499500D01*
X165806812Y-113533608D01*
X165692686Y-113599500D01*
X165692683Y-113599502D01*
X165599502Y-113692683D01*
X165599500Y-113692686D01*
X165533608Y-113806812D01*
X165499500Y-113934108D01*
X158620500Y-113934108D01*
X158620500Y-113051004D01*
X158593581Y-112915677D01*
X158593580Y-112915676D01*
X158593580Y-112915672D01*
X158553947Y-112819989D01*
X158540778Y-112788195D01*
X158540771Y-112788182D01*
X158464114Y-112673458D01*
X158464111Y-112673454D01*
X158366545Y-112575888D01*
X158366541Y-112575885D01*
X158251817Y-112499228D01*
X158251804Y-112499221D01*
X158124332Y-112446421D01*
X158124322Y-112446418D01*
X157988995Y-112419500D01*
X157988993Y-112419500D01*
X157851007Y-112419500D01*
X157851005Y-112419500D01*
X157715677Y-112446418D01*
X157715667Y-112446421D01*
X157588195Y-112499221D01*
X157588182Y-112499228D01*
X157473458Y-112575885D01*
X157473454Y-112575888D01*
X157375888Y-112673454D01*
X157375885Y-112673458D01*
X157299228Y-112788182D01*
X157299221Y-112788195D01*
X157246421Y-112915667D01*
X157246418Y-112915677D01*
X157219500Y-113051004D01*
X157219500Y-113849755D01*
X157199815Y-113916794D01*
X157147011Y-113962549D01*
X157077853Y-113972493D01*
X157014297Y-113943468D01*
X156988113Y-113911756D01*
X156981529Y-113900353D01*
X156950515Y-113846635D01*
X156843365Y-113739485D01*
X156762302Y-113692683D01*
X156712136Y-113663719D01*
X156638950Y-113644109D01*
X156565766Y-113624500D01*
X156414234Y-113624500D01*
X156267863Y-113663719D01*
X156136635Y-113739485D01*
X156136632Y-113739487D01*
X156029487Y-113846632D01*
X156029485Y-113846635D01*
X155953719Y-113977863D01*
X155926605Y-114079056D01*
X155914500Y-114124234D01*
X151285500Y-114124234D01*
X151246281Y-113977865D01*
X151243179Y-113972493D01*
X151211021Y-113916794D01*
X151170515Y-113846635D01*
X151063365Y-113739485D01*
X150982302Y-113692683D01*
X150932136Y-113663719D01*
X150858950Y-113644109D01*
X150785766Y-113624500D01*
X150634234Y-113624500D01*
X150487863Y-113663719D01*
X150356635Y-113739485D01*
X150356632Y-113739487D01*
X150249486Y-113846633D01*
X150249482Y-113846638D01*
X150242923Y-113858000D01*
X150192356Y-113906216D01*
X150135536Y-113920000D01*
X149579999Y-113920000D01*
X149579999Y-113420000D01*
X150280000Y-113420000D01*
X150280000Y-113021508D01*
X150279999Y-113021504D01*
X150241572Y-112828318D01*
X150241569Y-112828306D01*
X150166192Y-112646328D01*
X150166185Y-112646315D01*
X150056751Y-112482537D01*
X150056748Y-112482533D01*
X149917466Y-112343251D01*
X149917462Y-112343248D01*
X149753684Y-112233814D01*
X149753671Y-112233807D01*
X149571691Y-112158429D01*
X149571683Y-112158427D01*
X149530000Y-112150135D01*
X149530000Y-112953002D01*
X149520059Y-112935784D01*
X149464204Y-112879929D01*
X149395795Y-112840433D01*
X149319496Y-112819989D01*
X149240504Y-112819989D01*
X149164205Y-112840433D01*
X149095796Y-112879929D01*
X149039941Y-112935784D01*
X149030000Y-112953002D01*
X149030000Y-112150136D01*
X149029999Y-112150135D01*
X148988316Y-112158427D01*
X148988308Y-112158429D01*
X148806328Y-112233807D01*
X148806315Y-112233814D01*
X148642537Y-112343248D01*
X148642533Y-112343251D01*
X148503251Y-112482533D01*
X148503248Y-112482537D01*
X148393814Y-112646315D01*
X148393807Y-112646328D01*
X148318430Y-112828306D01*
X148318427Y-112828318D01*
X148280000Y-113021504D01*
X136900500Y-113021504D01*
X136900500Y-111834108D01*
X164399500Y-111834108D01*
X164399500Y-111965891D01*
X164433608Y-112093187D01*
X164466488Y-112150135D01*
X164499500Y-112207314D01*
X164592686Y-112300500D01*
X164706814Y-112366392D01*
X164834108Y-112400500D01*
X164834110Y-112400500D01*
X164965890Y-112400500D01*
X164965892Y-112400500D01*
X165093186Y-112366392D01*
X165207314Y-112300500D01*
X165300500Y-112207314D01*
X165366392Y-112093186D01*
X165400500Y-111965892D01*
X165400500Y-111834108D01*
X165366392Y-111706814D01*
X165300500Y-111592686D01*
X165207314Y-111499500D01*
X165133124Y-111456666D01*
X165093187Y-111433608D01*
X165029539Y-111416554D01*
X164965892Y-111399500D01*
X164834108Y-111399500D01*
X164706812Y-111433608D01*
X164592686Y-111499500D01*
X164592683Y-111499502D01*
X164499502Y-111592683D01*
X164499500Y-111592686D01*
X164433608Y-111706812D01*
X164399500Y-111834108D01*
X136900500Y-111834108D01*
X136900500Y-109934108D01*
X144499500Y-109934108D01*
X144499500Y-110065891D01*
X144533608Y-110193187D01*
X144555896Y-110231790D01*
X144599500Y-110307314D01*
X144692686Y-110400500D01*
X144806814Y-110466392D01*
X144934108Y-110500500D01*
X144934110Y-110500500D01*
X145065890Y-110500500D01*
X145065892Y-110500500D01*
X145193186Y-110466392D01*
X145307314Y-110400500D01*
X145400500Y-110307314D01*
X145466392Y-110193186D01*
X145500500Y-110065892D01*
X145500500Y-109934108D01*
X145466392Y-109806814D01*
X145400500Y-109692686D01*
X145307314Y-109599500D01*
X145250250Y-109566554D01*
X145193187Y-109533608D01*
X145129539Y-109516554D01*
X145065892Y-109499500D01*
X144934108Y-109499500D01*
X144806812Y-109533608D01*
X144692686Y-109599500D01*
X144692683Y-109599502D01*
X144599502Y-109692683D01*
X144599500Y-109692686D01*
X144533608Y-109806812D01*
X144499500Y-109934108D01*
X136900500Y-109934108D01*
X136900500Y-107534108D01*
X144499500Y-107534108D01*
X144499500Y-107665891D01*
X144533608Y-107793187D01*
X144537253Y-107799500D01*
X144599500Y-107907314D01*
X144692686Y-108000500D01*
X144806814Y-108066392D01*
X144813853Y-108070456D01*
X144812378Y-108073009D01*
X144855770Y-108107971D01*
X144877840Y-108174264D01*
X144860565Y-108241965D01*
X144815920Y-108286085D01*
X144792692Y-108299496D01*
X144792683Y-108299502D01*
X144699502Y-108392683D01*
X144699500Y-108392686D01*
X144633608Y-108506812D01*
X144611940Y-108587681D01*
X144599500Y-108634108D01*
X144599500Y-108765892D01*
X144600123Y-108768216D01*
X144633608Y-108893187D01*
X144666554Y-108950250D01*
X144699500Y-109007314D01*
X144792686Y-109100500D01*
X144906814Y-109166392D01*
X145034108Y-109200500D01*
X145034110Y-109200500D01*
X145165890Y-109200500D01*
X145165892Y-109200500D01*
X145293186Y-109166392D01*
X145407314Y-109100500D01*
X145500500Y-109007314D01*
X145566392Y-108893186D01*
X145600500Y-108765892D01*
X145600500Y-108634108D01*
X145566392Y-108506814D01*
X145565898Y-108505959D01*
X145537439Y-108456666D01*
X145500500Y-108392686D01*
X145407314Y-108299500D01*
X145294052Y-108234108D01*
X174599500Y-108234108D01*
X174599500Y-108365892D01*
X174609559Y-108403432D01*
X174633608Y-108493187D01*
X174641475Y-108506812D01*
X174699500Y-108607314D01*
X174792686Y-108700500D01*
X174891521Y-108757563D01*
X174905944Y-108765890D01*
X174906814Y-108766392D01*
X175034108Y-108800500D01*
X175034110Y-108800500D01*
X175165890Y-108800500D01*
X175165892Y-108800500D01*
X175293186Y-108766392D01*
X175407314Y-108700500D01*
X175500500Y-108607314D01*
X175566392Y-108493186D01*
X175600500Y-108365892D01*
X175600500Y-108234108D01*
X175566392Y-108106814D01*
X175500500Y-107992686D01*
X175428757Y-107920943D01*
X179799500Y-107920943D01*
X179799500Y-108079057D01*
X179826910Y-108181350D01*
X179840423Y-108231783D01*
X179840426Y-108231790D01*
X179919475Y-108368709D01*
X179919481Y-108368717D01*
X179963083Y-108412319D01*
X179996568Y-108473642D01*
X179991584Y-108543334D01*
X179963083Y-108587681D01*
X179919481Y-108631282D01*
X179919475Y-108631290D01*
X179840426Y-108768209D01*
X179840423Y-108768216D01*
X179799500Y-108920943D01*
X179799500Y-109079057D01*
X179832041Y-109200500D01*
X179840423Y-109231783D01*
X179840426Y-109231790D01*
X179919475Y-109368709D01*
X179919481Y-109368717D01*
X179963083Y-109412319D01*
X179996568Y-109473642D01*
X179991584Y-109543334D01*
X179963083Y-109587681D01*
X179919481Y-109631282D01*
X179919475Y-109631290D01*
X179840426Y-109768209D01*
X179840423Y-109768216D01*
X179799500Y-109920943D01*
X179799500Y-110079056D01*
X179840423Y-110231783D01*
X179840426Y-110231790D01*
X179919475Y-110368709D01*
X179919481Y-110368717D01*
X179963083Y-110412319D01*
X179996568Y-110473642D01*
X179991584Y-110543334D01*
X179963083Y-110587681D01*
X179919481Y-110631282D01*
X179919475Y-110631290D01*
X179840426Y-110768209D01*
X179840423Y-110768216D01*
X179799500Y-110920943D01*
X179799500Y-111079056D01*
X179840423Y-111231783D01*
X179840426Y-111231790D01*
X179919475Y-111368709D01*
X179919481Y-111368717D01*
X179963083Y-111412319D01*
X179996568Y-111473642D01*
X179991584Y-111543334D01*
X179963083Y-111587681D01*
X179919481Y-111631282D01*
X179919475Y-111631290D01*
X179840426Y-111768209D01*
X179840423Y-111768216D01*
X179799500Y-111920943D01*
X179799500Y-112079057D01*
X179833867Y-112207314D01*
X179840423Y-112231783D01*
X179840426Y-112231790D01*
X179919475Y-112368709D01*
X179919481Y-112368717D01*
X179963083Y-112412319D01*
X179996568Y-112473642D01*
X179991584Y-112543334D01*
X179963083Y-112587681D01*
X179919481Y-112631282D01*
X179919475Y-112631290D01*
X179840426Y-112768209D01*
X179840423Y-112768216D01*
X179799500Y-112920943D01*
X179799500Y-113079056D01*
X179840423Y-113231783D01*
X179840426Y-113231790D01*
X179919475Y-113368709D01*
X179919481Y-113368717D01*
X179963083Y-113412319D01*
X179996568Y-113473642D01*
X179991584Y-113543334D01*
X179963083Y-113587681D01*
X179919481Y-113631282D01*
X179919475Y-113631290D01*
X179840426Y-113768209D01*
X179840423Y-113768216D01*
X179799500Y-113920943D01*
X179799500Y-114079056D01*
X179840423Y-114231783D01*
X179840426Y-114231790D01*
X179919475Y-114368709D01*
X179919481Y-114368717D01*
X179963083Y-114412319D01*
X179996568Y-114473642D01*
X179991584Y-114543334D01*
X179963083Y-114587681D01*
X179919481Y-114631282D01*
X179919475Y-114631290D01*
X179840426Y-114768209D01*
X179840423Y-114768216D01*
X179799500Y-114920943D01*
X179799500Y-115079057D01*
X179826764Y-115180805D01*
X179840423Y-115231783D01*
X179840426Y-115231790D01*
X179919475Y-115368709D01*
X179919481Y-115368717D01*
X179963083Y-115412319D01*
X179996568Y-115473642D01*
X179991584Y-115543334D01*
X179963083Y-115587681D01*
X179919481Y-115631282D01*
X179919475Y-115631290D01*
X179840426Y-115768209D01*
X179840423Y-115768216D01*
X179799500Y-115920943D01*
X179799500Y-116079056D01*
X179840423Y-116231783D01*
X179840426Y-116231790D01*
X179919475Y-116368709D01*
X179919481Y-116368717D01*
X179963083Y-116412319D01*
X179996568Y-116473642D01*
X179991584Y-116543334D01*
X179963083Y-116587681D01*
X179919481Y-116631282D01*
X179919475Y-116631290D01*
X179840426Y-116768209D01*
X179840423Y-116768216D01*
X179799500Y-116920943D01*
X179799500Y-117079057D01*
X179822410Y-117164556D01*
X179840423Y-117231783D01*
X179840426Y-117231790D01*
X179919475Y-117368709D01*
X179919481Y-117368717D01*
X179963083Y-117412319D01*
X179996568Y-117473642D01*
X179991584Y-117543334D01*
X179963083Y-117587681D01*
X179919481Y-117631282D01*
X179919475Y-117631290D01*
X179840426Y-117768209D01*
X179840423Y-117768216D01*
X179799500Y-117920943D01*
X179799500Y-118079056D01*
X179840423Y-118231783D01*
X179840426Y-118231790D01*
X179919475Y-118368709D01*
X179919479Y-118368714D01*
X179919480Y-118368716D01*
X180031284Y-118480520D01*
X180031286Y-118480521D01*
X180031290Y-118480524D01*
X180168209Y-118559573D01*
X180168216Y-118559577D01*
X180320943Y-118600500D01*
X180320945Y-118600500D01*
X180479055Y-118600500D01*
X180479057Y-118600500D01*
X180631784Y-118559577D01*
X180768716Y-118480520D01*
X180812319Y-118436917D01*
X180873642Y-118403432D01*
X180943334Y-118408416D01*
X180987681Y-118436917D01*
X181031284Y-118480520D01*
X181031286Y-118480521D01*
X181031290Y-118480524D01*
X181168209Y-118559573D01*
X181168216Y-118559577D01*
X181320943Y-118600500D01*
X181320945Y-118600500D01*
X181479055Y-118600500D01*
X181479057Y-118600500D01*
X181631784Y-118559577D01*
X181768716Y-118480520D01*
X181812319Y-118436917D01*
X181873642Y-118403432D01*
X181943334Y-118408416D01*
X181987681Y-118436917D01*
X182031284Y-118480520D01*
X182031286Y-118480521D01*
X182031290Y-118480524D01*
X182168209Y-118559573D01*
X182168216Y-118559577D01*
X182320943Y-118600500D01*
X182320945Y-118600500D01*
X182479055Y-118600500D01*
X182479057Y-118600500D01*
X182631784Y-118559577D01*
X182768716Y-118480520D01*
X182812319Y-118436917D01*
X182873642Y-118403432D01*
X182943334Y-118408416D01*
X182987681Y-118436917D01*
X183031284Y-118480520D01*
X183031286Y-118480521D01*
X183031290Y-118480524D01*
X183168209Y-118559573D01*
X183168216Y-118559577D01*
X183320943Y-118600500D01*
X183320945Y-118600500D01*
X183479055Y-118600500D01*
X183479057Y-118600500D01*
X183631784Y-118559577D01*
X183768716Y-118480520D01*
X183812319Y-118436917D01*
X183873642Y-118403432D01*
X183943334Y-118408416D01*
X183987681Y-118436917D01*
X184031284Y-118480520D01*
X184031286Y-118480521D01*
X184031290Y-118480524D01*
X184168209Y-118559573D01*
X184168216Y-118559577D01*
X184320943Y-118600500D01*
X184320945Y-118600500D01*
X184479055Y-118600500D01*
X184479057Y-118600500D01*
X184631784Y-118559577D01*
X184768716Y-118480520D01*
X184812319Y-118436917D01*
X184873642Y-118403432D01*
X184943334Y-118408416D01*
X184987681Y-118436917D01*
X185031284Y-118480520D01*
X185031286Y-118480521D01*
X185031290Y-118480524D01*
X185168209Y-118559573D01*
X185168216Y-118559577D01*
X185320943Y-118600500D01*
X185320945Y-118600500D01*
X185479055Y-118600500D01*
X185479057Y-118600500D01*
X185631784Y-118559577D01*
X185768716Y-118480520D01*
X185812319Y-118436917D01*
X185873642Y-118403432D01*
X185943334Y-118408416D01*
X185987681Y-118436917D01*
X186031284Y-118480520D01*
X186031286Y-118480521D01*
X186031290Y-118480524D01*
X186168209Y-118559573D01*
X186168216Y-118559577D01*
X186320943Y-118600500D01*
X186320945Y-118600500D01*
X186479055Y-118600500D01*
X186479057Y-118600500D01*
X186631784Y-118559577D01*
X186768716Y-118480520D01*
X186812319Y-118436917D01*
X186873642Y-118403432D01*
X186943334Y-118408416D01*
X186987681Y-118436917D01*
X187031284Y-118480520D01*
X187031286Y-118480521D01*
X187031290Y-118480524D01*
X187168209Y-118559573D01*
X187168216Y-118559577D01*
X187320943Y-118600500D01*
X187320945Y-118600500D01*
X187479055Y-118600500D01*
X187479057Y-118600500D01*
X187631784Y-118559577D01*
X187768716Y-118480520D01*
X187812319Y-118436917D01*
X187873642Y-118403432D01*
X187943334Y-118408416D01*
X187987681Y-118436917D01*
X188031284Y-118480520D01*
X188031286Y-118480521D01*
X188031290Y-118480524D01*
X188168209Y-118559573D01*
X188168216Y-118559577D01*
X188320943Y-118600500D01*
X188320945Y-118600500D01*
X188479055Y-118600500D01*
X188479057Y-118600500D01*
X188631784Y-118559577D01*
X188768716Y-118480520D01*
X188812319Y-118436917D01*
X188873642Y-118403432D01*
X188943334Y-118408416D01*
X188987681Y-118436917D01*
X189031284Y-118480520D01*
X189031286Y-118480521D01*
X189031290Y-118480524D01*
X189168209Y-118559573D01*
X189168216Y-118559577D01*
X189320943Y-118600500D01*
X189320945Y-118600500D01*
X189479055Y-118600500D01*
X189479057Y-118600500D01*
X189631784Y-118559577D01*
X189768716Y-118480520D01*
X189812319Y-118436917D01*
X189873642Y-118403432D01*
X189943334Y-118408416D01*
X189987681Y-118436917D01*
X190031284Y-118480520D01*
X190031286Y-118480521D01*
X190031290Y-118480524D01*
X190168209Y-118559573D01*
X190168216Y-118559577D01*
X190320943Y-118600500D01*
X190320945Y-118600500D01*
X190479055Y-118600500D01*
X190479057Y-118600500D01*
X190631784Y-118559577D01*
X190768716Y-118480520D01*
X190880520Y-118368716D01*
X190959577Y-118231784D01*
X191000500Y-118079057D01*
X191000500Y-117920943D01*
X190959577Y-117768216D01*
X190900000Y-117665024D01*
X190880524Y-117631290D01*
X190880518Y-117631282D01*
X190836917Y-117587681D01*
X190834727Y-117583671D01*
X190830884Y-117581201D01*
X190818137Y-117553288D01*
X190803432Y-117526358D01*
X190803757Y-117521800D01*
X190801860Y-117517645D01*
X190806227Y-117487272D01*
X190808416Y-117456666D01*
X190811335Y-117451745D01*
X190811804Y-117448487D01*
X190821875Y-117433981D01*
X190825706Y-117427525D01*
X192949500Y-117427525D01*
X192949500Y-117572475D01*
X192965260Y-117631290D01*
X192987017Y-117712488D01*
X193059488Y-117838011D01*
X193059490Y-117838013D01*
X193059491Y-117838015D01*
X193161985Y-117940509D01*
X193161986Y-117940510D01*
X193161988Y-117940511D01*
X193287511Y-118012982D01*
X193287512Y-118012982D01*
X193287515Y-118012984D01*
X193427525Y-118050500D01*
X193427528Y-118050500D01*
X193572472Y-118050500D01*
X193572475Y-118050500D01*
X193712485Y-118012984D01*
X193838015Y-117940509D01*
X193940509Y-117838015D01*
X194012984Y-117712485D01*
X194050500Y-117572475D01*
X194050500Y-117427525D01*
X194012984Y-117287515D01*
X193941993Y-117164556D01*
X193940511Y-117161988D01*
X193940506Y-117161982D01*
X193838017Y-117059493D01*
X193838011Y-117059488D01*
X193712488Y-116987017D01*
X193712489Y-116987017D01*
X193701006Y-116983940D01*
X193572475Y-116949500D01*
X193427525Y-116949500D01*
X193298993Y-116983940D01*
X193287511Y-116987017D01*
X193161988Y-117059488D01*
X193161982Y-117059493D01*
X193059493Y-117161982D01*
X193059488Y-117161988D01*
X192987017Y-117287511D01*
X192987016Y-117287515D01*
X192949500Y-117427525D01*
X190825706Y-117427525D01*
X190830886Y-117418796D01*
X190833781Y-117415454D01*
X190880520Y-117368716D01*
X190959577Y-117231784D01*
X191000500Y-117079057D01*
X191000500Y-116920943D01*
X190959577Y-116768216D01*
X190959573Y-116768209D01*
X190880524Y-116631290D01*
X190880518Y-116631282D01*
X190836917Y-116587681D01*
X190803432Y-116526358D01*
X190808416Y-116456666D01*
X190836917Y-116412319D01*
X190857079Y-116392157D01*
X190880520Y-116368716D01*
X190959577Y-116231784D01*
X191000500Y-116079057D01*
X191000500Y-115920943D01*
X190959577Y-115768216D01*
X190915479Y-115691835D01*
X190880524Y-115631290D01*
X190880518Y-115631282D01*
X190836917Y-115587681D01*
X190803432Y-115526358D01*
X190808416Y-115456666D01*
X190836917Y-115412319D01*
X190880520Y-115368716D01*
X190959577Y-115231784D01*
X191000500Y-115079057D01*
X191000500Y-114920943D01*
X190959577Y-114768216D01*
X190956112Y-114762214D01*
X190880524Y-114631290D01*
X190880518Y-114631282D01*
X190836917Y-114587681D01*
X190803432Y-114526358D01*
X190808416Y-114456666D01*
X190836917Y-114412319D01*
X190849736Y-114399500D01*
X190880520Y-114368716D01*
X190959577Y-114231784D01*
X191000500Y-114079057D01*
X191000500Y-113920943D01*
X190959577Y-113768216D01*
X190959573Y-113768209D01*
X190880524Y-113631290D01*
X190880518Y-113631282D01*
X190836917Y-113587681D01*
X190803432Y-113526358D01*
X190808416Y-113456666D01*
X190836917Y-113412319D01*
X190880520Y-113368716D01*
X190959577Y-113231784D01*
X191000500Y-113079057D01*
X191000500Y-112920943D01*
X190959577Y-112768216D01*
X190889206Y-112646328D01*
X190880524Y-112631290D01*
X190880518Y-112631282D01*
X190836917Y-112587681D01*
X190803432Y-112526358D01*
X190808416Y-112456666D01*
X190836917Y-112412319D01*
X190848737Y-112400499D01*
X190880520Y-112368716D01*
X190959577Y-112231784D01*
X191000500Y-112079057D01*
X191000500Y-111920943D01*
X190959577Y-111768216D01*
X190924126Y-111706812D01*
X190880524Y-111631290D01*
X190880518Y-111631282D01*
X190836917Y-111587681D01*
X190803432Y-111526358D01*
X190808416Y-111456666D01*
X190836917Y-111412319D01*
X190849736Y-111399500D01*
X190880520Y-111368716D01*
X190959577Y-111231784D01*
X191000500Y-111079057D01*
X191000500Y-110920943D01*
X190959577Y-110768216D01*
X190959573Y-110768209D01*
X190880524Y-110631290D01*
X190880518Y-110631282D01*
X190836917Y-110587681D01*
X190803432Y-110526358D01*
X190808416Y-110456666D01*
X190836917Y-110412319D01*
X190848739Y-110400497D01*
X190880520Y-110368716D01*
X190959577Y-110231784D01*
X191000500Y-110079057D01*
X191000500Y-109920943D01*
X190959577Y-109768216D01*
X190915970Y-109692686D01*
X190880524Y-109631290D01*
X190880518Y-109631282D01*
X190836917Y-109587681D01*
X190803432Y-109526358D01*
X190808416Y-109456666D01*
X190836917Y-109412319D01*
X190880520Y-109368716D01*
X190959577Y-109231784D01*
X191000500Y-109079057D01*
X191000500Y-108920943D01*
X190959577Y-108768216D01*
X190905959Y-108675346D01*
X190880524Y-108631290D01*
X190880518Y-108631282D01*
X190836917Y-108587681D01*
X190803432Y-108526358D01*
X190808416Y-108456666D01*
X190836917Y-108412319D01*
X190856553Y-108392683D01*
X190880520Y-108368716D01*
X190959577Y-108231784D01*
X191000500Y-108079057D01*
X191000500Y-107920943D01*
X190959577Y-107768216D01*
X190900501Y-107665892D01*
X190880524Y-107631290D01*
X190880518Y-107631282D01*
X190768717Y-107519481D01*
X190768709Y-107519475D01*
X190631790Y-107440426D01*
X190631786Y-107440424D01*
X190631784Y-107440423D01*
X190479057Y-107399500D01*
X190320943Y-107399500D01*
X190168216Y-107440423D01*
X190168209Y-107440426D01*
X190031290Y-107519475D01*
X190031282Y-107519481D01*
X189987681Y-107563083D01*
X189926358Y-107596568D01*
X189856666Y-107591584D01*
X189812319Y-107563083D01*
X189768717Y-107519481D01*
X189768709Y-107519475D01*
X189631790Y-107440426D01*
X189631786Y-107440424D01*
X189631784Y-107440423D01*
X189479057Y-107399500D01*
X189320943Y-107399500D01*
X189168216Y-107440423D01*
X189168209Y-107440426D01*
X189031290Y-107519475D01*
X189031282Y-107519481D01*
X188987681Y-107563083D01*
X188926358Y-107596568D01*
X188856666Y-107591584D01*
X188812319Y-107563083D01*
X188768717Y-107519481D01*
X188768709Y-107519475D01*
X188631790Y-107440426D01*
X188631786Y-107440424D01*
X188631784Y-107440423D01*
X188479057Y-107399500D01*
X188320943Y-107399500D01*
X188168216Y-107440423D01*
X188168209Y-107440426D01*
X188031290Y-107519475D01*
X188031282Y-107519481D01*
X187987681Y-107563083D01*
X187926358Y-107596568D01*
X187856666Y-107591584D01*
X187812319Y-107563083D01*
X187768717Y-107519481D01*
X187768709Y-107519475D01*
X187631790Y-107440426D01*
X187631786Y-107440424D01*
X187631784Y-107440423D01*
X187479057Y-107399500D01*
X187320943Y-107399500D01*
X187168216Y-107440423D01*
X187168209Y-107440426D01*
X187031290Y-107519475D01*
X187031282Y-107519481D01*
X186987681Y-107563083D01*
X186926358Y-107596568D01*
X186856666Y-107591584D01*
X186812319Y-107563083D01*
X186768717Y-107519481D01*
X186768709Y-107519475D01*
X186631790Y-107440426D01*
X186631786Y-107440424D01*
X186631784Y-107440423D01*
X186479057Y-107399500D01*
X186320943Y-107399500D01*
X186168216Y-107440423D01*
X186168209Y-107440426D01*
X186031290Y-107519475D01*
X186031282Y-107519481D01*
X185987681Y-107563083D01*
X185926358Y-107596568D01*
X185856666Y-107591584D01*
X185812319Y-107563083D01*
X185768717Y-107519481D01*
X185768709Y-107519475D01*
X185631790Y-107440426D01*
X185631786Y-107440424D01*
X185631784Y-107440423D01*
X185479057Y-107399500D01*
X185320943Y-107399500D01*
X185168216Y-107440423D01*
X185168209Y-107440426D01*
X185031290Y-107519475D01*
X185031282Y-107519481D01*
X184987681Y-107563083D01*
X184926358Y-107596568D01*
X184856666Y-107591584D01*
X184812319Y-107563083D01*
X184768717Y-107519481D01*
X184768709Y-107519475D01*
X184631790Y-107440426D01*
X184631786Y-107440424D01*
X184631784Y-107440423D01*
X184479057Y-107399500D01*
X184320943Y-107399500D01*
X184168216Y-107440423D01*
X184168209Y-107440426D01*
X184031290Y-107519475D01*
X184031282Y-107519481D01*
X183987681Y-107563083D01*
X183926358Y-107596568D01*
X183856666Y-107591584D01*
X183812319Y-107563083D01*
X183768717Y-107519481D01*
X183768709Y-107519475D01*
X183631790Y-107440426D01*
X183631786Y-107440424D01*
X183631784Y-107440423D01*
X183479057Y-107399500D01*
X183320943Y-107399500D01*
X183168216Y-107440423D01*
X183168209Y-107440426D01*
X183031290Y-107519475D01*
X183031282Y-107519481D01*
X182987681Y-107563083D01*
X182926358Y-107596568D01*
X182856666Y-107591584D01*
X182812319Y-107563083D01*
X182768717Y-107519481D01*
X182768709Y-107519475D01*
X182631790Y-107440426D01*
X182631786Y-107440424D01*
X182631784Y-107440423D01*
X182479057Y-107399500D01*
X182320943Y-107399500D01*
X182168216Y-107440423D01*
X182168209Y-107440426D01*
X182031290Y-107519475D01*
X182031282Y-107519481D01*
X181987681Y-107563083D01*
X181926358Y-107596568D01*
X181856666Y-107591584D01*
X181812319Y-107563083D01*
X181768717Y-107519481D01*
X181768709Y-107519475D01*
X181631790Y-107440426D01*
X181631786Y-107440424D01*
X181631784Y-107440423D01*
X181479057Y-107399500D01*
X181320943Y-107399500D01*
X181168216Y-107440423D01*
X181168209Y-107440426D01*
X181031290Y-107519475D01*
X181031282Y-107519481D01*
X180987681Y-107563083D01*
X180926358Y-107596568D01*
X180856666Y-107591584D01*
X180812319Y-107563083D01*
X180768717Y-107519481D01*
X180768709Y-107519475D01*
X180631790Y-107440426D01*
X180631786Y-107440424D01*
X180631784Y-107440423D01*
X180479057Y-107399500D01*
X180320943Y-107399500D01*
X180168216Y-107440423D01*
X180168209Y-107440426D01*
X180031290Y-107519475D01*
X180031282Y-107519481D01*
X179919481Y-107631282D01*
X179919475Y-107631290D01*
X179840426Y-107768209D01*
X179840423Y-107768216D01*
X179799500Y-107920943D01*
X175428757Y-107920943D01*
X175407314Y-107899500D01*
X175350250Y-107866554D01*
X175293187Y-107833608D01*
X175229539Y-107816554D01*
X175165892Y-107799500D01*
X175034108Y-107799500D01*
X174906812Y-107833608D01*
X174792686Y-107899500D01*
X174792683Y-107899502D01*
X174699502Y-107992683D01*
X174699500Y-107992686D01*
X174633608Y-108106812D01*
X174628546Y-108125705D01*
X174599500Y-108234108D01*
X145294052Y-108234108D01*
X145293186Y-108233608D01*
X145290277Y-108232828D01*
X145279096Y-108225651D01*
X145263154Y-108207272D01*
X145244212Y-108192003D01*
X145240668Y-108181350D01*
X145233313Y-108172871D01*
X145229838Y-108148792D01*
X145222158Y-108125705D01*
X145224936Y-108114827D01*
X145223333Y-108103718D01*
X145233427Y-108081581D01*
X145239449Y-108058009D01*
X145248056Y-108049504D01*
X145252324Y-108040147D01*
X145267245Y-108030546D01*
X145284079Y-108013914D01*
X145307314Y-108000500D01*
X145400500Y-107907314D01*
X145466392Y-107793186D01*
X145500500Y-107665892D01*
X145500500Y-107534108D01*
X145466392Y-107406814D01*
X145400500Y-107292686D01*
X145307314Y-107199500D01*
X145250250Y-107166554D01*
X145193187Y-107133608D01*
X145129539Y-107116554D01*
X145065892Y-107099500D01*
X144934108Y-107099500D01*
X144806812Y-107133608D01*
X144692686Y-107199500D01*
X144692683Y-107199502D01*
X144599502Y-107292683D01*
X144599500Y-107292686D01*
X144533608Y-107406812D01*
X144499500Y-107534108D01*
X136900500Y-107534108D01*
X136900500Y-106234108D01*
X143299500Y-106234108D01*
X143299500Y-106365891D01*
X143333608Y-106493187D01*
X143366554Y-106550250D01*
X143399500Y-106607314D01*
X143492686Y-106700500D01*
X143606814Y-106766392D01*
X143734108Y-106800500D01*
X143734110Y-106800500D01*
X143865890Y-106800500D01*
X143865892Y-106800500D01*
X143993186Y-106766392D01*
X144107314Y-106700500D01*
X144200500Y-106607314D01*
X144266392Y-106493186D01*
X144300500Y-106365892D01*
X144300500Y-106234108D01*
X144266392Y-106106814D01*
X144200500Y-105992686D01*
X144107314Y-105899500D01*
X144050250Y-105866554D01*
X143993187Y-105833608D01*
X143929539Y-105816554D01*
X143865892Y-105799500D01*
X143734108Y-105799500D01*
X143606812Y-105833608D01*
X143492686Y-105899500D01*
X143492683Y-105899502D01*
X143399502Y-105992683D01*
X143399500Y-105992686D01*
X143333608Y-106106812D01*
X143299500Y-106234108D01*
X136900500Y-106234108D01*
X136900500Y-104034108D01*
X162499500Y-104034108D01*
X162499500Y-104165891D01*
X162533608Y-104293187D01*
X162541766Y-104307316D01*
X162599500Y-104407314D01*
X162692686Y-104500500D01*
X162806814Y-104566392D01*
X162934108Y-104600500D01*
X162934110Y-104600500D01*
X163065890Y-104600500D01*
X163065892Y-104600500D01*
X163193186Y-104566392D01*
X163307314Y-104500500D01*
X163400500Y-104407314D01*
X163466392Y-104293186D01*
X163500500Y-104165892D01*
X163500500Y-104034108D01*
X163473705Y-103934108D01*
X168099500Y-103934108D01*
X168099500Y-104065891D01*
X168133608Y-104193187D01*
X168166554Y-104250250D01*
X168199500Y-104307314D01*
X168292686Y-104400500D01*
X168406814Y-104466392D01*
X168534108Y-104500500D01*
X168534110Y-104500500D01*
X168665890Y-104500500D01*
X168665892Y-104500500D01*
X168793186Y-104466392D01*
X168907314Y-104400500D01*
X168931764Y-104376050D01*
X199599500Y-104376050D01*
X199599500Y-110023949D01*
X199602317Y-110065497D01*
X199646963Y-110245021D01*
X199729158Y-110410751D01*
X199816557Y-110519480D01*
X199845060Y-110554940D01*
X199989248Y-110670841D01*
X200154980Y-110753037D01*
X200334503Y-110797682D01*
X200334504Y-110797682D01*
X200334507Y-110797683D01*
X200376048Y-110800500D01*
X200376050Y-110800500D01*
X206023950Y-110800500D01*
X206023952Y-110800500D01*
X206065493Y-110797683D01*
X206245020Y-110753037D01*
X206410752Y-110670841D01*
X206554940Y-110554940D01*
X206670841Y-110410752D01*
X206753037Y-110245020D01*
X206797683Y-110065493D01*
X206800500Y-110023952D01*
X206800500Y-104376048D01*
X206797683Y-104334507D01*
X206790920Y-104307314D01*
X206762539Y-104193189D01*
X206753037Y-104154980D01*
X206670841Y-103989248D01*
X206554940Y-103845060D01*
X206410752Y-103729159D01*
X206410751Y-103729158D01*
X206245021Y-103646963D01*
X206065495Y-103602317D01*
X206065499Y-103602317D01*
X206034337Y-103600204D01*
X206023952Y-103599500D01*
X200376048Y-103599500D01*
X200364179Y-103600304D01*
X200334502Y-103602317D01*
X200154978Y-103646963D01*
X199989248Y-103729158D01*
X199845060Y-103845059D01*
X199845059Y-103845060D01*
X199729158Y-103989248D01*
X199646963Y-104154978D01*
X199602317Y-104334502D01*
X199599500Y-104376050D01*
X168931764Y-104376050D01*
X169000500Y-104307314D01*
X169066392Y-104193186D01*
X169100500Y-104065892D01*
X169100500Y-103934108D01*
X169066392Y-103806814D01*
X169000500Y-103692686D01*
X168907314Y-103599500D01*
X168850250Y-103566554D01*
X168793187Y-103533608D01*
X168729539Y-103516554D01*
X168665892Y-103499500D01*
X168534108Y-103499500D01*
X168406812Y-103533608D01*
X168292686Y-103599500D01*
X168292683Y-103599502D01*
X168199502Y-103692683D01*
X168199500Y-103692686D01*
X168133608Y-103806812D01*
X168099500Y-103934108D01*
X163473705Y-103934108D01*
X163466392Y-103906814D01*
X163400500Y-103792686D01*
X163307314Y-103699500D01*
X163250250Y-103666554D01*
X163193187Y-103633608D01*
X163129539Y-103616554D01*
X163065892Y-103599500D01*
X162934108Y-103599500D01*
X162806812Y-103633608D01*
X162692686Y-103699500D01*
X162692683Y-103699502D01*
X162599502Y-103792683D01*
X162599500Y-103792686D01*
X162533608Y-103906812D01*
X162499500Y-104034108D01*
X136900500Y-104034108D01*
X136900500Y-97787205D01*
X145799500Y-97787205D01*
X145799500Y-97918989D01*
X145811027Y-97962010D01*
X145833608Y-98046284D01*
X145845217Y-98066391D01*
X145899500Y-98160411D01*
X145992686Y-98253597D01*
X146106814Y-98319489D01*
X146234108Y-98353597D01*
X146234110Y-98353597D01*
X146365890Y-98353597D01*
X146365892Y-98353597D01*
X146493186Y-98319489D01*
X146607314Y-98253597D01*
X146686244Y-98174667D01*
X146747567Y-98141182D01*
X146817259Y-98146166D01*
X146861606Y-98174667D01*
X146869074Y-98182135D01*
X146983202Y-98248027D01*
X147110496Y-98282135D01*
X147110498Y-98282135D01*
X147242278Y-98282135D01*
X147242280Y-98282135D01*
X147369574Y-98248027D01*
X147483702Y-98182135D01*
X147491330Y-98174506D01*
X147552648Y-98141022D01*
X147622340Y-98146004D01*
X147666692Y-98174506D01*
X147692686Y-98200500D01*
X147806814Y-98266392D01*
X147934108Y-98300500D01*
X147934110Y-98300500D01*
X148065890Y-98300500D01*
X148065892Y-98300500D01*
X148193186Y-98266392D01*
X148307314Y-98200500D01*
X148400500Y-98107314D01*
X148466392Y-97993186D01*
X148500500Y-97865892D01*
X148500500Y-97734108D01*
X148473705Y-97634108D01*
X149299500Y-97634108D01*
X149299500Y-97765891D01*
X149333608Y-97893187D01*
X149341766Y-97907316D01*
X149399500Y-98007314D01*
X149492686Y-98100500D01*
X149606814Y-98166392D01*
X149734108Y-98200500D01*
X149734110Y-98200500D01*
X149865890Y-98200500D01*
X149865892Y-98200500D01*
X149993186Y-98166392D01*
X150107314Y-98100500D01*
X150200500Y-98007314D01*
X150200506Y-98007302D01*
X150200817Y-98006899D01*
X150201180Y-98006633D01*
X150206247Y-98001567D01*
X150207036Y-98002356D01*
X150257241Y-97965691D01*
X150326986Y-97961529D01*
X150386881Y-97994695D01*
X150392686Y-98000500D01*
X150506814Y-98066392D01*
X150634108Y-98100500D01*
X150634110Y-98100500D01*
X150765890Y-98100500D01*
X150765892Y-98100500D01*
X150893186Y-98066392D01*
X151007314Y-98000500D01*
X151100500Y-97907314D01*
X151100504Y-97907306D01*
X151101625Y-97905847D01*
X151102892Y-97904921D01*
X151106247Y-97901567D01*
X151106770Y-97902090D01*
X151158053Y-97864645D01*
X151227799Y-97860491D01*
X151288719Y-97894704D01*
X151298375Y-97905847D01*
X151299498Y-97907311D01*
X151299500Y-97907314D01*
X151392686Y-98000500D01*
X151506814Y-98066392D01*
X151634108Y-98100500D01*
X151634110Y-98100500D01*
X151765890Y-98100500D01*
X151765892Y-98100500D01*
X151893186Y-98066392D01*
X152007314Y-98000500D01*
X152012314Y-97995499D01*
X152073632Y-97962010D01*
X152143324Y-97966988D01*
X152187682Y-97995493D01*
X152192689Y-98000500D01*
X152306817Y-98066392D01*
X152434111Y-98100500D01*
X152434113Y-98100500D01*
X152565893Y-98100500D01*
X152565895Y-98100500D01*
X152693189Y-98066392D01*
X152807317Y-98000500D01*
X152900503Y-97907314D01*
X152966395Y-97793186D01*
X153000503Y-97665892D01*
X153000503Y-97534108D01*
X152966395Y-97406814D01*
X152900503Y-97292686D01*
X152807317Y-97199500D01*
X152722447Y-97150500D01*
X152693190Y-97133608D01*
X152612587Y-97112011D01*
X152565895Y-97099500D01*
X152434111Y-97099500D01*
X152306816Y-97133608D01*
X152277559Y-97150500D01*
X152192689Y-97199500D01*
X152192687Y-97199501D01*
X152192685Y-97199503D01*
X152187678Y-97204510D01*
X152126353Y-97237992D01*
X152056662Y-97233005D01*
X152012320Y-97204506D01*
X152007316Y-97199502D01*
X152007314Y-97199500D01*
X151922444Y-97150500D01*
X151893187Y-97133608D01*
X151812584Y-97112011D01*
X151765892Y-97099500D01*
X151634108Y-97099500D01*
X151506812Y-97133608D01*
X151392686Y-97199500D01*
X151392683Y-97199502D01*
X151299498Y-97292687D01*
X151298370Y-97294158D01*
X151297102Y-97295083D01*
X151293753Y-97298433D01*
X151293230Y-97297910D01*
X151241940Y-97335356D01*
X151172193Y-97339506D01*
X151111275Y-97305289D01*
X151101630Y-97294158D01*
X151100501Y-97292687D01*
X151007316Y-97199502D01*
X151007314Y-97199500D01*
X150922444Y-97150500D01*
X150893187Y-97133608D01*
X150812584Y-97112011D01*
X150765892Y-97099500D01*
X150634108Y-97099500D01*
X150506812Y-97133608D01*
X150392686Y-97199500D01*
X150392683Y-97199502D01*
X150299499Y-97292686D01*
X150299170Y-97293116D01*
X150298799Y-97293386D01*
X150293753Y-97298433D01*
X150292965Y-97297645D01*
X150242740Y-97334315D01*
X150172993Y-97338465D01*
X150113118Y-97305304D01*
X150107316Y-97299502D01*
X150107314Y-97299500D01*
X150050250Y-97266554D01*
X149993187Y-97233608D01*
X149929539Y-97216554D01*
X149865892Y-97199500D01*
X149734108Y-97199500D01*
X149606812Y-97233608D01*
X149492686Y-97299500D01*
X149492683Y-97299502D01*
X149399502Y-97392683D01*
X149399500Y-97392686D01*
X149333608Y-97506812D01*
X149299500Y-97634108D01*
X148473705Y-97634108D01*
X148466392Y-97606814D01*
X148400500Y-97492686D01*
X148307314Y-97399500D01*
X148201599Y-97338465D01*
X148193187Y-97333608D01*
X148124646Y-97315243D01*
X148065892Y-97299500D01*
X147934108Y-97299500D01*
X147806812Y-97333608D01*
X147692686Y-97399500D01*
X147692685Y-97399500D01*
X147685054Y-97407132D01*
X147623730Y-97440614D01*
X147554038Y-97435627D01*
X147509695Y-97407128D01*
X147483704Y-97381137D01*
X147483702Y-97381135D01*
X147401383Y-97333608D01*
X147369575Y-97315243D01*
X147283527Y-97292187D01*
X147242280Y-97281135D01*
X147110496Y-97281135D01*
X146983200Y-97315243D01*
X146869074Y-97381135D01*
X146869070Y-97381138D01*
X146790142Y-97460065D01*
X146728819Y-97493550D01*
X146659127Y-97488564D01*
X146614781Y-97460064D01*
X146607316Y-97452599D01*
X146607314Y-97452597D01*
X146550250Y-97419651D01*
X146493187Y-97386705D01*
X146417372Y-97366391D01*
X146365892Y-97352597D01*
X146234108Y-97352597D01*
X146106812Y-97386705D01*
X145992686Y-97452597D01*
X145992683Y-97452599D01*
X145899502Y-97545780D01*
X145899500Y-97545783D01*
X145833608Y-97659909D01*
X145805211Y-97765891D01*
X145799500Y-97787205D01*
X136900500Y-97787205D01*
X136900500Y-94782637D01*
X152650971Y-94782637D01*
X152650971Y-94914420D01*
X152685079Y-95041716D01*
X152702838Y-95072475D01*
X152750971Y-95155843D01*
X152750973Y-95155845D01*
X152805976Y-95210848D01*
X152839461Y-95272171D01*
X152834477Y-95341863D01*
X152805976Y-95386210D01*
X152799502Y-95392683D01*
X152799500Y-95392686D01*
X152733608Y-95506812D01*
X152699500Y-95634108D01*
X152699500Y-95765891D01*
X152733608Y-95893187D01*
X152766554Y-95950250D01*
X152799500Y-96007314D01*
X152892686Y-96100500D01*
X153006814Y-96166392D01*
X153134108Y-96200500D01*
X153134110Y-96200500D01*
X153265890Y-96200500D01*
X153265892Y-96200500D01*
X153393186Y-96166392D01*
X153507314Y-96100500D01*
X153507321Y-96100492D01*
X153513760Y-96095553D01*
X153515405Y-96097697D01*
X153565060Y-96070569D01*
X153634753Y-96075537D01*
X153690696Y-96117396D01*
X153711221Y-96159636D01*
X153733608Y-96243188D01*
X153766554Y-96300251D01*
X153799500Y-96357315D01*
X153892686Y-96450501D01*
X154006814Y-96516393D01*
X154132242Y-96550001D01*
X154191899Y-96586363D01*
X154222429Y-96649210D01*
X154214135Y-96718586D01*
X154187828Y-96757454D01*
X154152600Y-96792682D01*
X154152597Y-96792686D01*
X154086705Y-96906812D01*
X154070875Y-96965892D01*
X154052597Y-97034108D01*
X154052597Y-97165892D01*
X154069111Y-97227525D01*
X154086705Y-97293187D01*
X154110043Y-97333608D01*
X154152597Y-97407314D01*
X154245783Y-97500500D01*
X154359911Y-97566392D01*
X154487205Y-97600500D01*
X154487207Y-97600500D01*
X154618987Y-97600500D01*
X154618989Y-97600500D01*
X154746283Y-97566392D01*
X154860411Y-97500500D01*
X154953597Y-97407314D01*
X155019489Y-97293186D01*
X155053597Y-97165892D01*
X155053597Y-97034108D01*
X155019489Y-96906814D01*
X155019486Y-96906808D01*
X155008617Y-96887982D01*
X155008616Y-96887981D01*
X154977512Y-96834108D01*
X156799500Y-96834108D01*
X156799500Y-96965891D01*
X156833608Y-97093187D01*
X156844477Y-97112012D01*
X156899500Y-97207314D01*
X156992686Y-97300500D01*
X157106814Y-97366392D01*
X157234108Y-97400500D01*
X157234110Y-97400500D01*
X157365890Y-97400500D01*
X157365892Y-97400500D01*
X157493186Y-97366392D01*
X157607314Y-97300500D01*
X157680289Y-97227525D01*
X179649500Y-97227525D01*
X179649500Y-97372475D01*
X179687016Y-97512485D01*
X179687017Y-97512488D01*
X179759488Y-97638011D01*
X179759490Y-97638013D01*
X179759491Y-97638015D01*
X179861985Y-97740509D01*
X179861986Y-97740510D01*
X179861988Y-97740511D01*
X179987511Y-97812982D01*
X179987512Y-97812982D01*
X179987515Y-97812984D01*
X180127525Y-97850500D01*
X180127528Y-97850500D01*
X180272472Y-97850500D01*
X180272475Y-97850500D01*
X180412485Y-97812984D01*
X180538015Y-97740509D01*
X180640509Y-97638015D01*
X180712984Y-97512485D01*
X180750500Y-97372475D01*
X180750500Y-97227525D01*
X180712984Y-97087515D01*
X180685843Y-97040506D01*
X180640511Y-96961988D01*
X180640506Y-96961982D01*
X180538017Y-96859493D01*
X180538011Y-96859488D01*
X180412488Y-96787017D01*
X180412489Y-96787017D01*
X180401006Y-96783940D01*
X180272475Y-96749500D01*
X180127525Y-96749500D01*
X179998993Y-96783940D01*
X179987511Y-96787017D01*
X179861988Y-96859488D01*
X179861982Y-96859493D01*
X179759493Y-96961982D01*
X179759488Y-96961988D01*
X179687017Y-97087511D01*
X179687016Y-97087515D01*
X179649500Y-97227525D01*
X157680289Y-97227525D01*
X157700500Y-97207314D01*
X157766392Y-97093186D01*
X157800500Y-96965892D01*
X157800500Y-96834108D01*
X157766392Y-96706814D01*
X157700500Y-96592686D01*
X157635339Y-96527525D01*
X177149500Y-96527525D01*
X177149500Y-96672475D01*
X177180192Y-96787016D01*
X177187017Y-96812488D01*
X177259488Y-96938011D01*
X177259490Y-96938013D01*
X177259491Y-96938015D01*
X177361985Y-97040509D01*
X177361986Y-97040510D01*
X177361988Y-97040511D01*
X177487511Y-97112982D01*
X177487512Y-97112982D01*
X177487515Y-97112984D01*
X177627525Y-97150500D01*
X177627528Y-97150500D01*
X177772472Y-97150500D01*
X177772475Y-97150500D01*
X177912485Y-97112984D01*
X177914170Y-97112011D01*
X177914171Y-97112011D01*
X177956605Y-97087511D01*
X178038015Y-97040509D01*
X178140509Y-96938015D01*
X178212984Y-96812485D01*
X178250500Y-96672475D01*
X178250500Y-96527525D01*
X178212984Y-96387515D01*
X178195547Y-96357314D01*
X178140511Y-96261988D01*
X178140506Y-96261982D01*
X178038017Y-96159493D01*
X178038011Y-96159488D01*
X177912488Y-96087017D01*
X177912489Y-96087017D01*
X177869645Y-96075537D01*
X177772475Y-96049500D01*
X177627525Y-96049500D01*
X177530355Y-96075537D01*
X177487511Y-96087017D01*
X177361988Y-96159488D01*
X177361982Y-96159493D01*
X177259493Y-96261982D01*
X177259488Y-96261988D01*
X177187017Y-96387511D01*
X177187016Y-96387515D01*
X177149500Y-96527525D01*
X157635339Y-96527525D01*
X157607314Y-96499500D01*
X157550250Y-96466554D01*
X157493187Y-96433608D01*
X157429539Y-96416554D01*
X157365892Y-96399500D01*
X157234108Y-96399500D01*
X157106812Y-96433608D01*
X156992686Y-96499500D01*
X156992683Y-96499502D01*
X156899502Y-96592683D01*
X156899500Y-96592686D01*
X156833608Y-96706812D01*
X156799500Y-96834108D01*
X154977512Y-96834108D01*
X154953597Y-96792686D01*
X154860411Y-96699500D01*
X154803347Y-96666554D01*
X154746284Y-96633608D01*
X154701089Y-96621498D01*
X154620855Y-96600000D01*
X154561196Y-96563636D01*
X154530667Y-96500789D01*
X154538962Y-96431414D01*
X154565267Y-96392547D01*
X154600500Y-96357315D01*
X154666392Y-96243187D01*
X154700500Y-96115893D01*
X154700500Y-95984109D01*
X154666392Y-95856815D01*
X154653282Y-95834108D01*
X174694475Y-95834108D01*
X174694475Y-95965892D01*
X174711529Y-96029539D01*
X174728583Y-96093187D01*
X174761529Y-96150250D01*
X174794475Y-96207314D01*
X174887661Y-96300500D01*
X175001789Y-96366392D01*
X175129083Y-96400500D01*
X175129085Y-96400500D01*
X175260865Y-96400500D01*
X175260867Y-96400500D01*
X175388161Y-96366392D01*
X175502289Y-96300500D01*
X175595475Y-96207314D01*
X175661367Y-96093186D01*
X175695475Y-95965892D01*
X175695475Y-95834108D01*
X175661367Y-95706814D01*
X175595475Y-95592686D01*
X175502289Y-95499500D01*
X175445225Y-95466554D01*
X175388162Y-95433608D01*
X175324514Y-95416554D01*
X175260867Y-95399500D01*
X175129083Y-95399500D01*
X175001787Y-95433608D01*
X174887661Y-95499500D01*
X174887658Y-95499502D01*
X174794477Y-95592683D01*
X174794475Y-95592686D01*
X174728583Y-95706812D01*
X174712753Y-95765892D01*
X174694475Y-95834108D01*
X154653282Y-95834108D01*
X154600500Y-95742687D01*
X154507314Y-95649501D01*
X154450250Y-95616555D01*
X154393187Y-95583609D01*
X154329539Y-95566555D01*
X154265892Y-95549501D01*
X154134108Y-95549501D01*
X154006812Y-95583609D01*
X153892686Y-95649501D01*
X153886240Y-95654448D01*
X153884599Y-95652310D01*
X153834884Y-95679443D01*
X153765193Y-95674443D01*
X153709269Y-95632559D01*
X153688780Y-95590368D01*
X153666392Y-95506814D01*
X153664439Y-95503432D01*
X153657563Y-95491521D01*
X153600500Y-95392686D01*
X153545495Y-95337681D01*
X153512010Y-95276358D01*
X153516994Y-95206666D01*
X153545495Y-95162319D01*
X153551971Y-95155843D01*
X153617863Y-95041715D01*
X153651971Y-94914421D01*
X153651971Y-94782637D01*
X153617863Y-94655343D01*
X153551971Y-94541215D01*
X153458785Y-94448029D01*
X153374731Y-94399500D01*
X153344658Y-94382137D01*
X153281010Y-94365083D01*
X153217363Y-94348029D01*
X153085579Y-94348029D01*
X152958283Y-94382137D01*
X152844157Y-94448029D01*
X152844154Y-94448031D01*
X152750973Y-94541212D01*
X152750971Y-94541215D01*
X152685079Y-94655341D01*
X152650971Y-94782637D01*
X136900500Y-94782637D01*
X136900500Y-92934108D01*
X141699500Y-92934108D01*
X141699500Y-93065891D01*
X141733608Y-93193187D01*
X141752599Y-93226079D01*
X141799500Y-93307314D01*
X141892686Y-93400500D01*
X142006814Y-93466392D01*
X142134108Y-93500500D01*
X142134110Y-93500500D01*
X142265890Y-93500500D01*
X142265892Y-93500500D01*
X142393186Y-93466392D01*
X142507314Y-93400500D01*
X142600500Y-93307314D01*
X142666392Y-93193186D01*
X142700500Y-93065892D01*
X142700500Y-92934108D01*
X142666392Y-92806814D01*
X142600500Y-92692686D01*
X142507314Y-92599500D01*
X142433124Y-92556666D01*
X142394053Y-92534108D01*
X152799500Y-92534108D01*
X152799500Y-92665892D01*
X152808505Y-92699500D01*
X152833608Y-92793187D01*
X152855338Y-92830824D01*
X152899500Y-92907314D01*
X152992686Y-93000500D01*
X153078736Y-93050181D01*
X153105944Y-93065890D01*
X153106814Y-93066392D01*
X153234108Y-93100500D01*
X153234110Y-93100500D01*
X153365890Y-93100500D01*
X153365892Y-93100500D01*
X153493186Y-93066392D01*
X153607314Y-93000500D01*
X153700500Y-92907314D01*
X153766392Y-92793186D01*
X153775523Y-92759108D01*
X156199500Y-92759108D01*
X156199500Y-92890891D01*
X156233608Y-93018187D01*
X156261151Y-93065892D01*
X156299500Y-93132314D01*
X156392686Y-93225500D01*
X156506814Y-93291392D01*
X156634108Y-93325500D01*
X156634110Y-93325500D01*
X156765890Y-93325500D01*
X156765892Y-93325500D01*
X156810057Y-93313666D01*
X156879906Y-93315329D01*
X156937768Y-93354492D01*
X156965272Y-93418720D01*
X156966149Y-93433441D01*
X156966149Y-93505158D01*
X156998624Y-93626358D01*
X157000258Y-93632454D01*
X157000259Y-93632459D01*
X157007042Y-93644207D01*
X157023512Y-93712107D01*
X157000658Y-93778133D01*
X156967308Y-93808450D01*
X156967654Y-93808901D01*
X156962265Y-93813035D01*
X156961660Y-93813586D01*
X156961210Y-93813845D01*
X156868023Y-93907033D01*
X156802131Y-94021159D01*
X156768023Y-94148455D01*
X156768023Y-94195264D01*
X156748338Y-94262303D01*
X156695534Y-94308058D01*
X156676118Y-94315038D01*
X156654785Y-94320754D01*
X156606812Y-94333608D01*
X156492686Y-94399500D01*
X156492683Y-94399502D01*
X156399502Y-94492683D01*
X156399500Y-94492686D01*
X156333608Y-94606812D01*
X156299500Y-94734108D01*
X156299500Y-94865891D01*
X156333608Y-94993187D01*
X156361626Y-95041715D01*
X156399500Y-95107314D01*
X156492686Y-95200500D01*
X156606814Y-95266392D01*
X156734108Y-95300500D01*
X156734110Y-95300500D01*
X156865890Y-95300500D01*
X156865892Y-95300500D01*
X156993186Y-95266392D01*
X157107314Y-95200500D01*
X157200500Y-95107314D01*
X157266392Y-94993186D01*
X157300500Y-94865892D01*
X157300500Y-94819082D01*
X157320185Y-94752043D01*
X157372989Y-94706288D01*
X157392397Y-94699310D01*
X157461709Y-94680739D01*
X157575837Y-94614847D01*
X157669023Y-94521661D01*
X157734915Y-94407533D01*
X157769023Y-94280239D01*
X157769023Y-94148455D01*
X157734915Y-94021161D01*
X157728130Y-94009410D01*
X157711658Y-93941511D01*
X157734510Y-93875484D01*
X157767858Y-93845168D01*
X157767512Y-93844716D01*
X157772929Y-93840559D01*
X157773521Y-93840021D01*
X157773963Y-93839766D01*
X157815186Y-93798543D01*
X176699499Y-93798543D01*
X176737947Y-93991829D01*
X176737950Y-93991839D01*
X176813364Y-94173907D01*
X176813371Y-94173920D01*
X176922860Y-94337781D01*
X176922863Y-94337785D01*
X177062214Y-94477136D01*
X177062218Y-94477139D01*
X177226079Y-94586628D01*
X177226092Y-94586635D01*
X177408013Y-94661988D01*
X177408165Y-94662051D01*
X177408169Y-94662051D01*
X177408170Y-94662052D01*
X177601456Y-94700500D01*
X177601459Y-94700500D01*
X177798543Y-94700500D01*
X177928582Y-94674632D01*
X177991835Y-94662051D01*
X178173914Y-94586632D01*
X178337782Y-94477139D01*
X178477139Y-94337782D01*
X178586632Y-94173914D01*
X178662051Y-93991835D01*
X178692300Y-93839766D01*
X178700500Y-93798543D01*
X178700500Y-93601456D01*
X178662052Y-93408170D01*
X178662051Y-93408169D01*
X178662051Y-93408165D01*
X178630413Y-93331783D01*
X178586635Y-93226092D01*
X178586628Y-93226079D01*
X178477139Y-93062218D01*
X178477136Y-93062214D01*
X178337785Y-92922863D01*
X178337781Y-92922860D01*
X178173920Y-92813371D01*
X178173907Y-92813364D01*
X177991839Y-92737950D01*
X177991829Y-92737947D01*
X177798543Y-92699500D01*
X177798541Y-92699500D01*
X177601459Y-92699500D01*
X177601457Y-92699500D01*
X177408170Y-92737947D01*
X177408160Y-92737950D01*
X177226092Y-92813364D01*
X177226079Y-92813371D01*
X177062218Y-92922860D01*
X177062214Y-92922863D01*
X176922863Y-93062214D01*
X176922860Y-93062218D01*
X176813371Y-93226079D01*
X176813364Y-93226092D01*
X176737950Y-93408160D01*
X176737947Y-93408170D01*
X176699500Y-93601456D01*
X176699500Y-93601459D01*
X176699500Y-93798541D01*
X176699500Y-93798543D01*
X176699499Y-93798543D01*
X157815186Y-93798543D01*
X157867149Y-93746580D01*
X157933041Y-93632452D01*
X157967149Y-93505158D01*
X157967149Y-93373374D01*
X157933041Y-93246080D01*
X157867149Y-93131952D01*
X157773963Y-93038766D01*
X157707679Y-93000497D01*
X157659836Y-92972874D01*
X157596188Y-92955820D01*
X157532541Y-92938766D01*
X157400757Y-92938766D01*
X157400752Y-92938766D01*
X157356591Y-92950599D01*
X157286741Y-92948935D01*
X157228880Y-92909772D01*
X157201377Y-92845543D01*
X157200500Y-92830824D01*
X157200500Y-92759110D01*
X157200500Y-92759108D01*
X157166392Y-92631814D01*
X157100500Y-92517686D01*
X157007314Y-92424500D01*
X156950250Y-92391554D01*
X156893187Y-92358608D01*
X156829539Y-92341554D01*
X156765892Y-92324500D01*
X156634108Y-92324500D01*
X156506812Y-92358608D01*
X156392686Y-92424500D01*
X156392683Y-92424502D01*
X156299502Y-92517683D01*
X156299500Y-92517686D01*
X156233608Y-92631812D01*
X156199500Y-92759108D01*
X153775523Y-92759108D01*
X153800500Y-92665892D01*
X153800500Y-92534108D01*
X153766392Y-92406814D01*
X153700500Y-92292686D01*
X153607314Y-92199500D01*
X153550250Y-92166554D01*
X153493187Y-92133608D01*
X153429539Y-92116554D01*
X153365892Y-92099500D01*
X153234108Y-92099500D01*
X153106812Y-92133608D01*
X152992686Y-92199500D01*
X152992683Y-92199502D01*
X152899502Y-92292683D01*
X152899500Y-92292686D01*
X152833608Y-92406812D01*
X152817021Y-92468717D01*
X152799500Y-92534108D01*
X142394053Y-92534108D01*
X142393187Y-92533608D01*
X142329539Y-92516554D01*
X142265892Y-92499500D01*
X142134108Y-92499500D01*
X142006812Y-92533608D01*
X141892686Y-92599500D01*
X141892683Y-92599502D01*
X141799502Y-92692683D01*
X141799500Y-92692686D01*
X141733608Y-92806812D01*
X141699500Y-92934108D01*
X136900500Y-92934108D01*
X136900500Y-90934108D01*
X153399500Y-90934108D01*
X153399500Y-91065891D01*
X153433608Y-91193187D01*
X153466554Y-91250250D01*
X153499500Y-91307314D01*
X153592686Y-91400500D01*
X153706814Y-91466392D01*
X153834108Y-91500500D01*
X153834110Y-91500500D01*
X153965890Y-91500500D01*
X153965892Y-91500500D01*
X154093186Y-91466392D01*
X154207314Y-91400500D01*
X154300500Y-91307314D01*
X154366392Y-91193186D01*
X154400500Y-91065892D01*
X154400500Y-90934108D01*
X154366392Y-90806814D01*
X154300500Y-90692686D01*
X154294695Y-90686881D01*
X154261210Y-90625558D01*
X154266194Y-90555866D01*
X154302324Y-90507004D01*
X154301567Y-90506247D01*
X154306620Y-90501193D01*
X154306899Y-90500817D01*
X154307302Y-90500506D01*
X154307314Y-90500500D01*
X154400500Y-90407314D01*
X154446566Y-90327525D01*
X160549500Y-90327525D01*
X160549500Y-90472475D01*
X160583537Y-90599500D01*
X160587017Y-90612488D01*
X160659488Y-90738011D01*
X160659490Y-90738013D01*
X160659491Y-90738015D01*
X160761985Y-90840509D01*
X160761986Y-90840510D01*
X160761988Y-90840511D01*
X160887511Y-90912982D01*
X160887512Y-90912982D01*
X160887515Y-90912984D01*
X161027525Y-90950500D01*
X161027528Y-90950500D01*
X161172472Y-90950500D01*
X161172475Y-90950500D01*
X161312485Y-90912984D01*
X161438015Y-90840509D01*
X161540509Y-90738015D01*
X161612984Y-90612485D01*
X161650500Y-90472475D01*
X161650500Y-90327525D01*
X161612984Y-90187515D01*
X161600499Y-90165891D01*
X161540511Y-90061988D01*
X161540506Y-90061982D01*
X161438017Y-89959493D01*
X161438011Y-89959488D01*
X161312488Y-89887017D01*
X161312489Y-89887017D01*
X161301006Y-89883940D01*
X161172475Y-89849500D01*
X161027525Y-89849500D01*
X160898993Y-89883940D01*
X160887511Y-89887017D01*
X160761988Y-89959488D01*
X160761982Y-89959493D01*
X160659493Y-90061982D01*
X160659488Y-90061988D01*
X160587017Y-90187511D01*
X160587016Y-90187515D01*
X160549500Y-90327525D01*
X154446566Y-90327525D01*
X154466392Y-90293186D01*
X154500500Y-90165892D01*
X154500500Y-90034108D01*
X154466392Y-89906814D01*
X154400500Y-89792686D01*
X154307314Y-89699500D01*
X154220033Y-89649108D01*
X154193187Y-89633608D01*
X154129539Y-89616554D01*
X154065892Y-89599500D01*
X153934108Y-89599500D01*
X153806812Y-89633608D01*
X153692686Y-89699500D01*
X153692683Y-89699502D01*
X153599502Y-89792683D01*
X153599500Y-89792686D01*
X153533608Y-89906812D01*
X153499500Y-90034108D01*
X153499500Y-90165891D01*
X153533608Y-90293187D01*
X153555896Y-90331790D01*
X153599500Y-90407314D01*
X153599502Y-90407316D01*
X153605304Y-90413118D01*
X153638789Y-90474441D01*
X153633805Y-90544133D01*
X153597678Y-90592998D01*
X153598433Y-90593753D01*
X153593399Y-90598786D01*
X153593116Y-90599170D01*
X153592686Y-90599499D01*
X153499502Y-90692683D01*
X153499500Y-90692686D01*
X153433608Y-90806812D01*
X153399500Y-90934108D01*
X136900500Y-90934108D01*
X136900500Y-89790876D01*
X136900500Y-89780891D01*
X136900501Y-89780888D01*
X136900497Y-89334108D01*
X144999500Y-89334108D01*
X144999500Y-89465891D01*
X145033608Y-89593187D01*
X145037253Y-89599500D01*
X145099500Y-89707314D01*
X145192686Y-89800500D01*
X145306814Y-89866392D01*
X145434108Y-89900500D01*
X145434110Y-89900500D01*
X145565890Y-89900500D01*
X145565892Y-89900500D01*
X145693186Y-89866392D01*
X145807314Y-89800500D01*
X145900500Y-89707314D01*
X145966392Y-89593186D01*
X146000500Y-89465892D01*
X146000500Y-89334108D01*
X145966392Y-89206814D01*
X145900500Y-89092686D01*
X145807314Y-88999500D01*
X145750250Y-88966554D01*
X145693187Y-88933608D01*
X145629539Y-88916554D01*
X145565892Y-88899500D01*
X145434108Y-88899500D01*
X145306812Y-88933608D01*
X145192686Y-88999500D01*
X145192683Y-88999502D01*
X145099502Y-89092683D01*
X145099500Y-89092686D01*
X145033608Y-89206812D01*
X144999500Y-89334108D01*
X136900497Y-89334108D01*
X136900492Y-88734108D01*
X148199500Y-88734108D01*
X148199500Y-88865891D01*
X148233608Y-88993187D01*
X148257387Y-89034372D01*
X148299500Y-89107314D01*
X148392686Y-89200500D01*
X148506814Y-89266392D01*
X148634108Y-89300500D01*
X148634110Y-89300500D01*
X148765890Y-89300500D01*
X148765892Y-89300500D01*
X148893186Y-89266392D01*
X149007314Y-89200500D01*
X149100500Y-89107314D01*
X149142613Y-89034371D01*
X149193180Y-88986156D01*
X149261787Y-88972933D01*
X149326652Y-88998901D01*
X149357386Y-89034371D01*
X149399500Y-89107314D01*
X149492686Y-89200500D01*
X149606814Y-89266392D01*
X149734108Y-89300500D01*
X149734110Y-89300500D01*
X149865890Y-89300500D01*
X149865892Y-89300500D01*
X149993186Y-89266392D01*
X150107314Y-89200500D01*
X150200500Y-89107314D01*
X150266392Y-88993186D01*
X150300500Y-88865892D01*
X150300500Y-88734108D01*
X150266392Y-88606814D01*
X150200500Y-88492686D01*
X150107314Y-88399500D01*
X150050250Y-88366554D01*
X149993187Y-88333608D01*
X149914353Y-88312485D01*
X149865892Y-88299500D01*
X149734108Y-88299500D01*
X149606812Y-88333608D01*
X149492686Y-88399500D01*
X149492683Y-88399502D01*
X149399502Y-88492683D01*
X149399500Y-88492686D01*
X149391055Y-88507314D01*
X149357387Y-88565628D01*
X149306820Y-88613843D01*
X149238212Y-88627065D01*
X149173348Y-88601097D01*
X149142613Y-88565628D01*
X149137439Y-88556666D01*
X149100500Y-88492686D01*
X149007314Y-88399500D01*
X148950250Y-88366554D01*
X148893187Y-88333608D01*
X148814353Y-88312485D01*
X148765892Y-88299500D01*
X148634108Y-88299500D01*
X148506812Y-88333608D01*
X148392686Y-88399500D01*
X148392683Y-88399502D01*
X148299502Y-88492683D01*
X148299500Y-88492686D01*
X148233608Y-88606812D01*
X148199500Y-88734108D01*
X136900492Y-88734108D01*
X136900488Y-88134108D01*
X144499500Y-88134108D01*
X144499500Y-88265892D01*
X144511985Y-88312488D01*
X144533608Y-88393187D01*
X144559488Y-88438011D01*
X144599500Y-88507314D01*
X144692686Y-88600500D01*
X144791521Y-88657563D01*
X144806810Y-88666390D01*
X144806814Y-88666392D01*
X144934108Y-88700500D01*
X144934110Y-88700500D01*
X145065890Y-88700500D01*
X145065892Y-88700500D01*
X145193186Y-88666392D01*
X145307314Y-88600500D01*
X145400500Y-88507314D01*
X145466392Y-88393186D01*
X145500500Y-88265892D01*
X145500500Y-88134108D01*
X145471941Y-88027525D01*
X154349500Y-88027525D01*
X154349500Y-88172475D01*
X154383537Y-88299500D01*
X154387017Y-88312488D01*
X154459488Y-88438011D01*
X154459490Y-88438013D01*
X154459491Y-88438015D01*
X154561985Y-88540509D01*
X154561986Y-88540510D01*
X154561988Y-88540511D01*
X154687511Y-88612982D01*
X154687512Y-88612982D01*
X154687515Y-88612984D01*
X154827525Y-88650500D01*
X154827528Y-88650500D01*
X154972472Y-88650500D01*
X154972475Y-88650500D01*
X155112485Y-88612984D01*
X155238015Y-88540509D01*
X155340509Y-88438015D01*
X155412984Y-88312485D01*
X155450500Y-88172475D01*
X155450500Y-88027525D01*
X155412984Y-87887515D01*
X155362168Y-87799500D01*
X155340511Y-87761988D01*
X155340506Y-87761982D01*
X155238017Y-87659493D01*
X155238015Y-87659491D01*
X155112485Y-87587016D01*
X154972475Y-87549500D01*
X154827525Y-87549500D01*
X154711758Y-87580520D01*
X154687511Y-87587017D01*
X154561988Y-87659488D01*
X154561982Y-87659493D01*
X154459493Y-87761982D01*
X154459488Y-87761988D01*
X154387017Y-87887511D01*
X154387016Y-87887515D01*
X154349500Y-88027525D01*
X145471941Y-88027525D01*
X145466392Y-88006814D01*
X145400500Y-87892686D01*
X145307314Y-87799500D01*
X145250250Y-87766554D01*
X145193187Y-87733608D01*
X145129539Y-87716554D01*
X145065892Y-87699500D01*
X144934108Y-87699500D01*
X144806812Y-87733608D01*
X144692686Y-87799500D01*
X144692683Y-87799502D01*
X144599502Y-87892683D01*
X144599500Y-87892686D01*
X144533608Y-88006812D01*
X144517644Y-88066392D01*
X144499500Y-88134108D01*
X136900488Y-88134108D01*
X136900472Y-86182453D01*
X143267546Y-86182453D01*
X143267546Y-86314237D01*
X143272737Y-86333609D01*
X143301654Y-86441532D01*
X143317345Y-86468709D01*
X143367546Y-86555659D01*
X143367547Y-86555660D01*
X143367548Y-86555661D01*
X143414355Y-86602468D01*
X143447840Y-86663791D01*
X143442856Y-86733483D01*
X143414357Y-86777828D01*
X143399503Y-86792682D01*
X143399500Y-86792686D01*
X143333608Y-86906812D01*
X143299500Y-87034108D01*
X143299500Y-87165891D01*
X143333608Y-87293187D01*
X143355896Y-87331790D01*
X143399500Y-87407314D01*
X143492686Y-87500500D01*
X143606814Y-87566392D01*
X143734108Y-87600500D01*
X143734110Y-87600500D01*
X143865890Y-87600500D01*
X143865892Y-87600500D01*
X143993186Y-87566392D01*
X144049103Y-87534108D01*
X172499500Y-87534108D01*
X172499500Y-87665891D01*
X172533608Y-87793187D01*
X172566554Y-87850250D01*
X172599500Y-87907314D01*
X172692686Y-88000500D01*
X172806814Y-88066392D01*
X172934108Y-88100500D01*
X172934110Y-88100500D01*
X173065890Y-88100500D01*
X173065892Y-88100500D01*
X173193186Y-88066392D01*
X173307314Y-88000500D01*
X173400500Y-87907314D01*
X173466392Y-87793186D01*
X173500500Y-87665892D01*
X173500500Y-87534108D01*
X173466392Y-87406814D01*
X173400500Y-87292686D01*
X173307314Y-87199500D01*
X173193186Y-87133608D01*
X173065892Y-87099500D01*
X172934108Y-87099500D01*
X172806812Y-87133608D01*
X172692686Y-87199500D01*
X172692683Y-87199502D01*
X172599502Y-87292683D01*
X172599500Y-87292686D01*
X172533608Y-87406812D01*
X172499500Y-87534108D01*
X144049103Y-87534108D01*
X144107314Y-87500500D01*
X144200500Y-87407314D01*
X144266392Y-87293186D01*
X144300500Y-87165892D01*
X144300500Y-87034108D01*
X144266392Y-86906814D01*
X144255247Y-86887511D01*
X144204993Y-86800468D01*
X144204992Y-86800467D01*
X144200500Y-86792686D01*
X144152355Y-86744541D01*
X144151075Y-86743181D01*
X144146472Y-86734108D01*
X144574500Y-86734108D01*
X144574500Y-86865891D01*
X144608608Y-86993187D01*
X144641554Y-87050250D01*
X144674500Y-87107314D01*
X144767686Y-87200500D01*
X144881814Y-87266392D01*
X145009108Y-87300500D01*
X145009110Y-87300500D01*
X145140890Y-87300500D01*
X145140892Y-87300500D01*
X145268186Y-87266392D01*
X145382314Y-87200500D01*
X145475500Y-87107314D01*
X145521566Y-87027525D01*
X175049500Y-87027525D01*
X175049500Y-87172475D01*
X175083805Y-87300500D01*
X175087017Y-87312488D01*
X175159488Y-87438011D01*
X175159490Y-87438013D01*
X175159491Y-87438015D01*
X175261985Y-87540509D01*
X175261986Y-87540510D01*
X175261988Y-87540511D01*
X175387511Y-87612982D01*
X175387512Y-87612982D01*
X175387515Y-87612984D01*
X175527525Y-87650500D01*
X175527528Y-87650500D01*
X175672472Y-87650500D01*
X175672475Y-87650500D01*
X175812485Y-87612984D01*
X175938015Y-87540509D01*
X176040509Y-87438015D01*
X176112984Y-87312485D01*
X176150500Y-87172475D01*
X176150500Y-87027525D01*
X176112984Y-86887515D01*
X176100499Y-86865891D01*
X176040511Y-86761988D01*
X176040506Y-86761982D01*
X175938017Y-86659493D01*
X175938011Y-86659488D01*
X175812488Y-86587017D01*
X175812489Y-86587017D01*
X175788242Y-86580520D01*
X175672475Y-86549500D01*
X175527525Y-86549500D01*
X175411758Y-86580520D01*
X175387511Y-86587017D01*
X175261988Y-86659488D01*
X175261982Y-86659493D01*
X175159493Y-86761982D01*
X175159488Y-86761988D01*
X175087017Y-86887511D01*
X175087016Y-86887515D01*
X175049500Y-87027525D01*
X145521566Y-87027525D01*
X145541392Y-86993186D01*
X145575500Y-86865892D01*
X145575500Y-86776485D01*
X145595185Y-86709446D01*
X145647989Y-86663691D01*
X145717147Y-86653747D01*
X145748721Y-86664675D01*
X145749300Y-86663280D01*
X145756809Y-86666389D01*
X145756814Y-86666392D01*
X145884108Y-86700500D01*
X145884110Y-86700500D01*
X146015890Y-86700500D01*
X146015892Y-86700500D01*
X146143186Y-86666392D01*
X146257314Y-86600500D01*
X146350500Y-86507314D01*
X146416392Y-86393186D01*
X146450500Y-86265892D01*
X146450500Y-86134108D01*
X147274500Y-86134108D01*
X147274500Y-86265891D01*
X147308608Y-86393187D01*
X147336520Y-86441531D01*
X147374500Y-86507314D01*
X147467686Y-86600500D01*
X147549808Y-86647913D01*
X147581810Y-86666390D01*
X147581814Y-86666392D01*
X147709108Y-86700500D01*
X147709110Y-86700500D01*
X147840890Y-86700500D01*
X147840892Y-86700500D01*
X147968186Y-86666392D01*
X148082314Y-86600500D01*
X148175500Y-86507314D01*
X148241392Y-86393186D01*
X148275500Y-86265892D01*
X148275500Y-86134108D01*
X149099500Y-86134108D01*
X149099500Y-86265891D01*
X149133608Y-86393187D01*
X149161520Y-86441531D01*
X149199500Y-86507314D01*
X149292686Y-86600500D01*
X149374808Y-86647913D01*
X149406810Y-86666390D01*
X149406814Y-86666392D01*
X149534108Y-86700500D01*
X149534110Y-86700500D01*
X149665890Y-86700500D01*
X149665892Y-86700500D01*
X149793186Y-86666392D01*
X149907314Y-86600500D01*
X150000500Y-86507314D01*
X150066392Y-86393186D01*
X150100500Y-86265892D01*
X150100500Y-86134108D01*
X150066392Y-86006814D01*
X150000500Y-85892686D01*
X149907314Y-85799500D01*
X149850250Y-85766554D01*
X149793187Y-85733608D01*
X149695543Y-85707445D01*
X149665892Y-85699500D01*
X149534108Y-85699500D01*
X149406812Y-85733608D01*
X149292686Y-85799500D01*
X149292683Y-85799502D01*
X149199502Y-85892683D01*
X149199500Y-85892686D01*
X149133608Y-86006812D01*
X149099500Y-86134108D01*
X148275500Y-86134108D01*
X148241392Y-86006814D01*
X148175500Y-85892686D01*
X148082314Y-85799500D01*
X148025250Y-85766554D01*
X147968187Y-85733608D01*
X147870543Y-85707445D01*
X147840892Y-85699500D01*
X147709108Y-85699500D01*
X147581812Y-85733608D01*
X147467686Y-85799500D01*
X147467683Y-85799502D01*
X147374502Y-85892683D01*
X147374500Y-85892686D01*
X147308608Y-86006812D01*
X147274500Y-86134108D01*
X146450500Y-86134108D01*
X146416392Y-86006814D01*
X146350500Y-85892686D01*
X146257314Y-85799500D01*
X146200250Y-85766554D01*
X146143187Y-85733608D01*
X146045543Y-85707445D01*
X146015892Y-85699500D01*
X145884108Y-85699500D01*
X145756812Y-85733608D01*
X145642686Y-85799500D01*
X145642683Y-85799502D01*
X145549502Y-85892683D01*
X145549500Y-85892686D01*
X145483608Y-86006812D01*
X145449500Y-86134108D01*
X145449500Y-86223514D01*
X145429815Y-86290553D01*
X145377011Y-86336308D01*
X145307853Y-86346252D01*
X145276276Y-86335328D01*
X145275700Y-86336720D01*
X145268188Y-86333609D01*
X145268187Y-86333608D01*
X145268186Y-86333608D01*
X145140892Y-86299500D01*
X145009108Y-86299500D01*
X144881812Y-86333608D01*
X144767686Y-86399500D01*
X144767683Y-86399502D01*
X144674502Y-86492683D01*
X144674500Y-86492686D01*
X144608608Y-86606812D01*
X144574500Y-86734108D01*
X144146472Y-86734108D01*
X144136078Y-86713623D01*
X144120205Y-86684553D01*
X144120343Y-86682610D01*
X144119462Y-86680872D01*
X144122825Y-86647913D01*
X144125189Y-86614861D01*
X144126388Y-86612994D01*
X144126555Y-86611364D01*
X144131109Y-86605648D01*
X144153690Y-86570514D01*
X144168546Y-86555659D01*
X144234438Y-86441531D01*
X144268546Y-86314237D01*
X144268546Y-86182453D01*
X144234438Y-86055159D01*
X144168546Y-85941031D01*
X144075360Y-85847845D01*
X143991628Y-85799502D01*
X143961233Y-85781953D01*
X143897585Y-85764899D01*
X143833938Y-85747845D01*
X143702154Y-85747845D01*
X143574858Y-85781953D01*
X143460732Y-85847845D01*
X143460729Y-85847847D01*
X143367548Y-85941028D01*
X143367546Y-85941031D01*
X143301654Y-86055157D01*
X143280500Y-86134108D01*
X143267546Y-86182453D01*
X136900472Y-86182453D01*
X136900443Y-82720943D01*
X162499500Y-82720943D01*
X162499500Y-82879057D01*
X162523525Y-82968717D01*
X162540423Y-83031783D01*
X162540426Y-83031790D01*
X162619475Y-83168709D01*
X162619481Y-83168717D01*
X162696709Y-83245945D01*
X162730194Y-83307268D01*
X162725210Y-83376960D01*
X162696709Y-83421307D01*
X162655741Y-83462274D01*
X162655735Y-83462282D01*
X162576686Y-83599201D01*
X162576683Y-83599208D01*
X162535760Y-83751935D01*
X162535760Y-83910049D01*
X162568247Y-84031290D01*
X162576683Y-84062775D01*
X162576686Y-84062782D01*
X162655735Y-84199701D01*
X162655739Y-84199706D01*
X162655740Y-84199708D01*
X162767544Y-84311512D01*
X162767546Y-84311513D01*
X162767550Y-84311516D01*
X162904473Y-84390568D01*
X162904475Y-84390568D01*
X162904476Y-84390569D01*
X162912150Y-84392625D01*
X162971812Y-84428989D01*
X162999835Y-84480307D01*
X163040423Y-84631785D01*
X163040426Y-84631790D01*
X163119475Y-84768709D01*
X163119479Y-84768714D01*
X163119480Y-84768716D01*
X163231284Y-84880520D01*
X163231286Y-84880521D01*
X163231290Y-84880524D01*
X163270016Y-84902882D01*
X163368216Y-84959577D01*
X163520943Y-85000500D01*
X163520954Y-85000500D01*
X163526177Y-85001188D01*
X163590075Y-85029452D01*
X163628548Y-85087775D01*
X163629771Y-85092033D01*
X163640421Y-85131779D01*
X163640426Y-85131790D01*
X163719475Y-85268709D01*
X163719479Y-85268714D01*
X163719480Y-85268716D01*
X163831284Y-85380520D01*
X163831286Y-85380521D01*
X163831290Y-85380524D01*
X163968209Y-85459573D01*
X163968216Y-85459577D01*
X164120943Y-85500500D01*
X164120945Y-85500500D01*
X164279055Y-85500500D01*
X164279057Y-85500500D01*
X164431784Y-85459577D01*
X164568716Y-85380520D01*
X164581144Y-85368091D01*
X164642463Y-85334608D01*
X164712154Y-85339590D01*
X164768089Y-85381460D01*
X164776211Y-85393773D01*
X164819477Y-85468712D01*
X164819479Y-85468715D01*
X164819480Y-85468716D01*
X164931284Y-85580520D01*
X164931286Y-85580521D01*
X164931290Y-85580524D01*
X164998765Y-85619480D01*
X165068216Y-85659577D01*
X165220943Y-85700500D01*
X165220945Y-85700500D01*
X165379055Y-85700500D01*
X165379057Y-85700500D01*
X165531784Y-85659577D01*
X165668716Y-85580520D01*
X165780520Y-85468716D01*
X165859577Y-85331784D01*
X165900500Y-85179057D01*
X165900500Y-85089902D01*
X165920185Y-85022863D01*
X165922371Y-85020943D01*
X179799500Y-85020943D01*
X179799500Y-85179057D01*
X179823525Y-85268717D01*
X179840423Y-85331783D01*
X179840426Y-85331790D01*
X179919475Y-85468709D01*
X179919481Y-85468717D01*
X179963083Y-85512319D01*
X179996568Y-85573642D01*
X179991584Y-85643334D01*
X179963083Y-85687681D01*
X179919481Y-85731282D01*
X179919475Y-85731290D01*
X179840426Y-85868209D01*
X179840423Y-85868216D01*
X179799500Y-86020943D01*
X179799500Y-86179057D01*
X179835722Y-86314237D01*
X179840423Y-86331783D01*
X179840426Y-86331790D01*
X179919475Y-86468709D01*
X179919481Y-86468717D01*
X179963083Y-86512319D01*
X179996568Y-86573642D01*
X179991584Y-86643334D01*
X179963083Y-86687681D01*
X179919481Y-86731282D01*
X179919475Y-86731290D01*
X179840426Y-86868209D01*
X179840423Y-86868216D01*
X179799500Y-87020943D01*
X179799500Y-87179057D01*
X179832041Y-87300500D01*
X179840423Y-87331783D01*
X179840426Y-87331790D01*
X179919475Y-87468709D01*
X179919481Y-87468717D01*
X179963083Y-87512319D01*
X179996568Y-87573642D01*
X179991584Y-87643334D01*
X179963083Y-87687681D01*
X179919481Y-87731282D01*
X179919475Y-87731290D01*
X179840426Y-87868209D01*
X179840423Y-87868216D01*
X179799500Y-88020943D01*
X179799500Y-88179057D01*
X179822768Y-88265892D01*
X179840423Y-88331783D01*
X179840426Y-88331790D01*
X179919475Y-88468709D01*
X179919481Y-88468717D01*
X179963083Y-88512319D01*
X179996568Y-88573642D01*
X179991584Y-88643334D01*
X179963083Y-88687681D01*
X179919481Y-88731282D01*
X179919475Y-88731290D01*
X179840426Y-88868209D01*
X179840423Y-88868216D01*
X179799500Y-89020943D01*
X179799500Y-89179057D01*
X179838869Y-89325982D01*
X179840423Y-89331783D01*
X179840426Y-89331790D01*
X179919475Y-89468709D01*
X179919481Y-89468717D01*
X179963083Y-89512319D01*
X179996568Y-89573642D01*
X179991584Y-89643334D01*
X179963083Y-89687681D01*
X179919481Y-89731282D01*
X179919475Y-89731290D01*
X179840426Y-89868209D01*
X179840423Y-89868216D01*
X179799500Y-90020943D01*
X179799500Y-90179057D01*
X179839283Y-90327527D01*
X179840423Y-90331783D01*
X179840426Y-90331790D01*
X179919475Y-90468709D01*
X179919481Y-90468717D01*
X179963083Y-90512319D01*
X179996568Y-90573642D01*
X179991584Y-90643334D01*
X179963083Y-90687681D01*
X179919481Y-90731282D01*
X179919475Y-90731290D01*
X179840426Y-90868209D01*
X179840423Y-90868216D01*
X179799500Y-91020943D01*
X179799500Y-91179057D01*
X179833867Y-91307314D01*
X179840423Y-91331783D01*
X179840426Y-91331790D01*
X179919475Y-91468709D01*
X179919481Y-91468717D01*
X179963083Y-91512319D01*
X179996568Y-91573642D01*
X179991584Y-91643334D01*
X179963083Y-91687681D01*
X179919481Y-91731282D01*
X179919475Y-91731290D01*
X179840426Y-91868209D01*
X179840423Y-91868216D01*
X179799500Y-92020943D01*
X179799500Y-92179057D01*
X179838472Y-92324500D01*
X179840423Y-92331783D01*
X179840426Y-92331790D01*
X179919475Y-92468709D01*
X179919481Y-92468717D01*
X179963083Y-92512319D01*
X179996568Y-92573642D01*
X179991584Y-92643334D01*
X179963083Y-92687681D01*
X179919481Y-92731282D01*
X179919475Y-92731290D01*
X179840426Y-92868209D01*
X179840423Y-92868216D01*
X179799500Y-93020943D01*
X179799500Y-93179057D01*
X179835569Y-93313666D01*
X179840423Y-93331783D01*
X179840426Y-93331790D01*
X179919475Y-93468709D01*
X179919481Y-93468717D01*
X179963083Y-93512319D01*
X179996568Y-93573642D01*
X179991584Y-93643334D01*
X179963083Y-93687681D01*
X179919481Y-93731282D01*
X179919475Y-93731290D01*
X179840426Y-93868209D01*
X179840423Y-93868216D01*
X179799500Y-94020943D01*
X179799500Y-94179057D01*
X179826612Y-94280238D01*
X179840423Y-94331783D01*
X179840426Y-94331790D01*
X179919475Y-94468709D01*
X179919481Y-94468717D01*
X179963083Y-94512319D01*
X179996568Y-94573642D01*
X179991584Y-94643334D01*
X179963083Y-94687681D01*
X179919481Y-94731282D01*
X179919475Y-94731290D01*
X179840426Y-94868209D01*
X179840423Y-94868216D01*
X179799500Y-95020943D01*
X179799500Y-95179057D01*
X179832041Y-95300500D01*
X179840423Y-95331783D01*
X179840426Y-95331790D01*
X179919475Y-95468709D01*
X179919479Y-95468714D01*
X179919480Y-95468716D01*
X180031284Y-95580520D01*
X180031286Y-95580521D01*
X180031290Y-95580524D01*
X180052356Y-95592686D01*
X180168216Y-95659577D01*
X180320943Y-95700500D01*
X180320945Y-95700500D01*
X180479055Y-95700500D01*
X180479057Y-95700500D01*
X180631784Y-95659577D01*
X180768716Y-95580520D01*
X180812319Y-95536917D01*
X180873642Y-95503432D01*
X180943334Y-95508416D01*
X180987681Y-95536917D01*
X181031284Y-95580520D01*
X181031286Y-95580521D01*
X181031290Y-95580524D01*
X181052356Y-95592686D01*
X181168216Y-95659577D01*
X181320943Y-95700500D01*
X181320945Y-95700500D01*
X181479055Y-95700500D01*
X181479057Y-95700500D01*
X181631784Y-95659577D01*
X181768716Y-95580520D01*
X181812319Y-95536917D01*
X181873642Y-95503432D01*
X181943334Y-95508416D01*
X181987681Y-95536917D01*
X182031284Y-95580520D01*
X182031286Y-95580521D01*
X182031290Y-95580524D01*
X182052356Y-95592686D01*
X182168216Y-95659577D01*
X182320943Y-95700500D01*
X182320945Y-95700500D01*
X182479055Y-95700500D01*
X182479057Y-95700500D01*
X182631784Y-95659577D01*
X182768716Y-95580520D01*
X182812319Y-95536917D01*
X182873642Y-95503432D01*
X182943334Y-95508416D01*
X182987681Y-95536917D01*
X183031284Y-95580520D01*
X183031286Y-95580521D01*
X183031290Y-95580524D01*
X183052356Y-95592686D01*
X183168216Y-95659577D01*
X183320943Y-95700500D01*
X183320945Y-95700500D01*
X183479055Y-95700500D01*
X183479057Y-95700500D01*
X183631784Y-95659577D01*
X183768716Y-95580520D01*
X183812319Y-95536917D01*
X183873642Y-95503432D01*
X183943334Y-95508416D01*
X183987681Y-95536917D01*
X184031284Y-95580520D01*
X184031286Y-95580521D01*
X184031290Y-95580524D01*
X184052356Y-95592686D01*
X184168216Y-95659577D01*
X184320943Y-95700500D01*
X184320945Y-95700500D01*
X184479055Y-95700500D01*
X184479057Y-95700500D01*
X184631784Y-95659577D01*
X184768716Y-95580520D01*
X184812319Y-95536917D01*
X184873642Y-95503432D01*
X184943334Y-95508416D01*
X184987681Y-95536917D01*
X185031284Y-95580520D01*
X185031286Y-95580521D01*
X185031290Y-95580524D01*
X185052356Y-95592686D01*
X185168216Y-95659577D01*
X185320943Y-95700500D01*
X185320945Y-95700500D01*
X185479055Y-95700500D01*
X185479057Y-95700500D01*
X185631784Y-95659577D01*
X185768716Y-95580520D01*
X185812319Y-95536917D01*
X185873642Y-95503432D01*
X185943334Y-95508416D01*
X185987681Y-95536917D01*
X186031284Y-95580520D01*
X186031286Y-95580521D01*
X186031290Y-95580524D01*
X186052356Y-95592686D01*
X186168216Y-95659577D01*
X186320943Y-95700500D01*
X186320945Y-95700500D01*
X186479055Y-95700500D01*
X186479057Y-95700500D01*
X186631784Y-95659577D01*
X186768716Y-95580520D01*
X186812319Y-95536917D01*
X186873642Y-95503432D01*
X186943334Y-95508416D01*
X186987681Y-95536917D01*
X187031284Y-95580520D01*
X187031286Y-95580521D01*
X187031290Y-95580524D01*
X187052356Y-95592686D01*
X187168216Y-95659577D01*
X187320943Y-95700500D01*
X187320945Y-95700500D01*
X187479055Y-95700500D01*
X187479057Y-95700500D01*
X187631784Y-95659577D01*
X187768716Y-95580520D01*
X187812319Y-95536917D01*
X187873642Y-95503432D01*
X187943334Y-95508416D01*
X187987681Y-95536917D01*
X188031284Y-95580520D01*
X188031286Y-95580521D01*
X188031290Y-95580524D01*
X188052356Y-95592686D01*
X188168216Y-95659577D01*
X188320943Y-95700500D01*
X188320945Y-95700500D01*
X188479055Y-95700500D01*
X188479057Y-95700500D01*
X188631784Y-95659577D01*
X188768716Y-95580520D01*
X188812319Y-95536917D01*
X188873642Y-95503432D01*
X188943334Y-95508416D01*
X188987681Y-95536917D01*
X189031284Y-95580520D01*
X189031286Y-95580521D01*
X189031290Y-95580524D01*
X189052356Y-95592686D01*
X189168216Y-95659577D01*
X189320943Y-95700500D01*
X189320945Y-95700500D01*
X189479055Y-95700500D01*
X189479057Y-95700500D01*
X189631784Y-95659577D01*
X189768716Y-95580520D01*
X189812319Y-95536917D01*
X189873642Y-95503432D01*
X189943334Y-95508416D01*
X189987681Y-95536917D01*
X190031284Y-95580520D01*
X190031286Y-95580521D01*
X190031290Y-95580524D01*
X190052356Y-95592686D01*
X190168216Y-95659577D01*
X190320943Y-95700500D01*
X190320945Y-95700500D01*
X190479055Y-95700500D01*
X190479057Y-95700500D01*
X190631784Y-95659577D01*
X190768716Y-95580520D01*
X190880520Y-95468716D01*
X190959577Y-95331784D01*
X191000500Y-95179057D01*
X191000500Y-95020943D01*
X190975469Y-94927525D01*
X194349500Y-94927525D01*
X194349500Y-95072475D01*
X194387016Y-95212485D01*
X194387017Y-95212488D01*
X194459488Y-95338011D01*
X194459490Y-95338013D01*
X194459491Y-95338015D01*
X194561985Y-95440509D01*
X194561986Y-95440510D01*
X194561988Y-95440511D01*
X194687511Y-95512982D01*
X194687512Y-95512982D01*
X194687515Y-95512984D01*
X194827525Y-95550500D01*
X194827528Y-95550500D01*
X194972472Y-95550500D01*
X194972475Y-95550500D01*
X195112485Y-95512984D01*
X195238015Y-95440509D01*
X195340509Y-95338015D01*
X195412984Y-95212485D01*
X195450500Y-95072475D01*
X195450500Y-94927525D01*
X195412984Y-94787515D01*
X195382149Y-94734108D01*
X195340511Y-94661988D01*
X195340506Y-94661982D01*
X195238017Y-94559493D01*
X195238011Y-94559488D01*
X195112488Y-94487017D01*
X195112489Y-94487017D01*
X195101006Y-94483940D01*
X194972475Y-94449500D01*
X194827525Y-94449500D01*
X194698993Y-94483940D01*
X194687511Y-94487017D01*
X194561988Y-94559488D01*
X194561982Y-94559493D01*
X194459493Y-94661982D01*
X194459488Y-94661988D01*
X194387017Y-94787511D01*
X194387016Y-94787515D01*
X194349500Y-94927525D01*
X190975469Y-94927525D01*
X190959577Y-94868216D01*
X190912985Y-94787515D01*
X190880524Y-94731290D01*
X190880518Y-94731282D01*
X190836917Y-94687681D01*
X190803432Y-94626358D01*
X190808416Y-94556666D01*
X190836917Y-94512319D01*
X190856682Y-94492554D01*
X190880520Y-94468716D01*
X190959577Y-94331784D01*
X191000500Y-94179057D01*
X191000500Y-94020943D01*
X190959577Y-93868216D01*
X190946270Y-93845168D01*
X190880524Y-93731290D01*
X190880518Y-93731282D01*
X190836917Y-93687681D01*
X190803432Y-93626358D01*
X190808416Y-93556666D01*
X190836917Y-93512319D01*
X190848737Y-93500499D01*
X190880520Y-93468716D01*
X190959577Y-93331784D01*
X191000500Y-93179057D01*
X191000500Y-93020943D01*
X190959577Y-92868216D01*
X190927911Y-92813368D01*
X190880524Y-92731290D01*
X190880518Y-92731282D01*
X190836917Y-92687681D01*
X190803432Y-92626358D01*
X190808416Y-92556666D01*
X190836917Y-92512319D01*
X190849736Y-92499500D01*
X190880520Y-92468716D01*
X190959577Y-92331784D01*
X191000500Y-92179057D01*
X191000500Y-92020943D01*
X190959577Y-91868216D01*
X190959573Y-91868209D01*
X190880524Y-91731290D01*
X190880518Y-91731282D01*
X190836917Y-91687681D01*
X190803432Y-91626358D01*
X190808416Y-91556666D01*
X190836917Y-91512319D01*
X190848737Y-91500499D01*
X190880520Y-91468716D01*
X190959577Y-91331784D01*
X191000500Y-91179057D01*
X191000500Y-91020943D01*
X190959577Y-90868216D01*
X190924126Y-90806812D01*
X190880524Y-90731290D01*
X190880518Y-90731282D01*
X190836917Y-90687681D01*
X190803432Y-90626358D01*
X190808416Y-90556666D01*
X190836917Y-90512319D01*
X190848742Y-90500494D01*
X190880520Y-90468716D01*
X190959577Y-90331784D01*
X191000500Y-90179057D01*
X191000500Y-90020943D01*
X190959577Y-89868216D01*
X190958523Y-89866391D01*
X190880524Y-89731290D01*
X190880518Y-89731282D01*
X190836917Y-89687681D01*
X190803432Y-89626358D01*
X190808416Y-89556666D01*
X190836917Y-89512319D01*
X190880520Y-89468716D01*
X190959577Y-89331784D01*
X191000500Y-89179057D01*
X191000500Y-89020943D01*
X190959577Y-88868216D01*
X190882152Y-88734110D01*
X190880524Y-88731290D01*
X190880518Y-88731282D01*
X190836917Y-88687681D01*
X190803432Y-88626358D01*
X190808416Y-88556666D01*
X190836917Y-88512319D01*
X190856553Y-88492683D01*
X190880520Y-88468716D01*
X190959577Y-88331784D01*
X191000500Y-88179057D01*
X191000500Y-88020943D01*
X190959577Y-87868216D01*
X190959573Y-87868209D01*
X190880524Y-87731290D01*
X190880518Y-87731282D01*
X190836917Y-87687681D01*
X190803432Y-87626358D01*
X190808416Y-87556666D01*
X190836917Y-87512319D01*
X190848739Y-87500497D01*
X190880520Y-87468716D01*
X190959577Y-87331784D01*
X191000500Y-87179057D01*
X191000500Y-87020943D01*
X190959577Y-86868216D01*
X190898245Y-86761985D01*
X190880524Y-86731290D01*
X190880518Y-86731282D01*
X190836917Y-86687681D01*
X190803432Y-86626358D01*
X190808416Y-86556666D01*
X190836917Y-86512319D01*
X190856553Y-86492683D01*
X190880520Y-86468716D01*
X190959577Y-86331784D01*
X191000500Y-86179057D01*
X191000500Y-86020943D01*
X190959577Y-85868216D01*
X190947816Y-85847845D01*
X190880524Y-85731290D01*
X190880518Y-85731282D01*
X190836917Y-85687681D01*
X190803432Y-85626358D01*
X190808416Y-85556666D01*
X190836917Y-85512319D01*
X190848737Y-85500499D01*
X190880520Y-85468716D01*
X190959577Y-85331784D01*
X191000500Y-85179057D01*
X191000500Y-85020943D01*
X190959577Y-84868216D01*
X190902132Y-84768717D01*
X190880524Y-84731290D01*
X190880518Y-84731282D01*
X190768717Y-84619481D01*
X190768709Y-84619475D01*
X190631790Y-84540426D01*
X190631786Y-84540424D01*
X190631784Y-84540423D01*
X190479057Y-84499500D01*
X190320943Y-84499500D01*
X190168216Y-84540423D01*
X190168209Y-84540426D01*
X190031290Y-84619475D01*
X190031282Y-84619481D01*
X189987681Y-84663083D01*
X189926358Y-84696568D01*
X189856666Y-84691584D01*
X189812319Y-84663083D01*
X189768717Y-84619481D01*
X189768709Y-84619475D01*
X189631790Y-84540426D01*
X189631786Y-84540424D01*
X189631784Y-84540423D01*
X189479057Y-84499500D01*
X189320943Y-84499500D01*
X189168216Y-84540423D01*
X189168209Y-84540426D01*
X189031290Y-84619475D01*
X189031282Y-84619481D01*
X188987681Y-84663083D01*
X188926358Y-84696568D01*
X188856666Y-84691584D01*
X188812319Y-84663083D01*
X188768717Y-84619481D01*
X188768709Y-84619475D01*
X188631790Y-84540426D01*
X188631786Y-84540424D01*
X188631784Y-84540423D01*
X188479057Y-84499500D01*
X188320943Y-84499500D01*
X188168216Y-84540423D01*
X188168209Y-84540426D01*
X188031290Y-84619475D01*
X188031282Y-84619481D01*
X187987681Y-84663083D01*
X187926358Y-84696568D01*
X187856666Y-84691584D01*
X187812319Y-84663083D01*
X187768717Y-84619481D01*
X187768709Y-84619475D01*
X187631790Y-84540426D01*
X187631786Y-84540424D01*
X187631784Y-84540423D01*
X187479057Y-84499500D01*
X187320943Y-84499500D01*
X187168216Y-84540423D01*
X187168209Y-84540426D01*
X187031290Y-84619475D01*
X187031282Y-84619481D01*
X186987681Y-84663083D01*
X186926358Y-84696568D01*
X186856666Y-84691584D01*
X186812319Y-84663083D01*
X186768717Y-84619481D01*
X186768709Y-84619475D01*
X186631790Y-84540426D01*
X186631786Y-84540424D01*
X186631784Y-84540423D01*
X186479057Y-84499500D01*
X186320943Y-84499500D01*
X186168216Y-84540423D01*
X186168209Y-84540426D01*
X186031290Y-84619475D01*
X186031282Y-84619481D01*
X185987681Y-84663083D01*
X185926358Y-84696568D01*
X185856666Y-84691584D01*
X185812319Y-84663083D01*
X185768717Y-84619481D01*
X185768709Y-84619475D01*
X185631790Y-84540426D01*
X185631786Y-84540424D01*
X185631784Y-84540423D01*
X185479057Y-84499500D01*
X185320943Y-84499500D01*
X185168216Y-84540423D01*
X185168209Y-84540426D01*
X185031290Y-84619475D01*
X185031282Y-84619481D01*
X184987681Y-84663083D01*
X184926358Y-84696568D01*
X184856666Y-84691584D01*
X184812319Y-84663083D01*
X184768717Y-84619481D01*
X184768709Y-84619475D01*
X184631790Y-84540426D01*
X184631786Y-84540424D01*
X184631784Y-84540423D01*
X184479057Y-84499500D01*
X184320943Y-84499500D01*
X184168216Y-84540423D01*
X184168209Y-84540426D01*
X184031290Y-84619475D01*
X184031282Y-84619481D01*
X183987681Y-84663083D01*
X183926358Y-84696568D01*
X183856666Y-84691584D01*
X183812319Y-84663083D01*
X183768717Y-84619481D01*
X183768709Y-84619475D01*
X183631790Y-84540426D01*
X183631786Y-84540424D01*
X183631784Y-84540423D01*
X183479057Y-84499500D01*
X183320943Y-84499500D01*
X183168216Y-84540423D01*
X183168209Y-84540426D01*
X183031290Y-84619475D01*
X183031282Y-84619481D01*
X182987681Y-84663083D01*
X182926358Y-84696568D01*
X182856666Y-84691584D01*
X182812319Y-84663083D01*
X182768717Y-84619481D01*
X182768709Y-84619475D01*
X182631790Y-84540426D01*
X182631786Y-84540424D01*
X182631784Y-84540423D01*
X182479057Y-84499500D01*
X182320943Y-84499500D01*
X182168216Y-84540423D01*
X182168209Y-84540426D01*
X182031290Y-84619475D01*
X182031282Y-84619481D01*
X181987681Y-84663083D01*
X181926358Y-84696568D01*
X181856666Y-84691584D01*
X181812319Y-84663083D01*
X181768717Y-84619481D01*
X181768709Y-84619475D01*
X181631790Y-84540426D01*
X181631786Y-84540424D01*
X181631784Y-84540423D01*
X181479057Y-84499500D01*
X181320943Y-84499500D01*
X181168216Y-84540423D01*
X181168209Y-84540426D01*
X181031290Y-84619475D01*
X181031282Y-84619481D01*
X180987681Y-84663083D01*
X180926358Y-84696568D01*
X180856666Y-84691584D01*
X180812319Y-84663083D01*
X180768717Y-84619481D01*
X180768709Y-84619475D01*
X180631790Y-84540426D01*
X180631786Y-84540424D01*
X180631784Y-84540423D01*
X180479057Y-84499500D01*
X180320943Y-84499500D01*
X180168216Y-84540423D01*
X180168209Y-84540426D01*
X180031290Y-84619475D01*
X180031282Y-84619481D01*
X179919481Y-84731282D01*
X179919475Y-84731290D01*
X179840426Y-84868209D01*
X179840423Y-84868216D01*
X179799500Y-85020943D01*
X165922371Y-85020943D01*
X165971506Y-84977796D01*
X165981604Y-84973022D01*
X166031784Y-84959577D01*
X166168716Y-84880520D01*
X166280520Y-84768716D01*
X166359577Y-84631784D01*
X166400500Y-84479057D01*
X166400500Y-84320943D01*
X166359577Y-84168216D01*
X166359573Y-84168209D01*
X166280524Y-84031290D01*
X166280518Y-84031282D01*
X166168717Y-83919481D01*
X166168709Y-83919475D01*
X166031790Y-83840426D01*
X166031786Y-83840424D01*
X166031784Y-83840423D01*
X165879057Y-83799500D01*
X165720943Y-83799500D01*
X165568216Y-83840423D01*
X165568209Y-83840426D01*
X165431291Y-83919475D01*
X165425488Y-83923928D01*
X165360319Y-83949123D01*
X165291874Y-83935086D01*
X165274512Y-83923928D01*
X165268720Y-83919484D01*
X165268716Y-83919480D01*
X165268710Y-83919476D01*
X165268708Y-83919475D01*
X165131790Y-83840426D01*
X165131786Y-83840424D01*
X165131784Y-83840423D01*
X164979057Y-83799500D01*
X164849230Y-83799500D01*
X164782191Y-83779815D01*
X164741843Y-83737500D01*
X164680520Y-83631284D01*
X164568716Y-83519480D01*
X164568715Y-83519479D01*
X164568712Y-83519477D01*
X164462500Y-83458156D01*
X164454216Y-83449468D01*
X164443297Y-83444482D01*
X164430552Y-83424650D01*
X164414284Y-83407589D01*
X164411068Y-83394332D01*
X164405523Y-83385704D01*
X164400500Y-83350769D01*
X164400500Y-83249230D01*
X164420185Y-83182191D01*
X164462499Y-83141843D01*
X164568716Y-83080520D01*
X164680520Y-82968716D01*
X164759577Y-82831784D01*
X164800500Y-82679057D01*
X164800500Y-82520943D01*
X164759577Y-82368216D01*
X164723788Y-82306227D01*
X164680524Y-82231290D01*
X164680518Y-82231282D01*
X164568717Y-82119481D01*
X164568709Y-82119475D01*
X164431790Y-82040426D01*
X164431786Y-82040424D01*
X164431784Y-82040423D01*
X164279057Y-81999500D01*
X164120943Y-81999500D01*
X163968216Y-82040423D01*
X163968209Y-82040426D01*
X163831290Y-82119475D01*
X163831282Y-82119481D01*
X163719479Y-82231284D01*
X163676211Y-82306227D01*
X163625643Y-82354442D01*
X163557036Y-82367664D01*
X163492172Y-82341696D01*
X163481143Y-82331907D01*
X163468717Y-82319481D01*
X163468709Y-82319475D01*
X163331790Y-82240426D01*
X163331786Y-82240424D01*
X163331784Y-82240423D01*
X163179057Y-82199500D01*
X163020943Y-82199500D01*
X162868216Y-82240423D01*
X162868209Y-82240426D01*
X162731290Y-82319475D01*
X162731282Y-82319481D01*
X162619481Y-82431282D01*
X162619475Y-82431290D01*
X162540426Y-82568209D01*
X162540423Y-82568216D01*
X162499500Y-82720943D01*
X136900443Y-82720943D01*
X136900431Y-81234108D01*
X161099500Y-81234108D01*
X161099500Y-81365892D01*
X161116554Y-81429539D01*
X161133608Y-81493187D01*
X161141475Y-81506812D01*
X161199500Y-81607314D01*
X161292686Y-81700500D01*
X161406814Y-81766392D01*
X161534108Y-81800500D01*
X161534110Y-81800500D01*
X161665890Y-81800500D01*
X161665892Y-81800500D01*
X161793186Y-81766392D01*
X161907314Y-81700500D01*
X161973706Y-81634108D01*
X165899500Y-81634108D01*
X165899500Y-81765892D01*
X165916554Y-81829539D01*
X165933608Y-81893187D01*
X165956730Y-81933234D01*
X165999500Y-82007314D01*
X166092686Y-82100500D01*
X166206814Y-82166392D01*
X166334108Y-82200500D01*
X166334110Y-82200500D01*
X166465890Y-82200500D01*
X166465892Y-82200500D01*
X166593186Y-82166392D01*
X166707314Y-82100500D01*
X166800500Y-82007314D01*
X166807798Y-81994672D01*
X166858364Y-81946458D01*
X166926971Y-81933234D01*
X166977185Y-81949285D01*
X167006814Y-81966392D01*
X167134108Y-82000500D01*
X167134110Y-82000500D01*
X167265890Y-82000500D01*
X167265892Y-82000500D01*
X167393186Y-81966392D01*
X167507314Y-81900500D01*
X167600500Y-81807314D01*
X167640201Y-81738550D01*
X199799500Y-81738550D01*
X199799500Y-87386449D01*
X199802317Y-87427997D01*
X199846963Y-87607521D01*
X199929158Y-87773251D01*
X200036921Y-87907314D01*
X200045060Y-87917440D01*
X200189248Y-88033341D01*
X200354980Y-88115537D01*
X200534503Y-88160182D01*
X200534504Y-88160182D01*
X200534507Y-88160183D01*
X200576048Y-88163000D01*
X200576050Y-88163000D01*
X206223950Y-88163000D01*
X206223952Y-88163000D01*
X206265493Y-88160183D01*
X206445020Y-88115537D01*
X206610752Y-88033341D01*
X206754940Y-87917440D01*
X206870841Y-87773252D01*
X206953037Y-87607520D01*
X206997683Y-87427993D01*
X207000500Y-87386452D01*
X207000500Y-81738548D01*
X206997683Y-81697007D01*
X206953037Y-81517480D01*
X206870841Y-81351748D01*
X206754940Y-81207560D01*
X206736444Y-81192692D01*
X206610751Y-81091658D01*
X206445021Y-81009463D01*
X206265495Y-80964817D01*
X206265499Y-80964817D01*
X206234337Y-80962704D01*
X206223952Y-80962000D01*
X200576048Y-80962000D01*
X200564179Y-80962804D01*
X200534502Y-80964817D01*
X200354978Y-81009463D01*
X200189248Y-81091658D01*
X200045060Y-81207559D01*
X200045059Y-81207560D01*
X199929158Y-81351748D01*
X199846963Y-81517478D01*
X199802317Y-81697002D01*
X199799500Y-81738550D01*
X167640201Y-81738550D01*
X167666392Y-81693186D01*
X167700500Y-81565892D01*
X167700500Y-81434108D01*
X167666392Y-81306814D01*
X167600500Y-81192686D01*
X167507314Y-81099500D01*
X167450250Y-81066554D01*
X167393187Y-81033608D01*
X167329539Y-81016554D01*
X167265892Y-80999500D01*
X167134108Y-80999500D01*
X167006812Y-81033608D01*
X166892686Y-81099500D01*
X166892683Y-81099502D01*
X166799502Y-81192683D01*
X166799495Y-81192692D01*
X166792198Y-81205331D01*
X166741629Y-81253544D01*
X166673021Y-81266764D01*
X166622814Y-81250713D01*
X166593189Y-81233609D01*
X166593186Y-81233608D01*
X166465892Y-81199500D01*
X166334108Y-81199500D01*
X166206812Y-81233608D01*
X166092686Y-81299500D01*
X166092683Y-81299502D01*
X165999502Y-81392683D01*
X165999500Y-81392686D01*
X165933608Y-81506812D01*
X165917778Y-81565892D01*
X165899500Y-81634108D01*
X161973706Y-81634108D01*
X162000500Y-81607314D01*
X162013023Y-81585622D01*
X162025520Y-81563980D01*
X162066390Y-81493189D01*
X162066392Y-81493186D01*
X162100500Y-81365892D01*
X162100500Y-81234108D01*
X162066392Y-81106814D01*
X162000500Y-80992686D01*
X161907314Y-80899500D01*
X161850250Y-80866554D01*
X161793187Y-80833608D01*
X161729539Y-80816554D01*
X161665892Y-80799500D01*
X161534108Y-80799500D01*
X161406812Y-80833608D01*
X161292686Y-80899500D01*
X161292683Y-80899502D01*
X161199502Y-80992683D01*
X161199500Y-80992686D01*
X161133608Y-81106812D01*
X161110600Y-81192683D01*
X161099500Y-81234108D01*
X136900431Y-81234108D01*
X136900419Y-79742540D01*
X136900419Y-78634108D01*
X188399500Y-78634108D01*
X188399500Y-78765891D01*
X188433608Y-78893187D01*
X188466554Y-78950250D01*
X188499500Y-79007314D01*
X188592686Y-79100500D01*
X188706814Y-79166392D01*
X188834108Y-79200500D01*
X188834110Y-79200500D01*
X188965890Y-79200500D01*
X188965892Y-79200500D01*
X189093186Y-79166392D01*
X189207314Y-79100500D01*
X189300500Y-79007314D01*
X189366392Y-78893186D01*
X189400500Y-78765892D01*
X189400500Y-78634108D01*
X189366392Y-78506814D01*
X189300500Y-78392686D01*
X189207314Y-78299500D01*
X189150250Y-78266554D01*
X189093187Y-78233608D01*
X189029539Y-78216554D01*
X188965892Y-78199500D01*
X188834108Y-78199500D01*
X188706812Y-78233608D01*
X188592686Y-78299500D01*
X188592683Y-78299502D01*
X188499502Y-78392683D01*
X188499500Y-78392686D01*
X188433608Y-78506812D01*
X188399500Y-78634108D01*
X136900419Y-78634108D01*
X136900419Y-77634108D01*
X151749500Y-77634108D01*
X151749500Y-77765891D01*
X151783608Y-77893187D01*
X151816554Y-77950250D01*
X151849500Y-78007314D01*
X151942686Y-78100500D01*
X152056814Y-78166392D01*
X152184108Y-78200500D01*
X152184110Y-78200500D01*
X152315890Y-78200500D01*
X152315892Y-78200500D01*
X152443186Y-78166392D01*
X152557314Y-78100500D01*
X152650500Y-78007314D01*
X152716392Y-77893186D01*
X152743395Y-77792405D01*
X152779760Y-77732746D01*
X152842607Y-77702217D01*
X152863170Y-77700500D01*
X152890890Y-77700500D01*
X152890892Y-77700500D01*
X153018186Y-77666392D01*
X153132314Y-77600500D01*
X153225500Y-77507314D01*
X153291392Y-77393186D01*
X153325500Y-77265892D01*
X153325500Y-77134108D01*
X153291392Y-77006814D01*
X153225500Y-76892686D01*
X153132314Y-76799500D01*
X153018186Y-76733608D01*
X152890892Y-76699500D01*
X152759108Y-76699500D01*
X152631812Y-76733608D01*
X152517686Y-76799500D01*
X152517683Y-76799502D01*
X152424502Y-76892683D01*
X152424500Y-76892686D01*
X152358608Y-77006812D01*
X152358473Y-77007316D01*
X152333506Y-77100499D01*
X152331605Y-77107593D01*
X152295240Y-77167254D01*
X152232393Y-77197783D01*
X152211830Y-77199500D01*
X152184108Y-77199500D01*
X152056812Y-77233608D01*
X151942686Y-77299500D01*
X151942683Y-77299502D01*
X151849502Y-77392683D01*
X151849500Y-77392686D01*
X151783608Y-77506812D01*
X151749500Y-77634108D01*
X136900419Y-77634108D01*
X136900419Y-76534108D01*
X148199500Y-76534108D01*
X148199500Y-76665891D01*
X148233608Y-76793187D01*
X148266554Y-76850250D01*
X148299500Y-76907314D01*
X148392686Y-77000500D01*
X148506814Y-77066392D01*
X148634108Y-77100500D01*
X148634110Y-77100500D01*
X148765890Y-77100500D01*
X148765892Y-77100500D01*
X148893186Y-77066392D01*
X149007314Y-77000500D01*
X149100500Y-76907314D01*
X149166392Y-76793186D01*
X149200500Y-76665892D01*
X149200500Y-76634108D01*
X157549497Y-76634108D01*
X157549497Y-76765891D01*
X157583605Y-76893187D01*
X157591763Y-76907316D01*
X157649497Y-77007314D01*
X157742683Y-77100500D01*
X157856811Y-77166392D01*
X157984105Y-77200500D01*
X157984107Y-77200500D01*
X158115887Y-77200500D01*
X158115889Y-77200500D01*
X158243183Y-77166392D01*
X158357311Y-77100500D01*
X158450497Y-77007314D01*
X158516389Y-76893186D01*
X158550497Y-76765892D01*
X158550497Y-76634108D01*
X158516389Y-76506814D01*
X158450497Y-76392686D01*
X158357311Y-76299500D01*
X158329368Y-76283367D01*
X158329367Y-76283366D01*
X158243185Y-76233609D01*
X158243184Y-76233608D01*
X158243183Y-76233608D01*
X158115889Y-76199500D01*
X157984105Y-76199500D01*
X157856809Y-76233608D01*
X157742683Y-76299500D01*
X157742680Y-76299502D01*
X157649499Y-76392683D01*
X157649497Y-76392686D01*
X157583605Y-76506812D01*
X157549497Y-76634108D01*
X149200500Y-76634108D01*
X149200500Y-76534108D01*
X149166392Y-76406814D01*
X149100500Y-76292686D01*
X149007314Y-76199500D01*
X148980654Y-76184108D01*
X159349500Y-76184108D01*
X159349500Y-76315891D01*
X159383608Y-76443187D01*
X159416554Y-76500250D01*
X159449500Y-76557314D01*
X159542686Y-76650500D01*
X159656814Y-76716392D01*
X159784108Y-76750500D01*
X159784110Y-76750500D01*
X159915890Y-76750500D01*
X159915892Y-76750500D01*
X160043186Y-76716392D01*
X160157314Y-76650500D01*
X160250500Y-76557314D01*
X160316392Y-76443186D01*
X160350500Y-76315892D01*
X160350500Y-76184108D01*
X160316392Y-76056814D01*
X160250500Y-75942686D01*
X160157314Y-75849500D01*
X160100250Y-75816554D01*
X160043187Y-75783608D01*
X159979539Y-75766554D01*
X159915892Y-75749500D01*
X159784108Y-75749500D01*
X159656812Y-75783608D01*
X159542686Y-75849500D01*
X159542683Y-75849502D01*
X159449502Y-75942683D01*
X159449500Y-75942686D01*
X159383608Y-76056812D01*
X159349500Y-76184108D01*
X148980654Y-76184108D01*
X148950250Y-76166554D01*
X148893187Y-76133608D01*
X148829539Y-76116554D01*
X148765892Y-76099500D01*
X148634108Y-76099500D01*
X148506812Y-76133608D01*
X148392686Y-76199500D01*
X148392683Y-76199502D01*
X148299502Y-76292683D01*
X148299500Y-76292686D01*
X148233608Y-76406812D01*
X148199500Y-76534108D01*
X136900419Y-76534108D01*
X136900419Y-75620126D01*
X136900422Y-74717992D01*
X136900425Y-74064808D01*
X157969797Y-74064808D01*
X157969797Y-74196591D01*
X158003905Y-74323887D01*
X158033429Y-74375023D01*
X158069797Y-74438014D01*
X158162983Y-74531200D01*
X158277111Y-74597092D01*
X158404405Y-74631200D01*
X158404407Y-74631200D01*
X158536187Y-74631200D01*
X158536189Y-74631200D01*
X158663483Y-74597092D01*
X158777611Y-74531200D01*
X158870797Y-74438014D01*
X158936689Y-74323886D01*
X158970797Y-74196592D01*
X158970797Y-74064808D01*
X158936689Y-73937514D01*
X158871541Y-73824675D01*
X158870841Y-73821788D01*
X158868787Y-73819640D01*
X158862656Y-73788053D01*
X158855069Y-73756778D01*
X158856041Y-73753968D01*
X158855475Y-73751050D01*
X158867397Y-73721155D01*
X158877921Y-73690751D01*
X158880590Y-73688078D01*
X158881359Y-73686151D01*
X158890016Y-73678639D01*
X158906871Y-73661763D01*
X158916212Y-73655092D01*
X158918186Y-73654564D01*
X158953617Y-73634108D01*
X161299500Y-73634108D01*
X161299500Y-73765892D01*
X161313902Y-73819640D01*
X161333608Y-73893187D01*
X161351369Y-73923949D01*
X161399500Y-74007314D01*
X161492686Y-74100500D01*
X161606814Y-74166392D01*
X161734108Y-74200500D01*
X161734110Y-74200500D01*
X161865890Y-74200500D01*
X161865892Y-74200500D01*
X161993186Y-74166392D01*
X162107314Y-74100500D01*
X162200500Y-74007314D01*
X162266392Y-73893186D01*
X162300500Y-73765892D01*
X162300500Y-73634108D01*
X162266392Y-73506814D01*
X162200500Y-73392686D01*
X162107314Y-73299500D01*
X162028615Y-73254063D01*
X161993187Y-73233608D01*
X161929539Y-73216554D01*
X161865892Y-73199500D01*
X161734108Y-73199500D01*
X161606812Y-73233608D01*
X161492686Y-73299500D01*
X161492683Y-73299502D01*
X161399502Y-73392683D01*
X161399500Y-73392686D01*
X161333608Y-73506812D01*
X161317644Y-73566392D01*
X161299500Y-73634108D01*
X158953617Y-73634108D01*
X159032314Y-73588672D01*
X159125500Y-73495486D01*
X159191392Y-73381358D01*
X159225500Y-73254064D01*
X159225500Y-73122280D01*
X159191392Y-72994986D01*
X159125500Y-72880858D01*
X159032314Y-72787672D01*
X158975250Y-72754726D01*
X158918187Y-72721780D01*
X158906184Y-72718564D01*
X162841728Y-72718564D01*
X162841728Y-72850347D01*
X162875836Y-72977643D01*
X162891031Y-73003961D01*
X162941728Y-73091770D01*
X163034914Y-73184956D01*
X163073643Y-73207316D01*
X163152864Y-73253055D01*
X163201080Y-73303622D01*
X163214302Y-73372229D01*
X163210639Y-73392534D01*
X163199500Y-73434106D01*
X163199500Y-73434108D01*
X163199500Y-73565892D01*
X163205604Y-73588672D01*
X163233608Y-73693187D01*
X163249756Y-73721155D01*
X163299500Y-73807314D01*
X163392686Y-73900500D01*
X163506814Y-73966392D01*
X163634108Y-74000500D01*
X163634110Y-74000500D01*
X163765890Y-74000500D01*
X163765892Y-74000500D01*
X163893186Y-73966392D01*
X164007314Y-73900500D01*
X164100500Y-73807314D01*
X164166392Y-73693186D01*
X164200500Y-73565892D01*
X164200500Y-73434108D01*
X164166392Y-73306814D01*
X164100500Y-73192686D01*
X164007314Y-73099500D01*
X163894052Y-73034108D01*
X165699500Y-73034108D01*
X165699500Y-73165892D01*
X165716554Y-73229539D01*
X165733608Y-73293187D01*
X165739633Y-73303622D01*
X165799500Y-73407314D01*
X165799502Y-73407316D01*
X165846447Y-73454261D01*
X165879932Y-73515584D01*
X165874948Y-73585276D01*
X165846447Y-73629623D01*
X165841440Y-73634629D01*
X165841438Y-73634632D01*
X165775546Y-73748758D01*
X165741438Y-73876054D01*
X165741438Y-74007837D01*
X165775546Y-74135133D01*
X165781255Y-74145021D01*
X165841438Y-74249260D01*
X165841440Y-74249262D01*
X165888385Y-74296207D01*
X165921870Y-74357530D01*
X165916886Y-74427222D01*
X165888385Y-74471569D01*
X165883386Y-74476567D01*
X165883384Y-74476570D01*
X165817492Y-74590696D01*
X165783384Y-74717992D01*
X165783384Y-74849775D01*
X165817492Y-74977071D01*
X165850438Y-75034134D01*
X165883384Y-75091198D01*
X165976570Y-75184384D01*
X166090698Y-75250276D01*
X166217992Y-75284384D01*
X166217994Y-75284384D01*
X166349774Y-75284384D01*
X166349776Y-75284384D01*
X166477070Y-75250276D01*
X166591198Y-75184384D01*
X166684384Y-75091198D01*
X166750276Y-74977070D01*
X166784384Y-74849776D01*
X166784384Y-74717992D01*
X166750276Y-74590698D01*
X166684384Y-74476570D01*
X166637437Y-74429623D01*
X166603952Y-74368300D01*
X166608936Y-74298608D01*
X166637437Y-74254261D01*
X166642438Y-74249260D01*
X166708330Y-74135132D01*
X166742438Y-74007838D01*
X166742438Y-73876054D01*
X166708330Y-73748760D01*
X166642438Y-73634632D01*
X166595491Y-73587685D01*
X166562006Y-73526362D01*
X166566990Y-73456670D01*
X166595491Y-73412323D01*
X166600500Y-73407314D01*
X166666392Y-73293186D01*
X166700500Y-73165892D01*
X166700500Y-73034108D01*
X168299500Y-73034108D01*
X168299500Y-73165892D01*
X168316554Y-73229539D01*
X168333608Y-73293187D01*
X168339633Y-73303622D01*
X168399500Y-73407314D01*
X168492686Y-73500500D01*
X168591521Y-73557563D01*
X168605944Y-73565890D01*
X168606814Y-73566392D01*
X168734108Y-73600500D01*
X168734110Y-73600500D01*
X168865890Y-73600500D01*
X168865892Y-73600500D01*
X168993186Y-73566392D01*
X169107314Y-73500500D01*
X169200500Y-73407314D01*
X169266392Y-73293186D01*
X169300500Y-73165892D01*
X169300500Y-73034108D01*
X169298736Y-73027525D01*
X171149500Y-73027525D01*
X171149500Y-73172475D01*
X171187016Y-73312485D01*
X171187017Y-73312488D01*
X171259488Y-73438011D01*
X171259490Y-73438013D01*
X171259491Y-73438015D01*
X171361985Y-73540509D01*
X171361986Y-73540510D01*
X171361988Y-73540511D01*
X171487511Y-73612982D01*
X171487512Y-73612982D01*
X171487515Y-73612984D01*
X171627525Y-73650500D01*
X171627528Y-73650500D01*
X171772472Y-73650500D01*
X171772475Y-73650500D01*
X171912485Y-73612984D01*
X172038015Y-73540509D01*
X172140509Y-73438015D01*
X172212984Y-73312485D01*
X172250500Y-73172475D01*
X172250500Y-73027525D01*
X172212984Y-72887515D01*
X172191523Y-72850344D01*
X172140511Y-72761988D01*
X172140506Y-72761982D01*
X172038017Y-72659493D01*
X172038011Y-72659488D01*
X171912488Y-72587017D01*
X171912489Y-72587017D01*
X171901006Y-72583940D01*
X171772475Y-72549500D01*
X171627525Y-72549500D01*
X171498993Y-72583940D01*
X171487511Y-72587017D01*
X171361988Y-72659488D01*
X171361982Y-72659493D01*
X171259493Y-72761982D01*
X171259488Y-72761988D01*
X171187017Y-72887511D01*
X171187016Y-72887515D01*
X171149500Y-73027525D01*
X169298736Y-73027525D01*
X169266392Y-72906814D01*
X169200500Y-72792686D01*
X169107314Y-72699500D01*
X169038017Y-72659491D01*
X168993187Y-72633608D01*
X168882324Y-72603903D01*
X168865892Y-72599500D01*
X168734108Y-72599500D01*
X168606812Y-72633608D01*
X168492686Y-72699500D01*
X168492683Y-72699502D01*
X168399502Y-72792683D01*
X168399500Y-72792686D01*
X168333608Y-72906812D01*
X168307578Y-73003961D01*
X168299500Y-73034108D01*
X166700500Y-73034108D01*
X166666392Y-72906814D01*
X166600500Y-72792686D01*
X166507314Y-72699500D01*
X166438017Y-72659491D01*
X166393187Y-72633608D01*
X166282324Y-72603903D01*
X166265892Y-72599500D01*
X166134108Y-72599500D01*
X166006812Y-72633608D01*
X165892686Y-72699500D01*
X165892683Y-72699502D01*
X165799502Y-72792683D01*
X165799500Y-72792686D01*
X165733608Y-72906812D01*
X165707578Y-73003961D01*
X165699500Y-73034108D01*
X163894052Y-73034108D01*
X163893186Y-73033608D01*
X163892001Y-73033290D01*
X163884062Y-73028160D01*
X163863200Y-73003961D01*
X163841147Y-72980832D01*
X163840538Y-72977675D01*
X163838440Y-72975241D01*
X163833971Y-72943601D01*
X163827925Y-72912225D01*
X163828831Y-72907200D01*
X163828670Y-72906058D01*
X163829274Y-72904742D01*
X163831584Y-72891934D01*
X163842728Y-72850348D01*
X163842728Y-72718564D01*
X163808620Y-72591270D01*
X163806164Y-72587016D01*
X163774064Y-72531416D01*
X163757591Y-72463516D01*
X163780444Y-72397489D01*
X163793770Y-72381734D01*
X163794352Y-72381151D01*
X163794357Y-72381149D01*
X163887543Y-72287963D01*
X163953435Y-72173835D01*
X163987543Y-72046541D01*
X163987543Y-71914757D01*
X163953435Y-71787463D01*
X163898705Y-71692668D01*
X163895142Y-71686496D01*
X163878669Y-71618596D01*
X163901521Y-71552569D01*
X163956443Y-71509378D01*
X164002529Y-71500496D01*
X164071468Y-71500496D01*
X164071470Y-71500496D01*
X164198764Y-71466388D01*
X164312892Y-71400496D01*
X164406078Y-71307310D01*
X164471970Y-71193182D01*
X164506078Y-71065888D01*
X164506078Y-70934104D01*
X164471970Y-70806810D01*
X164406078Y-70692682D01*
X164312892Y-70599496D01*
X164254661Y-70565876D01*
X164198765Y-70533604D01*
X164135117Y-70516550D01*
X164071470Y-70499496D01*
X163939686Y-70499496D01*
X163812390Y-70533604D01*
X163698264Y-70599496D01*
X163698261Y-70599498D01*
X163605080Y-70692679D01*
X163605078Y-70692682D01*
X163539186Y-70806808D01*
X163514086Y-70900486D01*
X163505078Y-70934104D01*
X163505078Y-71065888D01*
X163537064Y-71185263D01*
X163539187Y-71193184D01*
X163539187Y-71193185D01*
X163597479Y-71294149D01*
X163613952Y-71362049D01*
X163591100Y-71428076D01*
X163536178Y-71471267D01*
X163490092Y-71480149D01*
X163421151Y-71480149D01*
X163293855Y-71514257D01*
X163179729Y-71580149D01*
X163179726Y-71580151D01*
X163086545Y-71673332D01*
X163086543Y-71673335D01*
X163020651Y-71787461D01*
X162986543Y-71914757D01*
X162986543Y-72046540D01*
X163020651Y-72173836D01*
X163055207Y-72233689D01*
X163071679Y-72301589D01*
X163048826Y-72367616D01*
X163035501Y-72383369D01*
X162941728Y-72477142D01*
X162875836Y-72591268D01*
X162841728Y-72718564D01*
X158906184Y-72718564D01*
X158854539Y-72704726D01*
X158790892Y-72687672D01*
X158659108Y-72687672D01*
X158531812Y-72721780D01*
X158417686Y-72787672D01*
X158417683Y-72787674D01*
X158324502Y-72880855D01*
X158324500Y-72880858D01*
X158258608Y-72994984D01*
X158232296Y-73093186D01*
X158224500Y-73122280D01*
X158224500Y-73254064D01*
X158238634Y-73306814D01*
X158258609Y-73381360D01*
X158258609Y-73381361D01*
X158323754Y-73494194D01*
X158340227Y-73562094D01*
X158317375Y-73628121D01*
X158278368Y-73663580D01*
X158162989Y-73730195D01*
X158162980Y-73730202D01*
X158069799Y-73823383D01*
X158069797Y-73823386D01*
X158003905Y-73937512D01*
X157969797Y-74064808D01*
X136900425Y-74064808D01*
X136900425Y-74056681D01*
X136900428Y-73027525D01*
X136900429Y-72834108D01*
X151399500Y-72834108D01*
X151399500Y-72965892D01*
X151410377Y-73006486D01*
X151433608Y-73093187D01*
X151450808Y-73122978D01*
X151499500Y-73207314D01*
X151592686Y-73300500D01*
X151706814Y-73366392D01*
X151834108Y-73400500D01*
X151834110Y-73400500D01*
X151965890Y-73400500D01*
X151965892Y-73400500D01*
X152093186Y-73366392D01*
X152207314Y-73300500D01*
X152300500Y-73207314D01*
X152366392Y-73093186D01*
X152400500Y-72965892D01*
X152400500Y-72834108D01*
X152366392Y-72706814D01*
X152300500Y-72592686D01*
X152207314Y-72499500D01*
X152168589Y-72477142D01*
X152134410Y-72457408D01*
X152134406Y-72457406D01*
X152093186Y-72433608D01*
X152013611Y-72412286D01*
X152013608Y-72412285D01*
X151986851Y-72405116D01*
X151965892Y-72399500D01*
X151834108Y-72399500D01*
X151706812Y-72433608D01*
X151592686Y-72499500D01*
X151592683Y-72499502D01*
X151499502Y-72592683D01*
X151499500Y-72592686D01*
X151433608Y-72706812D01*
X151418826Y-72761982D01*
X151399500Y-72834108D01*
X136900429Y-72834108D01*
X136900433Y-71673017D01*
X151838409Y-71673017D01*
X151838409Y-71804801D01*
X151850920Y-71851492D01*
X151872517Y-71932096D01*
X151888034Y-71958971D01*
X151938409Y-72046223D01*
X152031595Y-72139409D01*
X152145723Y-72205301D01*
X152273017Y-72239409D01*
X152273020Y-72239409D01*
X152404799Y-72239409D01*
X152404801Y-72239409D01*
X152532095Y-72205301D01*
X152646223Y-72139409D01*
X152739409Y-72046223D01*
X152805301Y-71932095D01*
X152839409Y-71804801D01*
X152839409Y-71673017D01*
X152805301Y-71545723D01*
X152743315Y-71438360D01*
X152726843Y-71370464D01*
X152749695Y-71304437D01*
X152788703Y-71268976D01*
X152793184Y-71266389D01*
X152907312Y-71200497D01*
X153000498Y-71107311D01*
X153066390Y-70993183D01*
X153100498Y-70865889D01*
X153100498Y-70734105D01*
X153066390Y-70606811D01*
X153031995Y-70547238D01*
X153015523Y-70479340D01*
X153038375Y-70413313D01*
X153051691Y-70397569D01*
X153113719Y-70335542D01*
X153179611Y-70221414D01*
X153213719Y-70094120D01*
X153213719Y-69962336D01*
X153179611Y-69835042D01*
X153113719Y-69720914D01*
X153020533Y-69627728D01*
X152986999Y-69608367D01*
X152986998Y-69608366D01*
X152906407Y-69561837D01*
X152906406Y-69561836D01*
X152906405Y-69561836D01*
X152779111Y-69527728D01*
X152647327Y-69527728D01*
X152520031Y-69561836D01*
X152405905Y-69627728D01*
X152405902Y-69627730D01*
X152312721Y-69720911D01*
X152312719Y-69720914D01*
X152246827Y-69835040D01*
X152212719Y-69962336D01*
X152212719Y-70094120D01*
X152241223Y-70200500D01*
X152246828Y-70221416D01*
X152246828Y-70221417D01*
X152281220Y-70280985D01*
X152297693Y-70348885D01*
X152274841Y-70414912D01*
X152261515Y-70430666D01*
X152199498Y-70492683D01*
X152133606Y-70606809D01*
X152099498Y-70734105D01*
X152099498Y-70865889D01*
X152107819Y-70896945D01*
X152133606Y-70993184D01*
X152155298Y-71030754D01*
X152195590Y-71100543D01*
X152212063Y-71168441D01*
X152189211Y-71234468D01*
X152150204Y-71269929D01*
X152031595Y-71338409D01*
X152031592Y-71338411D01*
X151938411Y-71431592D01*
X151938409Y-71431595D01*
X151872517Y-71545721D01*
X151840551Y-71665024D01*
X151838409Y-71673017D01*
X136900433Y-71673017D01*
X136900441Y-69509108D01*
X155633676Y-69509108D01*
X155633676Y-69640891D01*
X155667784Y-69768187D01*
X155667797Y-69768209D01*
X155733676Y-69882314D01*
X155826862Y-69975500D01*
X155829696Y-69977136D01*
X155832360Y-69978674D01*
X155880578Y-70029239D01*
X155893803Y-70097846D01*
X155867837Y-70162712D01*
X155858047Y-70173742D01*
X155839121Y-70192668D01*
X155839118Y-70192672D01*
X155773226Y-70306798D01*
X155739118Y-70434094D01*
X155739118Y-70565877D01*
X155773226Y-70693173D01*
X155774835Y-70695959D01*
X155839118Y-70807300D01*
X155932304Y-70900486D01*
X155939571Y-70904681D01*
X155951518Y-70911580D01*
X155999733Y-70962147D01*
X156012955Y-71030754D01*
X155986987Y-71095619D01*
X155977199Y-71106647D01*
X155898580Y-71185266D01*
X155832688Y-71299392D01*
X155809210Y-71387016D01*
X155798580Y-71426688D01*
X155798580Y-71558472D01*
X155809569Y-71599484D01*
X155832688Y-71685767D01*
X155865634Y-71742830D01*
X155898580Y-71799894D01*
X155991766Y-71893080D01*
X156105894Y-71958972D01*
X156233188Y-71993080D01*
X156233190Y-71993080D01*
X156364970Y-71993080D01*
X156364972Y-71993080D01*
X156492266Y-71958972D01*
X156535363Y-71934090D01*
X157774889Y-71934090D01*
X157774889Y-72065874D01*
X157787378Y-72112485D01*
X157808997Y-72193169D01*
X157816001Y-72205300D01*
X157874889Y-72307296D01*
X157968075Y-72400482D01*
X158082203Y-72466374D01*
X158209497Y-72500482D01*
X158209499Y-72500482D01*
X158341279Y-72500482D01*
X158341281Y-72500482D01*
X158468575Y-72466374D01*
X158582703Y-72400482D01*
X158675889Y-72307296D01*
X158741781Y-72193168D01*
X158775889Y-72065874D01*
X158775889Y-71934090D01*
X158741781Y-71806796D01*
X158675889Y-71692668D01*
X158582703Y-71599482D01*
X158575124Y-71595106D01*
X158526910Y-71544541D01*
X158513686Y-71475934D01*
X158539654Y-71411069D01*
X158596568Y-71370540D01*
X158605020Y-71367948D01*
X158651335Y-71355539D01*
X158765463Y-71289647D01*
X158858649Y-71196461D01*
X158924541Y-71082333D01*
X158958649Y-70955039D01*
X158958649Y-70823255D01*
X158924541Y-70695961D01*
X158858649Y-70581833D01*
X158780691Y-70503875D01*
X158747206Y-70442552D01*
X158752190Y-70372860D01*
X158760986Y-70354193D01*
X158771755Y-70335542D01*
X158812101Y-70265660D01*
X158846209Y-70138366D01*
X158846209Y-70006582D01*
X158812101Y-69879288D01*
X158786555Y-69835042D01*
X158767514Y-69802061D01*
X158767513Y-69802060D01*
X158746209Y-69765160D01*
X158715157Y-69734108D01*
X167899500Y-69734108D01*
X167899500Y-69865892D01*
X167903901Y-69882316D01*
X167933608Y-69993187D01*
X167961440Y-70041392D01*
X167999500Y-70107314D01*
X168092686Y-70200500D01*
X168191521Y-70257563D01*
X168205549Y-70265662D01*
X168206814Y-70266392D01*
X168334108Y-70300500D01*
X168334110Y-70300500D01*
X168465890Y-70300500D01*
X168465892Y-70300500D01*
X168593186Y-70266392D01*
X168707314Y-70200500D01*
X168800500Y-70107314D01*
X168866392Y-69993186D01*
X168900500Y-69865892D01*
X168900500Y-69734108D01*
X168866392Y-69606814D01*
X168865969Y-69606082D01*
X168857563Y-69591521D01*
X168800500Y-69492686D01*
X168707314Y-69399500D01*
X168608172Y-69342260D01*
X168593187Y-69333608D01*
X168516208Y-69312982D01*
X168465892Y-69299500D01*
X168334108Y-69299500D01*
X168206812Y-69333608D01*
X168092686Y-69399500D01*
X168092683Y-69399502D01*
X167999502Y-69492683D01*
X167999500Y-69492686D01*
X167933608Y-69606812D01*
X167916148Y-69671976D01*
X167899500Y-69734108D01*
X158715157Y-69734108D01*
X158653023Y-69671974D01*
X158616871Y-69651101D01*
X158605292Y-69639498D01*
X158596103Y-69622628D01*
X158582849Y-69608727D01*
X158579737Y-69592582D01*
X158571871Y-69578140D01*
X158573261Y-69558979D01*
X158569627Y-69540120D01*
X158575738Y-69524854D01*
X158576929Y-69508454D01*
X158588456Y-69493088D01*
X158595596Y-69475256D01*
X158613425Y-69459807D01*
X158618859Y-69452564D01*
X158623982Y-69450659D01*
X158631063Y-69444523D01*
X158707314Y-69400500D01*
X158800500Y-69307314D01*
X158866392Y-69193186D01*
X158900500Y-69065892D01*
X158900500Y-68934108D01*
X158866392Y-68806814D01*
X158800500Y-68692686D01*
X158707314Y-68599500D01*
X158629270Y-68554441D01*
X158593187Y-68533608D01*
X158486896Y-68505128D01*
X158465892Y-68499500D01*
X158334108Y-68499500D01*
X158206812Y-68533608D01*
X158092686Y-68599500D01*
X158092683Y-68599502D01*
X157999502Y-68692683D01*
X157999500Y-68692686D01*
X157933608Y-68806812D01*
X157903027Y-68920945D01*
X157899500Y-68934108D01*
X157899500Y-69065892D01*
X157903027Y-69079055D01*
X157933608Y-69193187D01*
X157955896Y-69231790D01*
X157999500Y-69307314D01*
X158092686Y-69400500D01*
X158112293Y-69411820D01*
X158114643Y-69413177D01*
X158162859Y-69463744D01*
X158176081Y-69532351D01*
X158150113Y-69597216D01*
X158114644Y-69627950D01*
X158038401Y-69671970D01*
X158038392Y-69671976D01*
X157945211Y-69765157D01*
X157945209Y-69765160D01*
X157879317Y-69879286D01*
X157857064Y-69962338D01*
X157845209Y-70006582D01*
X157845209Y-70138366D01*
X157854688Y-70173742D01*
X157879317Y-70265661D01*
X157899431Y-70300499D01*
X157945209Y-70379788D01*
X157945211Y-70379790D01*
X158023166Y-70457745D01*
X158056651Y-70519068D01*
X158051667Y-70588760D01*
X158042872Y-70607426D01*
X157991758Y-70695957D01*
X157991758Y-70695958D01*
X157991758Y-70695959D01*
X157991757Y-70695961D01*
X157981536Y-70734107D01*
X157957649Y-70823255D01*
X157957649Y-70955038D01*
X157991757Y-71082334D01*
X158006178Y-71107311D01*
X158057649Y-71196461D01*
X158150835Y-71289647D01*
X158158410Y-71294020D01*
X158206626Y-71344585D01*
X158219851Y-71413191D01*
X158193885Y-71478057D01*
X158136972Y-71518587D01*
X158128507Y-71521182D01*
X158082204Y-71533589D01*
X158082203Y-71533589D01*
X157968075Y-71599482D01*
X157968072Y-71599484D01*
X157874891Y-71692665D01*
X157874889Y-71692668D01*
X157808997Y-71806794D01*
X157803442Y-71827527D01*
X157774889Y-71934090D01*
X156535363Y-71934090D01*
X156606394Y-71893080D01*
X156699580Y-71799894D01*
X156765472Y-71685766D01*
X156799580Y-71558472D01*
X156799580Y-71426688D01*
X156765472Y-71299394D01*
X156699580Y-71185266D01*
X156606394Y-71092080D01*
X156587177Y-71080985D01*
X156538963Y-71030416D01*
X156525742Y-70961809D01*
X156551711Y-70896945D01*
X156561483Y-70885934D01*
X156640118Y-70807300D01*
X156706010Y-70693172D01*
X156740118Y-70565878D01*
X156740118Y-70434094D01*
X156706010Y-70306800D01*
X156640118Y-70192672D01*
X156546932Y-70099486D01*
X156541428Y-70096308D01*
X156493214Y-70045743D01*
X156479990Y-69977136D01*
X156505958Y-69912271D01*
X156515742Y-69901247D01*
X156534676Y-69882314D01*
X156600568Y-69768186D01*
X156634676Y-69640892D01*
X156634676Y-69509108D01*
X156600568Y-69381814D01*
X156534676Y-69267686D01*
X156441490Y-69174500D01*
X156378289Y-69138011D01*
X156327363Y-69108608D01*
X156263715Y-69091554D01*
X156200068Y-69074500D01*
X156068284Y-69074500D01*
X155940988Y-69108608D01*
X155826862Y-69174500D01*
X155826859Y-69174502D01*
X155733678Y-69267683D01*
X155733676Y-69267686D01*
X155667784Y-69381812D01*
X155633676Y-69509108D01*
X136900441Y-69509108D01*
X136900451Y-66842345D01*
X155515157Y-66842345D01*
X155515157Y-66974128D01*
X155549265Y-67101424D01*
X155582211Y-67158487D01*
X155615157Y-67215551D01*
X155708343Y-67308737D01*
X155822471Y-67374629D01*
X155949765Y-67408737D01*
X155949767Y-67408737D01*
X156081547Y-67408737D01*
X156081549Y-67408737D01*
X156208843Y-67374629D01*
X156322971Y-67308737D01*
X156416157Y-67215551D01*
X156482049Y-67101423D01*
X156516157Y-66974129D01*
X156516157Y-66934108D01*
X157939102Y-66934108D01*
X157939102Y-67065892D01*
X157948623Y-67101424D01*
X157973210Y-67193187D01*
X157995498Y-67231790D01*
X158039102Y-67307314D01*
X158132288Y-67400500D01*
X158246416Y-67466392D01*
X158373710Y-67500500D01*
X158373712Y-67500500D01*
X158505492Y-67500500D01*
X158505494Y-67500500D01*
X158632788Y-67466392D01*
X158746916Y-67400500D01*
X158840102Y-67307314D01*
X158851953Y-67286787D01*
X163165440Y-67286787D01*
X163165440Y-67418571D01*
X163180196Y-67473642D01*
X163199548Y-67545866D01*
X163229412Y-67597591D01*
X163265440Y-67659993D01*
X163265442Y-67659995D01*
X163350963Y-67745516D01*
X163384448Y-67806839D01*
X163379464Y-67876531D01*
X163370669Y-67895197D01*
X163340805Y-67946922D01*
X163340805Y-67946923D01*
X163340805Y-67946924D01*
X163340804Y-67946926D01*
X163306696Y-68074220D01*
X163306696Y-68206004D01*
X163313604Y-68231784D01*
X163340804Y-68333299D01*
X163361253Y-68368717D01*
X163406696Y-68447426D01*
X163406698Y-68447428D01*
X163477462Y-68518192D01*
X163510947Y-68579515D01*
X163505963Y-68649207D01*
X163477463Y-68693553D01*
X163443390Y-68727626D01*
X163443387Y-68727630D01*
X163377495Y-68841756D01*
X163343387Y-68969052D01*
X163343387Y-69100836D01*
X163353348Y-69138011D01*
X163377495Y-69228131D01*
X163379608Y-69231790D01*
X163443387Y-69342258D01*
X163536573Y-69435444D01*
X163650701Y-69501336D01*
X163777995Y-69535444D01*
X163777997Y-69535444D01*
X163909777Y-69535444D01*
X163909779Y-69535444D01*
X164037073Y-69501336D01*
X164151201Y-69435444D01*
X164244387Y-69342258D01*
X164310279Y-69228130D01*
X164344387Y-69100836D01*
X164344387Y-68969052D01*
X164310279Y-68841758D01*
X164244387Y-68727630D01*
X164244282Y-68727525D01*
X170949500Y-68727525D01*
X170949500Y-68872475D01*
X170975378Y-68969052D01*
X170987017Y-69012488D01*
X171059488Y-69138011D01*
X171059490Y-69138013D01*
X171059491Y-69138015D01*
X171161985Y-69240509D01*
X171161986Y-69240510D01*
X171161988Y-69240511D01*
X171287511Y-69312982D01*
X171287512Y-69312982D01*
X171287515Y-69312984D01*
X171427525Y-69350500D01*
X171427528Y-69350500D01*
X171572472Y-69350500D01*
X171572475Y-69350500D01*
X171712485Y-69312984D01*
X171838015Y-69240509D01*
X171940509Y-69138015D01*
X172012984Y-69012485D01*
X172050500Y-68872475D01*
X172050500Y-68727525D01*
X172012984Y-68587515D01*
X171985904Y-68540612D01*
X171940511Y-68461988D01*
X171940506Y-68461982D01*
X171838017Y-68359493D01*
X171838011Y-68359488D01*
X171712488Y-68287017D01*
X171712489Y-68287017D01*
X171701006Y-68283940D01*
X171671560Y-68276050D01*
X173199500Y-68276050D01*
X173199500Y-73923949D01*
X173202317Y-73965497D01*
X173246963Y-74145021D01*
X173329158Y-74310751D01*
X173431455Y-74438014D01*
X173445060Y-74454940D01*
X173589248Y-74570841D01*
X173754980Y-74653037D01*
X173934503Y-74697682D01*
X173934504Y-74697682D01*
X173934507Y-74697683D01*
X173976048Y-74700500D01*
X173976050Y-74700500D01*
X179623950Y-74700500D01*
X179623952Y-74700500D01*
X179665493Y-74697683D01*
X179845020Y-74653037D01*
X180010752Y-74570841D01*
X180154940Y-74454940D01*
X180270841Y-74310752D01*
X180353037Y-74145020D01*
X180397683Y-73965493D01*
X180400500Y-73923952D01*
X180400500Y-72716697D01*
X180420185Y-72649658D01*
X180472989Y-72603903D01*
X180492397Y-72596925D01*
X180631784Y-72559577D01*
X180768716Y-72480520D01*
X180812319Y-72436917D01*
X180873642Y-72403432D01*
X180943334Y-72408416D01*
X180987681Y-72436917D01*
X181031284Y-72480520D01*
X181031286Y-72480521D01*
X181031290Y-72480524D01*
X181119439Y-72531416D01*
X181168216Y-72559577D01*
X181320943Y-72600500D01*
X181320945Y-72600500D01*
X181479055Y-72600500D01*
X181479057Y-72600500D01*
X181631784Y-72559577D01*
X181768716Y-72480520D01*
X181812319Y-72436917D01*
X181873642Y-72403432D01*
X181943334Y-72408416D01*
X181987681Y-72436917D01*
X182031284Y-72480520D01*
X182031286Y-72480521D01*
X182031290Y-72480524D01*
X182119439Y-72531416D01*
X182168216Y-72559577D01*
X182320943Y-72600500D01*
X182320945Y-72600500D01*
X182479055Y-72600500D01*
X182479057Y-72600500D01*
X182631784Y-72559577D01*
X182768716Y-72480520D01*
X182812319Y-72436917D01*
X182873642Y-72403432D01*
X182943334Y-72408416D01*
X182987681Y-72436917D01*
X183031284Y-72480520D01*
X183031286Y-72480521D01*
X183031290Y-72480524D01*
X183119439Y-72531416D01*
X183168216Y-72559577D01*
X183320943Y-72600500D01*
X183320945Y-72600500D01*
X183479055Y-72600500D01*
X183479057Y-72600500D01*
X183631784Y-72559577D01*
X183768716Y-72480520D01*
X183812319Y-72436917D01*
X183873642Y-72403432D01*
X183943334Y-72408416D01*
X183987681Y-72436917D01*
X184031284Y-72480520D01*
X184031286Y-72480521D01*
X184031290Y-72480524D01*
X184119439Y-72531416D01*
X184168216Y-72559577D01*
X184320943Y-72600500D01*
X184320945Y-72600500D01*
X184479055Y-72600500D01*
X184479057Y-72600500D01*
X184631784Y-72559577D01*
X184768716Y-72480520D01*
X184812319Y-72436917D01*
X184873642Y-72403432D01*
X184943334Y-72408416D01*
X184987681Y-72436917D01*
X185031284Y-72480520D01*
X185031286Y-72480521D01*
X185031290Y-72480524D01*
X185119439Y-72531416D01*
X185168216Y-72559577D01*
X185320943Y-72600500D01*
X185320945Y-72600500D01*
X185479055Y-72600500D01*
X185479057Y-72600500D01*
X185631784Y-72559577D01*
X185768716Y-72480520D01*
X185812319Y-72436917D01*
X185873642Y-72403432D01*
X185943334Y-72408416D01*
X185987681Y-72436917D01*
X186031284Y-72480520D01*
X186031286Y-72480521D01*
X186031290Y-72480524D01*
X186119439Y-72531416D01*
X186168216Y-72559577D01*
X186320943Y-72600500D01*
X186320945Y-72600500D01*
X186479055Y-72600500D01*
X186479057Y-72600500D01*
X186631784Y-72559577D01*
X186768716Y-72480520D01*
X186812319Y-72436917D01*
X186873642Y-72403432D01*
X186943334Y-72408416D01*
X186987681Y-72436917D01*
X187031284Y-72480520D01*
X187031286Y-72480521D01*
X187031290Y-72480524D01*
X187119439Y-72531416D01*
X187168216Y-72559577D01*
X187320943Y-72600500D01*
X187320945Y-72600500D01*
X187479055Y-72600500D01*
X187479057Y-72600500D01*
X187631784Y-72559577D01*
X187768716Y-72480520D01*
X187812319Y-72436917D01*
X187873642Y-72403432D01*
X187943334Y-72408416D01*
X187987681Y-72436917D01*
X188031284Y-72480520D01*
X188031286Y-72480521D01*
X188031290Y-72480524D01*
X188119439Y-72531416D01*
X188168216Y-72559577D01*
X188320943Y-72600500D01*
X188320945Y-72600500D01*
X188479055Y-72600500D01*
X188479057Y-72600500D01*
X188631784Y-72559577D01*
X188768716Y-72480520D01*
X188812319Y-72436917D01*
X188873642Y-72403432D01*
X188943334Y-72408416D01*
X188987681Y-72436917D01*
X189031284Y-72480520D01*
X189031286Y-72480521D01*
X189031290Y-72480524D01*
X189119439Y-72531416D01*
X189168216Y-72559577D01*
X189320943Y-72600500D01*
X189320945Y-72600500D01*
X189479055Y-72600500D01*
X189479057Y-72600500D01*
X189631784Y-72559577D01*
X189768716Y-72480520D01*
X189812319Y-72436917D01*
X189873642Y-72403432D01*
X189943334Y-72408416D01*
X189987681Y-72436917D01*
X190031284Y-72480520D01*
X190031286Y-72480521D01*
X190031290Y-72480524D01*
X190119439Y-72531416D01*
X190168216Y-72559577D01*
X190320943Y-72600500D01*
X190320945Y-72600500D01*
X190479055Y-72600500D01*
X190479057Y-72600500D01*
X190631784Y-72559577D01*
X190768716Y-72480520D01*
X190880520Y-72368716D01*
X190959577Y-72231784D01*
X191000500Y-72079057D01*
X191000500Y-71920943D01*
X190975469Y-71827525D01*
X194549500Y-71827525D01*
X194549500Y-71972475D01*
X194578059Y-72079056D01*
X194587017Y-72112488D01*
X194659488Y-72238011D01*
X194659490Y-72238013D01*
X194659491Y-72238015D01*
X194761985Y-72340509D01*
X194761986Y-72340510D01*
X194761988Y-72340511D01*
X194887511Y-72412982D01*
X194887512Y-72412982D01*
X194887515Y-72412984D01*
X195027525Y-72450500D01*
X195027528Y-72450500D01*
X195172472Y-72450500D01*
X195172475Y-72450500D01*
X195312485Y-72412984D01*
X195438015Y-72340509D01*
X195540509Y-72238015D01*
X195612984Y-72112485D01*
X195650500Y-71972475D01*
X195650500Y-71827525D01*
X195612984Y-71687515D01*
X195611974Y-71685766D01*
X195540511Y-71561988D01*
X195540506Y-71561982D01*
X195438017Y-71459493D01*
X195438011Y-71459488D01*
X195312488Y-71387017D01*
X195312489Y-71387017D01*
X195301006Y-71383940D01*
X195172475Y-71349500D01*
X195027525Y-71349500D01*
X194898993Y-71383940D01*
X194887511Y-71387017D01*
X194761988Y-71459488D01*
X194761982Y-71459493D01*
X194659493Y-71561982D01*
X194659488Y-71561988D01*
X194587017Y-71687511D01*
X194587016Y-71687515D01*
X194549500Y-71827525D01*
X190975469Y-71827525D01*
X190959577Y-71768216D01*
X190912985Y-71687515D01*
X190880524Y-71631290D01*
X190880518Y-71631282D01*
X190836917Y-71587681D01*
X190803432Y-71526358D01*
X190808416Y-71456666D01*
X190836917Y-71412319D01*
X190856682Y-71392554D01*
X190880520Y-71368716D01*
X190959577Y-71231784D01*
X191000500Y-71079057D01*
X191000500Y-70920943D01*
X190959577Y-70768216D01*
X190959573Y-70768209D01*
X190880524Y-70631290D01*
X190880518Y-70631282D01*
X190836917Y-70587681D01*
X190803432Y-70526358D01*
X190808416Y-70456666D01*
X190836917Y-70412319D01*
X190851679Y-70397557D01*
X190880520Y-70368716D01*
X190959577Y-70231784D01*
X191000500Y-70079057D01*
X191000500Y-69920943D01*
X190959577Y-69768216D01*
X190939885Y-69734108D01*
X190880524Y-69631290D01*
X190880518Y-69631282D01*
X190836917Y-69587681D01*
X190803432Y-69526358D01*
X190808416Y-69456666D01*
X190836917Y-69412319D01*
X190849736Y-69399500D01*
X190880520Y-69368716D01*
X190959577Y-69231784D01*
X191000500Y-69079057D01*
X191000500Y-68920943D01*
X190959577Y-68768216D01*
X190936143Y-68727626D01*
X190880524Y-68631290D01*
X190880518Y-68631282D01*
X190836917Y-68587681D01*
X190803432Y-68526358D01*
X190808416Y-68456666D01*
X190836917Y-68412319D01*
X190880520Y-68368716D01*
X190959577Y-68231784D01*
X191000500Y-68079057D01*
X191000500Y-67920943D01*
X190959577Y-67768216D01*
X190959573Y-67768209D01*
X190880524Y-67631290D01*
X190880518Y-67631282D01*
X190836917Y-67587681D01*
X190803432Y-67526358D01*
X190808416Y-67456666D01*
X190836917Y-67412319D01*
X190848739Y-67400497D01*
X190880520Y-67368716D01*
X190959577Y-67231784D01*
X191000500Y-67079057D01*
X191000500Y-66920943D01*
X190959577Y-66768216D01*
X190929245Y-66715679D01*
X190880524Y-66631290D01*
X190880518Y-66631282D01*
X190836917Y-66587681D01*
X190803432Y-66526358D01*
X190808416Y-66456666D01*
X190836917Y-66412319D01*
X190848745Y-66400491D01*
X190880520Y-66368716D01*
X190959577Y-66231784D01*
X191000500Y-66079057D01*
X191000500Y-65920943D01*
X190959577Y-65768216D01*
X190900501Y-65665892D01*
X190880524Y-65631290D01*
X190880518Y-65631282D01*
X190836917Y-65587681D01*
X190803432Y-65526358D01*
X190808416Y-65456666D01*
X190836917Y-65412319D01*
X190842424Y-65406812D01*
X190880520Y-65368716D01*
X190959577Y-65231784D01*
X191000500Y-65079057D01*
X191000500Y-64920943D01*
X190959577Y-64768216D01*
X190924415Y-64707313D01*
X190880524Y-64631290D01*
X190880518Y-64631282D01*
X190836917Y-64587681D01*
X190803432Y-64526358D01*
X190808416Y-64456666D01*
X190836917Y-64412319D01*
X190855438Y-64393798D01*
X190880520Y-64368716D01*
X190959577Y-64231784D01*
X191000500Y-64079057D01*
X191000500Y-63920943D01*
X190959577Y-63768216D01*
X190959573Y-63768209D01*
X190880524Y-63631290D01*
X190880518Y-63631282D01*
X190836917Y-63587681D01*
X190803432Y-63526358D01*
X190808416Y-63456666D01*
X190836917Y-63412319D01*
X190841007Y-63408229D01*
X190880520Y-63368716D01*
X190959577Y-63231784D01*
X191000500Y-63079057D01*
X191000500Y-62920943D01*
X190959577Y-62768216D01*
X190959573Y-62768209D01*
X190880524Y-62631290D01*
X190880518Y-62631282D01*
X190836917Y-62587681D01*
X190803432Y-62526358D01*
X190808416Y-62456666D01*
X190836917Y-62412319D01*
X190858520Y-62390716D01*
X190880520Y-62368716D01*
X190959577Y-62231784D01*
X191000500Y-62079057D01*
X191000500Y-61920943D01*
X190959577Y-61768216D01*
X190900000Y-61665024D01*
X190880524Y-61631290D01*
X190880518Y-61631282D01*
X190768717Y-61519481D01*
X190768709Y-61519475D01*
X190631790Y-61440426D01*
X190631786Y-61440424D01*
X190631784Y-61440423D01*
X190479057Y-61399500D01*
X190320943Y-61399500D01*
X190168216Y-61440423D01*
X190168209Y-61440426D01*
X190031290Y-61519475D01*
X190031282Y-61519481D01*
X189987681Y-61563083D01*
X189926358Y-61596568D01*
X189856666Y-61591584D01*
X189812319Y-61563083D01*
X189768717Y-61519481D01*
X189768709Y-61519475D01*
X189631790Y-61440426D01*
X189631786Y-61440424D01*
X189631784Y-61440423D01*
X189479057Y-61399500D01*
X189320943Y-61399500D01*
X189168216Y-61440423D01*
X189168209Y-61440426D01*
X189031290Y-61519475D01*
X189031282Y-61519481D01*
X188987681Y-61563083D01*
X188926358Y-61596568D01*
X188856666Y-61591584D01*
X188812319Y-61563083D01*
X188768717Y-61519481D01*
X188768709Y-61519475D01*
X188631790Y-61440426D01*
X188631786Y-61440424D01*
X188631784Y-61440423D01*
X188479057Y-61399500D01*
X188320943Y-61399500D01*
X188168216Y-61440423D01*
X188168209Y-61440426D01*
X188031290Y-61519475D01*
X188031282Y-61519481D01*
X187987681Y-61563083D01*
X187926358Y-61596568D01*
X187856666Y-61591584D01*
X187812319Y-61563083D01*
X187768717Y-61519481D01*
X187768709Y-61519475D01*
X187631790Y-61440426D01*
X187631786Y-61440424D01*
X187631784Y-61440423D01*
X187479057Y-61399500D01*
X187320943Y-61399500D01*
X187168216Y-61440423D01*
X187168209Y-61440426D01*
X187031290Y-61519475D01*
X187031282Y-61519481D01*
X186987681Y-61563083D01*
X186926358Y-61596568D01*
X186856666Y-61591584D01*
X186812319Y-61563083D01*
X186768717Y-61519481D01*
X186768709Y-61519475D01*
X186631790Y-61440426D01*
X186631786Y-61440424D01*
X186631784Y-61440423D01*
X186479057Y-61399500D01*
X186320943Y-61399500D01*
X186168216Y-61440423D01*
X186168209Y-61440426D01*
X186031290Y-61519475D01*
X186031282Y-61519481D01*
X185987681Y-61563083D01*
X185926358Y-61596568D01*
X185856666Y-61591584D01*
X185812319Y-61563083D01*
X185768717Y-61519481D01*
X185768709Y-61519475D01*
X185631790Y-61440426D01*
X185631786Y-61440424D01*
X185631784Y-61440423D01*
X185479057Y-61399500D01*
X185320943Y-61399500D01*
X185168216Y-61440423D01*
X185168209Y-61440426D01*
X185031290Y-61519475D01*
X185031282Y-61519481D01*
X184987681Y-61563083D01*
X184926358Y-61596568D01*
X184856666Y-61591584D01*
X184812319Y-61563083D01*
X184768717Y-61519481D01*
X184768709Y-61519475D01*
X184631790Y-61440426D01*
X184631786Y-61440424D01*
X184631784Y-61440423D01*
X184479057Y-61399500D01*
X184320943Y-61399500D01*
X184168216Y-61440423D01*
X184168209Y-61440426D01*
X184031290Y-61519475D01*
X184031282Y-61519481D01*
X183987681Y-61563083D01*
X183926358Y-61596568D01*
X183856666Y-61591584D01*
X183812319Y-61563083D01*
X183768717Y-61519481D01*
X183768709Y-61519475D01*
X183631790Y-61440426D01*
X183631786Y-61440424D01*
X183631784Y-61440423D01*
X183479057Y-61399500D01*
X183320943Y-61399500D01*
X183168216Y-61440423D01*
X183168209Y-61440426D01*
X183031290Y-61519475D01*
X183031282Y-61519481D01*
X182969137Y-61581627D01*
X182907814Y-61615112D01*
X182838122Y-61610128D01*
X182793775Y-61581627D01*
X182753629Y-61541481D01*
X182753621Y-61541475D01*
X182616702Y-61462426D01*
X182616698Y-61462424D01*
X182616696Y-61462423D01*
X182463969Y-61421500D01*
X182305855Y-61421500D01*
X182153128Y-61462423D01*
X182153121Y-61462426D01*
X182016202Y-61541475D01*
X182016193Y-61541482D01*
X181991133Y-61566541D01*
X181929809Y-61600024D01*
X181860118Y-61595037D01*
X181815774Y-61566538D01*
X181768717Y-61519481D01*
X181768709Y-61519475D01*
X181631790Y-61440426D01*
X181631786Y-61440424D01*
X181631784Y-61440423D01*
X181479057Y-61399500D01*
X181320943Y-61399500D01*
X181168216Y-61440423D01*
X181168209Y-61440426D01*
X181031290Y-61519475D01*
X181031282Y-61519481D01*
X180987681Y-61563083D01*
X180926358Y-61596568D01*
X180856666Y-61591584D01*
X180812319Y-61563083D01*
X180768717Y-61519481D01*
X180768709Y-61519475D01*
X180631790Y-61440426D01*
X180631786Y-61440424D01*
X180631784Y-61440423D01*
X180479057Y-61399500D01*
X180320943Y-61399500D01*
X180168216Y-61440423D01*
X180168209Y-61440426D01*
X180031290Y-61519475D01*
X180031282Y-61519481D01*
X179919481Y-61631282D01*
X179919475Y-61631290D01*
X179840426Y-61768209D01*
X179840423Y-61768216D01*
X179799500Y-61920943D01*
X179799500Y-62079057D01*
X179840289Y-62231282D01*
X179840423Y-62231783D01*
X179840426Y-62231790D01*
X179919475Y-62368709D01*
X179919481Y-62368717D01*
X179963083Y-62412319D01*
X179996568Y-62473642D01*
X179991584Y-62543334D01*
X179963083Y-62587681D01*
X179919481Y-62631282D01*
X179919475Y-62631290D01*
X179840426Y-62768209D01*
X179840423Y-62768216D01*
X179799500Y-62920943D01*
X179799500Y-63079057D01*
X179832041Y-63200500D01*
X179840423Y-63231783D01*
X179840426Y-63231790D01*
X179919475Y-63368709D01*
X179919481Y-63368717D01*
X179963083Y-63412319D01*
X179996568Y-63473642D01*
X179991584Y-63543334D01*
X179963083Y-63587681D01*
X179919481Y-63631282D01*
X179919475Y-63631290D01*
X179840426Y-63768209D01*
X179840423Y-63768216D01*
X179799500Y-63920943D01*
X179799500Y-64079057D01*
X179837296Y-64220111D01*
X179840423Y-64231783D01*
X179840426Y-64231790D01*
X179919475Y-64368709D01*
X179919481Y-64368717D01*
X179963083Y-64412319D01*
X179996568Y-64473642D01*
X179991584Y-64543334D01*
X179963083Y-64587681D01*
X179919481Y-64631282D01*
X179919475Y-64631290D01*
X179840426Y-64768209D01*
X179840423Y-64768216D01*
X179799500Y-64920943D01*
X179799500Y-65079057D01*
X179823356Y-65168087D01*
X179840423Y-65231783D01*
X179840426Y-65231790D01*
X179919475Y-65368709D01*
X179919481Y-65368717D01*
X179963083Y-65412319D01*
X179996568Y-65473642D01*
X179991584Y-65543334D01*
X179963083Y-65587681D01*
X179919481Y-65631282D01*
X179919475Y-65631290D01*
X179840426Y-65768209D01*
X179840423Y-65768216D01*
X179799500Y-65920943D01*
X179799500Y-66079057D01*
X179835974Y-66215178D01*
X179840423Y-66231783D01*
X179840426Y-66231790D01*
X179919475Y-66368709D01*
X179919481Y-66368717D01*
X179963083Y-66412319D01*
X179996568Y-66473642D01*
X179991584Y-66543334D01*
X179963083Y-66587681D01*
X179919481Y-66631282D01*
X179919475Y-66631290D01*
X179840426Y-66768209D01*
X179840423Y-66768216D01*
X179799500Y-66920943D01*
X179799500Y-67079057D01*
X179836371Y-67216659D01*
X179840423Y-67231783D01*
X179840423Y-67231784D01*
X179906187Y-67345692D01*
X179922659Y-67413592D01*
X179899806Y-67479619D01*
X179844884Y-67522809D01*
X179775331Y-67529450D01*
X179768873Y-67528026D01*
X179665495Y-67502317D01*
X179665499Y-67502317D01*
X179631325Y-67500000D01*
X179623952Y-67499500D01*
X173976048Y-67499500D01*
X173968675Y-67500000D01*
X173934502Y-67502317D01*
X173754978Y-67546963D01*
X173589248Y-67629158D01*
X173445060Y-67745059D01*
X173445059Y-67745060D01*
X173329158Y-67889248D01*
X173246963Y-68054978D01*
X173202317Y-68234502D01*
X173199500Y-68276050D01*
X171671560Y-68276050D01*
X171572475Y-68249500D01*
X171427525Y-68249500D01*
X171298993Y-68283940D01*
X171287511Y-68287017D01*
X171161988Y-68359488D01*
X171161982Y-68359493D01*
X171059493Y-68461982D01*
X171059488Y-68461988D01*
X170987017Y-68587511D01*
X170986657Y-68588856D01*
X170949500Y-68727525D01*
X164244282Y-68727525D01*
X164168997Y-68652240D01*
X164164895Y-68647169D01*
X164153871Y-68620696D01*
X164140135Y-68595540D01*
X164140612Y-68588856D01*
X164138036Y-68582668D01*
X164143074Y-68554441D01*
X164145119Y-68525848D01*
X164149353Y-68519258D01*
X164150313Y-68513885D01*
X164158435Y-68505128D01*
X164173619Y-68481502D01*
X164207696Y-68447426D01*
X164273588Y-68333298D01*
X164307696Y-68206004D01*
X164307696Y-68074220D01*
X164273588Y-67946926D01*
X164207696Y-67832798D01*
X164122172Y-67747274D01*
X164088687Y-67685951D01*
X164093671Y-67616259D01*
X164102462Y-67597599D01*
X164132332Y-67545865D01*
X164166440Y-67418571D01*
X164166440Y-67286787D01*
X164132332Y-67159493D01*
X164066440Y-67045365D01*
X164066433Y-67045358D01*
X164062367Y-67040059D01*
X164037169Y-66974891D01*
X164051203Y-66906446D01*
X164073055Y-66876887D01*
X164120137Y-66829806D01*
X164186029Y-66715678D01*
X164220137Y-66588384D01*
X164220137Y-66534108D01*
X167799500Y-66534108D01*
X167799500Y-66665892D01*
X167812672Y-66715051D01*
X167833608Y-66793187D01*
X167854752Y-66829808D01*
X167899500Y-66907314D01*
X167992686Y-67000500D01*
X168070398Y-67045367D01*
X168105944Y-67065890D01*
X168106814Y-67066392D01*
X168234108Y-67100500D01*
X168234110Y-67100500D01*
X168365890Y-67100500D01*
X168365892Y-67100500D01*
X168493186Y-67066392D01*
X168607314Y-67000500D01*
X168700500Y-66907314D01*
X168766392Y-66793186D01*
X168800500Y-66665892D01*
X168800500Y-66534108D01*
X168766392Y-66406814D01*
X168700500Y-66292686D01*
X168607314Y-66199500D01*
X168550250Y-66166554D01*
X168493187Y-66133608D01*
X168427068Y-66115892D01*
X168365892Y-66099500D01*
X168234108Y-66099500D01*
X168106812Y-66133608D01*
X167992686Y-66199500D01*
X167992683Y-66199502D01*
X167899502Y-66292683D01*
X167899500Y-66292686D01*
X167833608Y-66406812D01*
X167801577Y-66526358D01*
X167799500Y-66534108D01*
X164220137Y-66534108D01*
X164220137Y-66456600D01*
X164186029Y-66329306D01*
X164120137Y-66215178D01*
X164093080Y-66188121D01*
X164059595Y-66126798D01*
X164064579Y-66057106D01*
X164101920Y-66006600D01*
X164101567Y-66006247D01*
X164103929Y-66003884D01*
X164105277Y-66002062D01*
X164107303Y-66000505D01*
X164107314Y-66000500D01*
X164200500Y-65907314D01*
X164266392Y-65793186D01*
X164300500Y-65665892D01*
X164300500Y-65534108D01*
X164266392Y-65406814D01*
X164200500Y-65292686D01*
X164107314Y-65199500D01*
X164024261Y-65151549D01*
X163993187Y-65133608D01*
X163928296Y-65116221D01*
X163865892Y-65099500D01*
X163734108Y-65099500D01*
X163606812Y-65133608D01*
X163492686Y-65199500D01*
X163492683Y-65199502D01*
X163399502Y-65292683D01*
X163399500Y-65292686D01*
X163333608Y-65406812D01*
X163299500Y-65534108D01*
X163299500Y-65665891D01*
X163333608Y-65793187D01*
X163366554Y-65850250D01*
X163399500Y-65907314D01*
X163399502Y-65907316D01*
X163426556Y-65934370D01*
X163460041Y-65995693D01*
X163455057Y-66065385D01*
X163417717Y-66115892D01*
X163418070Y-66116245D01*
X163415721Y-66118593D01*
X163414372Y-66120419D01*
X163412324Y-66121990D01*
X163319139Y-66215175D01*
X163319137Y-66215178D01*
X163253245Y-66329304D01*
X163223090Y-66441846D01*
X163219137Y-66456600D01*
X163219137Y-66588384D01*
X163222116Y-66599502D01*
X163253245Y-66715679D01*
X163319135Y-66829803D01*
X163319136Y-66829805D01*
X163323210Y-66835112D01*
X163348407Y-66900280D01*
X163334373Y-66968726D01*
X163312520Y-66998284D01*
X163265443Y-67045361D01*
X163265440Y-67045365D01*
X163199548Y-67159491D01*
X163180178Y-67231783D01*
X163165440Y-67286787D01*
X158851953Y-67286787D01*
X158905994Y-67193186D01*
X158940102Y-67065892D01*
X158940102Y-66934108D01*
X158905994Y-66806814D01*
X158840102Y-66692686D01*
X158746916Y-66599500D01*
X158689852Y-66566554D01*
X158632789Y-66533608D01*
X158569141Y-66516554D01*
X158505494Y-66499500D01*
X158373710Y-66499500D01*
X158246414Y-66533608D01*
X158132288Y-66599500D01*
X158132285Y-66599502D01*
X158039104Y-66692683D01*
X158039102Y-66692686D01*
X157973210Y-66806812D01*
X157942629Y-66920945D01*
X157939102Y-66934108D01*
X156516157Y-66934108D01*
X156516157Y-66842345D01*
X156482049Y-66715051D01*
X156469135Y-66692683D01*
X156453406Y-66665439D01*
X156436933Y-66597539D01*
X156459785Y-66531512D01*
X156514707Y-66488321D01*
X156528687Y-66483668D01*
X156593186Y-66466386D01*
X156707314Y-66400494D01*
X156800500Y-66307308D01*
X156866392Y-66193180D01*
X156900500Y-66065886D01*
X156900500Y-65934102D01*
X156866392Y-65806808D01*
X156800500Y-65692680D01*
X156707314Y-65599494D01*
X156638440Y-65559729D01*
X156593187Y-65533602D01*
X156529539Y-65516548D01*
X156465892Y-65499494D01*
X156334108Y-65499494D01*
X156206812Y-65533602D01*
X156092686Y-65599494D01*
X156092683Y-65599496D01*
X155999502Y-65692677D01*
X155999500Y-65692680D01*
X155933608Y-65806806D01*
X155906678Y-65907313D01*
X155899500Y-65934102D01*
X155899500Y-66065886D01*
X155932252Y-66188121D01*
X155933609Y-66193182D01*
X155933609Y-66193183D01*
X155962250Y-66242791D01*
X155978723Y-66310692D01*
X155955870Y-66376718D01*
X155900949Y-66419909D01*
X155886959Y-66424565D01*
X155822471Y-66441845D01*
X155822470Y-66441845D01*
X155822468Y-66441846D01*
X155708343Y-66507737D01*
X155708340Y-66507739D01*
X155615159Y-66600920D01*
X155615157Y-66600923D01*
X155549265Y-66715049D01*
X155515157Y-66842345D01*
X136900451Y-66842345D01*
X136900456Y-65486157D01*
X157828442Y-65486157D01*
X157828442Y-65617940D01*
X157862550Y-65745236D01*
X157875814Y-65768209D01*
X157928442Y-65859363D01*
X158021628Y-65952549D01*
X158135756Y-66018441D01*
X158263050Y-66052549D01*
X158263052Y-66052549D01*
X158394832Y-66052549D01*
X158394834Y-66052549D01*
X158522128Y-66018441D01*
X158636256Y-65952549D01*
X158729442Y-65859363D01*
X158795334Y-65745235D01*
X158829442Y-65617941D01*
X158829442Y-65486157D01*
X158795334Y-65358863D01*
X158736259Y-65256542D01*
X158731131Y-65235408D01*
X158721500Y-65215907D01*
X158723056Y-65202122D01*
X158719786Y-65188642D01*
X158726899Y-65168087D01*
X158729340Y-65146478D01*
X158739729Y-65131018D01*
X158742638Y-65122615D01*
X158747511Y-65116221D01*
X158751489Y-65111337D01*
X158834902Y-65027925D01*
X158872500Y-64962803D01*
X158878776Y-64955100D01*
X158899713Y-64940728D01*
X158918090Y-64923206D01*
X158928032Y-64921289D01*
X158936381Y-64915559D01*
X158961762Y-64914788D01*
X158986697Y-64909982D01*
X158998263Y-64913679D01*
X159006218Y-64913438D01*
X159016130Y-64919390D01*
X159036911Y-64926034D01*
X159106810Y-64966390D01*
X159106811Y-64966390D01*
X159106814Y-64966392D01*
X159234108Y-65000500D01*
X159234110Y-65000500D01*
X159365890Y-65000500D01*
X159365892Y-65000500D01*
X159493186Y-64966392D01*
X159607314Y-64900500D01*
X159700500Y-64807314D01*
X159766392Y-64693186D01*
X159800500Y-64565892D01*
X159800500Y-64434108D01*
X159766392Y-64306814D01*
X159700500Y-64192686D01*
X159607314Y-64099500D01*
X159500823Y-64038017D01*
X159493187Y-64033608D01*
X159429539Y-64016554D01*
X159365892Y-63999500D01*
X159234108Y-63999500D01*
X159106812Y-64033608D01*
X158992686Y-64099500D01*
X158992683Y-64099502D01*
X158899502Y-64192683D01*
X158899495Y-64192692D01*
X158866876Y-64249190D01*
X158816309Y-64297405D01*
X158747702Y-64310627D01*
X158697490Y-64294576D01*
X158627591Y-64254220D01*
X158627588Y-64254219D01*
X158500294Y-64220111D01*
X158368510Y-64220111D01*
X158241214Y-64254219D01*
X158127088Y-64320111D01*
X158127085Y-64320113D01*
X158033904Y-64413294D01*
X158033902Y-64413297D01*
X157968010Y-64527423D01*
X157950389Y-64593187D01*
X157933902Y-64654719D01*
X157933902Y-64786503D01*
X157945781Y-64830836D01*
X157968010Y-64913798D01*
X157991856Y-64955100D01*
X158027084Y-65016116D01*
X158043557Y-65084016D01*
X158020705Y-65150043D01*
X158007379Y-65165796D01*
X157928445Y-65244731D01*
X157928442Y-65244735D01*
X157862550Y-65358861D01*
X157828442Y-65486157D01*
X136900456Y-65486157D01*
X136900460Y-64334108D01*
X151799500Y-64334108D01*
X151799500Y-64465891D01*
X151833608Y-64593187D01*
X151855603Y-64631282D01*
X151899500Y-64707314D01*
X151992686Y-64800500D01*
X152106814Y-64866392D01*
X152234108Y-64900500D01*
X152234110Y-64900500D01*
X152365890Y-64900500D01*
X152365892Y-64900500D01*
X152493186Y-64866392D01*
X152607314Y-64800500D01*
X152700500Y-64707314D01*
X152766392Y-64593186D01*
X152800500Y-64465892D01*
X152800500Y-64334108D01*
X152766392Y-64206814D01*
X152700500Y-64092686D01*
X152607314Y-63999500D01*
X152550250Y-63966554D01*
X152493187Y-63933608D01*
X152414353Y-63912485D01*
X152365892Y-63899500D01*
X152234108Y-63899500D01*
X152106812Y-63933608D01*
X151992686Y-63999500D01*
X151992683Y-63999502D01*
X151899502Y-64092683D01*
X151899500Y-64092686D01*
X151833608Y-64206812D01*
X151799500Y-64334108D01*
X136900460Y-64334108D01*
X136900463Y-63627525D01*
X161149500Y-63627525D01*
X161149500Y-63772475D01*
X161183537Y-63899500D01*
X161187017Y-63912488D01*
X161259488Y-64038011D01*
X161259490Y-64038013D01*
X161259491Y-64038015D01*
X161361985Y-64140509D01*
X161361986Y-64140510D01*
X161361988Y-64140511D01*
X161487511Y-64212982D01*
X161487512Y-64212982D01*
X161487515Y-64212984D01*
X161627525Y-64250500D01*
X161627528Y-64250500D01*
X161772472Y-64250500D01*
X161772475Y-64250500D01*
X161912485Y-64212984D01*
X161912487Y-64212982D01*
X161916068Y-64212023D01*
X161985918Y-64213686D01*
X162043781Y-64252848D01*
X162071285Y-64317076D01*
X162059699Y-64385979D01*
X162055549Y-64393798D01*
X162033609Y-64431798D01*
X162033609Y-64431799D01*
X162033609Y-64431800D01*
X162033608Y-64431802D01*
X161999500Y-64559096D01*
X161999500Y-64690880D01*
X162003904Y-64707316D01*
X162033608Y-64818175D01*
X162053736Y-64853037D01*
X162099500Y-64932302D01*
X162192686Y-65025488D01*
X162306814Y-65091380D01*
X162434108Y-65125488D01*
X162434110Y-65125488D01*
X162565890Y-65125488D01*
X162565892Y-65125488D01*
X162693186Y-65091380D01*
X162807314Y-65025488D01*
X162900500Y-64932302D01*
X162966392Y-64818174D01*
X163000500Y-64690880D01*
X163000500Y-64559096D01*
X162966392Y-64431802D01*
X162900500Y-64317674D01*
X162807314Y-64224488D01*
X162750250Y-64191542D01*
X162693187Y-64158596D01*
X162625684Y-64140509D01*
X162565892Y-64124488D01*
X162434108Y-64124488D01*
X162374328Y-64140506D01*
X162316876Y-64155900D01*
X162247026Y-64154237D01*
X162189164Y-64115074D01*
X162161660Y-64050846D01*
X162173247Y-63981943D01*
X162177389Y-63974136D01*
X162212984Y-63912485D01*
X162250500Y-63772475D01*
X162250500Y-63627525D01*
X162212984Y-63487515D01*
X162208945Y-63480520D01*
X162140511Y-63361988D01*
X162140506Y-63361982D01*
X162038017Y-63259493D01*
X162038011Y-63259488D01*
X161912488Y-63187017D01*
X161912489Y-63187017D01*
X161901006Y-63183940D01*
X161772475Y-63149500D01*
X161627525Y-63149500D01*
X161498993Y-63183940D01*
X161487511Y-63187017D01*
X161361988Y-63259488D01*
X161361982Y-63259493D01*
X161259493Y-63361982D01*
X161259488Y-63361988D01*
X161187017Y-63487511D01*
X161187016Y-63487515D01*
X161149500Y-63627525D01*
X136900463Y-63627525D01*
X136900470Y-61610247D01*
X147234500Y-61610247D01*
X147234500Y-63349752D01*
X147246131Y-63408229D01*
X147246132Y-63408230D01*
X147290447Y-63474552D01*
X147356769Y-63518867D01*
X147356770Y-63518868D01*
X147415247Y-63530499D01*
X147415250Y-63530500D01*
X147415252Y-63530500D01*
X149154750Y-63530500D01*
X149154751Y-63530499D01*
X149175571Y-63526358D01*
X149213228Y-63518868D01*
X149213228Y-63518867D01*
X149213231Y-63518867D01*
X149279552Y-63474552D01*
X149323867Y-63408231D01*
X149323867Y-63408229D01*
X149323868Y-63408229D01*
X149333066Y-63361985D01*
X149335500Y-63349748D01*
X149335500Y-62434108D01*
X158199500Y-62434108D01*
X158199500Y-62565892D01*
X158203703Y-62581577D01*
X158233608Y-62693187D01*
X158266554Y-62750250D01*
X158299500Y-62807314D01*
X158392686Y-62900500D01*
X158506814Y-62966392D01*
X158634108Y-63000500D01*
X158634110Y-63000500D01*
X158765890Y-63000500D01*
X158765892Y-63000500D01*
X158893186Y-62966392D01*
X159007314Y-62900500D01*
X159100500Y-62807314D01*
X159166392Y-62693186D01*
X159200500Y-62565892D01*
X159200500Y-62520943D01*
X162899500Y-62520943D01*
X162899500Y-62679057D01*
X162933867Y-62807314D01*
X162940423Y-62831783D01*
X162940426Y-62831790D01*
X163019475Y-62968709D01*
X163019479Y-62968714D01*
X163019480Y-62968716D01*
X163131284Y-63080520D01*
X163131286Y-63080521D01*
X163131290Y-63080524D01*
X163250762Y-63149500D01*
X163268216Y-63159577D01*
X163420943Y-63200500D01*
X163420945Y-63200500D01*
X163579055Y-63200500D01*
X163579057Y-63200500D01*
X163731784Y-63159577D01*
X163868716Y-63080520D01*
X163980520Y-62968716D01*
X164059577Y-62831784D01*
X164100500Y-62679057D01*
X164100500Y-62520943D01*
X164059577Y-62368216D01*
X164059573Y-62368209D01*
X163980524Y-62231290D01*
X163980518Y-62231282D01*
X163868717Y-62119481D01*
X163868709Y-62119475D01*
X163731790Y-62040426D01*
X163731786Y-62040424D01*
X163731784Y-62040423D01*
X163579057Y-61999500D01*
X163420943Y-61999500D01*
X163268216Y-62040423D01*
X163268209Y-62040426D01*
X163131290Y-62119475D01*
X163131282Y-62119481D01*
X163019481Y-62231282D01*
X163019475Y-62231290D01*
X162940426Y-62368209D01*
X162940423Y-62368216D01*
X162899500Y-62520943D01*
X159200500Y-62520943D01*
X159200500Y-62434108D01*
X159166392Y-62306814D01*
X159100500Y-62192686D01*
X159007314Y-62099500D01*
X158950250Y-62066554D01*
X158893187Y-62033608D01*
X158829539Y-62016554D01*
X158765892Y-61999500D01*
X158634108Y-61999500D01*
X158506812Y-62033608D01*
X158392686Y-62099500D01*
X158392683Y-62099502D01*
X158299502Y-62192683D01*
X158299500Y-62192686D01*
X158233608Y-62306812D01*
X158206384Y-62408416D01*
X158199500Y-62434108D01*
X149335500Y-62434108D01*
X149335500Y-61634108D01*
X165599500Y-61634108D01*
X165599500Y-61765891D01*
X165633608Y-61893187D01*
X165666554Y-61950250D01*
X165699500Y-62007314D01*
X165792686Y-62100500D01*
X165906814Y-62166392D01*
X166034108Y-62200500D01*
X166034110Y-62200500D01*
X166165890Y-62200500D01*
X166165892Y-62200500D01*
X166293186Y-62166392D01*
X166407314Y-62100500D01*
X166500500Y-62007314D01*
X166566392Y-61893186D01*
X166600500Y-61765892D01*
X166600500Y-61634108D01*
X166566392Y-61506814D01*
X166500500Y-61392686D01*
X166407314Y-61299500D01*
X166349968Y-61266391D01*
X166293187Y-61233608D01*
X166229539Y-61216554D01*
X166165892Y-61199500D01*
X166034108Y-61199500D01*
X165906812Y-61233608D01*
X165792686Y-61299500D01*
X165792683Y-61299502D01*
X165699502Y-61392683D01*
X165699500Y-61392686D01*
X165633608Y-61506812D01*
X165599500Y-61634108D01*
X149335500Y-61634108D01*
X149335500Y-61610252D01*
X149335500Y-61610249D01*
X149335499Y-61610247D01*
X149323868Y-61551770D01*
X149323867Y-61551769D01*
X149279552Y-61485447D01*
X149213230Y-61441132D01*
X149213229Y-61441131D01*
X149154752Y-61429500D01*
X149154748Y-61429500D01*
X147415252Y-61429500D01*
X147415247Y-61429500D01*
X147356770Y-61441131D01*
X147356769Y-61441132D01*
X147290447Y-61485447D01*
X147246132Y-61551769D01*
X147246131Y-61551770D01*
X147234500Y-61610247D01*
X136900470Y-61610247D01*
X136900476Y-59836530D01*
X147234500Y-59836530D01*
X147234500Y-60043469D01*
X147274868Y-60246412D01*
X147274870Y-60246420D01*
X147354058Y-60437596D01*
X147469024Y-60609657D01*
X147615342Y-60755975D01*
X147615345Y-60755977D01*
X147787402Y-60870941D01*
X147978580Y-60950130D01*
X148181530Y-60990499D01*
X148181534Y-60990500D01*
X148181535Y-60990500D01*
X148388466Y-60990500D01*
X148388467Y-60990499D01*
X148591420Y-60950130D01*
X148782598Y-60870941D01*
X148954655Y-60755977D01*
X148976524Y-60734108D01*
X157599500Y-60734108D01*
X157599500Y-60865891D01*
X157633608Y-60993187D01*
X157666554Y-61050250D01*
X157699500Y-61107314D01*
X157792686Y-61200500D01*
X157906814Y-61266392D01*
X158034108Y-61300500D01*
X158034110Y-61300500D01*
X158165890Y-61300500D01*
X158165892Y-61300500D01*
X158293186Y-61266392D01*
X158407314Y-61200500D01*
X158500500Y-61107314D01*
X158566392Y-60993186D01*
X158600500Y-60865892D01*
X158600500Y-60734108D01*
X164499500Y-60734108D01*
X164499500Y-60865891D01*
X164533608Y-60993187D01*
X164566554Y-61050250D01*
X164599500Y-61107314D01*
X164692686Y-61200500D01*
X164806814Y-61266392D01*
X164934108Y-61300500D01*
X164934110Y-61300500D01*
X165065890Y-61300500D01*
X165065892Y-61300500D01*
X165193186Y-61266392D01*
X165307314Y-61200500D01*
X165400500Y-61107314D01*
X165466392Y-60993186D01*
X165500500Y-60865892D01*
X165500500Y-60734108D01*
X165466392Y-60606814D01*
X165400500Y-60492686D01*
X165307314Y-60399500D01*
X165250250Y-60366554D01*
X165193187Y-60333608D01*
X165129539Y-60316554D01*
X165065892Y-60299500D01*
X164934108Y-60299500D01*
X164806812Y-60333608D01*
X164692686Y-60399500D01*
X164692683Y-60399502D01*
X164599502Y-60492683D01*
X164599500Y-60492686D01*
X164533608Y-60606812D01*
X164499500Y-60734108D01*
X158600500Y-60734108D01*
X158566392Y-60606814D01*
X158500500Y-60492686D01*
X158407314Y-60399500D01*
X158350250Y-60366554D01*
X158293187Y-60333608D01*
X158229539Y-60316554D01*
X158165892Y-60299500D01*
X158034108Y-60299500D01*
X157906812Y-60333608D01*
X157792686Y-60399500D01*
X157792683Y-60399502D01*
X157699502Y-60492683D01*
X157699500Y-60492686D01*
X157633608Y-60606812D01*
X157599500Y-60734108D01*
X148976524Y-60734108D01*
X149072333Y-60638300D01*
X149100974Y-60609658D01*
X149100975Y-60609657D01*
X149100977Y-60609655D01*
X149215941Y-60437598D01*
X149295130Y-60246420D01*
X149335500Y-60043465D01*
X149335500Y-59836535D01*
X149295130Y-59633580D01*
X149215941Y-59442402D01*
X149100977Y-59270345D01*
X149100975Y-59270342D01*
X148954657Y-59124024D01*
X148868626Y-59066541D01*
X148782598Y-59009059D01*
X148591420Y-58929870D01*
X148591412Y-58929868D01*
X148388469Y-58889500D01*
X148388465Y-58889500D01*
X148181535Y-58889500D01*
X148181530Y-58889500D01*
X147978587Y-58929868D01*
X147978579Y-58929870D01*
X147787403Y-59009058D01*
X147615342Y-59124024D01*
X147469024Y-59270342D01*
X147354058Y-59442403D01*
X147274870Y-59633579D01*
X147274868Y-59633587D01*
X147234500Y-59836530D01*
X136900476Y-59836530D01*
X136900494Y-54753753D01*
X146935000Y-54753753D01*
X146935000Y-54966246D01*
X146968242Y-55176127D01*
X146968242Y-55176130D01*
X147033904Y-55378217D01*
X147130375Y-55567550D01*
X147169728Y-55621716D01*
X147802037Y-54989408D01*
X147819075Y-55052993D01*
X147884901Y-55167007D01*
X147977993Y-55260099D01*
X148092007Y-55325925D01*
X148155590Y-55342962D01*
X147523282Y-55975269D01*
X147523282Y-55975270D01*
X147577449Y-56014624D01*
X147766782Y-56111095D01*
X147942973Y-56168343D01*
X148000648Y-56207780D01*
X148027847Y-56272139D01*
X148015932Y-56340985D01*
X147968688Y-56392461D01*
X147952108Y-56400835D01*
X147787403Y-56469057D01*
X147615342Y-56584024D01*
X147469024Y-56730342D01*
X147354058Y-56902403D01*
X147274870Y-57093579D01*
X147274868Y-57093587D01*
X147234500Y-57296530D01*
X147234500Y-57503469D01*
X147274868Y-57706412D01*
X147274870Y-57706420D01*
X147354059Y-57897598D01*
X147361120Y-57908165D01*
X147469024Y-58069657D01*
X147615342Y-58215975D01*
X147615345Y-58215977D01*
X147787402Y-58330941D01*
X147978580Y-58410130D01*
X148177800Y-58449757D01*
X148181530Y-58450499D01*
X148181534Y-58450500D01*
X148181535Y-58450500D01*
X148388466Y-58450500D01*
X148388467Y-58450499D01*
X148591420Y-58410130D01*
X148782598Y-58330941D01*
X148831085Y-58298543D01*
X173699499Y-58298543D01*
X173737947Y-58491829D01*
X173737950Y-58491839D01*
X173813364Y-58673907D01*
X173813371Y-58673920D01*
X173922860Y-58837781D01*
X173922863Y-58837785D01*
X174062214Y-58977136D01*
X174062218Y-58977139D01*
X174226079Y-59086628D01*
X174226092Y-59086635D01*
X174408160Y-59162049D01*
X174408165Y-59162051D01*
X174408169Y-59162051D01*
X174408170Y-59162052D01*
X174601456Y-59200500D01*
X174601459Y-59200500D01*
X174798543Y-59200500D01*
X174928582Y-59174632D01*
X174991835Y-59162051D01*
X175173914Y-59086632D01*
X175337782Y-58977139D01*
X175477139Y-58837782D01*
X175586632Y-58673914D01*
X175662051Y-58491835D01*
X175665191Y-58476048D01*
X199799500Y-58476048D01*
X199799500Y-64123952D01*
X199800623Y-64140506D01*
X199802317Y-64165497D01*
X199846963Y-64345021D01*
X199929158Y-64510751D01*
X200026050Y-64631290D01*
X200045060Y-64654940D01*
X200189248Y-64770841D01*
X200354980Y-64853037D01*
X200534503Y-64897682D01*
X200534504Y-64897682D01*
X200534507Y-64897683D01*
X200576048Y-64900500D01*
X200576050Y-64900500D01*
X206223950Y-64900500D01*
X206223952Y-64900500D01*
X206265493Y-64897683D01*
X206445020Y-64853037D01*
X206610752Y-64770841D01*
X206754940Y-64654940D01*
X206870841Y-64510752D01*
X206953037Y-64345020D01*
X206997683Y-64165493D01*
X207000500Y-64123952D01*
X207000500Y-58476048D01*
X206997683Y-58434507D01*
X206953037Y-58254980D01*
X206870841Y-58089248D01*
X206754940Y-57945060D01*
X206709041Y-57908165D01*
X206610751Y-57829158D01*
X206445021Y-57746963D01*
X206265495Y-57702317D01*
X206265499Y-57702317D01*
X206234337Y-57700204D01*
X206223952Y-57699500D01*
X200576048Y-57699500D01*
X200564179Y-57700304D01*
X200534502Y-57702317D01*
X200354978Y-57746963D01*
X200189248Y-57829158D01*
X200045060Y-57945059D01*
X200045059Y-57945060D01*
X199929158Y-58089248D01*
X199846963Y-58254978D01*
X199802317Y-58434502D01*
X199801232Y-58450500D01*
X199799500Y-58476048D01*
X175665191Y-58476048D01*
X175670273Y-58450500D01*
X175670421Y-58449758D01*
X175670421Y-58449757D01*
X175700500Y-58298543D01*
X175700500Y-58101456D01*
X175662052Y-57908170D01*
X175662051Y-57908169D01*
X175662051Y-57908165D01*
X175662049Y-57908160D01*
X175586635Y-57726092D01*
X175586628Y-57726079D01*
X175477139Y-57562218D01*
X175477136Y-57562214D01*
X175337785Y-57422863D01*
X175337781Y-57422860D01*
X175173920Y-57313371D01*
X175173907Y-57313364D01*
X174991839Y-57237950D01*
X174991829Y-57237947D01*
X174798543Y-57199500D01*
X174798541Y-57199500D01*
X174601459Y-57199500D01*
X174601457Y-57199500D01*
X174408170Y-57237947D01*
X174408160Y-57237950D01*
X174226092Y-57313364D01*
X174226079Y-57313371D01*
X174062218Y-57422860D01*
X174062214Y-57422863D01*
X173922863Y-57562214D01*
X173922860Y-57562218D01*
X173813371Y-57726079D01*
X173813364Y-57726092D01*
X173737950Y-57908160D01*
X173737947Y-57908170D01*
X173699500Y-58101456D01*
X173699500Y-58101459D01*
X173699500Y-58298541D01*
X173699500Y-58298543D01*
X173699499Y-58298543D01*
X148831085Y-58298543D01*
X148954655Y-58215977D01*
X149100977Y-58069655D01*
X149215941Y-57897598D01*
X149295130Y-57706420D01*
X149335500Y-57503465D01*
X149335500Y-57296535D01*
X149295130Y-57093580D01*
X149215941Y-56902402D01*
X149100977Y-56730345D01*
X149100975Y-56730342D01*
X149004741Y-56634108D01*
X179199500Y-56634108D01*
X179199500Y-56765891D01*
X179233608Y-56893187D01*
X179238929Y-56902403D01*
X179299500Y-57007314D01*
X179392686Y-57100500D01*
X179506814Y-57166392D01*
X179634108Y-57200500D01*
X179634110Y-57200500D01*
X179765890Y-57200500D01*
X179765892Y-57200500D01*
X179893186Y-57166392D01*
X180007314Y-57100500D01*
X180100500Y-57007314D01*
X180166392Y-56893186D01*
X180200500Y-56765892D01*
X180200500Y-56634108D01*
X180166392Y-56506814D01*
X180100500Y-56392686D01*
X180007314Y-56299500D01*
X179950250Y-56266554D01*
X179893187Y-56233608D01*
X179829539Y-56216554D01*
X179765892Y-56199500D01*
X179634108Y-56199500D01*
X179506812Y-56233608D01*
X179392686Y-56299500D01*
X179392683Y-56299502D01*
X179299502Y-56392683D01*
X179299500Y-56392686D01*
X179233608Y-56506812D01*
X179199500Y-56634108D01*
X149004741Y-56634108D01*
X148954657Y-56584024D01*
X148839100Y-56506812D01*
X148782598Y-56469059D01*
X148782593Y-56469057D01*
X148720891Y-56443499D01*
X148617890Y-56400834D01*
X148563488Y-56356994D01*
X148541423Y-56290700D01*
X148558702Y-56223001D01*
X148609839Y-56175390D01*
X148627026Y-56168343D01*
X148803217Y-56111095D01*
X148992554Y-56014622D01*
X149046716Y-55975270D01*
X149046717Y-55975270D01*
X148414408Y-55342962D01*
X148477993Y-55325925D01*
X148592007Y-55260099D01*
X148685099Y-55167007D01*
X148750925Y-55052993D01*
X148767962Y-54989408D01*
X149400270Y-55621717D01*
X149400270Y-55621716D01*
X149439622Y-55567554D01*
X149479126Y-55490025D01*
X188087000Y-55490025D01*
X188087000Y-55634975D01*
X188124516Y-55774985D01*
X188124517Y-55774988D01*
X188196988Y-55900511D01*
X188196990Y-55900513D01*
X188196991Y-55900515D01*
X188299485Y-56003009D01*
X188299486Y-56003010D01*
X188299488Y-56003011D01*
X188425011Y-56075482D01*
X188425012Y-56075482D01*
X188425015Y-56075484D01*
X188565025Y-56113000D01*
X188565028Y-56113000D01*
X188709972Y-56113000D01*
X188709975Y-56113000D01*
X188849985Y-56075484D01*
X188975515Y-56003009D01*
X189078009Y-55900515D01*
X189150484Y-55774985D01*
X189188000Y-55634975D01*
X189188000Y-55490025D01*
X189150484Y-55350015D01*
X189078009Y-55224485D01*
X188975515Y-55121991D01*
X188975513Y-55121990D01*
X188975511Y-55121988D01*
X188849988Y-55049517D01*
X188849989Y-55049517D01*
X188838506Y-55046440D01*
X188709975Y-55012000D01*
X188565025Y-55012000D01*
X188436493Y-55046440D01*
X188425011Y-55049517D01*
X188299488Y-55121988D01*
X188299482Y-55121993D01*
X188196993Y-55224482D01*
X188196988Y-55224488D01*
X188124517Y-55350011D01*
X188124516Y-55350015D01*
X188087000Y-55490025D01*
X149479126Y-55490025D01*
X149511951Y-55425603D01*
X149536095Y-55378217D01*
X149601757Y-55176130D01*
X149601757Y-55176127D01*
X149635000Y-54966246D01*
X149635000Y-54753753D01*
X149601757Y-54543872D01*
X149601757Y-54543869D01*
X149536095Y-54341782D01*
X149451468Y-54175693D01*
X149451467Y-54175689D01*
X149439629Y-54152457D01*
X149439626Y-54152452D01*
X149421516Y-54127525D01*
X178949500Y-54127525D01*
X178949500Y-54272475D01*
X178968071Y-54341782D01*
X178987017Y-54412488D01*
X179059488Y-54538011D01*
X179059490Y-54538013D01*
X179059491Y-54538015D01*
X179161985Y-54640509D01*
X179161986Y-54640510D01*
X179161988Y-54640511D01*
X179287511Y-54712982D01*
X179287512Y-54712982D01*
X179287515Y-54712984D01*
X179427525Y-54750500D01*
X179427528Y-54750500D01*
X179572472Y-54750500D01*
X179572475Y-54750500D01*
X179712485Y-54712984D01*
X179838015Y-54640509D01*
X179940509Y-54538015D01*
X180012984Y-54412485D01*
X180050500Y-54272475D01*
X180050500Y-54127525D01*
X180012984Y-53987515D01*
X179940509Y-53861985D01*
X179838015Y-53759491D01*
X179838013Y-53759490D01*
X179838011Y-53759488D01*
X179712488Y-53687017D01*
X179712489Y-53687017D01*
X179701006Y-53683940D01*
X179572475Y-53649500D01*
X179427525Y-53649500D01*
X179298993Y-53683940D01*
X179287511Y-53687017D01*
X179161988Y-53759488D01*
X179161982Y-53759493D01*
X179059493Y-53861982D01*
X179059488Y-53861988D01*
X178987017Y-53987511D01*
X178987016Y-53987515D01*
X178949500Y-54127525D01*
X149421516Y-54127525D01*
X149400270Y-54098282D01*
X149400269Y-54098282D01*
X148767962Y-54730590D01*
X148750925Y-54667007D01*
X148685099Y-54552993D01*
X148592007Y-54459901D01*
X148477993Y-54394075D01*
X148414409Y-54377037D01*
X149046716Y-53744728D01*
X148992550Y-53705375D01*
X148803216Y-53608904D01*
X148627026Y-53551656D01*
X148569350Y-53512218D01*
X148542152Y-53447860D01*
X148554067Y-53379013D01*
X148601311Y-53327538D01*
X148617882Y-53319168D01*
X148782598Y-53250941D01*
X148954655Y-53135977D01*
X148963107Y-53127525D01*
X156649500Y-53127525D01*
X156649500Y-53272475D01*
X156683671Y-53400000D01*
X156687017Y-53412488D01*
X156759488Y-53538011D01*
X156759490Y-53538013D01*
X156759491Y-53538015D01*
X156861985Y-53640509D01*
X156861986Y-53640510D01*
X156861988Y-53640511D01*
X156987511Y-53712982D01*
X156987512Y-53712982D01*
X156987515Y-53712984D01*
X157127525Y-53750500D01*
X157127528Y-53750500D01*
X157272472Y-53750500D01*
X157272475Y-53750500D01*
X157412485Y-53712984D01*
X157538015Y-53640509D01*
X157640509Y-53538015D01*
X157712984Y-53412485D01*
X157750500Y-53272475D01*
X157750500Y-53127525D01*
X157712984Y-52987515D01*
X157640509Y-52861985D01*
X157538015Y-52759491D01*
X157538013Y-52759490D01*
X157538011Y-52759488D01*
X157412488Y-52687017D01*
X157412489Y-52687017D01*
X157401006Y-52683940D01*
X157272475Y-52649500D01*
X157127525Y-52649500D01*
X156998993Y-52683940D01*
X156987511Y-52687017D01*
X156861988Y-52759488D01*
X156861982Y-52759493D01*
X156759493Y-52861982D01*
X156759488Y-52861988D01*
X156687017Y-52987511D01*
X156687016Y-52987515D01*
X156649500Y-53127525D01*
X148963107Y-53127525D01*
X149058916Y-53031717D01*
X149100974Y-52989658D01*
X149100975Y-52989657D01*
X149100977Y-52989655D01*
X149215941Y-52817598D01*
X149295130Y-52626420D01*
X149335500Y-52423465D01*
X149335500Y-52216535D01*
X149295130Y-52013580D01*
X149215941Y-51822402D01*
X149100977Y-51650345D01*
X149100975Y-51650342D01*
X148954657Y-51504024D01*
X148868626Y-51446541D01*
X148782598Y-51389059D01*
X148591420Y-51309870D01*
X148591412Y-51309868D01*
X148388469Y-51269500D01*
X148388465Y-51269500D01*
X148181535Y-51269500D01*
X148181530Y-51269500D01*
X147978587Y-51309868D01*
X147978579Y-51309870D01*
X147787403Y-51389058D01*
X147615342Y-51504024D01*
X147469024Y-51650342D01*
X147354058Y-51822403D01*
X147274870Y-52013579D01*
X147274868Y-52013587D01*
X147234500Y-52216530D01*
X147234500Y-52423469D01*
X147274868Y-52626412D01*
X147274870Y-52626420D01*
X147354058Y-52817596D01*
X147469024Y-52989657D01*
X147615342Y-53135975D01*
X147787405Y-53250943D01*
X147890043Y-53293456D01*
X147952108Y-53319164D01*
X148006511Y-53363005D01*
X148028576Y-53429299D01*
X148011297Y-53496998D01*
X147960160Y-53544609D01*
X147942974Y-53551656D01*
X147766781Y-53608905D01*
X147577439Y-53705380D01*
X147523282Y-53744727D01*
X147523282Y-53744728D01*
X148155591Y-54377037D01*
X148092007Y-54394075D01*
X147977993Y-54459901D01*
X147884901Y-54552993D01*
X147819075Y-54667007D01*
X147802037Y-54730591D01*
X147169728Y-54098282D01*
X147169727Y-54098282D01*
X147130380Y-54152439D01*
X147033904Y-54341782D01*
X146968242Y-54543869D01*
X146968242Y-54543872D01*
X146935000Y-54753753D01*
X136900494Y-54753753D01*
X136900499Y-53402660D01*
X136900615Y-53397343D01*
X136917387Y-53013224D01*
X136918325Y-53002496D01*
X136968151Y-52624032D01*
X136970024Y-52613402D01*
X137052648Y-52240714D01*
X137055446Y-52230276D01*
X137170230Y-51866227D01*
X137173917Y-51856095D01*
X137320003Y-51503412D01*
X137324561Y-51493638D01*
X137500822Y-51155045D01*
X137506217Y-51145700D01*
X137641016Y-50934108D01*
X175799500Y-50934108D01*
X175799500Y-51065891D01*
X175833608Y-51193187D01*
X175866554Y-51250250D01*
X175899500Y-51307314D01*
X175992686Y-51400500D01*
X176106814Y-51466392D01*
X176234108Y-51500500D01*
X176234110Y-51500500D01*
X176365890Y-51500500D01*
X176365892Y-51500500D01*
X176493186Y-51466392D01*
X176607314Y-51400500D01*
X176700500Y-51307314D01*
X176766392Y-51193186D01*
X176800500Y-51065892D01*
X176800500Y-50934108D01*
X176766392Y-50806814D01*
X176700500Y-50692686D01*
X176607314Y-50599500D01*
X176493186Y-50533608D01*
X176365892Y-50499500D01*
X176234108Y-50499500D01*
X176106812Y-50533608D01*
X175992686Y-50599500D01*
X175992683Y-50599502D01*
X175899502Y-50692683D01*
X175899500Y-50692686D01*
X175833608Y-50806812D01*
X175799500Y-50934108D01*
X137641016Y-50934108D01*
X137711318Y-50823755D01*
X137717515Y-50814905D01*
X137949896Y-50512060D01*
X137956834Y-50503791D01*
X138026719Y-50427525D01*
X181149500Y-50427525D01*
X181149500Y-50572475D01*
X181181710Y-50692683D01*
X181187017Y-50712488D01*
X181259488Y-50838011D01*
X181259490Y-50838013D01*
X181259491Y-50838015D01*
X181361985Y-50940509D01*
X181361986Y-50940510D01*
X181361988Y-50940511D01*
X181487511Y-51012982D01*
X181487512Y-51012982D01*
X181487515Y-51012984D01*
X181627525Y-51050500D01*
X181627528Y-51050500D01*
X181772472Y-51050500D01*
X181772475Y-51050500D01*
X181912485Y-51012984D01*
X182038015Y-50940509D01*
X182140509Y-50838015D01*
X182212984Y-50712485D01*
X182250500Y-50572475D01*
X182250500Y-50427525D01*
X182212984Y-50287515D01*
X182140509Y-50161985D01*
X182038015Y-50059491D01*
X182038013Y-50059490D01*
X182038011Y-50059488D01*
X181912488Y-49987017D01*
X181912489Y-49987017D01*
X181901006Y-49983940D01*
X181772475Y-49949500D01*
X181627525Y-49949500D01*
X181498993Y-49983940D01*
X181487511Y-49987017D01*
X181361988Y-50059488D01*
X181361982Y-50059493D01*
X181259493Y-50161982D01*
X181259488Y-50161988D01*
X181187017Y-50287511D01*
X181187016Y-50287515D01*
X181149500Y-50427525D01*
X138026719Y-50427525D01*
X138214726Y-50222352D01*
X138222352Y-50214726D01*
X138503791Y-49956834D01*
X138512060Y-49949896D01*
X138814905Y-49717515D01*
X138823744Y-49711325D01*
X139145700Y-49506217D01*
X139155045Y-49500822D01*
X139493638Y-49324561D01*
X139503412Y-49320003D01*
X139856095Y-49173917D01*
X139866227Y-49170230D01*
X140230285Y-49055443D01*
X140240714Y-49052648D01*
X140613402Y-48970024D01*
X140624032Y-48968151D01*
X141002496Y-48918325D01*
X141013224Y-48917387D01*
X141397297Y-48900617D01*
X141402706Y-48900500D01*
X141465892Y-48900500D01*
X203934107Y-48900500D01*
X203997293Y-48900500D01*
X204002701Y-48900617D01*
G37*
%TD.AperFunction*%
%TD*%
M02*
