%TF.GenerationSoftware,KiCad,Pcbnew,10.0.3*%
%TF.CreationDate,2026-07-30T21:23:31+08:00*%
%TF.ProjectId,Encoder_Module_PCB,456e636f-6465-4725-9f4d-6f64756c655f,rev?*%
%TF.SameCoordinates,Original*%
%TF.FileFunction,Legend,Top*%
%TF.FilePolarity,Positive*%
%FSLAX46Y46*%
G04 Gerber Fmt 4.6, Leading zero omitted, Abs format (unit mm)*
G04 Created by KiCad (PCBNEW 10.0.3) date 2026-07-30 21:23:31*
%MOMM*%
%LPD*%
G01*
G04 APERTURE LIST*
%ADD10C,0.150000*%
%ADD11C,0.508000*%
%ADD12C,0.152400*%
%ADD13C,0.000000*%
G04 APERTURE END LIST*
D10*
X149238095Y-89454819D02*
X149238095Y-90264342D01*
X149238095Y-90264342D02*
X149285714Y-90359580D01*
X149285714Y-90359580D02*
X149333333Y-90407200D01*
X149333333Y-90407200D02*
X149428571Y-90454819D01*
X149428571Y-90454819D02*
X149619047Y-90454819D01*
X149619047Y-90454819D02*
X149714285Y-90407200D01*
X149714285Y-90407200D02*
X149761904Y-90359580D01*
X149761904Y-90359580D02*
X149809523Y-90264342D01*
X149809523Y-90264342D02*
X149809523Y-89454819D01*
X150333333Y-90454819D02*
X150523809Y-90454819D01*
X150523809Y-90454819D02*
X150619047Y-90407200D01*
X150619047Y-90407200D02*
X150666666Y-90359580D01*
X150666666Y-90359580D02*
X150761904Y-90216723D01*
X150761904Y-90216723D02*
X150809523Y-90026247D01*
X150809523Y-90026247D02*
X150809523Y-89645295D01*
X150809523Y-89645295D02*
X150761904Y-89550057D01*
X150761904Y-89550057D02*
X150714285Y-89502438D01*
X150714285Y-89502438D02*
X150619047Y-89454819D01*
X150619047Y-89454819D02*
X150428571Y-89454819D01*
X150428571Y-89454819D02*
X150333333Y-89502438D01*
X150333333Y-89502438D02*
X150285714Y-89550057D01*
X150285714Y-89550057D02*
X150238095Y-89645295D01*
X150238095Y-89645295D02*
X150238095Y-89883390D01*
X150238095Y-89883390D02*
X150285714Y-89978628D01*
X150285714Y-89978628D02*
X150333333Y-90026247D01*
X150333333Y-90026247D02*
X150428571Y-90073866D01*
X150428571Y-90073866D02*
X150619047Y-90073866D01*
X150619047Y-90073866D02*
X150714285Y-90026247D01*
X150714285Y-90026247D02*
X150761904Y-89978628D01*
X150761904Y-89978628D02*
X150809523Y-89883390D01*
X147200000Y-86254819D02*
X147200000Y-86492914D01*
X146961905Y-86397676D02*
X147200000Y-86492914D01*
X147200000Y-86492914D02*
X147438095Y-86397676D01*
X147057143Y-86683390D02*
X147200000Y-86492914D01*
X147200000Y-86492914D02*
X147342857Y-86683390D01*
X146400000Y-86254819D02*
X146400000Y-86492914D01*
X146161905Y-86397676D02*
X146400000Y-86492914D01*
X146400000Y-86492914D02*
X146638095Y-86397676D01*
X146257143Y-86683390D02*
X146400000Y-86492914D01*
X146400000Y-86492914D02*
X146542857Y-86683390D01*
%TO.C,J3*%
D11*
X136256700Y-97477100D02*
G75*
G02*
X135494700Y-97477100I-381000J0D01*
G01*
X135494700Y-97477100D02*
G75*
G02*
X136256700Y-97477100I381000J0D01*
G01*
%TO.C,U9*%
D12*
X147625100Y-87320300D02*
X147625100Y-87539459D01*
X147625100Y-92460539D02*
X147625100Y-92679700D01*
X147625100Y-92679700D02*
X152374900Y-92679700D01*
X152374900Y-87320300D02*
X147625100Y-87320300D01*
X152374900Y-87539461D02*
X152374900Y-87320300D01*
X152374900Y-92679700D02*
X152374900Y-92460541D01*
D13*
G36*
X154064000Y-90840499D02*
G01*
X153810000Y-90840499D01*
X153810000Y-90459499D01*
X154064000Y-90459499D01*
X154064000Y-90840499D01*
G37*
%TD*%
M02*
