%TF.GenerationSoftware,KiCad,Pcbnew,10.0.3*%
%TF.CreationDate,2026-07-30T17:36:18+08:00*%
%TF.ProjectId,FOC_V1_PCB,464f435f-5631-45f5-9043-422e6b696361,rev?*%
%TF.SameCoordinates,Original*%
%TF.FileFunction,Soldermask,Top*%
%TF.FilePolarity,Negative*%
%FSLAX46Y46*%
G04 Gerber Fmt 4.6, Leading zero omitted, Abs format (unit mm)*
G04 Created by KiCad (PCBNEW 10.0.3) date 2026-07-30 17:36:18*
%MOMM*%
%LPD*%
G01*
G04 APERTURE LIST*
G04 Aperture macros list*
%AMRoundRect*
0 Rectangle with rounded corners*
0 $1 Rounding radius*
0 $2 $3 $4 $5 $6 $7 $8 $9 X,Y pos of 4 corners*
0 Add a 4 corners polygon primitive as box body*
4,1,4,$2,$3,$4,$5,$6,$7,$8,$9,$2,$3,0*
0 Add four circle primitives for the rounded corners*
1,1,$1+$1,$2,$3*
1,1,$1+$1,$4,$5*
1,1,$1+$1,$6,$7*
1,1,$1+$1,$8,$9*
0 Add four rect primitives between the rounded corners*
20,1,$1+$1,$2,$3,$4,$5,0*
20,1,$1+$1,$4,$5,$6,$7,0*
20,1,$1+$1,$6,$7,$8,$9,0*
20,1,$1+$1,$8,$9,$2,$3,0*%
%AMOutline5P*
0 Free polygon, 5 corners , with rotation*
0 The origin of the aperture is its center*
0 number of corners: always 5*
0 $1 to $10 corner X, Y*
0 $11 Rotation angle, in degrees counterclockwise*
0 create outline with 5 corners*
4,1,5,$1,$2,$3,$4,$5,$6,$7,$8,$9,$10,$1,$2,$11*%
%AMOutline6P*
0 Free polygon, 6 corners , with rotation*
0 The origin of the aperture is its center*
0 number of corners: always 6*
0 $1 to $12 corner X, Y*
0 $13 Rotation angle, in degrees counterclockwise*
0 create outline with 6 corners*
4,1,6,$1,$2,$3,$4,$5,$6,$7,$8,$9,$10,$11,$12,$1,$2,$13*%
%AMOutline7P*
0 Free polygon, 7 corners , with rotation*
0 The origin of the aperture is its center*
0 number of corners: always 7*
0 $1 to $14 corner X, Y*
0 $15 Rotation angle, in degrees counterclockwise*
0 create outline with 7 corners*
4,1,7,$1,$2,$3,$4,$5,$6,$7,$8,$9,$10,$11,$12,$13,$14,$1,$2,$15*%
%AMOutline8P*
0 Free polygon, 8 corners , with rotation*
0 The origin of the aperture is its center*
0 number of corners: always 8*
0 $1 to $16 corner X, Y*
0 $17 Rotation angle, in degrees counterclockwise*
0 create outline with 8 corners*
4,1,8,$1,$2,$3,$4,$5,$6,$7,$8,$9,$10,$11,$12,$13,$14,$15,$16,$1,$2,$17*%
G04 Aperture macros list end*
%ADD10R,0.990600X2.692400*%
%ADD11R,0.609600X1.701800*%
%ADD12R,0.300000X1.450000*%
%ADD13R,0.550000X1.450000*%
%ADD14O,1.000000X1.800000*%
%ADD15O,1.000000X2.100000*%
%ADD16C,0.650000*%
%ADD17RoundRect,0.250000X-0.337500X-0.475000X0.337500X-0.475000X0.337500X0.475000X-0.337500X0.475000X0*%
%ADD18R,3.708400X0.762000*%
%ADD19R,8.255000X8.559800*%
%ADD20RoundRect,0.250000X1.500000X0.650000X-1.500000X0.650000X-1.500000X-0.650000X1.500000X-0.650000X0*%
%ADD21RoundRect,0.243600X-0.771400X1.406400X-0.771400X-1.406400X0.771400X-1.406400X0.771400X1.406400X0*%
%ADD22RoundRect,0.190000X-0.190000X0.510000X-0.190000X-0.510000X0.190000X-0.510000X0.190000X0.510000X0*%
%ADD23RoundRect,0.250000X-0.475000X0.337500X-0.475000X-0.337500X0.475000X-0.337500X0.475000X0.337500X0*%
%ADD24RoundRect,0.300000X-0.450000X0.300000X-0.450000X-0.300000X0.450000X-0.300000X0.450000X0.300000X0*%
%ADD25Outline6P,-1.200000X1.750000X1.200000X1.750000X1.200000X-0.910000X0.360000X-1.750000X-0.360000X-1.750000X-1.200000X-0.910000X270.000000*%
%ADD26RoundRect,0.300000X-0.950000X0.300000X-0.950000X-0.300000X0.950000X-0.300000X0.950000X0.300000X0*%
%ADD27RoundRect,0.237500X0.250000X0.237500X-0.250000X0.237500X-0.250000X-0.237500X0.250000X-0.237500X0*%
%ADD28RoundRect,0.237500X-0.237500X0.250000X-0.237500X-0.250000X0.237500X-0.250000X0.237500X0.250000X0*%
%ADD29RoundRect,0.237500X-0.300000X-0.237500X0.300000X-0.237500X0.300000X0.237500X-0.300000X0.237500X0*%
%ADD30RoundRect,0.250000X1.100000X-0.412500X1.100000X0.412500X-1.100000X0.412500X-1.100000X-0.412500X0*%
%ADD31RoundRect,0.250002X2.749998X-2.749998X2.749998X2.749998X-2.749998X2.749998X-2.749998X-2.749998X0*%
%ADD32RoundRect,0.237500X-0.237500X0.300000X-0.237500X-0.300000X0.237500X-0.300000X0.237500X0.300000X0*%
%ADD33RoundRect,0.250000X0.475000X-0.337500X0.475000X0.337500X-0.475000X0.337500X-0.475000X-0.337500X0*%
%ADD34RoundRect,0.250000X-0.412500X-1.100000X0.412500X-1.100000X0.412500X1.100000X-0.412500X1.100000X0*%
%ADD35RoundRect,0.237500X0.237500X-0.250000X0.237500X0.250000X-0.237500X0.250000X-0.237500X-0.250000X0*%
%ADD36RoundRect,0.237500X0.300000X0.237500X-0.300000X0.237500X-0.300000X-0.237500X0.300000X-0.237500X0*%
%ADD37R,2.184400X3.200400*%
%ADD38RoundRect,0.237500X0.237500X-0.300000X0.237500X0.300000X-0.237500X0.300000X-0.237500X-0.300000X0*%
%ADD39R,1.270000X0.304800*%
%ADD40RoundRect,0.237500X-0.250000X-0.237500X0.250000X-0.237500X0.250000X0.237500X-0.250000X0.237500X0*%
%ADD41RoundRect,0.250000X0.650000X-0.800000X0.650000X0.800000X-0.650000X0.800000X-0.650000X-0.800000X0*%
%ADD42R,1.500000X2.400000*%
%ADD43R,0.304800X1.193800*%
%ADD44R,1.193800X0.304800*%
%ADD45R,0.533400X1.460500*%
%ADD46RoundRect,0.250000X0.337500X0.475000X-0.337500X0.475000X-0.337500X-0.475000X0.337500X-0.475000X0*%
%ADD47R,1.900000X1.300000*%
%ADD48C,1.600000*%
%ADD49RoundRect,0.250002X2.749998X2.749998X-2.749998X2.749998X-2.749998X-2.749998X2.749998X-2.749998X0*%
%ADD50R,1.700000X1.700000*%
%ADD51C,1.700000*%
G04 APERTURE END LIST*
%TO.C,U2*%
G36*
X159308800Y-65011490D02*
G01*
X163045800Y-65011490D01*
X163045800Y-71488490D01*
X159308800Y-71488490D01*
X159308800Y-65011490D01*
G37*
%TD*%
D10*
%TO.C,J4*%
X169124999Y-118724301D03*
X161675001Y-118724301D03*
D11*
X167275000Y-115524300D03*
X166025000Y-115524300D03*
X164775000Y-115524300D03*
X163525000Y-115524300D03*
%TD*%
D12*
%TO.C,USB1*%
X151850000Y-112750000D03*
X152850000Y-112750000D03*
X154350000Y-112750000D03*
X155350000Y-112750000D03*
D13*
X156000000Y-112750000D03*
X156800000Y-112750000D03*
D12*
X154850000Y-112750000D03*
X153850000Y-112750000D03*
X153350000Y-112750000D03*
X152350000Y-112750000D03*
D13*
X151200000Y-112750000D03*
X150400000Y-112750000D03*
D14*
X157920000Y-117850000D03*
X149280000Y-117850000D03*
D15*
X157920000Y-113670000D03*
X149280000Y-113670000D03*
D16*
X156490000Y-114200000D03*
X150710000Y-114200000D03*
%TD*%
D17*
%TO.C,C7*%
X153433500Y-74505890D03*
X155508500Y-74505890D03*
%TD*%
D18*
%TO.C,U7*%
X183143400Y-74752500D03*
X183143400Y-76022500D03*
X183143400Y-77292500D03*
X183143400Y-78562500D03*
X183143400Y-79832500D03*
X183143400Y-81102500D03*
X183143400Y-82372500D03*
D19*
X194357500Y-78562500D03*
%TD*%
D20*
%TO.C,D1*%
X164571000Y-58505890D03*
X159571000Y-58505890D03*
%TD*%
D21*
%TO.C,R16*%
X179135000Y-52020000D03*
D22*
X177230000Y-51070000D03*
X179770000Y-57930000D03*
D21*
X177865000Y-56980000D03*
%TD*%
D23*
%TO.C,C5*%
X154300000Y-68262500D03*
X154300000Y-70337500D03*
%TD*%
%TO.C,C4*%
X149750000Y-67000000D03*
X149750000Y-69075000D03*
%TD*%
D24*
%TO.C,U11*%
X166600000Y-87700000D03*
D25*
X169600000Y-89300000D03*
D26*
X167100000Y-89300000D03*
D24*
X166600000Y-90900000D03*
%TD*%
D27*
%TO.C,R2*%
X155633500Y-60455890D03*
X153808500Y-60455890D03*
%TD*%
D28*
%TO.C,R6*%
X149000000Y-83387500D03*
X149000000Y-85212500D03*
%TD*%
D29*
%TO.C,C27*%
X167587500Y-86000000D03*
X169312500Y-86000000D03*
%TD*%
D30*
%TO.C,C24*%
X163750000Y-90862500D03*
X163750000Y-87737500D03*
%TD*%
D27*
%TO.C,R12*%
X155633500Y-63455890D03*
X153808500Y-63455890D03*
%TD*%
D18*
%TO.C,U8*%
X183143400Y-97752500D03*
X183143400Y-99022500D03*
X183143400Y-100292500D03*
X183143400Y-101562500D03*
X183143400Y-102832500D03*
X183143400Y-104102500D03*
X183143400Y-105372500D03*
D19*
X194357500Y-101562500D03*
%TD*%
D23*
%TO.C,C3*%
X151900000Y-67000000D03*
X151900000Y-69075000D03*
%TD*%
D31*
%TO.C,J9*%
X203400000Y-84562500D03*
%TD*%
D32*
%TO.C,C21*%
X155200000Y-99337500D03*
X155200000Y-101062500D03*
%TD*%
D33*
%TO.C,C28*%
X153450000Y-103025000D03*
X153450000Y-100950000D03*
%TD*%
D31*
%TO.C,J10*%
X203200000Y-107200000D03*
%TD*%
D34*
%TO.C,C9*%
X165221000Y-79255890D03*
X168346000Y-79255890D03*
%TD*%
D21*
%TO.C,R17*%
X177837500Y-99062500D03*
D22*
X175932500Y-98112500D03*
X178472500Y-104972500D03*
D21*
X176567500Y-104022500D03*
%TD*%
D29*
%TO.C,C44*%
X165087500Y-101150000D03*
X166812500Y-101150000D03*
%TD*%
D35*
%TO.C,R25*%
X152800000Y-110912500D03*
X152800000Y-109087500D03*
%TD*%
D32*
%TO.C,C16*%
X167171000Y-61330890D03*
X167171000Y-63055890D03*
%TD*%
D36*
%TO.C,C23*%
X142162500Y-91050000D03*
X140437500Y-91050000D03*
%TD*%
D32*
%TO.C,C1*%
X152000000Y-60437500D03*
X152000000Y-62162500D03*
%TD*%
D31*
%TO.C,J8*%
X203400000Y-61300000D03*
%TD*%
D17*
%TO.C,C8*%
X165171000Y-76605890D03*
X167246000Y-76605890D03*
%TD*%
D35*
%TO.C,R22*%
X151000000Y-110912500D03*
X151000000Y-109087500D03*
%TD*%
D37*
%TO.C,CR1*%
X178138400Y-64000000D03*
X171890000Y-64000000D03*
%TD*%
D18*
%TO.C,U3*%
X196621600Y-70872500D03*
X196621600Y-69602500D03*
X196621600Y-68332500D03*
X196621600Y-67062500D03*
X196621600Y-65792500D03*
X196621600Y-64522500D03*
X196621600Y-63252500D03*
D19*
X185407500Y-67062500D03*
%TD*%
D38*
%TO.C,C37*%
X147500000Y-85162500D03*
X147500000Y-83437500D03*
%TD*%
%TO.C,C45*%
X162150000Y-108762500D03*
X162150000Y-107037500D03*
%TD*%
%TO.C,C32*%
X158250000Y-83362500D03*
X158250000Y-81637500D03*
%TD*%
D32*
%TO.C,C22*%
X143900000Y-98337500D03*
X143900000Y-100062500D03*
%TD*%
%TO.C,C13*%
X167500000Y-71393390D03*
X167500000Y-73118390D03*
%TD*%
D17*
%TO.C,C6*%
X153433500Y-72505890D03*
X155508500Y-72505890D03*
%TD*%
%TO.C,C29*%
X140075000Y-96450000D03*
X142150000Y-96450000D03*
%TD*%
D39*
%TO.C,U2*%
X157354600Y-61500004D03*
X157354600Y-62000002D03*
X157354600Y-62500002D03*
X157354600Y-63000000D03*
X157354600Y-63500000D03*
X157354600Y-63999999D03*
X157354600Y-64499998D03*
X157354600Y-64999996D03*
X157354600Y-65499996D03*
X157354600Y-65999994D03*
X157354600Y-66499994D03*
X157354600Y-66999993D03*
X157354600Y-67499992D03*
X157354600Y-67999990D03*
X157354600Y-68499990D03*
X157354600Y-68999988D03*
X157354600Y-69499987D03*
X157354600Y-69999986D03*
X157354600Y-70499986D03*
X157354600Y-70999984D03*
X157354600Y-71499984D03*
X157354600Y-71999982D03*
X157354600Y-72499981D03*
X157354600Y-72999980D03*
X157354600Y-73499980D03*
X157354600Y-73999978D03*
X157354600Y-74499978D03*
X157354600Y-74999976D03*
X165000000Y-74999976D03*
X165000000Y-74499978D03*
X165000000Y-73999978D03*
X165000000Y-73499980D03*
X165000000Y-72999980D03*
X165000000Y-72499981D03*
X165000000Y-71999982D03*
X165000000Y-71499984D03*
X165000000Y-70999984D03*
X165000000Y-70499986D03*
X165000000Y-69999986D03*
X165000000Y-69499987D03*
X165000000Y-68999988D03*
X165000000Y-68499990D03*
X165000000Y-67999990D03*
X165000000Y-67499992D03*
X165000000Y-66999993D03*
X165000000Y-66499994D03*
X165000000Y-65999994D03*
X165000000Y-65499996D03*
X165000000Y-64999996D03*
X165000000Y-64499998D03*
X165000000Y-63999999D03*
X165000000Y-63500000D03*
X165000000Y-63000000D03*
X165000000Y-62500002D03*
X165000000Y-62000002D03*
X165000000Y-61500004D03*
%TD*%
D27*
%TO.C,R18*%
X166712500Y-110300000D03*
X164887500Y-110300000D03*
%TD*%
D32*
%TO.C,C15*%
X167171000Y-64680890D03*
X167171000Y-66405890D03*
%TD*%
D36*
%TO.C,C2*%
X155583500Y-61955890D03*
X153858500Y-61955890D03*
%TD*%
D29*
%TO.C,C33*%
X154287500Y-78950000D03*
X156012500Y-78950000D03*
%TD*%
D32*
%TO.C,C14*%
X167171000Y-68030890D03*
X167171000Y-69755890D03*
%TD*%
D40*
%TO.C,TH1*%
X176187500Y-108300000D03*
X178012500Y-108300000D03*
%TD*%
D35*
%TO.C,R23*%
X156250000Y-110912500D03*
X156250000Y-109087500D03*
%TD*%
%TO.C,R7*%
X144500000Y-85212500D03*
X144500000Y-83387500D03*
%TD*%
D29*
%TO.C,C30*%
X155037500Y-86700000D03*
X156762500Y-86700000D03*
%TD*%
%TO.C,C42*%
X166587500Y-92600000D03*
X168312500Y-92600000D03*
%TD*%
D41*
%TO.C,Y1*%
X156300000Y-83900000D03*
X156300000Y-81000000D03*
X154000000Y-81000000D03*
X154000000Y-83900000D03*
%TD*%
D35*
%TO.C,R24*%
X154550000Y-110912500D03*
X154550000Y-109087500D03*
%TD*%
D38*
%TO.C,C31*%
X150490000Y-85162500D03*
X150490000Y-83437500D03*
%TD*%
D40*
%TO.C,R5*%
X153808500Y-64955890D03*
X155633500Y-64955890D03*
%TD*%
D42*
%TO.C,L1*%
X164550000Y-53199990D03*
X159050000Y-53199990D03*
%TD*%
D34*
%TO.C,C10*%
X165221000Y-82555890D03*
X168346000Y-82555890D03*
%TD*%
D40*
%TO.C,R15*%
X157487500Y-91950000D03*
X159312500Y-91950000D03*
%TD*%
%TO.C,R19*%
X140450000Y-87050000D03*
X142275000Y-87050000D03*
%TD*%
D18*
%TO.C,U6*%
X183133400Y-51752500D03*
X183133400Y-53022500D03*
X183133400Y-54292500D03*
X183133400Y-55562500D03*
X183133400Y-56832500D03*
X183133400Y-58102500D03*
X183133400Y-59372500D03*
D19*
X194347500Y-55562500D03*
%TD*%
D18*
%TO.C,U5*%
X196625900Y-116872500D03*
X196625900Y-115602500D03*
X196625900Y-114332500D03*
X196625900Y-113062500D03*
X196625900Y-111792500D03*
X196625900Y-110522500D03*
X196625900Y-109252500D03*
D19*
X185411800Y-113062500D03*
%TD*%
D43*
%TO.C,U1*%
X153650000Y-87450001D03*
X153150001Y-87450001D03*
X152650000Y-87450001D03*
X152150001Y-87450001D03*
X151649999Y-87450001D03*
X151150000Y-87450001D03*
X150650001Y-87450001D03*
X150150000Y-87450001D03*
X149650000Y-87450001D03*
X149149999Y-87450001D03*
X148650000Y-87450001D03*
X148150001Y-87450001D03*
X147649999Y-87450001D03*
X147150000Y-87450001D03*
X146649999Y-87450001D03*
X146150000Y-87450001D03*
D44*
X144150001Y-89450000D03*
X144150001Y-89949999D03*
X144150001Y-90450000D03*
X144150001Y-90949999D03*
X144150001Y-91450001D03*
X144150001Y-91950000D03*
X144150001Y-92449999D03*
X144150001Y-92950000D03*
X144150001Y-93450000D03*
X144150001Y-93950001D03*
X144150001Y-94450000D03*
X144150001Y-94949999D03*
X144150001Y-95450001D03*
X144150001Y-95950000D03*
X144150001Y-96450001D03*
X144150001Y-96950000D03*
D43*
X146150000Y-98949999D03*
X146649999Y-98949999D03*
X147150000Y-98949999D03*
X147649999Y-98949999D03*
X148150001Y-98949999D03*
X148650000Y-98949999D03*
X149149999Y-98949999D03*
X149650000Y-98949999D03*
X150150000Y-98949999D03*
X150650001Y-98949999D03*
X151150000Y-98949999D03*
X151649999Y-98949999D03*
X152150001Y-98949999D03*
X152650000Y-98949999D03*
X153150001Y-98949999D03*
X153650000Y-98949999D03*
D44*
X155649999Y-96950000D03*
X155649999Y-96450001D03*
X155649999Y-95950000D03*
X155649999Y-95450001D03*
X155649999Y-94949999D03*
X155649999Y-94450000D03*
X155649999Y-93950001D03*
X155649999Y-93450000D03*
X155649999Y-92950000D03*
X155649999Y-92449999D03*
X155649999Y-91950000D03*
X155649999Y-91450001D03*
X155649999Y-90949999D03*
X155649999Y-90450000D03*
X155649999Y-89949999D03*
X155649999Y-89450000D03*
%TD*%
D45*
%TO.C,U10*%
X167705000Y-103075850D03*
X166435000Y-103075850D03*
X165165000Y-103075850D03*
X163895000Y-103075850D03*
X163895000Y-108524150D03*
X165165000Y-108524150D03*
X166435000Y-108524150D03*
X167705000Y-108524150D03*
%TD*%
D46*
%TO.C,C35*%
X142150000Y-88800000D03*
X140075000Y-88800000D03*
%TD*%
D29*
%TO.C,C20*%
X156037500Y-88200000D03*
X157762500Y-88200000D03*
%TD*%
D18*
%TO.C,U4*%
X196625900Y-93872500D03*
X196625900Y-92602500D03*
X196625900Y-91332500D03*
X196625900Y-90062500D03*
X196625900Y-88792500D03*
X196625900Y-87522500D03*
X196625900Y-86252500D03*
D19*
X185411800Y-90062500D03*
%TD*%
D47*
%TO.C,SW1*%
X148700000Y-77850000D03*
X140300000Y-77850000D03*
X148700000Y-73350000D03*
X140300000Y-73350000D03*
%TD*%
D32*
%TO.C,C38*%
X146000000Y-83437500D03*
X146000000Y-85162500D03*
%TD*%
D48*
%TO.C,C40*%
X174700000Y-58200000D03*
X174700000Y-53200000D03*
%TD*%
%TO.C,C41*%
X177700000Y-93700000D03*
X177700000Y-88700000D03*
%TD*%
%TO.C,C39*%
X176800000Y-115400000D03*
X176800000Y-110400000D03*
%TD*%
D49*
%TO.C,J6*%
X176800000Y-71100000D03*
%TD*%
%TO.C,J7*%
X176800000Y-79300000D03*
%TD*%
D50*
%TO.C,J1*%
X148285000Y-62480000D03*
D51*
X148285000Y-59940000D03*
X148285000Y-57400000D03*
X148285000Y-54860000D03*
X148285000Y-52320000D03*
%TD*%
M02*
