%TF.GenerationSoftware,KiCad,Pcbnew,10.0.3*%
%TF.CreationDate,2026-07-14T01:22:06+08:00*%
%TF.ProjectId,FOC_V1_PCB,464f435f-5631-45f5-9043-422e6b696361,rev?*%
%TF.SameCoordinates,Original*%
%TF.FileFunction,Legend,Bot*%
%TF.FilePolarity,Positive*%
%FSLAX46Y46*%
G04 Gerber Fmt 4.6, Leading zero omitted, Abs format (unit mm)*
G04 Created by KiCad (PCBNEW 10.0.3) date 2026-07-14 01:22:06*
%MOMM*%
%LPD*%
G01*
G04 APERTURE LIST*
%ADD10C,0.150000*%
%ADD11C,0.120000*%
G04 APERTURE END LIST*
D10*
X144611009Y-80466666D02*
X144611009Y-80133333D01*
X145134819Y-80133333D02*
X144134819Y-80133333D01*
X144134819Y-80133333D02*
X144134819Y-80609523D01*
X144611009Y-81323809D02*
X144658628Y-81466666D01*
X144658628Y-81466666D02*
X144706247Y-81514285D01*
X144706247Y-81514285D02*
X144801485Y-81561904D01*
X144801485Y-81561904D02*
X144944342Y-81561904D01*
X144944342Y-81561904D02*
X145039580Y-81514285D01*
X145039580Y-81514285D02*
X145087200Y-81466666D01*
X145087200Y-81466666D02*
X145134819Y-81371428D01*
X145134819Y-81371428D02*
X145134819Y-80990476D01*
X145134819Y-80990476D02*
X144134819Y-80990476D01*
X144134819Y-80990476D02*
X144134819Y-81323809D01*
X144134819Y-81323809D02*
X144182438Y-81419047D01*
X144182438Y-81419047D02*
X144230057Y-81466666D01*
X144230057Y-81466666D02*
X144325295Y-81514285D01*
X144325295Y-81514285D02*
X144420533Y-81514285D01*
X144420533Y-81514285D02*
X144515771Y-81466666D01*
X144515771Y-81466666D02*
X144563390Y-81419047D01*
X144563390Y-81419047D02*
X144611009Y-81323809D01*
X144611009Y-81323809D02*
X144611009Y-80990476D01*
X145134819Y-82514285D02*
X145134819Y-81942857D01*
X145134819Y-82228571D02*
X144134819Y-82228571D01*
X144134819Y-82228571D02*
X144277676Y-82133333D01*
X144277676Y-82133333D02*
X144372914Y-82038095D01*
X144372914Y-82038095D02*
X144420533Y-81942857D01*
X139704819Y-84769642D02*
X139228628Y-84436309D01*
X139704819Y-84198214D02*
X138704819Y-84198214D01*
X138704819Y-84198214D02*
X138704819Y-84579166D01*
X138704819Y-84579166D02*
X138752438Y-84674404D01*
X138752438Y-84674404D02*
X138800057Y-84722023D01*
X138800057Y-84722023D02*
X138895295Y-84769642D01*
X138895295Y-84769642D02*
X139038152Y-84769642D01*
X139038152Y-84769642D02*
X139133390Y-84722023D01*
X139133390Y-84722023D02*
X139181009Y-84674404D01*
X139181009Y-84674404D02*
X139228628Y-84579166D01*
X139228628Y-84579166D02*
X139228628Y-84198214D01*
X138800057Y-85150595D02*
X138752438Y-85198214D01*
X138752438Y-85198214D02*
X138704819Y-85293452D01*
X138704819Y-85293452D02*
X138704819Y-85531547D01*
X138704819Y-85531547D02*
X138752438Y-85626785D01*
X138752438Y-85626785D02*
X138800057Y-85674404D01*
X138800057Y-85674404D02*
X138895295Y-85722023D01*
X138895295Y-85722023D02*
X138990533Y-85722023D01*
X138990533Y-85722023D02*
X139133390Y-85674404D01*
X139133390Y-85674404D02*
X139704819Y-85102976D01*
X139704819Y-85102976D02*
X139704819Y-85722023D01*
X138704819Y-86341071D02*
X138704819Y-86436309D01*
X138704819Y-86436309D02*
X138752438Y-86531547D01*
X138752438Y-86531547D02*
X138800057Y-86579166D01*
X138800057Y-86579166D02*
X138895295Y-86626785D01*
X138895295Y-86626785D02*
X139085771Y-86674404D01*
X139085771Y-86674404D02*
X139323866Y-86674404D01*
X139323866Y-86674404D02*
X139514342Y-86626785D01*
X139514342Y-86626785D02*
X139609580Y-86579166D01*
X139609580Y-86579166D02*
X139657200Y-86531547D01*
X139657200Y-86531547D02*
X139704819Y-86436309D01*
X139704819Y-86436309D02*
X139704819Y-86341071D01*
X139704819Y-86341071D02*
X139657200Y-86245833D01*
X139657200Y-86245833D02*
X139609580Y-86198214D01*
X139609580Y-86198214D02*
X139514342Y-86150595D01*
X139514342Y-86150595D02*
X139323866Y-86102976D01*
X139323866Y-86102976D02*
X139085771Y-86102976D01*
X139085771Y-86102976D02*
X138895295Y-86150595D01*
X138895295Y-86150595D02*
X138800057Y-86198214D01*
X138800057Y-86198214D02*
X138752438Y-86245833D01*
X138752438Y-86245833D02*
X138704819Y-86341071D01*
X167325819Y-81689223D02*
X166849628Y-81355890D01*
X167325819Y-81117795D02*
X166325819Y-81117795D01*
X166325819Y-81117795D02*
X166325819Y-81498747D01*
X166325819Y-81498747D02*
X166373438Y-81593985D01*
X166373438Y-81593985D02*
X166421057Y-81641604D01*
X166421057Y-81641604D02*
X166516295Y-81689223D01*
X166516295Y-81689223D02*
X166659152Y-81689223D01*
X166659152Y-81689223D02*
X166754390Y-81641604D01*
X166754390Y-81641604D02*
X166802009Y-81593985D01*
X166802009Y-81593985D02*
X166849628Y-81498747D01*
X166849628Y-81498747D02*
X166849628Y-81117795D01*
X166754390Y-82260652D02*
X166706771Y-82165414D01*
X166706771Y-82165414D02*
X166659152Y-82117795D01*
X166659152Y-82117795D02*
X166563914Y-82070176D01*
X166563914Y-82070176D02*
X166516295Y-82070176D01*
X166516295Y-82070176D02*
X166421057Y-82117795D01*
X166421057Y-82117795D02*
X166373438Y-82165414D01*
X166373438Y-82165414D02*
X166325819Y-82260652D01*
X166325819Y-82260652D02*
X166325819Y-82451128D01*
X166325819Y-82451128D02*
X166373438Y-82546366D01*
X166373438Y-82546366D02*
X166421057Y-82593985D01*
X166421057Y-82593985D02*
X166516295Y-82641604D01*
X166516295Y-82641604D02*
X166563914Y-82641604D01*
X166563914Y-82641604D02*
X166659152Y-82593985D01*
X166659152Y-82593985D02*
X166706771Y-82546366D01*
X166706771Y-82546366D02*
X166754390Y-82451128D01*
X166754390Y-82451128D02*
X166754390Y-82260652D01*
X166754390Y-82260652D02*
X166802009Y-82165414D01*
X166802009Y-82165414D02*
X166849628Y-82117795D01*
X166849628Y-82117795D02*
X166944866Y-82070176D01*
X166944866Y-82070176D02*
X167135342Y-82070176D01*
X167135342Y-82070176D02*
X167230580Y-82117795D01*
X167230580Y-82117795D02*
X167278200Y-82165414D01*
X167278200Y-82165414D02*
X167325819Y-82260652D01*
X167325819Y-82260652D02*
X167325819Y-82451128D01*
X167325819Y-82451128D02*
X167278200Y-82546366D01*
X167278200Y-82546366D02*
X167230580Y-82593985D01*
X167230580Y-82593985D02*
X167135342Y-82641604D01*
X167135342Y-82641604D02*
X166944866Y-82641604D01*
X166944866Y-82641604D02*
X166849628Y-82593985D01*
X166849628Y-82593985D02*
X166802009Y-82546366D01*
X166802009Y-82546366D02*
X166754390Y-82451128D01*
X163959580Y-58157142D02*
X164007200Y-58109523D01*
X164007200Y-58109523D02*
X164054819Y-57966666D01*
X164054819Y-57966666D02*
X164054819Y-57871428D01*
X164054819Y-57871428D02*
X164007200Y-57728571D01*
X164007200Y-57728571D02*
X163911961Y-57633333D01*
X163911961Y-57633333D02*
X163816723Y-57585714D01*
X163816723Y-57585714D02*
X163626247Y-57538095D01*
X163626247Y-57538095D02*
X163483390Y-57538095D01*
X163483390Y-57538095D02*
X163292914Y-57585714D01*
X163292914Y-57585714D02*
X163197676Y-57633333D01*
X163197676Y-57633333D02*
X163102438Y-57728571D01*
X163102438Y-57728571D02*
X163054819Y-57871428D01*
X163054819Y-57871428D02*
X163054819Y-57966666D01*
X163054819Y-57966666D02*
X163102438Y-58109523D01*
X163102438Y-58109523D02*
X163150057Y-58157142D01*
X164054819Y-59109523D02*
X164054819Y-58538095D01*
X164054819Y-58823809D02*
X163054819Y-58823809D01*
X163054819Y-58823809D02*
X163197676Y-58728571D01*
X163197676Y-58728571D02*
X163292914Y-58633333D01*
X163292914Y-58633333D02*
X163340533Y-58538095D01*
X164054819Y-59585714D02*
X164054819Y-59776190D01*
X164054819Y-59776190D02*
X164007200Y-59871428D01*
X164007200Y-59871428D02*
X163959580Y-59919047D01*
X163959580Y-59919047D02*
X163816723Y-60014285D01*
X163816723Y-60014285D02*
X163626247Y-60061904D01*
X163626247Y-60061904D02*
X163245295Y-60061904D01*
X163245295Y-60061904D02*
X163150057Y-60014285D01*
X163150057Y-60014285D02*
X163102438Y-59966666D01*
X163102438Y-59966666D02*
X163054819Y-59871428D01*
X163054819Y-59871428D02*
X163054819Y-59680952D01*
X163054819Y-59680952D02*
X163102438Y-59585714D01*
X163102438Y-59585714D02*
X163150057Y-59538095D01*
X163150057Y-59538095D02*
X163245295Y-59490476D01*
X163245295Y-59490476D02*
X163483390Y-59490476D01*
X163483390Y-59490476D02*
X163578628Y-59538095D01*
X163578628Y-59538095D02*
X163626247Y-59585714D01*
X163626247Y-59585714D02*
X163673866Y-59680952D01*
X163673866Y-59680952D02*
X163673866Y-59871428D01*
X163673866Y-59871428D02*
X163626247Y-59966666D01*
X163626247Y-59966666D02*
X163578628Y-60014285D01*
X163578628Y-60014285D02*
X163483390Y-60061904D01*
X168442857Y-60154819D02*
X168776190Y-59678628D01*
X169014285Y-60154819D02*
X169014285Y-59154819D01*
X169014285Y-59154819D02*
X168633333Y-59154819D01*
X168633333Y-59154819D02*
X168538095Y-59202438D01*
X168538095Y-59202438D02*
X168490476Y-59250057D01*
X168490476Y-59250057D02*
X168442857Y-59345295D01*
X168442857Y-59345295D02*
X168442857Y-59488152D01*
X168442857Y-59488152D02*
X168490476Y-59583390D01*
X168490476Y-59583390D02*
X168538095Y-59631009D01*
X168538095Y-59631009D02*
X168633333Y-59678628D01*
X168633333Y-59678628D02*
X169014285Y-59678628D01*
X167490476Y-60154819D02*
X168061904Y-60154819D01*
X167776190Y-60154819D02*
X167776190Y-59154819D01*
X167776190Y-59154819D02*
X167871428Y-59297676D01*
X167871428Y-59297676D02*
X167966666Y-59392914D01*
X167966666Y-59392914D02*
X168061904Y-59440533D01*
X167157142Y-59154819D02*
X166538095Y-59154819D01*
X166538095Y-59154819D02*
X166871428Y-59535771D01*
X166871428Y-59535771D02*
X166728571Y-59535771D01*
X166728571Y-59535771D02*
X166633333Y-59583390D01*
X166633333Y-59583390D02*
X166585714Y-59631009D01*
X166585714Y-59631009D02*
X166538095Y-59726247D01*
X166538095Y-59726247D02*
X166538095Y-59964342D01*
X166538095Y-59964342D02*
X166585714Y-60059580D01*
X166585714Y-60059580D02*
X166633333Y-60107200D01*
X166633333Y-60107200D02*
X166728571Y-60154819D01*
X166728571Y-60154819D02*
X167014285Y-60154819D01*
X167014285Y-60154819D02*
X167109523Y-60107200D01*
X167109523Y-60107200D02*
X167157142Y-60059580D01*
X142492857Y-82767319D02*
X142826190Y-82291128D01*
X143064285Y-82767319D02*
X143064285Y-81767319D01*
X143064285Y-81767319D02*
X142683333Y-81767319D01*
X142683333Y-81767319D02*
X142588095Y-81814938D01*
X142588095Y-81814938D02*
X142540476Y-81862557D01*
X142540476Y-81862557D02*
X142492857Y-81957795D01*
X142492857Y-81957795D02*
X142492857Y-82100652D01*
X142492857Y-82100652D02*
X142540476Y-82195890D01*
X142540476Y-82195890D02*
X142588095Y-82243509D01*
X142588095Y-82243509D02*
X142683333Y-82291128D01*
X142683333Y-82291128D02*
X143064285Y-82291128D01*
X142111904Y-81862557D02*
X142064285Y-81814938D01*
X142064285Y-81814938D02*
X141969047Y-81767319D01*
X141969047Y-81767319D02*
X141730952Y-81767319D01*
X141730952Y-81767319D02*
X141635714Y-81814938D01*
X141635714Y-81814938D02*
X141588095Y-81862557D01*
X141588095Y-81862557D02*
X141540476Y-81957795D01*
X141540476Y-81957795D02*
X141540476Y-82053033D01*
X141540476Y-82053033D02*
X141588095Y-82195890D01*
X141588095Y-82195890D02*
X142159523Y-82767319D01*
X142159523Y-82767319D02*
X141540476Y-82767319D01*
X140588095Y-82767319D02*
X141159523Y-82767319D01*
X140873809Y-82767319D02*
X140873809Y-81767319D01*
X140873809Y-81767319D02*
X140969047Y-81910176D01*
X140969047Y-81910176D02*
X141064285Y-82005414D01*
X141064285Y-82005414D02*
X141159523Y-82053033D01*
X180842857Y-50309580D02*
X180890476Y-50357200D01*
X180890476Y-50357200D02*
X181033333Y-50404819D01*
X181033333Y-50404819D02*
X181128571Y-50404819D01*
X181128571Y-50404819D02*
X181271428Y-50357200D01*
X181271428Y-50357200D02*
X181366666Y-50261961D01*
X181366666Y-50261961D02*
X181414285Y-50166723D01*
X181414285Y-50166723D02*
X181461904Y-49976247D01*
X181461904Y-49976247D02*
X181461904Y-49833390D01*
X181461904Y-49833390D02*
X181414285Y-49642914D01*
X181414285Y-49642914D02*
X181366666Y-49547676D01*
X181366666Y-49547676D02*
X181271428Y-49452438D01*
X181271428Y-49452438D02*
X181128571Y-49404819D01*
X181128571Y-49404819D02*
X181033333Y-49404819D01*
X181033333Y-49404819D02*
X180890476Y-49452438D01*
X180890476Y-49452438D02*
X180842857Y-49500057D01*
X179985714Y-49738152D02*
X179985714Y-50404819D01*
X180223809Y-49357200D02*
X180461904Y-50071485D01*
X180461904Y-50071485D02*
X179842857Y-50071485D01*
X179271428Y-49404819D02*
X179176190Y-49404819D01*
X179176190Y-49404819D02*
X179080952Y-49452438D01*
X179080952Y-49452438D02*
X179033333Y-49500057D01*
X179033333Y-49500057D02*
X178985714Y-49595295D01*
X178985714Y-49595295D02*
X178938095Y-49785771D01*
X178938095Y-49785771D02*
X178938095Y-50023866D01*
X178938095Y-50023866D02*
X178985714Y-50214342D01*
X178985714Y-50214342D02*
X179033333Y-50309580D01*
X179033333Y-50309580D02*
X179080952Y-50357200D01*
X179080952Y-50357200D02*
X179176190Y-50404819D01*
X179176190Y-50404819D02*
X179271428Y-50404819D01*
X179271428Y-50404819D02*
X179366666Y-50357200D01*
X179366666Y-50357200D02*
X179414285Y-50309580D01*
X179414285Y-50309580D02*
X179461904Y-50214342D01*
X179461904Y-50214342D02*
X179509523Y-50023866D01*
X179509523Y-50023866D02*
X179509523Y-49785771D01*
X179509523Y-49785771D02*
X179461904Y-49595295D01*
X179461904Y-49595295D02*
X179414285Y-49500057D01*
X179414285Y-49500057D02*
X179366666Y-49452438D01*
X179366666Y-49452438D02*
X179271428Y-49404819D01*
X163775819Y-81615414D02*
X163299628Y-81282081D01*
X163775819Y-81043986D02*
X162775819Y-81043986D01*
X162775819Y-81043986D02*
X162775819Y-81424938D01*
X162775819Y-81424938D02*
X162823438Y-81520176D01*
X162823438Y-81520176D02*
X162871057Y-81567795D01*
X162871057Y-81567795D02*
X162966295Y-81615414D01*
X162966295Y-81615414D02*
X163109152Y-81615414D01*
X163109152Y-81615414D02*
X163204390Y-81567795D01*
X163204390Y-81567795D02*
X163252009Y-81520176D01*
X163252009Y-81520176D02*
X163299628Y-81424938D01*
X163299628Y-81424938D02*
X163299628Y-81043986D01*
X163775819Y-82567795D02*
X163775819Y-81996367D01*
X163775819Y-82282081D02*
X162775819Y-82282081D01*
X162775819Y-82282081D02*
X162918676Y-82186843D01*
X162918676Y-82186843D02*
X163013914Y-82091605D01*
X163013914Y-82091605D02*
X163061533Y-81996367D01*
X162775819Y-83186843D02*
X162775819Y-83282081D01*
X162775819Y-83282081D02*
X162823438Y-83377319D01*
X162823438Y-83377319D02*
X162871057Y-83424938D01*
X162871057Y-83424938D02*
X162966295Y-83472557D01*
X162966295Y-83472557D02*
X163156771Y-83520176D01*
X163156771Y-83520176D02*
X163394866Y-83520176D01*
X163394866Y-83520176D02*
X163585342Y-83472557D01*
X163585342Y-83472557D02*
X163680580Y-83424938D01*
X163680580Y-83424938D02*
X163728200Y-83377319D01*
X163728200Y-83377319D02*
X163775819Y-83282081D01*
X163775819Y-83282081D02*
X163775819Y-83186843D01*
X163775819Y-83186843D02*
X163728200Y-83091605D01*
X163728200Y-83091605D02*
X163680580Y-83043986D01*
X163680580Y-83043986D02*
X163585342Y-82996367D01*
X163585342Y-82996367D02*
X163394866Y-82948748D01*
X163394866Y-82948748D02*
X163156771Y-82948748D01*
X163156771Y-82948748D02*
X162966295Y-82996367D01*
X162966295Y-82996367D02*
X162871057Y-83043986D01*
X162871057Y-83043986D02*
X162823438Y-83091605D01*
X162823438Y-83091605D02*
X162775819Y-83186843D01*
X166430580Y-71363032D02*
X166478200Y-71315413D01*
X166478200Y-71315413D02*
X166525819Y-71172556D01*
X166525819Y-71172556D02*
X166525819Y-71077318D01*
X166525819Y-71077318D02*
X166478200Y-70934461D01*
X166478200Y-70934461D02*
X166382961Y-70839223D01*
X166382961Y-70839223D02*
X166287723Y-70791604D01*
X166287723Y-70791604D02*
X166097247Y-70743985D01*
X166097247Y-70743985D02*
X165954390Y-70743985D01*
X165954390Y-70743985D02*
X165763914Y-70791604D01*
X165763914Y-70791604D02*
X165668676Y-70839223D01*
X165668676Y-70839223D02*
X165573438Y-70934461D01*
X165573438Y-70934461D02*
X165525819Y-71077318D01*
X165525819Y-71077318D02*
X165525819Y-71172556D01*
X165525819Y-71172556D02*
X165573438Y-71315413D01*
X165573438Y-71315413D02*
X165621057Y-71363032D01*
X166525819Y-72315413D02*
X166525819Y-71743985D01*
X166525819Y-72029699D02*
X165525819Y-72029699D01*
X165525819Y-72029699D02*
X165668676Y-71934461D01*
X165668676Y-71934461D02*
X165763914Y-71839223D01*
X165763914Y-71839223D02*
X165811533Y-71743985D01*
X165621057Y-72696366D02*
X165573438Y-72743985D01*
X165573438Y-72743985D02*
X165525819Y-72839223D01*
X165525819Y-72839223D02*
X165525819Y-73077318D01*
X165525819Y-73077318D02*
X165573438Y-73172556D01*
X165573438Y-73172556D02*
X165621057Y-73220175D01*
X165621057Y-73220175D02*
X165716295Y-73267794D01*
X165716295Y-73267794D02*
X165811533Y-73267794D01*
X165811533Y-73267794D02*
X165954390Y-73220175D01*
X165954390Y-73220175D02*
X166525819Y-72648747D01*
X166525819Y-72648747D02*
X166525819Y-73267794D01*
X166430580Y-74763032D02*
X166478200Y-74715413D01*
X166478200Y-74715413D02*
X166525819Y-74572556D01*
X166525819Y-74572556D02*
X166525819Y-74477318D01*
X166525819Y-74477318D02*
X166478200Y-74334461D01*
X166478200Y-74334461D02*
X166382961Y-74239223D01*
X166382961Y-74239223D02*
X166287723Y-74191604D01*
X166287723Y-74191604D02*
X166097247Y-74143985D01*
X166097247Y-74143985D02*
X165954390Y-74143985D01*
X165954390Y-74143985D02*
X165763914Y-74191604D01*
X165763914Y-74191604D02*
X165668676Y-74239223D01*
X165668676Y-74239223D02*
X165573438Y-74334461D01*
X165573438Y-74334461D02*
X165525819Y-74477318D01*
X165525819Y-74477318D02*
X165525819Y-74572556D01*
X165525819Y-74572556D02*
X165573438Y-74715413D01*
X165573438Y-74715413D02*
X165621057Y-74763032D01*
X166525819Y-75715413D02*
X166525819Y-75143985D01*
X166525819Y-75429699D02*
X165525819Y-75429699D01*
X165525819Y-75429699D02*
X165668676Y-75334461D01*
X165668676Y-75334461D02*
X165763914Y-75239223D01*
X165763914Y-75239223D02*
X165811533Y-75143985D01*
X166525819Y-76667794D02*
X166525819Y-76096366D01*
X166525819Y-76382080D02*
X165525819Y-76382080D01*
X165525819Y-76382080D02*
X165668676Y-76286842D01*
X165668676Y-76286842D02*
X165763914Y-76191604D01*
X165763914Y-76191604D02*
X165811533Y-76096366D01*
X150127319Y-80457142D02*
X149651128Y-80123809D01*
X150127319Y-79885714D02*
X149127319Y-79885714D01*
X149127319Y-79885714D02*
X149127319Y-80266666D01*
X149127319Y-80266666D02*
X149174938Y-80361904D01*
X149174938Y-80361904D02*
X149222557Y-80409523D01*
X149222557Y-80409523D02*
X149317795Y-80457142D01*
X149317795Y-80457142D02*
X149460652Y-80457142D01*
X149460652Y-80457142D02*
X149555890Y-80409523D01*
X149555890Y-80409523D02*
X149603509Y-80361904D01*
X149603509Y-80361904D02*
X149651128Y-80266666D01*
X149651128Y-80266666D02*
X149651128Y-79885714D01*
X150127319Y-81409523D02*
X150127319Y-80838095D01*
X150127319Y-81123809D02*
X149127319Y-81123809D01*
X149127319Y-81123809D02*
X149270176Y-81028571D01*
X149270176Y-81028571D02*
X149365414Y-80933333D01*
X149365414Y-80933333D02*
X149413033Y-80838095D01*
X149460652Y-82266666D02*
X150127319Y-82266666D01*
X149079700Y-82028571D02*
X149793985Y-81790476D01*
X149793985Y-81790476D02*
X149793985Y-82409523D01*
X110072080Y-79644642D02*
X110119700Y-79597023D01*
X110119700Y-79597023D02*
X110167319Y-79454166D01*
X110167319Y-79454166D02*
X110167319Y-79358928D01*
X110167319Y-79358928D02*
X110119700Y-79216071D01*
X110119700Y-79216071D02*
X110024461Y-79120833D01*
X110024461Y-79120833D02*
X109929223Y-79073214D01*
X109929223Y-79073214D02*
X109738747Y-79025595D01*
X109738747Y-79025595D02*
X109595890Y-79025595D01*
X109595890Y-79025595D02*
X109405414Y-79073214D01*
X109405414Y-79073214D02*
X109310176Y-79120833D01*
X109310176Y-79120833D02*
X109214938Y-79216071D01*
X109214938Y-79216071D02*
X109167319Y-79358928D01*
X109167319Y-79358928D02*
X109167319Y-79454166D01*
X109167319Y-79454166D02*
X109214938Y-79597023D01*
X109214938Y-79597023D02*
X109262557Y-79644642D01*
X109167319Y-79977976D02*
X109167319Y-80597023D01*
X109167319Y-80597023D02*
X109548271Y-80263690D01*
X109548271Y-80263690D02*
X109548271Y-80406547D01*
X109548271Y-80406547D02*
X109595890Y-80501785D01*
X109595890Y-80501785D02*
X109643509Y-80549404D01*
X109643509Y-80549404D02*
X109738747Y-80597023D01*
X109738747Y-80597023D02*
X109976842Y-80597023D01*
X109976842Y-80597023D02*
X110072080Y-80549404D01*
X110072080Y-80549404D02*
X110119700Y-80501785D01*
X110119700Y-80501785D02*
X110167319Y-80406547D01*
X110167319Y-80406547D02*
X110167319Y-80120833D01*
X110167319Y-80120833D02*
X110119700Y-80025595D01*
X110119700Y-80025595D02*
X110072080Y-79977976D01*
X109500652Y-81454166D02*
X110167319Y-81454166D01*
X109119700Y-81216071D02*
X109833985Y-80977976D01*
X109833985Y-80977976D02*
X109833985Y-81597023D01*
X152275166Y-62910709D02*
X152608499Y-62434518D01*
X152846594Y-62910709D02*
X152846594Y-61910709D01*
X152846594Y-61910709D02*
X152465642Y-61910709D01*
X152465642Y-61910709D02*
X152370404Y-61958328D01*
X152370404Y-61958328D02*
X152322785Y-62005947D01*
X152322785Y-62005947D02*
X152275166Y-62101185D01*
X152275166Y-62101185D02*
X152275166Y-62244042D01*
X152275166Y-62244042D02*
X152322785Y-62339280D01*
X152322785Y-62339280D02*
X152370404Y-62386899D01*
X152370404Y-62386899D02*
X152465642Y-62434518D01*
X152465642Y-62434518D02*
X152846594Y-62434518D01*
X151941832Y-61910709D02*
X151322785Y-61910709D01*
X151322785Y-61910709D02*
X151656118Y-62291661D01*
X151656118Y-62291661D02*
X151513261Y-62291661D01*
X151513261Y-62291661D02*
X151418023Y-62339280D01*
X151418023Y-62339280D02*
X151370404Y-62386899D01*
X151370404Y-62386899D02*
X151322785Y-62482137D01*
X151322785Y-62482137D02*
X151322785Y-62720232D01*
X151322785Y-62720232D02*
X151370404Y-62815470D01*
X151370404Y-62815470D02*
X151418023Y-62863090D01*
X151418023Y-62863090D02*
X151513261Y-62910709D01*
X151513261Y-62910709D02*
X151798975Y-62910709D01*
X151798975Y-62910709D02*
X151894213Y-62863090D01*
X151894213Y-62863090D02*
X151941832Y-62815470D01*
X110354819Y-88257142D02*
X109878628Y-87923809D01*
X110354819Y-87685714D02*
X109354819Y-87685714D01*
X109354819Y-87685714D02*
X109354819Y-88066666D01*
X109354819Y-88066666D02*
X109402438Y-88161904D01*
X109402438Y-88161904D02*
X109450057Y-88209523D01*
X109450057Y-88209523D02*
X109545295Y-88257142D01*
X109545295Y-88257142D02*
X109688152Y-88257142D01*
X109688152Y-88257142D02*
X109783390Y-88209523D01*
X109783390Y-88209523D02*
X109831009Y-88161904D01*
X109831009Y-88161904D02*
X109878628Y-88066666D01*
X109878628Y-88066666D02*
X109878628Y-87685714D01*
X109450057Y-88638095D02*
X109402438Y-88685714D01*
X109402438Y-88685714D02*
X109354819Y-88780952D01*
X109354819Y-88780952D02*
X109354819Y-89019047D01*
X109354819Y-89019047D02*
X109402438Y-89114285D01*
X109402438Y-89114285D02*
X109450057Y-89161904D01*
X109450057Y-89161904D02*
X109545295Y-89209523D01*
X109545295Y-89209523D02*
X109640533Y-89209523D01*
X109640533Y-89209523D02*
X109783390Y-89161904D01*
X109783390Y-89161904D02*
X110354819Y-88590476D01*
X110354819Y-88590476D02*
X110354819Y-89209523D01*
X109354819Y-89542857D02*
X109354819Y-90209523D01*
X109354819Y-90209523D02*
X110354819Y-89780952D01*
X183592857Y-85559580D02*
X183640476Y-85607200D01*
X183640476Y-85607200D02*
X183783333Y-85654819D01*
X183783333Y-85654819D02*
X183878571Y-85654819D01*
X183878571Y-85654819D02*
X184021428Y-85607200D01*
X184021428Y-85607200D02*
X184116666Y-85511961D01*
X184116666Y-85511961D02*
X184164285Y-85416723D01*
X184164285Y-85416723D02*
X184211904Y-85226247D01*
X184211904Y-85226247D02*
X184211904Y-85083390D01*
X184211904Y-85083390D02*
X184164285Y-84892914D01*
X184164285Y-84892914D02*
X184116666Y-84797676D01*
X184116666Y-84797676D02*
X184021428Y-84702438D01*
X184021428Y-84702438D02*
X183878571Y-84654819D01*
X183878571Y-84654819D02*
X183783333Y-84654819D01*
X183783333Y-84654819D02*
X183640476Y-84702438D01*
X183640476Y-84702438D02*
X183592857Y-84750057D01*
X182735714Y-84988152D02*
X182735714Y-85654819D01*
X182973809Y-84607200D02*
X183211904Y-85321485D01*
X183211904Y-85321485D02*
X182592857Y-85321485D01*
X181688095Y-85654819D02*
X182259523Y-85654819D01*
X181973809Y-85654819D02*
X181973809Y-84654819D01*
X181973809Y-84654819D02*
X182069047Y-84797676D01*
X182069047Y-84797676D02*
X182164285Y-84892914D01*
X182164285Y-84892914D02*
X182259523Y-84940533D01*
X142592857Y-88972080D02*
X142640476Y-89019700D01*
X142640476Y-89019700D02*
X142783333Y-89067319D01*
X142783333Y-89067319D02*
X142878571Y-89067319D01*
X142878571Y-89067319D02*
X143021428Y-89019700D01*
X143021428Y-89019700D02*
X143116666Y-88924461D01*
X143116666Y-88924461D02*
X143164285Y-88829223D01*
X143164285Y-88829223D02*
X143211904Y-88638747D01*
X143211904Y-88638747D02*
X143211904Y-88495890D01*
X143211904Y-88495890D02*
X143164285Y-88305414D01*
X143164285Y-88305414D02*
X143116666Y-88210176D01*
X143116666Y-88210176D02*
X143021428Y-88114938D01*
X143021428Y-88114938D02*
X142878571Y-88067319D01*
X142878571Y-88067319D02*
X142783333Y-88067319D01*
X142783333Y-88067319D02*
X142640476Y-88114938D01*
X142640476Y-88114938D02*
X142592857Y-88162557D01*
X142259523Y-88067319D02*
X141640476Y-88067319D01*
X141640476Y-88067319D02*
X141973809Y-88448271D01*
X141973809Y-88448271D02*
X141830952Y-88448271D01*
X141830952Y-88448271D02*
X141735714Y-88495890D01*
X141735714Y-88495890D02*
X141688095Y-88543509D01*
X141688095Y-88543509D02*
X141640476Y-88638747D01*
X141640476Y-88638747D02*
X141640476Y-88876842D01*
X141640476Y-88876842D02*
X141688095Y-88972080D01*
X141688095Y-88972080D02*
X141735714Y-89019700D01*
X141735714Y-89019700D02*
X141830952Y-89067319D01*
X141830952Y-89067319D02*
X142116666Y-89067319D01*
X142116666Y-89067319D02*
X142211904Y-89019700D01*
X142211904Y-89019700D02*
X142259523Y-88972080D01*
X140783333Y-88067319D02*
X140973809Y-88067319D01*
X140973809Y-88067319D02*
X141069047Y-88114938D01*
X141069047Y-88114938D02*
X141116666Y-88162557D01*
X141116666Y-88162557D02*
X141211904Y-88305414D01*
X141211904Y-88305414D02*
X141259523Y-88495890D01*
X141259523Y-88495890D02*
X141259523Y-88876842D01*
X141259523Y-88876842D02*
X141211904Y-88972080D01*
X141211904Y-88972080D02*
X141164285Y-89019700D01*
X141164285Y-89019700D02*
X141069047Y-89067319D01*
X141069047Y-89067319D02*
X140878571Y-89067319D01*
X140878571Y-89067319D02*
X140783333Y-89019700D01*
X140783333Y-89019700D02*
X140735714Y-88972080D01*
X140735714Y-88972080D02*
X140688095Y-88876842D01*
X140688095Y-88876842D02*
X140688095Y-88638747D01*
X140688095Y-88638747D02*
X140735714Y-88543509D01*
X140735714Y-88543509D02*
X140783333Y-88495890D01*
X140783333Y-88495890D02*
X140878571Y-88448271D01*
X140878571Y-88448271D02*
X141069047Y-88448271D01*
X141069047Y-88448271D02*
X141164285Y-88495890D01*
X141164285Y-88495890D02*
X141211904Y-88543509D01*
X141211904Y-88543509D02*
X141259523Y-88638747D01*
X182531660Y-106993703D02*
X182579279Y-107041323D01*
X182579279Y-107041323D02*
X182722136Y-107088942D01*
X182722136Y-107088942D02*
X182817374Y-107088942D01*
X182817374Y-107088942D02*
X182960231Y-107041323D01*
X182960231Y-107041323D02*
X183055469Y-106946084D01*
X183055469Y-106946084D02*
X183103088Y-106850846D01*
X183103088Y-106850846D02*
X183150707Y-106660370D01*
X183150707Y-106660370D02*
X183150707Y-106517513D01*
X183150707Y-106517513D02*
X183103088Y-106327037D01*
X183103088Y-106327037D02*
X183055469Y-106231799D01*
X183055469Y-106231799D02*
X182960231Y-106136561D01*
X182960231Y-106136561D02*
X182817374Y-106088942D01*
X182817374Y-106088942D02*
X182722136Y-106088942D01*
X182722136Y-106088942D02*
X182579279Y-106136561D01*
X182579279Y-106136561D02*
X182531660Y-106184180D01*
X182198326Y-106088942D02*
X181579279Y-106088942D01*
X181579279Y-106088942D02*
X181912612Y-106469894D01*
X181912612Y-106469894D02*
X181769755Y-106469894D01*
X181769755Y-106469894D02*
X181674517Y-106517513D01*
X181674517Y-106517513D02*
X181626898Y-106565132D01*
X181626898Y-106565132D02*
X181579279Y-106660370D01*
X181579279Y-106660370D02*
X181579279Y-106898465D01*
X181579279Y-106898465D02*
X181626898Y-106993703D01*
X181626898Y-106993703D02*
X181674517Y-107041323D01*
X181674517Y-107041323D02*
X181769755Y-107088942D01*
X181769755Y-107088942D02*
X182055469Y-107088942D01*
X182055469Y-107088942D02*
X182150707Y-107041323D01*
X182150707Y-107041323D02*
X182198326Y-106993703D01*
X181103088Y-107088942D02*
X180912612Y-107088942D01*
X180912612Y-107088942D02*
X180817374Y-107041323D01*
X180817374Y-107041323D02*
X180769755Y-106993703D01*
X180769755Y-106993703D02*
X180674517Y-106850846D01*
X180674517Y-106850846D02*
X180626898Y-106660370D01*
X180626898Y-106660370D02*
X180626898Y-106279418D01*
X180626898Y-106279418D02*
X180674517Y-106184180D01*
X180674517Y-106184180D02*
X180722136Y-106136561D01*
X180722136Y-106136561D02*
X180817374Y-106088942D01*
X180817374Y-106088942D02*
X181007850Y-106088942D01*
X181007850Y-106088942D02*
X181103088Y-106136561D01*
X181103088Y-106136561D02*
X181150707Y-106184180D01*
X181150707Y-106184180D02*
X181198326Y-106279418D01*
X181198326Y-106279418D02*
X181198326Y-106517513D01*
X181198326Y-106517513D02*
X181150707Y-106612751D01*
X181150707Y-106612751D02*
X181103088Y-106660370D01*
X181103088Y-106660370D02*
X181007850Y-106707989D01*
X181007850Y-106707989D02*
X180817374Y-106707989D01*
X180817374Y-106707989D02*
X180722136Y-106660370D01*
X180722136Y-106660370D02*
X180674517Y-106612751D01*
X180674517Y-106612751D02*
X180626898Y-106517513D01*
X170680580Y-68116250D02*
X170728200Y-68068631D01*
X170728200Y-68068631D02*
X170775819Y-67925774D01*
X170775819Y-67925774D02*
X170775819Y-67830536D01*
X170775819Y-67830536D02*
X170728200Y-67687679D01*
X170728200Y-67687679D02*
X170632961Y-67592441D01*
X170632961Y-67592441D02*
X170537723Y-67544822D01*
X170537723Y-67544822D02*
X170347247Y-67497203D01*
X170347247Y-67497203D02*
X170204390Y-67497203D01*
X170204390Y-67497203D02*
X170013914Y-67544822D01*
X170013914Y-67544822D02*
X169918676Y-67592441D01*
X169918676Y-67592441D02*
X169823438Y-67687679D01*
X169823438Y-67687679D02*
X169775819Y-67830536D01*
X169775819Y-67830536D02*
X169775819Y-67925774D01*
X169775819Y-67925774D02*
X169823438Y-68068631D01*
X169823438Y-68068631D02*
X169871057Y-68116250D01*
X170775819Y-69068631D02*
X170775819Y-68497203D01*
X170775819Y-68782917D02*
X169775819Y-68782917D01*
X169775819Y-68782917D02*
X169918676Y-68687679D01*
X169918676Y-68687679D02*
X170013914Y-68592441D01*
X170013914Y-68592441D02*
X170061533Y-68497203D01*
X170204390Y-69640060D02*
X170156771Y-69544822D01*
X170156771Y-69544822D02*
X170109152Y-69497203D01*
X170109152Y-69497203D02*
X170013914Y-69449584D01*
X170013914Y-69449584D02*
X169966295Y-69449584D01*
X169966295Y-69449584D02*
X169871057Y-69497203D01*
X169871057Y-69497203D02*
X169823438Y-69544822D01*
X169823438Y-69544822D02*
X169775819Y-69640060D01*
X169775819Y-69640060D02*
X169775819Y-69830536D01*
X169775819Y-69830536D02*
X169823438Y-69925774D01*
X169823438Y-69925774D02*
X169871057Y-69973393D01*
X169871057Y-69973393D02*
X169966295Y-70021012D01*
X169966295Y-70021012D02*
X170013914Y-70021012D01*
X170013914Y-70021012D02*
X170109152Y-69973393D01*
X170109152Y-69973393D02*
X170156771Y-69925774D01*
X170156771Y-69925774D02*
X170204390Y-69830536D01*
X170204390Y-69830536D02*
X170204390Y-69640060D01*
X170204390Y-69640060D02*
X170252009Y-69544822D01*
X170252009Y-69544822D02*
X170299628Y-69497203D01*
X170299628Y-69497203D02*
X170394866Y-69449584D01*
X170394866Y-69449584D02*
X170585342Y-69449584D01*
X170585342Y-69449584D02*
X170680580Y-69497203D01*
X170680580Y-69497203D02*
X170728200Y-69544822D01*
X170728200Y-69544822D02*
X170775819Y-69640060D01*
X170775819Y-69640060D02*
X170775819Y-69830536D01*
X170775819Y-69830536D02*
X170728200Y-69925774D01*
X170728200Y-69925774D02*
X170680580Y-69973393D01*
X170680580Y-69973393D02*
X170585342Y-70021012D01*
X170585342Y-70021012D02*
X170394866Y-70021012D01*
X170394866Y-70021012D02*
X170299628Y-69973393D01*
X170299628Y-69973393D02*
X170252009Y-69925774D01*
X170252009Y-69925774D02*
X170204390Y-69830536D01*
X159254819Y-59133333D02*
X158778628Y-58800000D01*
X159254819Y-58561905D02*
X158254819Y-58561905D01*
X158254819Y-58561905D02*
X158254819Y-58942857D01*
X158254819Y-58942857D02*
X158302438Y-59038095D01*
X158302438Y-59038095D02*
X158350057Y-59085714D01*
X158350057Y-59085714D02*
X158445295Y-59133333D01*
X158445295Y-59133333D02*
X158588152Y-59133333D01*
X158588152Y-59133333D02*
X158683390Y-59085714D01*
X158683390Y-59085714D02*
X158731009Y-59038095D01*
X158731009Y-59038095D02*
X158778628Y-58942857D01*
X158778628Y-58942857D02*
X158778628Y-58561905D01*
X159254819Y-60085714D02*
X159254819Y-59514286D01*
X159254819Y-59800000D02*
X158254819Y-59800000D01*
X158254819Y-59800000D02*
X158397676Y-59704762D01*
X158397676Y-59704762D02*
X158492914Y-59609524D01*
X158492914Y-59609524D02*
X158540533Y-59514286D01*
X148009580Y-80607142D02*
X148057200Y-80559523D01*
X148057200Y-80559523D02*
X148104819Y-80416666D01*
X148104819Y-80416666D02*
X148104819Y-80321428D01*
X148104819Y-80321428D02*
X148057200Y-80178571D01*
X148057200Y-80178571D02*
X147961961Y-80083333D01*
X147961961Y-80083333D02*
X147866723Y-80035714D01*
X147866723Y-80035714D02*
X147676247Y-79988095D01*
X147676247Y-79988095D02*
X147533390Y-79988095D01*
X147533390Y-79988095D02*
X147342914Y-80035714D01*
X147342914Y-80035714D02*
X147247676Y-80083333D01*
X147247676Y-80083333D02*
X147152438Y-80178571D01*
X147152438Y-80178571D02*
X147104819Y-80321428D01*
X147104819Y-80321428D02*
X147104819Y-80416666D01*
X147104819Y-80416666D02*
X147152438Y-80559523D01*
X147152438Y-80559523D02*
X147200057Y-80607142D01*
X147200057Y-80988095D02*
X147152438Y-81035714D01*
X147152438Y-81035714D02*
X147104819Y-81130952D01*
X147104819Y-81130952D02*
X147104819Y-81369047D01*
X147104819Y-81369047D02*
X147152438Y-81464285D01*
X147152438Y-81464285D02*
X147200057Y-81511904D01*
X147200057Y-81511904D02*
X147295295Y-81559523D01*
X147295295Y-81559523D02*
X147390533Y-81559523D01*
X147390533Y-81559523D02*
X147533390Y-81511904D01*
X147533390Y-81511904D02*
X148104819Y-80940476D01*
X148104819Y-80940476D02*
X148104819Y-81559523D01*
X147104819Y-82464285D02*
X147104819Y-81988095D01*
X147104819Y-81988095D02*
X147581009Y-81940476D01*
X147581009Y-81940476D02*
X147533390Y-81988095D01*
X147533390Y-81988095D02*
X147485771Y-82083333D01*
X147485771Y-82083333D02*
X147485771Y-82321428D01*
X147485771Y-82321428D02*
X147533390Y-82416666D01*
X147533390Y-82416666D02*
X147581009Y-82464285D01*
X147581009Y-82464285D02*
X147676247Y-82511904D01*
X147676247Y-82511904D02*
X147914342Y-82511904D01*
X147914342Y-82511904D02*
X148009580Y-82464285D01*
X148009580Y-82464285D02*
X148057200Y-82416666D01*
X148057200Y-82416666D02*
X148104819Y-82321428D01*
X148104819Y-82321428D02*
X148104819Y-82083333D01*
X148104819Y-82083333D02*
X148057200Y-81988095D01*
X148057200Y-81988095D02*
X148009580Y-81940476D01*
X101533333Y-77354818D02*
X101533333Y-78069103D01*
X101533333Y-78069103D02*
X101580952Y-78211960D01*
X101580952Y-78211960D02*
X101676190Y-78307199D01*
X101676190Y-78307199D02*
X101819047Y-78354818D01*
X101819047Y-78354818D02*
X101914285Y-78354818D01*
X101152380Y-77354818D02*
X100533333Y-77354818D01*
X100533333Y-77354818D02*
X100866666Y-77735770D01*
X100866666Y-77735770D02*
X100723809Y-77735770D01*
X100723809Y-77735770D02*
X100628571Y-77783389D01*
X100628571Y-77783389D02*
X100580952Y-77831008D01*
X100580952Y-77831008D02*
X100533333Y-77926246D01*
X100533333Y-77926246D02*
X100533333Y-78164341D01*
X100533333Y-78164341D02*
X100580952Y-78259579D01*
X100580952Y-78259579D02*
X100628571Y-78307199D01*
X100628571Y-78307199D02*
X100723809Y-78354818D01*
X100723809Y-78354818D02*
X101009523Y-78354818D01*
X101009523Y-78354818D02*
X101104761Y-78307199D01*
X101104761Y-78307199D02*
X101152380Y-78259579D01*
X152125166Y-61360709D02*
X152458499Y-60884518D01*
X152696594Y-61360709D02*
X152696594Y-60360709D01*
X152696594Y-60360709D02*
X152315642Y-60360709D01*
X152315642Y-60360709D02*
X152220404Y-60408328D01*
X152220404Y-60408328D02*
X152172785Y-60455947D01*
X152172785Y-60455947D02*
X152125166Y-60551185D01*
X152125166Y-60551185D02*
X152125166Y-60694042D01*
X152125166Y-60694042D02*
X152172785Y-60789280D01*
X152172785Y-60789280D02*
X152220404Y-60836899D01*
X152220404Y-60836899D02*
X152315642Y-60884518D01*
X152315642Y-60884518D02*
X152696594Y-60884518D01*
X151268023Y-60694042D02*
X151268023Y-61360709D01*
X151506118Y-60313090D02*
X151744213Y-61027375D01*
X151744213Y-61027375D02*
X151125166Y-61027375D01*
X161975819Y-81615414D02*
X161499628Y-81282081D01*
X161975819Y-81043986D02*
X160975819Y-81043986D01*
X160975819Y-81043986D02*
X160975819Y-81424938D01*
X160975819Y-81424938D02*
X161023438Y-81520176D01*
X161023438Y-81520176D02*
X161071057Y-81567795D01*
X161071057Y-81567795D02*
X161166295Y-81615414D01*
X161166295Y-81615414D02*
X161309152Y-81615414D01*
X161309152Y-81615414D02*
X161404390Y-81567795D01*
X161404390Y-81567795D02*
X161452009Y-81520176D01*
X161452009Y-81520176D02*
X161499628Y-81424938D01*
X161499628Y-81424938D02*
X161499628Y-81043986D01*
X161975819Y-82567795D02*
X161975819Y-81996367D01*
X161975819Y-82282081D02*
X160975819Y-82282081D01*
X160975819Y-82282081D02*
X161118676Y-82186843D01*
X161118676Y-82186843D02*
X161213914Y-82091605D01*
X161213914Y-82091605D02*
X161261533Y-81996367D01*
X161975819Y-83520176D02*
X161975819Y-82948748D01*
X161975819Y-83234462D02*
X160975819Y-83234462D01*
X160975819Y-83234462D02*
X161118676Y-83139224D01*
X161118676Y-83139224D02*
X161213914Y-83043986D01*
X161213914Y-83043986D02*
X161261533Y-82948748D01*
X165575819Y-81639223D02*
X165099628Y-81305890D01*
X165575819Y-81067795D02*
X164575819Y-81067795D01*
X164575819Y-81067795D02*
X164575819Y-81448747D01*
X164575819Y-81448747D02*
X164623438Y-81543985D01*
X164623438Y-81543985D02*
X164671057Y-81591604D01*
X164671057Y-81591604D02*
X164766295Y-81639223D01*
X164766295Y-81639223D02*
X164909152Y-81639223D01*
X164909152Y-81639223D02*
X165004390Y-81591604D01*
X165004390Y-81591604D02*
X165052009Y-81543985D01*
X165052009Y-81543985D02*
X165099628Y-81448747D01*
X165099628Y-81448747D02*
X165099628Y-81067795D01*
X165575819Y-82115414D02*
X165575819Y-82305890D01*
X165575819Y-82305890D02*
X165528200Y-82401128D01*
X165528200Y-82401128D02*
X165480580Y-82448747D01*
X165480580Y-82448747D02*
X165337723Y-82543985D01*
X165337723Y-82543985D02*
X165147247Y-82591604D01*
X165147247Y-82591604D02*
X164766295Y-82591604D01*
X164766295Y-82591604D02*
X164671057Y-82543985D01*
X164671057Y-82543985D02*
X164623438Y-82496366D01*
X164623438Y-82496366D02*
X164575819Y-82401128D01*
X164575819Y-82401128D02*
X164575819Y-82210652D01*
X164575819Y-82210652D02*
X164623438Y-82115414D01*
X164623438Y-82115414D02*
X164671057Y-82067795D01*
X164671057Y-82067795D02*
X164766295Y-82020176D01*
X164766295Y-82020176D02*
X165004390Y-82020176D01*
X165004390Y-82020176D02*
X165099628Y-82067795D01*
X165099628Y-82067795D02*
X165147247Y-82115414D01*
X165147247Y-82115414D02*
X165194866Y-82210652D01*
X165194866Y-82210652D02*
X165194866Y-82401128D01*
X165194866Y-82401128D02*
X165147247Y-82496366D01*
X165147247Y-82496366D02*
X165099628Y-82543985D01*
X165099628Y-82543985D02*
X165004390Y-82591604D01*
X177033333Y-66354819D02*
X177033333Y-67069104D01*
X177033333Y-67069104D02*
X177080952Y-67211961D01*
X177080952Y-67211961D02*
X177176190Y-67307200D01*
X177176190Y-67307200D02*
X177319047Y-67354819D01*
X177319047Y-67354819D02*
X177414285Y-67354819D01*
X176128571Y-66354819D02*
X176319047Y-66354819D01*
X176319047Y-66354819D02*
X176414285Y-66402438D01*
X176414285Y-66402438D02*
X176461904Y-66450057D01*
X176461904Y-66450057D02*
X176557142Y-66592914D01*
X176557142Y-66592914D02*
X176604761Y-66783390D01*
X176604761Y-66783390D02*
X176604761Y-67164342D01*
X176604761Y-67164342D02*
X176557142Y-67259580D01*
X176557142Y-67259580D02*
X176509523Y-67307200D01*
X176509523Y-67307200D02*
X176414285Y-67354819D01*
X176414285Y-67354819D02*
X176223809Y-67354819D01*
X176223809Y-67354819D02*
X176128571Y-67307200D01*
X176128571Y-67307200D02*
X176080952Y-67259580D01*
X176080952Y-67259580D02*
X176033333Y-67164342D01*
X176033333Y-67164342D02*
X176033333Y-66926247D01*
X176033333Y-66926247D02*
X176080952Y-66831009D01*
X176080952Y-66831009D02*
X176128571Y-66783390D01*
X176128571Y-66783390D02*
X176223809Y-66735771D01*
X176223809Y-66735771D02*
X176414285Y-66735771D01*
X176414285Y-66735771D02*
X176509523Y-66783390D01*
X176509523Y-66783390D02*
X176557142Y-66831009D01*
X176557142Y-66831009D02*
X176604761Y-66926247D01*
X152256067Y-65410708D02*
X152589400Y-64934517D01*
X152827495Y-65410708D02*
X152827495Y-64410708D01*
X152827495Y-64410708D02*
X152446543Y-64410708D01*
X152446543Y-64410708D02*
X152351305Y-64458327D01*
X152351305Y-64458327D02*
X152303686Y-64505946D01*
X152303686Y-64505946D02*
X152256067Y-64601184D01*
X152256067Y-64601184D02*
X152256067Y-64744041D01*
X152256067Y-64744041D02*
X152303686Y-64839279D01*
X152303686Y-64839279D02*
X152351305Y-64886898D01*
X152351305Y-64886898D02*
X152446543Y-64934517D01*
X152446543Y-64934517D02*
X152827495Y-64934517D01*
X151875114Y-64505946D02*
X151827495Y-64458327D01*
X151827495Y-64458327D02*
X151732257Y-64410708D01*
X151732257Y-64410708D02*
X151494162Y-64410708D01*
X151494162Y-64410708D02*
X151398924Y-64458327D01*
X151398924Y-64458327D02*
X151351305Y-64505946D01*
X151351305Y-64505946D02*
X151303686Y-64601184D01*
X151303686Y-64601184D02*
X151303686Y-64696422D01*
X151303686Y-64696422D02*
X151351305Y-64839279D01*
X151351305Y-64839279D02*
X151922733Y-65410708D01*
X151922733Y-65410708D02*
X151303686Y-65410708D01*
X150446543Y-64410708D02*
X150637019Y-64410708D01*
X150637019Y-64410708D02*
X150732257Y-64458327D01*
X150732257Y-64458327D02*
X150779876Y-64505946D01*
X150779876Y-64505946D02*
X150875114Y-64648803D01*
X150875114Y-64648803D02*
X150922733Y-64839279D01*
X150922733Y-64839279D02*
X150922733Y-65220231D01*
X150922733Y-65220231D02*
X150875114Y-65315469D01*
X150875114Y-65315469D02*
X150827495Y-65363089D01*
X150827495Y-65363089D02*
X150732257Y-65410708D01*
X150732257Y-65410708D02*
X150541781Y-65410708D01*
X150541781Y-65410708D02*
X150446543Y-65363089D01*
X150446543Y-65363089D02*
X150398924Y-65315469D01*
X150398924Y-65315469D02*
X150351305Y-65220231D01*
X150351305Y-65220231D02*
X150351305Y-64982136D01*
X150351305Y-64982136D02*
X150398924Y-64886898D01*
X150398924Y-64886898D02*
X150446543Y-64839279D01*
X150446543Y-64839279D02*
X150541781Y-64791660D01*
X150541781Y-64791660D02*
X150732257Y-64791660D01*
X150732257Y-64791660D02*
X150827495Y-64839279D01*
X150827495Y-64839279D02*
X150875114Y-64886898D01*
X150875114Y-64886898D02*
X150922733Y-64982136D01*
X146499580Y-80607142D02*
X146547200Y-80559523D01*
X146547200Y-80559523D02*
X146594819Y-80416666D01*
X146594819Y-80416666D02*
X146594819Y-80321428D01*
X146594819Y-80321428D02*
X146547200Y-80178571D01*
X146547200Y-80178571D02*
X146451961Y-80083333D01*
X146451961Y-80083333D02*
X146356723Y-80035714D01*
X146356723Y-80035714D02*
X146166247Y-79988095D01*
X146166247Y-79988095D02*
X146023390Y-79988095D01*
X146023390Y-79988095D02*
X145832914Y-80035714D01*
X145832914Y-80035714D02*
X145737676Y-80083333D01*
X145737676Y-80083333D02*
X145642438Y-80178571D01*
X145642438Y-80178571D02*
X145594819Y-80321428D01*
X145594819Y-80321428D02*
X145594819Y-80416666D01*
X145594819Y-80416666D02*
X145642438Y-80559523D01*
X145642438Y-80559523D02*
X145690057Y-80607142D01*
X145690057Y-80988095D02*
X145642438Y-81035714D01*
X145642438Y-81035714D02*
X145594819Y-81130952D01*
X145594819Y-81130952D02*
X145594819Y-81369047D01*
X145594819Y-81369047D02*
X145642438Y-81464285D01*
X145642438Y-81464285D02*
X145690057Y-81511904D01*
X145690057Y-81511904D02*
X145785295Y-81559523D01*
X145785295Y-81559523D02*
X145880533Y-81559523D01*
X145880533Y-81559523D02*
X146023390Y-81511904D01*
X146023390Y-81511904D02*
X146594819Y-80940476D01*
X146594819Y-80940476D02*
X146594819Y-81559523D01*
X145594819Y-82416666D02*
X145594819Y-82226190D01*
X145594819Y-82226190D02*
X145642438Y-82130952D01*
X145642438Y-82130952D02*
X145690057Y-82083333D01*
X145690057Y-82083333D02*
X145832914Y-81988095D01*
X145832914Y-81988095D02*
X146023390Y-81940476D01*
X146023390Y-81940476D02*
X146404342Y-81940476D01*
X146404342Y-81940476D02*
X146499580Y-81988095D01*
X146499580Y-81988095D02*
X146547200Y-82035714D01*
X146547200Y-82035714D02*
X146594819Y-82130952D01*
X146594819Y-82130952D02*
X146594819Y-82321428D01*
X146594819Y-82321428D02*
X146547200Y-82416666D01*
X146547200Y-82416666D02*
X146499580Y-82464285D01*
X146499580Y-82464285D02*
X146404342Y-82511904D01*
X146404342Y-82511904D02*
X146166247Y-82511904D01*
X146166247Y-82511904D02*
X146071009Y-82464285D01*
X146071009Y-82464285D02*
X146023390Y-82416666D01*
X146023390Y-82416666D02*
X145975771Y-82321428D01*
X145975771Y-82321428D02*
X145975771Y-82130952D01*
X145975771Y-82130952D02*
X146023390Y-82035714D01*
X146023390Y-82035714D02*
X146071009Y-81988095D01*
X146071009Y-81988095D02*
X146166247Y-81940476D01*
X167730580Y-66966250D02*
X167778200Y-66918631D01*
X167778200Y-66918631D02*
X167825819Y-66775774D01*
X167825819Y-66775774D02*
X167825819Y-66680536D01*
X167825819Y-66680536D02*
X167778200Y-66537679D01*
X167778200Y-66537679D02*
X167682961Y-66442441D01*
X167682961Y-66442441D02*
X167587723Y-66394822D01*
X167587723Y-66394822D02*
X167397247Y-66347203D01*
X167397247Y-66347203D02*
X167254390Y-66347203D01*
X167254390Y-66347203D02*
X167063914Y-66394822D01*
X167063914Y-66394822D02*
X166968676Y-66442441D01*
X166968676Y-66442441D02*
X166873438Y-66537679D01*
X166873438Y-66537679D02*
X166825819Y-66680536D01*
X166825819Y-66680536D02*
X166825819Y-66775774D01*
X166825819Y-66775774D02*
X166873438Y-66918631D01*
X166873438Y-66918631D02*
X166921057Y-66966250D01*
X167825819Y-67918631D02*
X167825819Y-67347203D01*
X167825819Y-67632917D02*
X166825819Y-67632917D01*
X166825819Y-67632917D02*
X166968676Y-67537679D01*
X166968676Y-67537679D02*
X167063914Y-67442441D01*
X167063914Y-67442441D02*
X167111533Y-67347203D01*
X166825819Y-68251965D02*
X166825819Y-68918631D01*
X166825819Y-68918631D02*
X167825819Y-68490060D01*
X177133333Y-74554819D02*
X177133333Y-75269104D01*
X177133333Y-75269104D02*
X177180952Y-75411961D01*
X177180952Y-75411961D02*
X177276190Y-75507200D01*
X177276190Y-75507200D02*
X177419047Y-75554819D01*
X177419047Y-75554819D02*
X177514285Y-75554819D01*
X176752380Y-74554819D02*
X176085714Y-74554819D01*
X176085714Y-74554819D02*
X176514285Y-75554819D01*
%TO.C,FB1*%
D11*
X144150000Y-84458767D02*
X144150000Y-84116233D01*
X145170000Y-84458767D02*
X145170000Y-84116233D01*
%TO.C,R20*%
X141522936Y-84715000D02*
X141977064Y-84715000D01*
X141522936Y-86185000D02*
X141977064Y-86185000D01*
%TO.C,R8*%
X166348500Y-78901166D02*
X166348500Y-79410614D01*
X167393500Y-78901166D02*
X167393500Y-79410614D01*
%TO.C,C19*%
X164561000Y-58989657D02*
X164561000Y-58697123D01*
X165581000Y-58989657D02*
X165581000Y-58697123D01*
%TO.C,R13*%
X168043936Y-60570890D02*
X168498064Y-60570890D01*
X168043936Y-62040890D02*
X168498064Y-62040890D01*
%TO.C,R21*%
X142204724Y-83177500D02*
X141695276Y-83177500D01*
X142204724Y-84222500D02*
X141695276Y-84222500D01*
%TO.C,C40*%
X181070000Y-55700000D02*
G75*
G02*
X168330000Y-55700000I-6370000J0D01*
G01*
X168330000Y-55700000D02*
G75*
G02*
X181070000Y-55700000I6370000J0D01*
G01*
%TO.C,R10*%
X162848500Y-78901166D02*
X162848500Y-79410614D01*
X163893500Y-78901166D02*
X163893500Y-79410614D01*
%TO.C,C12*%
X166961000Y-71909623D02*
X166961000Y-72202157D01*
X167981000Y-71909623D02*
X167981000Y-72202157D01*
%TO.C,C11*%
X166961000Y-75259623D02*
X166961000Y-75552157D01*
X167981000Y-75259623D02*
X167981000Y-75552157D01*
%TO.C,R14*%
X149150000Y-84554724D02*
X149150000Y-84045276D01*
X150195000Y-84554724D02*
X150195000Y-84045276D01*
%TO.C,C34*%
X107690000Y-80153733D02*
X107690000Y-80446267D01*
X108710000Y-80153733D02*
X108710000Y-80446267D01*
%TO.C,R3*%
X154975724Y-61943390D02*
X154466276Y-61943390D01*
X154975724Y-62988390D02*
X154466276Y-62988390D01*
%TO.C,R27*%
X107877500Y-88645276D02*
X107877500Y-89154724D01*
X108922500Y-88645276D02*
X108922500Y-89154724D01*
%TO.C,C41*%
X184070000Y-91200000D02*
G75*
G02*
X171330000Y-91200000I-6370000J0D01*
G01*
X171330000Y-91200000D02*
G75*
G02*
X184070000Y-91200000I6370000J0D01*
G01*
%TO.C,C36*%
X142083767Y-86690000D02*
X141791233Y-86690000D01*
X142083767Y-87710000D02*
X141791233Y-87710000D01*
%TO.C,C39*%
X183170000Y-112900000D02*
G75*
G02*
X170430000Y-112900000I-6370000J0D01*
G01*
X170430000Y-112900000D02*
G75*
G02*
X183170000Y-112900000I6370000J0D01*
G01*
%TO.C,C18*%
X169061000Y-64120238D02*
X169061000Y-65542742D01*
X171781000Y-64120238D02*
X171781000Y-65542742D01*
%TO.C,R1*%
X156848500Y-58901166D02*
X156848500Y-59410614D01*
X157893500Y-58901166D02*
X157893500Y-59410614D01*
%TO.C,C25*%
X147150000Y-84153733D02*
X147150000Y-84446267D01*
X148170000Y-84153733D02*
X148170000Y-84446267D01*
%TO.C,J3*%
X96990000Y-81540000D02*
X96990000Y-82260000D01*
X96990000Y-82260000D02*
X101190000Y-82260000D01*
X96990000Y-83540000D02*
X96990000Y-84260000D01*
X96990000Y-84260000D02*
X101190000Y-84260000D01*
X96990000Y-85540000D02*
X96990000Y-86260000D01*
X96990000Y-86260000D02*
X101190000Y-86260000D01*
X96990000Y-87540000D02*
X96990000Y-88260000D01*
X96990000Y-88260000D02*
X101190000Y-88260000D01*
X96990000Y-89540000D02*
X96990000Y-90260000D01*
X96990000Y-90260000D02*
X101190000Y-90260000D01*
X101190000Y-81540000D02*
X96990000Y-81540000D01*
X101190000Y-83540000D02*
X96990000Y-83540000D01*
X101190000Y-85540000D02*
X96990000Y-85540000D01*
X101190000Y-87540000D02*
X96990000Y-87540000D01*
X101190000Y-89540000D02*
X96990000Y-89540000D01*
X102910000Y-80900000D02*
X101190000Y-80900000D01*
X102910000Y-82900000D02*
X101190000Y-82900000D01*
X102910000Y-84900000D02*
X101190000Y-84900000D01*
X102910000Y-86900000D02*
X101190000Y-86900000D01*
X102910000Y-88900000D02*
X101190000Y-88900000D01*
X103315000Y-79540000D02*
X102910000Y-79540000D01*
X103315000Y-80260000D02*
X102910000Y-80260000D01*
X103383144Y-81540000D02*
X102910000Y-81540000D01*
X103383144Y-82260000D02*
X102910000Y-82260000D01*
X103383144Y-83540000D02*
X102910000Y-83540000D01*
X103383144Y-84260000D02*
X102910000Y-84260000D01*
X103383144Y-85540000D02*
X102910000Y-85540000D01*
X103383144Y-86260000D02*
X102910000Y-86260000D01*
X103383144Y-87540000D02*
X102910000Y-87540000D01*
X103383144Y-88260000D02*
X102910000Y-88260000D01*
X103383144Y-89540000D02*
X102910000Y-89540000D01*
X103383144Y-90260000D02*
X102910000Y-90260000D01*
X105300000Y-78900000D02*
X104300000Y-78900000D01*
X105300000Y-79900000D02*
X105300000Y-78900000D01*
X96990000Y-79540000D02*
X101190000Y-79540000D01*
X101190000Y-80260000D01*
X96990000Y-80260000D01*
X96990000Y-79540000D01*
G36*
X96990000Y-79540000D02*
G01*
X101190000Y-79540000D01*
X101190000Y-80260000D01*
X96990000Y-80260000D01*
X96990000Y-79540000D01*
G37*
X101190000Y-78790000D02*
X102910000Y-78790000D01*
X102910000Y-91010000D01*
X101190000Y-91010000D01*
X101190000Y-78790000D01*
%TO.C,R4*%
X154963224Y-60383390D02*
X154453776Y-60383390D01*
X154963224Y-61428390D02*
X154453776Y-61428390D01*
%TO.C,R11*%
X161098500Y-78901166D02*
X161098500Y-79410614D01*
X162143500Y-78901166D02*
X162143500Y-79410614D01*
%TO.C,R9*%
X164598500Y-78901166D02*
X164598500Y-79410614D01*
X165643500Y-78901166D02*
X165643500Y-79410614D01*
%TO.C,R26*%
X154967934Y-64483389D02*
X154458486Y-64483389D01*
X154967934Y-65528389D02*
X154458486Y-65528389D01*
%TO.C,C26*%
X145640000Y-84153733D02*
X145640000Y-84446267D01*
X146660000Y-84153733D02*
X146660000Y-84446267D01*
%TO.C,C17*%
X166686000Y-63970238D02*
X166686000Y-64492742D01*
X168156000Y-63970238D02*
X168156000Y-64492742D01*
%TD*%
M02*
