%TF.GenerationSoftware,KiCad,Pcbnew,10.0.3*%
%TF.CreationDate,2026-07-14T01:22:06+08:00*%
%TF.ProjectId,FOC_V1_PCB,464f435f-5631-45f5-9043-422e6b696361,rev?*%
%TF.SameCoordinates,Original*%
%TF.FileFunction,Legend,Top*%
%TF.FilePolarity,Positive*%
%FSLAX46Y46*%
G04 Gerber Fmt 4.6, Leading zero omitted, Abs format (unit mm)*
G04 Created by KiCad (PCBNEW 10.0.3) date 2026-07-14 01:22:06*
%MOMM*%
%LPD*%
G01*
G04 APERTURE LIST*
%ADD10C,0.150000*%
%ADD11C,0.120000*%
%ADD12C,0.152400*%
%ADD13C,0.000000*%
%ADD14C,0.250000*%
%ADD15C,0.060000*%
G04 APERTURE END LIST*
D10*
X151304333Y-74865470D02*
X151256714Y-74913090D01*
X151256714Y-74913090D02*
X151113857Y-74960709D01*
X151113857Y-74960709D02*
X151018619Y-74960709D01*
X151018619Y-74960709D02*
X150875762Y-74913090D01*
X150875762Y-74913090D02*
X150780524Y-74817851D01*
X150780524Y-74817851D02*
X150732905Y-74722613D01*
X150732905Y-74722613D02*
X150685286Y-74532137D01*
X150685286Y-74532137D02*
X150685286Y-74389280D01*
X150685286Y-74389280D02*
X150732905Y-74198804D01*
X150732905Y-74198804D02*
X150780524Y-74103566D01*
X150780524Y-74103566D02*
X150875762Y-74008328D01*
X150875762Y-74008328D02*
X151018619Y-73960709D01*
X151018619Y-73960709D02*
X151113857Y-73960709D01*
X151113857Y-73960709D02*
X151256714Y-74008328D01*
X151256714Y-74008328D02*
X151304333Y-74055947D01*
X151637667Y-73960709D02*
X152304333Y-73960709D01*
X152304333Y-73960709D02*
X151875762Y-74960709D01*
X188882680Y-77800595D02*
X188073157Y-77800595D01*
X188073157Y-77800595D02*
X187977919Y-77848214D01*
X187977919Y-77848214D02*
X187930300Y-77895833D01*
X187930300Y-77895833D02*
X187882680Y-77991071D01*
X187882680Y-77991071D02*
X187882680Y-78181547D01*
X187882680Y-78181547D02*
X187930300Y-78276785D01*
X187930300Y-78276785D02*
X187977919Y-78324404D01*
X187977919Y-78324404D02*
X188073157Y-78372023D01*
X188073157Y-78372023D02*
X188882680Y-78372023D01*
X188882680Y-78752976D02*
X188882680Y-79419642D01*
X188882680Y-79419642D02*
X187882680Y-78991071D01*
X182598219Y-73482499D02*
X182836314Y-73482499D01*
X182741076Y-73720594D02*
X182836314Y-73482499D01*
X182836314Y-73482499D02*
X182741076Y-73244404D01*
X183026790Y-73625356D02*
X182836314Y-73482499D01*
X182836314Y-73482499D02*
X183026790Y-73339642D01*
X183688580Y-73482500D02*
X183450485Y-73482500D01*
X183545723Y-73244405D02*
X183450485Y-73482500D01*
X183450485Y-73482500D02*
X183545723Y-73720595D01*
X183260009Y-73339643D02*
X183450485Y-73482500D01*
X183450485Y-73482500D02*
X183260009Y-73625357D01*
X166932905Y-59036309D02*
X166932905Y-58036309D01*
X166932905Y-58036309D02*
X167171000Y-58036309D01*
X167171000Y-58036309D02*
X167313857Y-58083928D01*
X167313857Y-58083928D02*
X167409095Y-58179166D01*
X167409095Y-58179166D02*
X167456714Y-58274404D01*
X167456714Y-58274404D02*
X167504333Y-58464880D01*
X167504333Y-58464880D02*
X167504333Y-58607737D01*
X167504333Y-58607737D02*
X167456714Y-58798213D01*
X167456714Y-58798213D02*
X167409095Y-58893451D01*
X167409095Y-58893451D02*
X167313857Y-58988690D01*
X167313857Y-58988690D02*
X167171000Y-59036309D01*
X167171000Y-59036309D02*
X166932905Y-59036309D01*
X168456714Y-59036309D02*
X167885286Y-59036309D01*
X168171000Y-59036309D02*
X168171000Y-58036309D01*
X168171000Y-58036309D02*
X168075762Y-58179166D01*
X168075762Y-58179166D02*
X167980524Y-58274404D01*
X167980524Y-58274404D02*
X167885286Y-58322023D01*
X176254819Y-56042857D02*
X175778628Y-56376190D01*
X176254819Y-56614285D02*
X175254819Y-56614285D01*
X175254819Y-56614285D02*
X175254819Y-56233333D01*
X175254819Y-56233333D02*
X175302438Y-56138095D01*
X175302438Y-56138095D02*
X175350057Y-56090476D01*
X175350057Y-56090476D02*
X175445295Y-56042857D01*
X175445295Y-56042857D02*
X175588152Y-56042857D01*
X175588152Y-56042857D02*
X175683390Y-56090476D01*
X175683390Y-56090476D02*
X175731009Y-56138095D01*
X175731009Y-56138095D02*
X175778628Y-56233333D01*
X175778628Y-56233333D02*
X175778628Y-56614285D01*
X176254819Y-55090476D02*
X176254819Y-55661904D01*
X176254819Y-55376190D02*
X175254819Y-55376190D01*
X175254819Y-55376190D02*
X175397676Y-55471428D01*
X175397676Y-55471428D02*
X175492914Y-55566666D01*
X175492914Y-55566666D02*
X175540533Y-55661904D01*
X175254819Y-54233333D02*
X175254819Y-54423809D01*
X175254819Y-54423809D02*
X175302438Y-54519047D01*
X175302438Y-54519047D02*
X175350057Y-54566666D01*
X175350057Y-54566666D02*
X175492914Y-54661904D01*
X175492914Y-54661904D02*
X175683390Y-54709523D01*
X175683390Y-54709523D02*
X176064342Y-54709523D01*
X176064342Y-54709523D02*
X176159580Y-54661904D01*
X176159580Y-54661904D02*
X176207200Y-54614285D01*
X176207200Y-54614285D02*
X176254819Y-54519047D01*
X176254819Y-54519047D02*
X176254819Y-54328571D01*
X176254819Y-54328571D02*
X176207200Y-54233333D01*
X176207200Y-54233333D02*
X176159580Y-54185714D01*
X176159580Y-54185714D02*
X176064342Y-54138095D01*
X176064342Y-54138095D02*
X175826247Y-54138095D01*
X175826247Y-54138095D02*
X175731009Y-54185714D01*
X175731009Y-54185714D02*
X175683390Y-54233333D01*
X175683390Y-54233333D02*
X175635771Y-54328571D01*
X175635771Y-54328571D02*
X175635771Y-54519047D01*
X175635771Y-54519047D02*
X175683390Y-54614285D01*
X175683390Y-54614285D02*
X175731009Y-54661904D01*
X175731009Y-54661904D02*
X175826247Y-54709523D01*
X154759580Y-66766666D02*
X154807200Y-66814285D01*
X154807200Y-66814285D02*
X154854819Y-66957142D01*
X154854819Y-66957142D02*
X154854819Y-67052380D01*
X154854819Y-67052380D02*
X154807200Y-67195237D01*
X154807200Y-67195237D02*
X154711961Y-67290475D01*
X154711961Y-67290475D02*
X154616723Y-67338094D01*
X154616723Y-67338094D02*
X154426247Y-67385713D01*
X154426247Y-67385713D02*
X154283390Y-67385713D01*
X154283390Y-67385713D02*
X154092914Y-67338094D01*
X154092914Y-67338094D02*
X153997676Y-67290475D01*
X153997676Y-67290475D02*
X153902438Y-67195237D01*
X153902438Y-67195237D02*
X153854819Y-67052380D01*
X153854819Y-67052380D02*
X153854819Y-66957142D01*
X153854819Y-66957142D02*
X153902438Y-66814285D01*
X153902438Y-66814285D02*
X153950057Y-66766666D01*
X153854819Y-65861904D02*
X153854819Y-66338094D01*
X153854819Y-66338094D02*
X154331009Y-66385713D01*
X154331009Y-66385713D02*
X154283390Y-66338094D01*
X154283390Y-66338094D02*
X154235771Y-66242856D01*
X154235771Y-66242856D02*
X154235771Y-66004761D01*
X154235771Y-66004761D02*
X154283390Y-65909523D01*
X154283390Y-65909523D02*
X154331009Y-65861904D01*
X154331009Y-65861904D02*
X154426247Y-65814285D01*
X154426247Y-65814285D02*
X154664342Y-65814285D01*
X154664342Y-65814285D02*
X154759580Y-65861904D01*
X154759580Y-65861904D02*
X154807200Y-65909523D01*
X154807200Y-65909523D02*
X154854819Y-66004761D01*
X154854819Y-66004761D02*
X154854819Y-66242856D01*
X154854819Y-66242856D02*
X154807200Y-66338094D01*
X154807200Y-66338094D02*
X154759580Y-66385713D01*
X150159580Y-71066666D02*
X150207200Y-71114285D01*
X150207200Y-71114285D02*
X150254819Y-71257142D01*
X150254819Y-71257142D02*
X150254819Y-71352380D01*
X150254819Y-71352380D02*
X150207200Y-71495237D01*
X150207200Y-71495237D02*
X150111961Y-71590475D01*
X150111961Y-71590475D02*
X150016723Y-71638094D01*
X150016723Y-71638094D02*
X149826247Y-71685713D01*
X149826247Y-71685713D02*
X149683390Y-71685713D01*
X149683390Y-71685713D02*
X149492914Y-71638094D01*
X149492914Y-71638094D02*
X149397676Y-71590475D01*
X149397676Y-71590475D02*
X149302438Y-71495237D01*
X149302438Y-71495237D02*
X149254819Y-71352380D01*
X149254819Y-71352380D02*
X149254819Y-71257142D01*
X149254819Y-71257142D02*
X149302438Y-71114285D01*
X149302438Y-71114285D02*
X149350057Y-71066666D01*
X149588152Y-70209523D02*
X150254819Y-70209523D01*
X149207200Y-70447618D02*
X149921485Y-70685713D01*
X149921485Y-70685713D02*
X149921485Y-70066666D01*
X150133333Y-60954819D02*
X149800000Y-60478628D01*
X149561905Y-60954819D02*
X149561905Y-59954819D01*
X149561905Y-59954819D02*
X149942857Y-59954819D01*
X149942857Y-59954819D02*
X150038095Y-60002438D01*
X150038095Y-60002438D02*
X150085714Y-60050057D01*
X150085714Y-60050057D02*
X150133333Y-60145295D01*
X150133333Y-60145295D02*
X150133333Y-60288152D01*
X150133333Y-60288152D02*
X150085714Y-60383390D01*
X150085714Y-60383390D02*
X150038095Y-60431009D01*
X150038095Y-60431009D02*
X149942857Y-60478628D01*
X149942857Y-60478628D02*
X149561905Y-60478628D01*
X150514286Y-60050057D02*
X150561905Y-60002438D01*
X150561905Y-60002438D02*
X150657143Y-59954819D01*
X150657143Y-59954819D02*
X150895238Y-59954819D01*
X150895238Y-59954819D02*
X150990476Y-60002438D01*
X150990476Y-60002438D02*
X151038095Y-60050057D01*
X151038095Y-60050057D02*
X151085714Y-60145295D01*
X151085714Y-60145295D02*
X151085714Y-60240533D01*
X151085714Y-60240533D02*
X151038095Y-60383390D01*
X151038095Y-60383390D02*
X150466667Y-60954819D01*
X150466667Y-60954819D02*
X151085714Y-60954819D01*
X162416666Y-110654819D02*
X162416666Y-111369104D01*
X162416666Y-111369104D02*
X162369047Y-111511961D01*
X162369047Y-111511961D02*
X162273809Y-111607200D01*
X162273809Y-111607200D02*
X162130952Y-111654819D01*
X162130952Y-111654819D02*
X162035714Y-111654819D01*
X163321428Y-110988152D02*
X163321428Y-111654819D01*
X163083333Y-110607200D02*
X162845238Y-111321485D01*
X162845238Y-111321485D02*
X163464285Y-111321485D01*
X149454819Y-81766666D02*
X148978628Y-82099999D01*
X149454819Y-82338094D02*
X148454819Y-82338094D01*
X148454819Y-82338094D02*
X148454819Y-81957142D01*
X148454819Y-81957142D02*
X148502438Y-81861904D01*
X148502438Y-81861904D02*
X148550057Y-81814285D01*
X148550057Y-81814285D02*
X148645295Y-81766666D01*
X148645295Y-81766666D02*
X148788152Y-81766666D01*
X148788152Y-81766666D02*
X148883390Y-81814285D01*
X148883390Y-81814285D02*
X148931009Y-81861904D01*
X148931009Y-81861904D02*
X148978628Y-81957142D01*
X148978628Y-81957142D02*
X148978628Y-82338094D01*
X148454819Y-80909523D02*
X148454819Y-81099999D01*
X148454819Y-81099999D02*
X148502438Y-81195237D01*
X148502438Y-81195237D02*
X148550057Y-81242856D01*
X148550057Y-81242856D02*
X148692914Y-81338094D01*
X148692914Y-81338094D02*
X148883390Y-81385713D01*
X148883390Y-81385713D02*
X149264342Y-81385713D01*
X149264342Y-81385713D02*
X149359580Y-81338094D01*
X149359580Y-81338094D02*
X149407200Y-81290475D01*
X149407200Y-81290475D02*
X149454819Y-81195237D01*
X149454819Y-81195237D02*
X149454819Y-81004761D01*
X149454819Y-81004761D02*
X149407200Y-80909523D01*
X149407200Y-80909523D02*
X149359580Y-80861904D01*
X149359580Y-80861904D02*
X149264342Y-80814285D01*
X149264342Y-80814285D02*
X149026247Y-80814285D01*
X149026247Y-80814285D02*
X148931009Y-80861904D01*
X148931009Y-80861904D02*
X148883390Y-80909523D01*
X148883390Y-80909523D02*
X148835771Y-81004761D01*
X148835771Y-81004761D02*
X148835771Y-81195237D01*
X148835771Y-81195237D02*
X148883390Y-81290475D01*
X148883390Y-81290475D02*
X148931009Y-81338094D01*
X148931009Y-81338094D02*
X149026247Y-81385713D01*
X170907142Y-86359580D02*
X170859523Y-86407200D01*
X170859523Y-86407200D02*
X170716666Y-86454819D01*
X170716666Y-86454819D02*
X170621428Y-86454819D01*
X170621428Y-86454819D02*
X170478571Y-86407200D01*
X170478571Y-86407200D02*
X170383333Y-86311961D01*
X170383333Y-86311961D02*
X170335714Y-86216723D01*
X170335714Y-86216723D02*
X170288095Y-86026247D01*
X170288095Y-86026247D02*
X170288095Y-85883390D01*
X170288095Y-85883390D02*
X170335714Y-85692914D01*
X170335714Y-85692914D02*
X170383333Y-85597676D01*
X170383333Y-85597676D02*
X170478571Y-85502438D01*
X170478571Y-85502438D02*
X170621428Y-85454819D01*
X170621428Y-85454819D02*
X170716666Y-85454819D01*
X170716666Y-85454819D02*
X170859523Y-85502438D01*
X170859523Y-85502438D02*
X170907142Y-85550057D01*
X171288095Y-85550057D02*
X171335714Y-85502438D01*
X171335714Y-85502438D02*
X171430952Y-85454819D01*
X171430952Y-85454819D02*
X171669047Y-85454819D01*
X171669047Y-85454819D02*
X171764285Y-85502438D01*
X171764285Y-85502438D02*
X171811904Y-85550057D01*
X171811904Y-85550057D02*
X171859523Y-85645295D01*
X171859523Y-85645295D02*
X171859523Y-85740533D01*
X171859523Y-85740533D02*
X171811904Y-85883390D01*
X171811904Y-85883390D02*
X171240476Y-86454819D01*
X171240476Y-86454819D02*
X171859523Y-86454819D01*
X172192857Y-85454819D02*
X172859523Y-85454819D01*
X172859523Y-85454819D02*
X172430952Y-86454819D01*
X163157142Y-92959580D02*
X163109523Y-93007200D01*
X163109523Y-93007200D02*
X162966666Y-93054819D01*
X162966666Y-93054819D02*
X162871428Y-93054819D01*
X162871428Y-93054819D02*
X162728571Y-93007200D01*
X162728571Y-93007200D02*
X162633333Y-92911961D01*
X162633333Y-92911961D02*
X162585714Y-92816723D01*
X162585714Y-92816723D02*
X162538095Y-92626247D01*
X162538095Y-92626247D02*
X162538095Y-92483390D01*
X162538095Y-92483390D02*
X162585714Y-92292914D01*
X162585714Y-92292914D02*
X162633333Y-92197676D01*
X162633333Y-92197676D02*
X162728571Y-92102438D01*
X162728571Y-92102438D02*
X162871428Y-92054819D01*
X162871428Y-92054819D02*
X162966666Y-92054819D01*
X162966666Y-92054819D02*
X163109523Y-92102438D01*
X163109523Y-92102438D02*
X163157142Y-92150057D01*
X163538095Y-92150057D02*
X163585714Y-92102438D01*
X163585714Y-92102438D02*
X163680952Y-92054819D01*
X163680952Y-92054819D02*
X163919047Y-92054819D01*
X163919047Y-92054819D02*
X164014285Y-92102438D01*
X164014285Y-92102438D02*
X164061904Y-92150057D01*
X164061904Y-92150057D02*
X164109523Y-92245295D01*
X164109523Y-92245295D02*
X164109523Y-92340533D01*
X164109523Y-92340533D02*
X164061904Y-92483390D01*
X164061904Y-92483390D02*
X163490476Y-93054819D01*
X163490476Y-93054819D02*
X164109523Y-93054819D01*
X164966666Y-92388152D02*
X164966666Y-93054819D01*
X164728571Y-92007200D02*
X164490476Y-92721485D01*
X164490476Y-92721485D02*
X165109523Y-92721485D01*
X150857142Y-63954819D02*
X150523809Y-63478628D01*
X150285714Y-63954819D02*
X150285714Y-62954819D01*
X150285714Y-62954819D02*
X150666666Y-62954819D01*
X150666666Y-62954819D02*
X150761904Y-63002438D01*
X150761904Y-63002438D02*
X150809523Y-63050057D01*
X150809523Y-63050057D02*
X150857142Y-63145295D01*
X150857142Y-63145295D02*
X150857142Y-63288152D01*
X150857142Y-63288152D02*
X150809523Y-63383390D01*
X150809523Y-63383390D02*
X150761904Y-63431009D01*
X150761904Y-63431009D02*
X150666666Y-63478628D01*
X150666666Y-63478628D02*
X150285714Y-63478628D01*
X151809523Y-63954819D02*
X151238095Y-63954819D01*
X151523809Y-63954819D02*
X151523809Y-62954819D01*
X151523809Y-62954819D02*
X151428571Y-63097676D01*
X151428571Y-63097676D02*
X151333333Y-63192914D01*
X151333333Y-63192914D02*
X151238095Y-63240533D01*
X152190476Y-63050057D02*
X152238095Y-63002438D01*
X152238095Y-63002438D02*
X152333333Y-62954819D01*
X152333333Y-62954819D02*
X152571428Y-62954819D01*
X152571428Y-62954819D02*
X152666666Y-63002438D01*
X152666666Y-63002438D02*
X152714285Y-63050057D01*
X152714285Y-63050057D02*
X152761904Y-63145295D01*
X152761904Y-63145295D02*
X152761904Y-63240533D01*
X152761904Y-63240533D02*
X152714285Y-63383390D01*
X152714285Y-63383390D02*
X152142857Y-63954819D01*
X152142857Y-63954819D02*
X152761904Y-63954819D01*
X188882680Y-100800595D02*
X188073157Y-100800595D01*
X188073157Y-100800595D02*
X187977919Y-100848214D01*
X187977919Y-100848214D02*
X187930300Y-100895833D01*
X187930300Y-100895833D02*
X187882680Y-100991071D01*
X187882680Y-100991071D02*
X187882680Y-101181547D01*
X187882680Y-101181547D02*
X187930300Y-101276785D01*
X187930300Y-101276785D02*
X187977919Y-101324404D01*
X187977919Y-101324404D02*
X188073157Y-101372023D01*
X188073157Y-101372023D02*
X188882680Y-101372023D01*
X188454109Y-101991071D02*
X188501728Y-101895833D01*
X188501728Y-101895833D02*
X188549347Y-101848214D01*
X188549347Y-101848214D02*
X188644585Y-101800595D01*
X188644585Y-101800595D02*
X188692204Y-101800595D01*
X188692204Y-101800595D02*
X188787442Y-101848214D01*
X188787442Y-101848214D02*
X188835061Y-101895833D01*
X188835061Y-101895833D02*
X188882680Y-101991071D01*
X188882680Y-101991071D02*
X188882680Y-102181547D01*
X188882680Y-102181547D02*
X188835061Y-102276785D01*
X188835061Y-102276785D02*
X188787442Y-102324404D01*
X188787442Y-102324404D02*
X188692204Y-102372023D01*
X188692204Y-102372023D02*
X188644585Y-102372023D01*
X188644585Y-102372023D02*
X188549347Y-102324404D01*
X188549347Y-102324404D02*
X188501728Y-102276785D01*
X188501728Y-102276785D02*
X188454109Y-102181547D01*
X188454109Y-102181547D02*
X188454109Y-101991071D01*
X188454109Y-101991071D02*
X188406490Y-101895833D01*
X188406490Y-101895833D02*
X188358871Y-101848214D01*
X188358871Y-101848214D02*
X188263633Y-101800595D01*
X188263633Y-101800595D02*
X188073157Y-101800595D01*
X188073157Y-101800595D02*
X187977919Y-101848214D01*
X187977919Y-101848214D02*
X187930300Y-101895833D01*
X187930300Y-101895833D02*
X187882680Y-101991071D01*
X187882680Y-101991071D02*
X187882680Y-102181547D01*
X187882680Y-102181547D02*
X187930300Y-102276785D01*
X187930300Y-102276785D02*
X187977919Y-102324404D01*
X187977919Y-102324404D02*
X188073157Y-102372023D01*
X188073157Y-102372023D02*
X188263633Y-102372023D01*
X188263633Y-102372023D02*
X188358871Y-102324404D01*
X188358871Y-102324404D02*
X188406490Y-102276785D01*
X188406490Y-102276785D02*
X188454109Y-102181547D01*
X182598219Y-96482499D02*
X182836314Y-96482499D01*
X182741076Y-96720594D02*
X182836314Y-96482499D01*
X182836314Y-96482499D02*
X182741076Y-96244404D01*
X183026790Y-96625356D02*
X182836314Y-96482499D01*
X182836314Y-96482499D02*
X183026790Y-96339642D01*
X183688580Y-96482500D02*
X183450485Y-96482500D01*
X183545723Y-96244405D02*
X183450485Y-96482500D01*
X183450485Y-96482500D02*
X183545723Y-96720595D01*
X183260009Y-96339643D02*
X183450485Y-96482500D01*
X183450485Y-96482500D02*
X183260009Y-96625357D01*
X152249580Y-71066666D02*
X152297200Y-71114285D01*
X152297200Y-71114285D02*
X152344819Y-71257142D01*
X152344819Y-71257142D02*
X152344819Y-71352380D01*
X152344819Y-71352380D02*
X152297200Y-71495237D01*
X152297200Y-71495237D02*
X152201961Y-71590475D01*
X152201961Y-71590475D02*
X152106723Y-71638094D01*
X152106723Y-71638094D02*
X151916247Y-71685713D01*
X151916247Y-71685713D02*
X151773390Y-71685713D01*
X151773390Y-71685713D02*
X151582914Y-71638094D01*
X151582914Y-71638094D02*
X151487676Y-71590475D01*
X151487676Y-71590475D02*
X151392438Y-71495237D01*
X151392438Y-71495237D02*
X151344819Y-71352380D01*
X151344819Y-71352380D02*
X151344819Y-71257142D01*
X151344819Y-71257142D02*
X151392438Y-71114285D01*
X151392438Y-71114285D02*
X151440057Y-71066666D01*
X151344819Y-70733332D02*
X151344819Y-70114285D01*
X151344819Y-70114285D02*
X151725771Y-70447618D01*
X151725771Y-70447618D02*
X151725771Y-70304761D01*
X151725771Y-70304761D02*
X151773390Y-70209523D01*
X151773390Y-70209523D02*
X151821009Y-70161904D01*
X151821009Y-70161904D02*
X151916247Y-70114285D01*
X151916247Y-70114285D02*
X152154342Y-70114285D01*
X152154342Y-70114285D02*
X152249580Y-70161904D01*
X152249580Y-70161904D02*
X152297200Y-70209523D01*
X152297200Y-70209523D02*
X152344819Y-70304761D01*
X152344819Y-70304761D02*
X152344819Y-70590475D01*
X152344819Y-70590475D02*
X152297200Y-70685713D01*
X152297200Y-70685713D02*
X152249580Y-70733332D01*
X203066666Y-79517319D02*
X203066666Y-80231604D01*
X203066666Y-80231604D02*
X203019047Y-80374461D01*
X203019047Y-80374461D02*
X202923809Y-80469700D01*
X202923809Y-80469700D02*
X202780952Y-80517319D01*
X202780952Y-80517319D02*
X202685714Y-80517319D01*
X203590476Y-80517319D02*
X203780952Y-80517319D01*
X203780952Y-80517319D02*
X203876190Y-80469700D01*
X203876190Y-80469700D02*
X203923809Y-80422080D01*
X203923809Y-80422080D02*
X204019047Y-80279223D01*
X204019047Y-80279223D02*
X204066666Y-80088747D01*
X204066666Y-80088747D02*
X204066666Y-79707795D01*
X204066666Y-79707795D02*
X204019047Y-79612557D01*
X204019047Y-79612557D02*
X203971428Y-79564938D01*
X203971428Y-79564938D02*
X203876190Y-79517319D01*
X203876190Y-79517319D02*
X203685714Y-79517319D01*
X203685714Y-79517319D02*
X203590476Y-79564938D01*
X203590476Y-79564938D02*
X203542857Y-79612557D01*
X203542857Y-79612557D02*
X203495238Y-79707795D01*
X203495238Y-79707795D02*
X203495238Y-79945890D01*
X203495238Y-79945890D02*
X203542857Y-80041128D01*
X203542857Y-80041128D02*
X203590476Y-80088747D01*
X203590476Y-80088747D02*
X203685714Y-80136366D01*
X203685714Y-80136366D02*
X203876190Y-80136366D01*
X203876190Y-80136366D02*
X203971428Y-80088747D01*
X203971428Y-80088747D02*
X204019047Y-80041128D01*
X204019047Y-80041128D02*
X204066666Y-79945890D01*
X156989580Y-100842857D02*
X157037200Y-100890476D01*
X157037200Y-100890476D02*
X157084819Y-101033333D01*
X157084819Y-101033333D02*
X157084819Y-101128571D01*
X157084819Y-101128571D02*
X157037200Y-101271428D01*
X157037200Y-101271428D02*
X156941961Y-101366666D01*
X156941961Y-101366666D02*
X156846723Y-101414285D01*
X156846723Y-101414285D02*
X156656247Y-101461904D01*
X156656247Y-101461904D02*
X156513390Y-101461904D01*
X156513390Y-101461904D02*
X156322914Y-101414285D01*
X156322914Y-101414285D02*
X156227676Y-101366666D01*
X156227676Y-101366666D02*
X156132438Y-101271428D01*
X156132438Y-101271428D02*
X156084819Y-101128571D01*
X156084819Y-101128571D02*
X156084819Y-101033333D01*
X156084819Y-101033333D02*
X156132438Y-100890476D01*
X156132438Y-100890476D02*
X156180057Y-100842857D01*
X156180057Y-100461904D02*
X156132438Y-100414285D01*
X156132438Y-100414285D02*
X156084819Y-100319047D01*
X156084819Y-100319047D02*
X156084819Y-100080952D01*
X156084819Y-100080952D02*
X156132438Y-99985714D01*
X156132438Y-99985714D02*
X156180057Y-99938095D01*
X156180057Y-99938095D02*
X156275295Y-99890476D01*
X156275295Y-99890476D02*
X156370533Y-99890476D01*
X156370533Y-99890476D02*
X156513390Y-99938095D01*
X156513390Y-99938095D02*
X157084819Y-100509523D01*
X157084819Y-100509523D02*
X157084819Y-99890476D01*
X157084819Y-98938095D02*
X157084819Y-99509523D01*
X157084819Y-99223809D02*
X156084819Y-99223809D01*
X156084819Y-99223809D02*
X156227676Y-99319047D01*
X156227676Y-99319047D02*
X156322914Y-99414285D01*
X156322914Y-99414285D02*
X156370533Y-99509523D01*
X155559580Y-103992857D02*
X155607200Y-104040476D01*
X155607200Y-104040476D02*
X155654819Y-104183333D01*
X155654819Y-104183333D02*
X155654819Y-104278571D01*
X155654819Y-104278571D02*
X155607200Y-104421428D01*
X155607200Y-104421428D02*
X155511961Y-104516666D01*
X155511961Y-104516666D02*
X155416723Y-104564285D01*
X155416723Y-104564285D02*
X155226247Y-104611904D01*
X155226247Y-104611904D02*
X155083390Y-104611904D01*
X155083390Y-104611904D02*
X154892914Y-104564285D01*
X154892914Y-104564285D02*
X154797676Y-104516666D01*
X154797676Y-104516666D02*
X154702438Y-104421428D01*
X154702438Y-104421428D02*
X154654819Y-104278571D01*
X154654819Y-104278571D02*
X154654819Y-104183333D01*
X154654819Y-104183333D02*
X154702438Y-104040476D01*
X154702438Y-104040476D02*
X154750057Y-103992857D01*
X154750057Y-103611904D02*
X154702438Y-103564285D01*
X154702438Y-103564285D02*
X154654819Y-103469047D01*
X154654819Y-103469047D02*
X154654819Y-103230952D01*
X154654819Y-103230952D02*
X154702438Y-103135714D01*
X154702438Y-103135714D02*
X154750057Y-103088095D01*
X154750057Y-103088095D02*
X154845295Y-103040476D01*
X154845295Y-103040476D02*
X154940533Y-103040476D01*
X154940533Y-103040476D02*
X155083390Y-103088095D01*
X155083390Y-103088095D02*
X155654819Y-103659523D01*
X155654819Y-103659523D02*
X155654819Y-103040476D01*
X155083390Y-102469047D02*
X155035771Y-102564285D01*
X155035771Y-102564285D02*
X154988152Y-102611904D01*
X154988152Y-102611904D02*
X154892914Y-102659523D01*
X154892914Y-102659523D02*
X154845295Y-102659523D01*
X154845295Y-102659523D02*
X154750057Y-102611904D01*
X154750057Y-102611904D02*
X154702438Y-102564285D01*
X154702438Y-102564285D02*
X154654819Y-102469047D01*
X154654819Y-102469047D02*
X154654819Y-102278571D01*
X154654819Y-102278571D02*
X154702438Y-102183333D01*
X154702438Y-102183333D02*
X154750057Y-102135714D01*
X154750057Y-102135714D02*
X154845295Y-102088095D01*
X154845295Y-102088095D02*
X154892914Y-102088095D01*
X154892914Y-102088095D02*
X154988152Y-102135714D01*
X154988152Y-102135714D02*
X155035771Y-102183333D01*
X155035771Y-102183333D02*
X155083390Y-102278571D01*
X155083390Y-102278571D02*
X155083390Y-102469047D01*
X155083390Y-102469047D02*
X155131009Y-102564285D01*
X155131009Y-102564285D02*
X155178628Y-102611904D01*
X155178628Y-102611904D02*
X155273866Y-102659523D01*
X155273866Y-102659523D02*
X155464342Y-102659523D01*
X155464342Y-102659523D02*
X155559580Y-102611904D01*
X155559580Y-102611904D02*
X155607200Y-102564285D01*
X155607200Y-102564285D02*
X155654819Y-102469047D01*
X155654819Y-102469047D02*
X155654819Y-102278571D01*
X155654819Y-102278571D02*
X155607200Y-102183333D01*
X155607200Y-102183333D02*
X155559580Y-102135714D01*
X155559580Y-102135714D02*
X155464342Y-102088095D01*
X155464342Y-102088095D02*
X155273866Y-102088095D01*
X155273866Y-102088095D02*
X155178628Y-102135714D01*
X155178628Y-102135714D02*
X155131009Y-102183333D01*
X155131009Y-102183333D02*
X155083390Y-102278571D01*
X202390476Y-102154819D02*
X202390476Y-102869104D01*
X202390476Y-102869104D02*
X202342857Y-103011961D01*
X202342857Y-103011961D02*
X202247619Y-103107200D01*
X202247619Y-103107200D02*
X202104762Y-103154819D01*
X202104762Y-103154819D02*
X202009524Y-103154819D01*
X203390476Y-103154819D02*
X202819048Y-103154819D01*
X203104762Y-103154819D02*
X203104762Y-102154819D01*
X203104762Y-102154819D02*
X203009524Y-102297676D01*
X203009524Y-102297676D02*
X202914286Y-102392914D01*
X202914286Y-102392914D02*
X202819048Y-102440533D01*
X204009524Y-102154819D02*
X204104762Y-102154819D01*
X204104762Y-102154819D02*
X204200000Y-102202438D01*
X204200000Y-102202438D02*
X204247619Y-102250057D01*
X204247619Y-102250057D02*
X204295238Y-102345295D01*
X204295238Y-102345295D02*
X204342857Y-102535771D01*
X204342857Y-102535771D02*
X204342857Y-102773866D01*
X204342857Y-102773866D02*
X204295238Y-102964342D01*
X204295238Y-102964342D02*
X204247619Y-103059580D01*
X204247619Y-103059580D02*
X204200000Y-103107200D01*
X204200000Y-103107200D02*
X204104762Y-103154819D01*
X204104762Y-103154819D02*
X204009524Y-103154819D01*
X204009524Y-103154819D02*
X203914286Y-103107200D01*
X203914286Y-103107200D02*
X203866667Y-103059580D01*
X203866667Y-103059580D02*
X203819048Y-102964342D01*
X203819048Y-102964342D02*
X203771429Y-102773866D01*
X203771429Y-102773866D02*
X203771429Y-102535771D01*
X203771429Y-102535771D02*
X203819048Y-102345295D01*
X203819048Y-102345295D02*
X203866667Y-102250057D01*
X203866667Y-102250057D02*
X203914286Y-102202438D01*
X203914286Y-102202438D02*
X204009524Y-102154819D01*
X170104333Y-79615470D02*
X170056714Y-79663090D01*
X170056714Y-79663090D02*
X169913857Y-79710709D01*
X169913857Y-79710709D02*
X169818619Y-79710709D01*
X169818619Y-79710709D02*
X169675762Y-79663090D01*
X169675762Y-79663090D02*
X169580524Y-79567851D01*
X169580524Y-79567851D02*
X169532905Y-79472613D01*
X169532905Y-79472613D02*
X169485286Y-79282137D01*
X169485286Y-79282137D02*
X169485286Y-79139280D01*
X169485286Y-79139280D02*
X169532905Y-78948804D01*
X169532905Y-78948804D02*
X169580524Y-78853566D01*
X169580524Y-78853566D02*
X169675762Y-78758328D01*
X169675762Y-78758328D02*
X169818619Y-78710709D01*
X169818619Y-78710709D02*
X169913857Y-78710709D01*
X169913857Y-78710709D02*
X170056714Y-78758328D01*
X170056714Y-78758328D02*
X170104333Y-78805947D01*
X170580524Y-79710709D02*
X170771000Y-79710709D01*
X170771000Y-79710709D02*
X170866238Y-79663090D01*
X170866238Y-79663090D02*
X170913857Y-79615470D01*
X170913857Y-79615470D02*
X171009095Y-79472613D01*
X171009095Y-79472613D02*
X171056714Y-79282137D01*
X171056714Y-79282137D02*
X171056714Y-78901185D01*
X171056714Y-78901185D02*
X171009095Y-78805947D01*
X171009095Y-78805947D02*
X170961476Y-78758328D01*
X170961476Y-78758328D02*
X170866238Y-78710709D01*
X170866238Y-78710709D02*
X170675762Y-78710709D01*
X170675762Y-78710709D02*
X170580524Y-78758328D01*
X170580524Y-78758328D02*
X170532905Y-78805947D01*
X170532905Y-78805947D02*
X170485286Y-78901185D01*
X170485286Y-78901185D02*
X170485286Y-79139280D01*
X170485286Y-79139280D02*
X170532905Y-79234518D01*
X170532905Y-79234518D02*
X170580524Y-79282137D01*
X170580524Y-79282137D02*
X170675762Y-79329756D01*
X170675762Y-79329756D02*
X170866238Y-79329756D01*
X170866238Y-79329756D02*
X170961476Y-79282137D01*
X170961476Y-79282137D02*
X171009095Y-79234518D01*
X171009095Y-79234518D02*
X171056714Y-79139280D01*
X175054819Y-101242857D02*
X174578628Y-101576190D01*
X175054819Y-101814285D02*
X174054819Y-101814285D01*
X174054819Y-101814285D02*
X174054819Y-101433333D01*
X174054819Y-101433333D02*
X174102438Y-101338095D01*
X174102438Y-101338095D02*
X174150057Y-101290476D01*
X174150057Y-101290476D02*
X174245295Y-101242857D01*
X174245295Y-101242857D02*
X174388152Y-101242857D01*
X174388152Y-101242857D02*
X174483390Y-101290476D01*
X174483390Y-101290476D02*
X174531009Y-101338095D01*
X174531009Y-101338095D02*
X174578628Y-101433333D01*
X174578628Y-101433333D02*
X174578628Y-101814285D01*
X175054819Y-100290476D02*
X175054819Y-100861904D01*
X175054819Y-100576190D02*
X174054819Y-100576190D01*
X174054819Y-100576190D02*
X174197676Y-100671428D01*
X174197676Y-100671428D02*
X174292914Y-100766666D01*
X174292914Y-100766666D02*
X174340533Y-100861904D01*
X174054819Y-99957142D02*
X174054819Y-99290476D01*
X174054819Y-99290476D02*
X175054819Y-99719047D01*
X165257142Y-100109580D02*
X165209523Y-100157200D01*
X165209523Y-100157200D02*
X165066666Y-100204819D01*
X165066666Y-100204819D02*
X164971428Y-100204819D01*
X164971428Y-100204819D02*
X164828571Y-100157200D01*
X164828571Y-100157200D02*
X164733333Y-100061961D01*
X164733333Y-100061961D02*
X164685714Y-99966723D01*
X164685714Y-99966723D02*
X164638095Y-99776247D01*
X164638095Y-99776247D02*
X164638095Y-99633390D01*
X164638095Y-99633390D02*
X164685714Y-99442914D01*
X164685714Y-99442914D02*
X164733333Y-99347676D01*
X164733333Y-99347676D02*
X164828571Y-99252438D01*
X164828571Y-99252438D02*
X164971428Y-99204819D01*
X164971428Y-99204819D02*
X165066666Y-99204819D01*
X165066666Y-99204819D02*
X165209523Y-99252438D01*
X165209523Y-99252438D02*
X165257142Y-99300057D01*
X166114285Y-99538152D02*
X166114285Y-100204819D01*
X165876190Y-99157200D02*
X165638095Y-99871485D01*
X165638095Y-99871485D02*
X166257142Y-99871485D01*
X167066666Y-99538152D02*
X167066666Y-100204819D01*
X166828571Y-99157200D02*
X166590476Y-99871485D01*
X166590476Y-99871485D02*
X167209523Y-99871485D01*
X153224819Y-107480357D02*
X152748628Y-107813690D01*
X153224819Y-108051785D02*
X152224819Y-108051785D01*
X152224819Y-108051785D02*
X152224819Y-107670833D01*
X152224819Y-107670833D02*
X152272438Y-107575595D01*
X152272438Y-107575595D02*
X152320057Y-107527976D01*
X152320057Y-107527976D02*
X152415295Y-107480357D01*
X152415295Y-107480357D02*
X152558152Y-107480357D01*
X152558152Y-107480357D02*
X152653390Y-107527976D01*
X152653390Y-107527976D02*
X152701009Y-107575595D01*
X152701009Y-107575595D02*
X152748628Y-107670833D01*
X152748628Y-107670833D02*
X152748628Y-108051785D01*
X152320057Y-107099404D02*
X152272438Y-107051785D01*
X152272438Y-107051785D02*
X152224819Y-106956547D01*
X152224819Y-106956547D02*
X152224819Y-106718452D01*
X152224819Y-106718452D02*
X152272438Y-106623214D01*
X152272438Y-106623214D02*
X152320057Y-106575595D01*
X152320057Y-106575595D02*
X152415295Y-106527976D01*
X152415295Y-106527976D02*
X152510533Y-106527976D01*
X152510533Y-106527976D02*
X152653390Y-106575595D01*
X152653390Y-106575595D02*
X153224819Y-107147023D01*
X153224819Y-107147023D02*
X153224819Y-106527976D01*
X152224819Y-105623214D02*
X152224819Y-106099404D01*
X152224819Y-106099404D02*
X152701009Y-106147023D01*
X152701009Y-106147023D02*
X152653390Y-106099404D01*
X152653390Y-106099404D02*
X152605771Y-106004166D01*
X152605771Y-106004166D02*
X152605771Y-105766071D01*
X152605771Y-105766071D02*
X152653390Y-105670833D01*
X152653390Y-105670833D02*
X152701009Y-105623214D01*
X152701009Y-105623214D02*
X152796247Y-105575595D01*
X152796247Y-105575595D02*
X153034342Y-105575595D01*
X153034342Y-105575595D02*
X153129580Y-105623214D01*
X153129580Y-105623214D02*
X153177200Y-105670833D01*
X153177200Y-105670833D02*
X153224819Y-105766071D01*
X153224819Y-105766071D02*
X153224819Y-106004166D01*
X153224819Y-106004166D02*
X153177200Y-106099404D01*
X153177200Y-106099404D02*
X153129580Y-106147023D01*
X168980580Y-62836247D02*
X169028200Y-62883866D01*
X169028200Y-62883866D02*
X169075819Y-63026723D01*
X169075819Y-63026723D02*
X169075819Y-63121961D01*
X169075819Y-63121961D02*
X169028200Y-63264818D01*
X169028200Y-63264818D02*
X168932961Y-63360056D01*
X168932961Y-63360056D02*
X168837723Y-63407675D01*
X168837723Y-63407675D02*
X168647247Y-63455294D01*
X168647247Y-63455294D02*
X168504390Y-63455294D01*
X168504390Y-63455294D02*
X168313914Y-63407675D01*
X168313914Y-63407675D02*
X168218676Y-63360056D01*
X168218676Y-63360056D02*
X168123438Y-63264818D01*
X168123438Y-63264818D02*
X168075819Y-63121961D01*
X168075819Y-63121961D02*
X168075819Y-63026723D01*
X168075819Y-63026723D02*
X168123438Y-62883866D01*
X168123438Y-62883866D02*
X168171057Y-62836247D01*
X169075819Y-61883866D02*
X169075819Y-62455294D01*
X169075819Y-62169580D02*
X168075819Y-62169580D01*
X168075819Y-62169580D02*
X168218676Y-62264818D01*
X168218676Y-62264818D02*
X168313914Y-62360056D01*
X168313914Y-62360056D02*
X168361533Y-62455294D01*
X168075819Y-61026723D02*
X168075819Y-61217199D01*
X168075819Y-61217199D02*
X168123438Y-61312437D01*
X168123438Y-61312437D02*
X168171057Y-61360056D01*
X168171057Y-61360056D02*
X168313914Y-61455294D01*
X168313914Y-61455294D02*
X168504390Y-61502913D01*
X168504390Y-61502913D02*
X168885342Y-61502913D01*
X168885342Y-61502913D02*
X168980580Y-61455294D01*
X168980580Y-61455294D02*
X169028200Y-61407675D01*
X169028200Y-61407675D02*
X169075819Y-61312437D01*
X169075819Y-61312437D02*
X169075819Y-61121961D01*
X169075819Y-61121961D02*
X169028200Y-61026723D01*
X169028200Y-61026723D02*
X168980580Y-60979104D01*
X168980580Y-60979104D02*
X168885342Y-60931485D01*
X168885342Y-60931485D02*
X168647247Y-60931485D01*
X168647247Y-60931485D02*
X168552009Y-60979104D01*
X168552009Y-60979104D02*
X168504390Y-61026723D01*
X168504390Y-61026723D02*
X168456771Y-61121961D01*
X168456771Y-61121961D02*
X168456771Y-61312437D01*
X168456771Y-61312437D02*
X168504390Y-61407675D01*
X168504390Y-61407675D02*
X168552009Y-61455294D01*
X168552009Y-61455294D02*
X168647247Y-61502913D01*
X140657142Y-92839580D02*
X140609523Y-92887200D01*
X140609523Y-92887200D02*
X140466666Y-92934819D01*
X140466666Y-92934819D02*
X140371428Y-92934819D01*
X140371428Y-92934819D02*
X140228571Y-92887200D01*
X140228571Y-92887200D02*
X140133333Y-92791961D01*
X140133333Y-92791961D02*
X140085714Y-92696723D01*
X140085714Y-92696723D02*
X140038095Y-92506247D01*
X140038095Y-92506247D02*
X140038095Y-92363390D01*
X140038095Y-92363390D02*
X140085714Y-92172914D01*
X140085714Y-92172914D02*
X140133333Y-92077676D01*
X140133333Y-92077676D02*
X140228571Y-91982438D01*
X140228571Y-91982438D02*
X140371428Y-91934819D01*
X140371428Y-91934819D02*
X140466666Y-91934819D01*
X140466666Y-91934819D02*
X140609523Y-91982438D01*
X140609523Y-91982438D02*
X140657142Y-92030057D01*
X141038095Y-92030057D02*
X141085714Y-91982438D01*
X141085714Y-91982438D02*
X141180952Y-91934819D01*
X141180952Y-91934819D02*
X141419047Y-91934819D01*
X141419047Y-91934819D02*
X141514285Y-91982438D01*
X141514285Y-91982438D02*
X141561904Y-92030057D01*
X141561904Y-92030057D02*
X141609523Y-92125295D01*
X141609523Y-92125295D02*
X141609523Y-92220533D01*
X141609523Y-92220533D02*
X141561904Y-92363390D01*
X141561904Y-92363390D02*
X140990476Y-92934819D01*
X140990476Y-92934819D02*
X141609523Y-92934819D01*
X141942857Y-91934819D02*
X142561904Y-91934819D01*
X142561904Y-91934819D02*
X142228571Y-92315771D01*
X142228571Y-92315771D02*
X142371428Y-92315771D01*
X142371428Y-92315771D02*
X142466666Y-92363390D01*
X142466666Y-92363390D02*
X142514285Y-92411009D01*
X142514285Y-92411009D02*
X142561904Y-92506247D01*
X142561904Y-92506247D02*
X142561904Y-92744342D01*
X142561904Y-92744342D02*
X142514285Y-92839580D01*
X142514285Y-92839580D02*
X142466666Y-92887200D01*
X142466666Y-92887200D02*
X142371428Y-92934819D01*
X142371428Y-92934819D02*
X142085714Y-92934819D01*
X142085714Y-92934819D02*
X141990476Y-92887200D01*
X141990476Y-92887200D02*
X141942857Y-92839580D01*
X152459580Y-58866666D02*
X152507200Y-58914285D01*
X152507200Y-58914285D02*
X152554819Y-59057142D01*
X152554819Y-59057142D02*
X152554819Y-59152380D01*
X152554819Y-59152380D02*
X152507200Y-59295237D01*
X152507200Y-59295237D02*
X152411961Y-59390475D01*
X152411961Y-59390475D02*
X152316723Y-59438094D01*
X152316723Y-59438094D02*
X152126247Y-59485713D01*
X152126247Y-59485713D02*
X151983390Y-59485713D01*
X151983390Y-59485713D02*
X151792914Y-59438094D01*
X151792914Y-59438094D02*
X151697676Y-59390475D01*
X151697676Y-59390475D02*
X151602438Y-59295237D01*
X151602438Y-59295237D02*
X151554819Y-59152380D01*
X151554819Y-59152380D02*
X151554819Y-59057142D01*
X151554819Y-59057142D02*
X151602438Y-58914285D01*
X151602438Y-58914285D02*
X151650057Y-58866666D01*
X152554819Y-57914285D02*
X152554819Y-58485713D01*
X152554819Y-58199999D02*
X151554819Y-58199999D01*
X151554819Y-58199999D02*
X151697676Y-58295237D01*
X151697676Y-58295237D02*
X151792914Y-58390475D01*
X151792914Y-58390475D02*
X151840533Y-58485713D01*
X123090475Y-95154819D02*
X122757142Y-94678628D01*
X122519047Y-95154819D02*
X122519047Y-94154819D01*
X122519047Y-94154819D02*
X122899999Y-94154819D01*
X122899999Y-94154819D02*
X122995237Y-94202438D01*
X122995237Y-94202438D02*
X123042856Y-94250057D01*
X123042856Y-94250057D02*
X123090475Y-94345295D01*
X123090475Y-94345295D02*
X123090475Y-94488152D01*
X123090475Y-94488152D02*
X123042856Y-94583390D01*
X123042856Y-94583390D02*
X122995237Y-94631009D01*
X122995237Y-94631009D02*
X122899999Y-94678628D01*
X122899999Y-94678628D02*
X122519047Y-94678628D01*
X123519047Y-94631009D02*
X123852380Y-94631009D01*
X123995237Y-95154819D02*
X123519047Y-95154819D01*
X123519047Y-95154819D02*
X123519047Y-94154819D01*
X123519047Y-94154819D02*
X123995237Y-94154819D01*
X124757142Y-94631009D02*
X124423809Y-94631009D01*
X124423809Y-95154819D02*
X124423809Y-94154819D01*
X124423809Y-94154819D02*
X124899999Y-94154819D01*
X125423809Y-94154819D02*
X125423809Y-94392914D01*
X125185714Y-94297676D02*
X125423809Y-94392914D01*
X125423809Y-94392914D02*
X125661904Y-94297676D01*
X125280952Y-94583390D02*
X125423809Y-94392914D01*
X125423809Y-94392914D02*
X125566666Y-94583390D01*
X126185714Y-94154819D02*
X126185714Y-94392914D01*
X125947619Y-94297676D02*
X126185714Y-94392914D01*
X126185714Y-94392914D02*
X126423809Y-94297676D01*
X126042857Y-94583390D02*
X126185714Y-94392914D01*
X126185714Y-94392914D02*
X126328571Y-94583390D01*
X127233333Y-94488152D02*
X127233333Y-95154819D01*
X126995238Y-94107200D02*
X126757143Y-94821485D01*
X126757143Y-94821485D02*
X127376190Y-94821485D01*
X104590475Y-67554819D02*
X104257142Y-67078628D01*
X104019047Y-67554819D02*
X104019047Y-66554819D01*
X104019047Y-66554819D02*
X104399999Y-66554819D01*
X104399999Y-66554819D02*
X104495237Y-66602438D01*
X104495237Y-66602438D02*
X104542856Y-66650057D01*
X104542856Y-66650057D02*
X104590475Y-66745295D01*
X104590475Y-66745295D02*
X104590475Y-66888152D01*
X104590475Y-66888152D02*
X104542856Y-66983390D01*
X104542856Y-66983390D02*
X104495237Y-67031009D01*
X104495237Y-67031009D02*
X104399999Y-67078628D01*
X104399999Y-67078628D02*
X104019047Y-67078628D01*
X105019047Y-67031009D02*
X105352380Y-67031009D01*
X105495237Y-67554819D02*
X105019047Y-67554819D01*
X105019047Y-67554819D02*
X105019047Y-66554819D01*
X105019047Y-66554819D02*
X105495237Y-66554819D01*
X106257142Y-67031009D02*
X105923809Y-67031009D01*
X105923809Y-67554819D02*
X105923809Y-66554819D01*
X105923809Y-66554819D02*
X106399999Y-66554819D01*
X106923809Y-66554819D02*
X106923809Y-66792914D01*
X106685714Y-66697676D02*
X106923809Y-66792914D01*
X106923809Y-66792914D02*
X107161904Y-66697676D01*
X106780952Y-66983390D02*
X106923809Y-66792914D01*
X106923809Y-66792914D02*
X107066666Y-66983390D01*
X107685714Y-66554819D02*
X107685714Y-66792914D01*
X107447619Y-66697676D02*
X107685714Y-66792914D01*
X107685714Y-66792914D02*
X107923809Y-66697676D01*
X107542857Y-66983390D02*
X107685714Y-66792914D01*
X107685714Y-66792914D02*
X107828571Y-66983390D01*
X108828571Y-67554819D02*
X108257143Y-67554819D01*
X108542857Y-67554819D02*
X108542857Y-66554819D01*
X108542857Y-66554819D02*
X108447619Y-66697676D01*
X108447619Y-66697676D02*
X108352381Y-66792914D01*
X108352381Y-66792914D02*
X108257143Y-66840533D01*
X203066666Y-56254819D02*
X203066666Y-56969104D01*
X203066666Y-56969104D02*
X203019047Y-57111961D01*
X203019047Y-57111961D02*
X202923809Y-57207200D01*
X202923809Y-57207200D02*
X202780952Y-57254819D01*
X202780952Y-57254819D02*
X202685714Y-57254819D01*
X203685714Y-56683390D02*
X203590476Y-56635771D01*
X203590476Y-56635771D02*
X203542857Y-56588152D01*
X203542857Y-56588152D02*
X203495238Y-56492914D01*
X203495238Y-56492914D02*
X203495238Y-56445295D01*
X203495238Y-56445295D02*
X203542857Y-56350057D01*
X203542857Y-56350057D02*
X203590476Y-56302438D01*
X203590476Y-56302438D02*
X203685714Y-56254819D01*
X203685714Y-56254819D02*
X203876190Y-56254819D01*
X203876190Y-56254819D02*
X203971428Y-56302438D01*
X203971428Y-56302438D02*
X204019047Y-56350057D01*
X204019047Y-56350057D02*
X204066666Y-56445295D01*
X204066666Y-56445295D02*
X204066666Y-56492914D01*
X204066666Y-56492914D02*
X204019047Y-56588152D01*
X204019047Y-56588152D02*
X203971428Y-56635771D01*
X203971428Y-56635771D02*
X203876190Y-56683390D01*
X203876190Y-56683390D02*
X203685714Y-56683390D01*
X203685714Y-56683390D02*
X203590476Y-56731009D01*
X203590476Y-56731009D02*
X203542857Y-56778628D01*
X203542857Y-56778628D02*
X203495238Y-56873866D01*
X203495238Y-56873866D02*
X203495238Y-57064342D01*
X203495238Y-57064342D02*
X203542857Y-57159580D01*
X203542857Y-57159580D02*
X203590476Y-57207200D01*
X203590476Y-57207200D02*
X203685714Y-57254819D01*
X203685714Y-57254819D02*
X203876190Y-57254819D01*
X203876190Y-57254819D02*
X203971428Y-57207200D01*
X203971428Y-57207200D02*
X204019047Y-57159580D01*
X204019047Y-57159580D02*
X204066666Y-57064342D01*
X204066666Y-57064342D02*
X204066666Y-56873866D01*
X204066666Y-56873866D02*
X204019047Y-56778628D01*
X204019047Y-56778628D02*
X203971428Y-56731009D01*
X203971428Y-56731009D02*
X203876190Y-56683390D01*
X168854333Y-76965470D02*
X168806714Y-77013090D01*
X168806714Y-77013090D02*
X168663857Y-77060709D01*
X168663857Y-77060709D02*
X168568619Y-77060709D01*
X168568619Y-77060709D02*
X168425762Y-77013090D01*
X168425762Y-77013090D02*
X168330524Y-76917851D01*
X168330524Y-76917851D02*
X168282905Y-76822613D01*
X168282905Y-76822613D02*
X168235286Y-76632137D01*
X168235286Y-76632137D02*
X168235286Y-76489280D01*
X168235286Y-76489280D02*
X168282905Y-76298804D01*
X168282905Y-76298804D02*
X168330524Y-76203566D01*
X168330524Y-76203566D02*
X168425762Y-76108328D01*
X168425762Y-76108328D02*
X168568619Y-76060709D01*
X168568619Y-76060709D02*
X168663857Y-76060709D01*
X168663857Y-76060709D02*
X168806714Y-76108328D01*
X168806714Y-76108328D02*
X168854333Y-76155947D01*
X169425762Y-76489280D02*
X169330524Y-76441661D01*
X169330524Y-76441661D02*
X169282905Y-76394042D01*
X169282905Y-76394042D02*
X169235286Y-76298804D01*
X169235286Y-76298804D02*
X169235286Y-76251185D01*
X169235286Y-76251185D02*
X169282905Y-76155947D01*
X169282905Y-76155947D02*
X169330524Y-76108328D01*
X169330524Y-76108328D02*
X169425762Y-76060709D01*
X169425762Y-76060709D02*
X169616238Y-76060709D01*
X169616238Y-76060709D02*
X169711476Y-76108328D01*
X169711476Y-76108328D02*
X169759095Y-76155947D01*
X169759095Y-76155947D02*
X169806714Y-76251185D01*
X169806714Y-76251185D02*
X169806714Y-76298804D01*
X169806714Y-76298804D02*
X169759095Y-76394042D01*
X169759095Y-76394042D02*
X169711476Y-76441661D01*
X169711476Y-76441661D02*
X169616238Y-76489280D01*
X169616238Y-76489280D02*
X169425762Y-76489280D01*
X169425762Y-76489280D02*
X169330524Y-76536899D01*
X169330524Y-76536899D02*
X169282905Y-76584518D01*
X169282905Y-76584518D02*
X169235286Y-76679756D01*
X169235286Y-76679756D02*
X169235286Y-76870232D01*
X169235286Y-76870232D02*
X169282905Y-76965470D01*
X169282905Y-76965470D02*
X169330524Y-77013090D01*
X169330524Y-77013090D02*
X169425762Y-77060709D01*
X169425762Y-77060709D02*
X169616238Y-77060709D01*
X169616238Y-77060709D02*
X169711476Y-77013090D01*
X169711476Y-77013090D02*
X169759095Y-76965470D01*
X169759095Y-76965470D02*
X169806714Y-76870232D01*
X169806714Y-76870232D02*
X169806714Y-76679756D01*
X169806714Y-76679756D02*
X169759095Y-76584518D01*
X169759095Y-76584518D02*
X169711476Y-76536899D01*
X169711476Y-76536899D02*
X169616238Y-76489280D01*
X151454819Y-107480357D02*
X150978628Y-107813690D01*
X151454819Y-108051785D02*
X150454819Y-108051785D01*
X150454819Y-108051785D02*
X150454819Y-107670833D01*
X150454819Y-107670833D02*
X150502438Y-107575595D01*
X150502438Y-107575595D02*
X150550057Y-107527976D01*
X150550057Y-107527976D02*
X150645295Y-107480357D01*
X150645295Y-107480357D02*
X150788152Y-107480357D01*
X150788152Y-107480357D02*
X150883390Y-107527976D01*
X150883390Y-107527976D02*
X150931009Y-107575595D01*
X150931009Y-107575595D02*
X150978628Y-107670833D01*
X150978628Y-107670833D02*
X150978628Y-108051785D01*
X150550057Y-107099404D02*
X150502438Y-107051785D01*
X150502438Y-107051785D02*
X150454819Y-106956547D01*
X150454819Y-106956547D02*
X150454819Y-106718452D01*
X150454819Y-106718452D02*
X150502438Y-106623214D01*
X150502438Y-106623214D02*
X150550057Y-106575595D01*
X150550057Y-106575595D02*
X150645295Y-106527976D01*
X150645295Y-106527976D02*
X150740533Y-106527976D01*
X150740533Y-106527976D02*
X150883390Y-106575595D01*
X150883390Y-106575595D02*
X151454819Y-107147023D01*
X151454819Y-107147023D02*
X151454819Y-106527976D01*
X150550057Y-106147023D02*
X150502438Y-106099404D01*
X150502438Y-106099404D02*
X150454819Y-106004166D01*
X150454819Y-106004166D02*
X150454819Y-105766071D01*
X150454819Y-105766071D02*
X150502438Y-105670833D01*
X150502438Y-105670833D02*
X150550057Y-105623214D01*
X150550057Y-105623214D02*
X150645295Y-105575595D01*
X150645295Y-105575595D02*
X150740533Y-105575595D01*
X150740533Y-105575595D02*
X150883390Y-105623214D01*
X150883390Y-105623214D02*
X151454819Y-106194642D01*
X151454819Y-106194642D02*
X151454819Y-105575595D01*
X175680866Y-63640419D02*
X175728485Y-63592800D01*
X175728485Y-63592800D02*
X175871342Y-63545180D01*
X175871342Y-63545180D02*
X175966580Y-63545180D01*
X175966580Y-63545180D02*
X176109437Y-63592800D01*
X176109437Y-63592800D02*
X176204675Y-63688038D01*
X176204675Y-63688038D02*
X176252294Y-63783276D01*
X176252294Y-63783276D02*
X176299913Y-63973752D01*
X176299913Y-63973752D02*
X176299913Y-64116609D01*
X176299913Y-64116609D02*
X176252294Y-64307085D01*
X176252294Y-64307085D02*
X176204675Y-64402323D01*
X176204675Y-64402323D02*
X176109437Y-64497561D01*
X176109437Y-64497561D02*
X175966580Y-64545180D01*
X175966580Y-64545180D02*
X175871342Y-64545180D01*
X175871342Y-64545180D02*
X175728485Y-64497561D01*
X175728485Y-64497561D02*
X175680866Y-64449942D01*
X174680866Y-63545180D02*
X175014199Y-64021371D01*
X175252294Y-63545180D02*
X175252294Y-64545180D01*
X175252294Y-64545180D02*
X174871342Y-64545180D01*
X174871342Y-64545180D02*
X174776104Y-64497561D01*
X174776104Y-64497561D02*
X174728485Y-64449942D01*
X174728485Y-64449942D02*
X174680866Y-64354704D01*
X174680866Y-64354704D02*
X174680866Y-64211847D01*
X174680866Y-64211847D02*
X174728485Y-64116609D01*
X174728485Y-64116609D02*
X174776104Y-64068990D01*
X174776104Y-64068990D02*
X174871342Y-64021371D01*
X174871342Y-64021371D02*
X175252294Y-64021371D01*
X173728485Y-63545180D02*
X174299913Y-63545180D01*
X174014199Y-63545180D02*
X174014199Y-64545180D01*
X174014199Y-64545180D02*
X174109437Y-64402323D01*
X174109437Y-64402323D02*
X174204675Y-64307085D01*
X174204675Y-64307085D02*
X174299913Y-64259466D01*
X190792319Y-67824404D02*
X191601842Y-67824404D01*
X191601842Y-67824404D02*
X191697080Y-67776785D01*
X191697080Y-67776785D02*
X191744700Y-67729166D01*
X191744700Y-67729166D02*
X191792319Y-67633928D01*
X191792319Y-67633928D02*
X191792319Y-67443452D01*
X191792319Y-67443452D02*
X191744700Y-67348214D01*
X191744700Y-67348214D02*
X191697080Y-67300595D01*
X191697080Y-67300595D02*
X191601842Y-67252976D01*
X191601842Y-67252976D02*
X190792319Y-67252976D01*
X190792319Y-66872023D02*
X190792319Y-66252976D01*
X190792319Y-66252976D02*
X191173271Y-66586309D01*
X191173271Y-66586309D02*
X191173271Y-66443452D01*
X191173271Y-66443452D02*
X191220890Y-66348214D01*
X191220890Y-66348214D02*
X191268509Y-66300595D01*
X191268509Y-66300595D02*
X191363747Y-66252976D01*
X191363747Y-66252976D02*
X191601842Y-66252976D01*
X191601842Y-66252976D02*
X191697080Y-66300595D01*
X191697080Y-66300595D02*
X191744700Y-66348214D01*
X191744700Y-66348214D02*
X191792319Y-66443452D01*
X191792319Y-66443452D02*
X191792319Y-66729166D01*
X191792319Y-66729166D02*
X191744700Y-66824404D01*
X191744700Y-66824404D02*
X191697080Y-66872023D01*
X196076419Y-72142499D02*
X196314514Y-72142499D01*
X196219276Y-72380594D02*
X196314514Y-72142499D01*
X196314514Y-72142499D02*
X196219276Y-71904404D01*
X196504990Y-72285356D02*
X196314514Y-72142499D01*
X196314514Y-72142499D02*
X196504990Y-71999642D01*
X196654819Y-72142499D02*
X196892914Y-72142499D01*
X196797676Y-72380594D02*
X196892914Y-72142499D01*
X196892914Y-72142499D02*
X196797676Y-71904404D01*
X197083390Y-72285356D02*
X196892914Y-72142499D01*
X196892914Y-72142499D02*
X197083390Y-71999642D01*
X147859580Y-81805357D02*
X147907200Y-81852976D01*
X147907200Y-81852976D02*
X147954819Y-81995833D01*
X147954819Y-81995833D02*
X147954819Y-82091071D01*
X147954819Y-82091071D02*
X147907200Y-82233928D01*
X147907200Y-82233928D02*
X147811961Y-82329166D01*
X147811961Y-82329166D02*
X147716723Y-82376785D01*
X147716723Y-82376785D02*
X147526247Y-82424404D01*
X147526247Y-82424404D02*
X147383390Y-82424404D01*
X147383390Y-82424404D02*
X147192914Y-82376785D01*
X147192914Y-82376785D02*
X147097676Y-82329166D01*
X147097676Y-82329166D02*
X147002438Y-82233928D01*
X147002438Y-82233928D02*
X146954819Y-82091071D01*
X146954819Y-82091071D02*
X146954819Y-81995833D01*
X146954819Y-81995833D02*
X147002438Y-81852976D01*
X147002438Y-81852976D02*
X147050057Y-81805357D01*
X146954819Y-81472023D02*
X146954819Y-80852976D01*
X146954819Y-80852976D02*
X147335771Y-81186309D01*
X147335771Y-81186309D02*
X147335771Y-81043452D01*
X147335771Y-81043452D02*
X147383390Y-80948214D01*
X147383390Y-80948214D02*
X147431009Y-80900595D01*
X147431009Y-80900595D02*
X147526247Y-80852976D01*
X147526247Y-80852976D02*
X147764342Y-80852976D01*
X147764342Y-80852976D02*
X147859580Y-80900595D01*
X147859580Y-80900595D02*
X147907200Y-80948214D01*
X147907200Y-80948214D02*
X147954819Y-81043452D01*
X147954819Y-81043452D02*
X147954819Y-81329166D01*
X147954819Y-81329166D02*
X147907200Y-81424404D01*
X147907200Y-81424404D02*
X147859580Y-81472023D01*
X146954819Y-80519642D02*
X146954819Y-79852976D01*
X146954819Y-79852976D02*
X147954819Y-80281547D01*
X162559580Y-105392857D02*
X162607200Y-105440476D01*
X162607200Y-105440476D02*
X162654819Y-105583333D01*
X162654819Y-105583333D02*
X162654819Y-105678571D01*
X162654819Y-105678571D02*
X162607200Y-105821428D01*
X162607200Y-105821428D02*
X162511961Y-105916666D01*
X162511961Y-105916666D02*
X162416723Y-105964285D01*
X162416723Y-105964285D02*
X162226247Y-106011904D01*
X162226247Y-106011904D02*
X162083390Y-106011904D01*
X162083390Y-106011904D02*
X161892914Y-105964285D01*
X161892914Y-105964285D02*
X161797676Y-105916666D01*
X161797676Y-105916666D02*
X161702438Y-105821428D01*
X161702438Y-105821428D02*
X161654819Y-105678571D01*
X161654819Y-105678571D02*
X161654819Y-105583333D01*
X161654819Y-105583333D02*
X161702438Y-105440476D01*
X161702438Y-105440476D02*
X161750057Y-105392857D01*
X161988152Y-104535714D02*
X162654819Y-104535714D01*
X161607200Y-104773809D02*
X162321485Y-105011904D01*
X162321485Y-105011904D02*
X162321485Y-104392857D01*
X161654819Y-103535714D02*
X161654819Y-104011904D01*
X161654819Y-104011904D02*
X162131009Y-104059523D01*
X162131009Y-104059523D02*
X162083390Y-104011904D01*
X162083390Y-104011904D02*
X162035771Y-103916666D01*
X162035771Y-103916666D02*
X162035771Y-103678571D01*
X162035771Y-103678571D02*
X162083390Y-103583333D01*
X162083390Y-103583333D02*
X162131009Y-103535714D01*
X162131009Y-103535714D02*
X162226247Y-103488095D01*
X162226247Y-103488095D02*
X162464342Y-103488095D01*
X162464342Y-103488095D02*
X162559580Y-103535714D01*
X162559580Y-103535714D02*
X162607200Y-103583333D01*
X162607200Y-103583333D02*
X162654819Y-103678571D01*
X162654819Y-103678571D02*
X162654819Y-103916666D01*
X162654819Y-103916666D02*
X162607200Y-104011904D01*
X162607200Y-104011904D02*
X162559580Y-104059523D01*
X158759580Y-79942857D02*
X158807200Y-79990476D01*
X158807200Y-79990476D02*
X158854819Y-80133333D01*
X158854819Y-80133333D02*
X158854819Y-80228571D01*
X158854819Y-80228571D02*
X158807200Y-80371428D01*
X158807200Y-80371428D02*
X158711961Y-80466666D01*
X158711961Y-80466666D02*
X158616723Y-80514285D01*
X158616723Y-80514285D02*
X158426247Y-80561904D01*
X158426247Y-80561904D02*
X158283390Y-80561904D01*
X158283390Y-80561904D02*
X158092914Y-80514285D01*
X158092914Y-80514285D02*
X157997676Y-80466666D01*
X157997676Y-80466666D02*
X157902438Y-80371428D01*
X157902438Y-80371428D02*
X157854819Y-80228571D01*
X157854819Y-80228571D02*
X157854819Y-80133333D01*
X157854819Y-80133333D02*
X157902438Y-79990476D01*
X157902438Y-79990476D02*
X157950057Y-79942857D01*
X157854819Y-79609523D02*
X157854819Y-78990476D01*
X157854819Y-78990476D02*
X158235771Y-79323809D01*
X158235771Y-79323809D02*
X158235771Y-79180952D01*
X158235771Y-79180952D02*
X158283390Y-79085714D01*
X158283390Y-79085714D02*
X158331009Y-79038095D01*
X158331009Y-79038095D02*
X158426247Y-78990476D01*
X158426247Y-78990476D02*
X158664342Y-78990476D01*
X158664342Y-78990476D02*
X158759580Y-79038095D01*
X158759580Y-79038095D02*
X158807200Y-79085714D01*
X158807200Y-79085714D02*
X158854819Y-79180952D01*
X158854819Y-79180952D02*
X158854819Y-79466666D01*
X158854819Y-79466666D02*
X158807200Y-79561904D01*
X158807200Y-79561904D02*
X158759580Y-79609523D01*
X157950057Y-78609523D02*
X157902438Y-78561904D01*
X157902438Y-78561904D02*
X157854819Y-78466666D01*
X157854819Y-78466666D02*
X157854819Y-78228571D01*
X157854819Y-78228571D02*
X157902438Y-78133333D01*
X157902438Y-78133333D02*
X157950057Y-78085714D01*
X157950057Y-78085714D02*
X158045295Y-78038095D01*
X158045295Y-78038095D02*
X158140533Y-78038095D01*
X158140533Y-78038095D02*
X158283390Y-78085714D01*
X158283390Y-78085714D02*
X158854819Y-78657142D01*
X158854819Y-78657142D02*
X158854819Y-78038095D01*
X142759580Y-99705357D02*
X142807200Y-99752976D01*
X142807200Y-99752976D02*
X142854819Y-99895833D01*
X142854819Y-99895833D02*
X142854819Y-99991071D01*
X142854819Y-99991071D02*
X142807200Y-100133928D01*
X142807200Y-100133928D02*
X142711961Y-100229166D01*
X142711961Y-100229166D02*
X142616723Y-100276785D01*
X142616723Y-100276785D02*
X142426247Y-100324404D01*
X142426247Y-100324404D02*
X142283390Y-100324404D01*
X142283390Y-100324404D02*
X142092914Y-100276785D01*
X142092914Y-100276785D02*
X141997676Y-100229166D01*
X141997676Y-100229166D02*
X141902438Y-100133928D01*
X141902438Y-100133928D02*
X141854819Y-99991071D01*
X141854819Y-99991071D02*
X141854819Y-99895833D01*
X141854819Y-99895833D02*
X141902438Y-99752976D01*
X141902438Y-99752976D02*
X141950057Y-99705357D01*
X141950057Y-99324404D02*
X141902438Y-99276785D01*
X141902438Y-99276785D02*
X141854819Y-99181547D01*
X141854819Y-99181547D02*
X141854819Y-98943452D01*
X141854819Y-98943452D02*
X141902438Y-98848214D01*
X141902438Y-98848214D02*
X141950057Y-98800595D01*
X141950057Y-98800595D02*
X142045295Y-98752976D01*
X142045295Y-98752976D02*
X142140533Y-98752976D01*
X142140533Y-98752976D02*
X142283390Y-98800595D01*
X142283390Y-98800595D02*
X142854819Y-99372023D01*
X142854819Y-99372023D02*
X142854819Y-98752976D01*
X141950057Y-98372023D02*
X141902438Y-98324404D01*
X141902438Y-98324404D02*
X141854819Y-98229166D01*
X141854819Y-98229166D02*
X141854819Y-97991071D01*
X141854819Y-97991071D02*
X141902438Y-97895833D01*
X141902438Y-97895833D02*
X141950057Y-97848214D01*
X141950057Y-97848214D02*
X142045295Y-97800595D01*
X142045295Y-97800595D02*
X142140533Y-97800595D01*
X142140533Y-97800595D02*
X142283390Y-97848214D01*
X142283390Y-97848214D02*
X142854819Y-98419642D01*
X142854819Y-98419642D02*
X142854819Y-97800595D01*
X169289580Y-72898747D02*
X169337200Y-72946366D01*
X169337200Y-72946366D02*
X169384819Y-73089223D01*
X169384819Y-73089223D02*
X169384819Y-73184461D01*
X169384819Y-73184461D02*
X169337200Y-73327318D01*
X169337200Y-73327318D02*
X169241961Y-73422556D01*
X169241961Y-73422556D02*
X169146723Y-73470175D01*
X169146723Y-73470175D02*
X168956247Y-73517794D01*
X168956247Y-73517794D02*
X168813390Y-73517794D01*
X168813390Y-73517794D02*
X168622914Y-73470175D01*
X168622914Y-73470175D02*
X168527676Y-73422556D01*
X168527676Y-73422556D02*
X168432438Y-73327318D01*
X168432438Y-73327318D02*
X168384819Y-73184461D01*
X168384819Y-73184461D02*
X168384819Y-73089223D01*
X168384819Y-73089223D02*
X168432438Y-72946366D01*
X168432438Y-72946366D02*
X168480057Y-72898747D01*
X169384819Y-71946366D02*
X169384819Y-72517794D01*
X169384819Y-72232080D02*
X168384819Y-72232080D01*
X168384819Y-72232080D02*
X168527676Y-72327318D01*
X168527676Y-72327318D02*
X168622914Y-72422556D01*
X168622914Y-72422556D02*
X168670533Y-72517794D01*
X168384819Y-71613032D02*
X168384819Y-70993985D01*
X168384819Y-70993985D02*
X168765771Y-71327318D01*
X168765771Y-71327318D02*
X168765771Y-71184461D01*
X168765771Y-71184461D02*
X168813390Y-71089223D01*
X168813390Y-71089223D02*
X168861009Y-71041604D01*
X168861009Y-71041604D02*
X168956247Y-70993985D01*
X168956247Y-70993985D02*
X169194342Y-70993985D01*
X169194342Y-70993985D02*
X169289580Y-71041604D01*
X169289580Y-71041604D02*
X169337200Y-71089223D01*
X169337200Y-71089223D02*
X169384819Y-71184461D01*
X169384819Y-71184461D02*
X169384819Y-71470175D01*
X169384819Y-71470175D02*
X169337200Y-71565413D01*
X169337200Y-71565413D02*
X169289580Y-71613032D01*
X151416811Y-72939705D02*
X151369192Y-72987325D01*
X151369192Y-72987325D02*
X151226335Y-73034944D01*
X151226335Y-73034944D02*
X151131097Y-73034944D01*
X151131097Y-73034944D02*
X150988240Y-72987325D01*
X150988240Y-72987325D02*
X150893002Y-72892086D01*
X150893002Y-72892086D02*
X150845383Y-72796848D01*
X150845383Y-72796848D02*
X150797764Y-72606372D01*
X150797764Y-72606372D02*
X150797764Y-72463515D01*
X150797764Y-72463515D02*
X150845383Y-72273039D01*
X150845383Y-72273039D02*
X150893002Y-72177801D01*
X150893002Y-72177801D02*
X150988240Y-72082563D01*
X150988240Y-72082563D02*
X151131097Y-72034944D01*
X151131097Y-72034944D02*
X151226335Y-72034944D01*
X151226335Y-72034944D02*
X151369192Y-72082563D01*
X151369192Y-72082563D02*
X151416811Y-72130182D01*
X152273954Y-72034944D02*
X152083478Y-72034944D01*
X152083478Y-72034944D02*
X151988240Y-72082563D01*
X151988240Y-72082563D02*
X151940621Y-72130182D01*
X151940621Y-72130182D02*
X151845383Y-72273039D01*
X151845383Y-72273039D02*
X151797764Y-72463515D01*
X151797764Y-72463515D02*
X151797764Y-72844467D01*
X151797764Y-72844467D02*
X151845383Y-72939705D01*
X151845383Y-72939705D02*
X151893002Y-72987325D01*
X151893002Y-72987325D02*
X151988240Y-73034944D01*
X151988240Y-73034944D02*
X152178716Y-73034944D01*
X152178716Y-73034944D02*
X152273954Y-72987325D01*
X152273954Y-72987325D02*
X152321573Y-72939705D01*
X152321573Y-72939705D02*
X152369192Y-72844467D01*
X152369192Y-72844467D02*
X152369192Y-72606372D01*
X152369192Y-72606372D02*
X152321573Y-72511134D01*
X152321573Y-72511134D02*
X152273954Y-72463515D01*
X152273954Y-72463515D02*
X152178716Y-72415896D01*
X152178716Y-72415896D02*
X151988240Y-72415896D01*
X151988240Y-72415896D02*
X151893002Y-72463515D01*
X151893002Y-72463515D02*
X151845383Y-72511134D01*
X151845383Y-72511134D02*
X151797764Y-72606372D01*
X140407142Y-95172080D02*
X140359523Y-95219700D01*
X140359523Y-95219700D02*
X140216666Y-95267319D01*
X140216666Y-95267319D02*
X140121428Y-95267319D01*
X140121428Y-95267319D02*
X139978571Y-95219700D01*
X139978571Y-95219700D02*
X139883333Y-95124461D01*
X139883333Y-95124461D02*
X139835714Y-95029223D01*
X139835714Y-95029223D02*
X139788095Y-94838747D01*
X139788095Y-94838747D02*
X139788095Y-94695890D01*
X139788095Y-94695890D02*
X139835714Y-94505414D01*
X139835714Y-94505414D02*
X139883333Y-94410176D01*
X139883333Y-94410176D02*
X139978571Y-94314938D01*
X139978571Y-94314938D02*
X140121428Y-94267319D01*
X140121428Y-94267319D02*
X140216666Y-94267319D01*
X140216666Y-94267319D02*
X140359523Y-94314938D01*
X140359523Y-94314938D02*
X140407142Y-94362557D01*
X140788095Y-94362557D02*
X140835714Y-94314938D01*
X140835714Y-94314938D02*
X140930952Y-94267319D01*
X140930952Y-94267319D02*
X141169047Y-94267319D01*
X141169047Y-94267319D02*
X141264285Y-94314938D01*
X141264285Y-94314938D02*
X141311904Y-94362557D01*
X141311904Y-94362557D02*
X141359523Y-94457795D01*
X141359523Y-94457795D02*
X141359523Y-94553033D01*
X141359523Y-94553033D02*
X141311904Y-94695890D01*
X141311904Y-94695890D02*
X140740476Y-95267319D01*
X140740476Y-95267319D02*
X141359523Y-95267319D01*
X141835714Y-95267319D02*
X142026190Y-95267319D01*
X142026190Y-95267319D02*
X142121428Y-95219700D01*
X142121428Y-95219700D02*
X142169047Y-95172080D01*
X142169047Y-95172080D02*
X142264285Y-95029223D01*
X142264285Y-95029223D02*
X142311904Y-94838747D01*
X142311904Y-94838747D02*
X142311904Y-94457795D01*
X142311904Y-94457795D02*
X142264285Y-94362557D01*
X142264285Y-94362557D02*
X142216666Y-94314938D01*
X142216666Y-94314938D02*
X142121428Y-94267319D01*
X142121428Y-94267319D02*
X141930952Y-94267319D01*
X141930952Y-94267319D02*
X141835714Y-94314938D01*
X141835714Y-94314938D02*
X141788095Y-94362557D01*
X141788095Y-94362557D02*
X141740476Y-94457795D01*
X141740476Y-94457795D02*
X141740476Y-94695890D01*
X141740476Y-94695890D02*
X141788095Y-94791128D01*
X141788095Y-94791128D02*
X141835714Y-94838747D01*
X141835714Y-94838747D02*
X141930952Y-94886366D01*
X141930952Y-94886366D02*
X142121428Y-94886366D01*
X142121428Y-94886366D02*
X142216666Y-94838747D01*
X142216666Y-94838747D02*
X142264285Y-94791128D01*
X142264285Y-94791128D02*
X142311904Y-94695890D01*
X160415395Y-62710709D02*
X160415395Y-63520232D01*
X160415395Y-63520232D02*
X160463014Y-63615470D01*
X160463014Y-63615470D02*
X160510633Y-63663090D01*
X160510633Y-63663090D02*
X160605871Y-63710709D01*
X160605871Y-63710709D02*
X160796347Y-63710709D01*
X160796347Y-63710709D02*
X160891585Y-63663090D01*
X160891585Y-63663090D02*
X160939204Y-63615470D01*
X160939204Y-63615470D02*
X160986823Y-63520232D01*
X160986823Y-63520232D02*
X160986823Y-62710709D01*
X161415395Y-62805947D02*
X161463014Y-62758328D01*
X161463014Y-62758328D02*
X161558252Y-62710709D01*
X161558252Y-62710709D02*
X161796347Y-62710709D01*
X161796347Y-62710709D02*
X161891585Y-62758328D01*
X161891585Y-62758328D02*
X161939204Y-62805947D01*
X161939204Y-62805947D02*
X161986823Y-62901185D01*
X161986823Y-62901185D02*
X161986823Y-62996423D01*
X161986823Y-62996423D02*
X161939204Y-63139280D01*
X161939204Y-63139280D02*
X161367776Y-63710709D01*
X161367776Y-63710709D02*
X161986823Y-63710709D01*
X158500000Y-61354819D02*
X158500000Y-61592914D01*
X158261905Y-61497676D02*
X158500000Y-61592914D01*
X158500000Y-61592914D02*
X158738095Y-61497676D01*
X158357143Y-61783390D02*
X158500000Y-61592914D01*
X158500000Y-61592914D02*
X158642857Y-61783390D01*
X159200000Y-61354819D02*
X159200000Y-61592914D01*
X158961905Y-61497676D02*
X159200000Y-61592914D01*
X159200000Y-61592914D02*
X159438095Y-61497676D01*
X159057143Y-61783390D02*
X159200000Y-61592914D01*
X159200000Y-61592914D02*
X159342857Y-61783390D01*
X168457142Y-110854819D02*
X168123809Y-110378628D01*
X167885714Y-110854819D02*
X167885714Y-109854819D01*
X167885714Y-109854819D02*
X168266666Y-109854819D01*
X168266666Y-109854819D02*
X168361904Y-109902438D01*
X168361904Y-109902438D02*
X168409523Y-109950057D01*
X168409523Y-109950057D02*
X168457142Y-110045295D01*
X168457142Y-110045295D02*
X168457142Y-110188152D01*
X168457142Y-110188152D02*
X168409523Y-110283390D01*
X168409523Y-110283390D02*
X168361904Y-110331009D01*
X168361904Y-110331009D02*
X168266666Y-110378628D01*
X168266666Y-110378628D02*
X167885714Y-110378628D01*
X169409523Y-110854819D02*
X168838095Y-110854819D01*
X169123809Y-110854819D02*
X169123809Y-109854819D01*
X169123809Y-109854819D02*
X169028571Y-109997676D01*
X169028571Y-109997676D02*
X168933333Y-110092914D01*
X168933333Y-110092914D02*
X168838095Y-110140533D01*
X169980952Y-110283390D02*
X169885714Y-110235771D01*
X169885714Y-110235771D02*
X169838095Y-110188152D01*
X169838095Y-110188152D02*
X169790476Y-110092914D01*
X169790476Y-110092914D02*
X169790476Y-110045295D01*
X169790476Y-110045295D02*
X169838095Y-109950057D01*
X169838095Y-109950057D02*
X169885714Y-109902438D01*
X169885714Y-109902438D02*
X169980952Y-109854819D01*
X169980952Y-109854819D02*
X170171428Y-109854819D01*
X170171428Y-109854819D02*
X170266666Y-109902438D01*
X170266666Y-109902438D02*
X170314285Y-109950057D01*
X170314285Y-109950057D02*
X170361904Y-110045295D01*
X170361904Y-110045295D02*
X170361904Y-110092914D01*
X170361904Y-110092914D02*
X170314285Y-110188152D01*
X170314285Y-110188152D02*
X170266666Y-110235771D01*
X170266666Y-110235771D02*
X170171428Y-110283390D01*
X170171428Y-110283390D02*
X169980952Y-110283390D01*
X169980952Y-110283390D02*
X169885714Y-110331009D01*
X169885714Y-110331009D02*
X169838095Y-110378628D01*
X169838095Y-110378628D02*
X169790476Y-110473866D01*
X169790476Y-110473866D02*
X169790476Y-110664342D01*
X169790476Y-110664342D02*
X169838095Y-110759580D01*
X169838095Y-110759580D02*
X169885714Y-110807200D01*
X169885714Y-110807200D02*
X169980952Y-110854819D01*
X169980952Y-110854819D02*
X170171428Y-110854819D01*
X170171428Y-110854819D02*
X170266666Y-110807200D01*
X170266666Y-110807200D02*
X170314285Y-110759580D01*
X170314285Y-110759580D02*
X170361904Y-110664342D01*
X170361904Y-110664342D02*
X170361904Y-110473866D01*
X170361904Y-110473866D02*
X170314285Y-110378628D01*
X170314285Y-110378628D02*
X170266666Y-110331009D01*
X170266666Y-110331009D02*
X170171428Y-110283390D01*
X168960580Y-66186247D02*
X169008200Y-66233866D01*
X169008200Y-66233866D02*
X169055819Y-66376723D01*
X169055819Y-66376723D02*
X169055819Y-66471961D01*
X169055819Y-66471961D02*
X169008200Y-66614818D01*
X169008200Y-66614818D02*
X168912961Y-66710056D01*
X168912961Y-66710056D02*
X168817723Y-66757675D01*
X168817723Y-66757675D02*
X168627247Y-66805294D01*
X168627247Y-66805294D02*
X168484390Y-66805294D01*
X168484390Y-66805294D02*
X168293914Y-66757675D01*
X168293914Y-66757675D02*
X168198676Y-66710056D01*
X168198676Y-66710056D02*
X168103438Y-66614818D01*
X168103438Y-66614818D02*
X168055819Y-66471961D01*
X168055819Y-66471961D02*
X168055819Y-66376723D01*
X168055819Y-66376723D02*
X168103438Y-66233866D01*
X168103438Y-66233866D02*
X168151057Y-66186247D01*
X169055819Y-65233866D02*
X169055819Y-65805294D01*
X169055819Y-65519580D02*
X168055819Y-65519580D01*
X168055819Y-65519580D02*
X168198676Y-65614818D01*
X168198676Y-65614818D02*
X168293914Y-65710056D01*
X168293914Y-65710056D02*
X168341533Y-65805294D01*
X168055819Y-64329104D02*
X168055819Y-64805294D01*
X168055819Y-64805294D02*
X168532009Y-64852913D01*
X168532009Y-64852913D02*
X168484390Y-64805294D01*
X168484390Y-64805294D02*
X168436771Y-64710056D01*
X168436771Y-64710056D02*
X168436771Y-64471961D01*
X168436771Y-64471961D02*
X168484390Y-64376723D01*
X168484390Y-64376723D02*
X168532009Y-64329104D01*
X168532009Y-64329104D02*
X168627247Y-64281485D01*
X168627247Y-64281485D02*
X168865342Y-64281485D01*
X168865342Y-64281485D02*
X168960580Y-64329104D01*
X168960580Y-64329104D02*
X169008200Y-64376723D01*
X169008200Y-64376723D02*
X169055819Y-64471961D01*
X169055819Y-64471961D02*
X169055819Y-64710056D01*
X169055819Y-64710056D02*
X169008200Y-64805294D01*
X169008200Y-64805294D02*
X168960580Y-64852913D01*
X150233333Y-62459580D02*
X150185714Y-62507200D01*
X150185714Y-62507200D02*
X150042857Y-62554819D01*
X150042857Y-62554819D02*
X149947619Y-62554819D01*
X149947619Y-62554819D02*
X149804762Y-62507200D01*
X149804762Y-62507200D02*
X149709524Y-62411961D01*
X149709524Y-62411961D02*
X149661905Y-62316723D01*
X149661905Y-62316723D02*
X149614286Y-62126247D01*
X149614286Y-62126247D02*
X149614286Y-61983390D01*
X149614286Y-61983390D02*
X149661905Y-61792914D01*
X149661905Y-61792914D02*
X149709524Y-61697676D01*
X149709524Y-61697676D02*
X149804762Y-61602438D01*
X149804762Y-61602438D02*
X149947619Y-61554819D01*
X149947619Y-61554819D02*
X150042857Y-61554819D01*
X150042857Y-61554819D02*
X150185714Y-61602438D01*
X150185714Y-61602438D02*
X150233333Y-61650057D01*
X150614286Y-61650057D02*
X150661905Y-61602438D01*
X150661905Y-61602438D02*
X150757143Y-61554819D01*
X150757143Y-61554819D02*
X150995238Y-61554819D01*
X150995238Y-61554819D02*
X151090476Y-61602438D01*
X151090476Y-61602438D02*
X151138095Y-61650057D01*
X151138095Y-61650057D02*
X151185714Y-61745295D01*
X151185714Y-61745295D02*
X151185714Y-61840533D01*
X151185714Y-61840533D02*
X151138095Y-61983390D01*
X151138095Y-61983390D02*
X150566667Y-62554819D01*
X150566667Y-62554819D02*
X151185714Y-62554819D01*
X154507142Y-77809580D02*
X154459523Y-77857200D01*
X154459523Y-77857200D02*
X154316666Y-77904819D01*
X154316666Y-77904819D02*
X154221428Y-77904819D01*
X154221428Y-77904819D02*
X154078571Y-77857200D01*
X154078571Y-77857200D02*
X153983333Y-77761961D01*
X153983333Y-77761961D02*
X153935714Y-77666723D01*
X153935714Y-77666723D02*
X153888095Y-77476247D01*
X153888095Y-77476247D02*
X153888095Y-77333390D01*
X153888095Y-77333390D02*
X153935714Y-77142914D01*
X153935714Y-77142914D02*
X153983333Y-77047676D01*
X153983333Y-77047676D02*
X154078571Y-76952438D01*
X154078571Y-76952438D02*
X154221428Y-76904819D01*
X154221428Y-76904819D02*
X154316666Y-76904819D01*
X154316666Y-76904819D02*
X154459523Y-76952438D01*
X154459523Y-76952438D02*
X154507142Y-77000057D01*
X154840476Y-76904819D02*
X155459523Y-76904819D01*
X155459523Y-76904819D02*
X155126190Y-77285771D01*
X155126190Y-77285771D02*
X155269047Y-77285771D01*
X155269047Y-77285771D02*
X155364285Y-77333390D01*
X155364285Y-77333390D02*
X155411904Y-77381009D01*
X155411904Y-77381009D02*
X155459523Y-77476247D01*
X155459523Y-77476247D02*
X155459523Y-77714342D01*
X155459523Y-77714342D02*
X155411904Y-77809580D01*
X155411904Y-77809580D02*
X155364285Y-77857200D01*
X155364285Y-77857200D02*
X155269047Y-77904819D01*
X155269047Y-77904819D02*
X154983333Y-77904819D01*
X154983333Y-77904819D02*
X154888095Y-77857200D01*
X154888095Y-77857200D02*
X154840476Y-77809580D01*
X155792857Y-76904819D02*
X156411904Y-76904819D01*
X156411904Y-76904819D02*
X156078571Y-77285771D01*
X156078571Y-77285771D02*
X156221428Y-77285771D01*
X156221428Y-77285771D02*
X156316666Y-77333390D01*
X156316666Y-77333390D02*
X156364285Y-77381009D01*
X156364285Y-77381009D02*
X156411904Y-77476247D01*
X156411904Y-77476247D02*
X156411904Y-77714342D01*
X156411904Y-77714342D02*
X156364285Y-77809580D01*
X156364285Y-77809580D02*
X156316666Y-77857200D01*
X156316666Y-77857200D02*
X156221428Y-77904819D01*
X156221428Y-77904819D02*
X155935714Y-77904819D01*
X155935714Y-77904819D02*
X155840476Y-77857200D01*
X155840476Y-77857200D02*
X155792857Y-77809580D01*
X168960580Y-69536247D02*
X169008200Y-69583866D01*
X169008200Y-69583866D02*
X169055819Y-69726723D01*
X169055819Y-69726723D02*
X169055819Y-69821961D01*
X169055819Y-69821961D02*
X169008200Y-69964818D01*
X169008200Y-69964818D02*
X168912961Y-70060056D01*
X168912961Y-70060056D02*
X168817723Y-70107675D01*
X168817723Y-70107675D02*
X168627247Y-70155294D01*
X168627247Y-70155294D02*
X168484390Y-70155294D01*
X168484390Y-70155294D02*
X168293914Y-70107675D01*
X168293914Y-70107675D02*
X168198676Y-70060056D01*
X168198676Y-70060056D02*
X168103438Y-69964818D01*
X168103438Y-69964818D02*
X168055819Y-69821961D01*
X168055819Y-69821961D02*
X168055819Y-69726723D01*
X168055819Y-69726723D02*
X168103438Y-69583866D01*
X168103438Y-69583866D02*
X168151057Y-69536247D01*
X169055819Y-68583866D02*
X169055819Y-69155294D01*
X169055819Y-68869580D02*
X168055819Y-68869580D01*
X168055819Y-68869580D02*
X168198676Y-68964818D01*
X168198676Y-68964818D02*
X168293914Y-69060056D01*
X168293914Y-69060056D02*
X168341533Y-69155294D01*
X168389152Y-67726723D02*
X169055819Y-67726723D01*
X168008200Y-67964818D02*
X168722485Y-68202913D01*
X168722485Y-68202913D02*
X168722485Y-67583866D01*
X175814286Y-106454819D02*
X176385714Y-106454819D01*
X176100000Y-107454819D02*
X176100000Y-106454819D01*
X176719048Y-107454819D02*
X176719048Y-106454819D01*
X176719048Y-106931009D02*
X177290476Y-106931009D01*
X177290476Y-107454819D02*
X177290476Y-106454819D01*
X178290476Y-107454819D02*
X177719048Y-107454819D01*
X178004762Y-107454819D02*
X178004762Y-106454819D01*
X178004762Y-106454819D02*
X177909524Y-106597676D01*
X177909524Y-106597676D02*
X177814286Y-106692914D01*
X177814286Y-106692914D02*
X177719048Y-106740533D01*
X156694819Y-107480357D02*
X156218628Y-107813690D01*
X156694819Y-108051785D02*
X155694819Y-108051785D01*
X155694819Y-108051785D02*
X155694819Y-107670833D01*
X155694819Y-107670833D02*
X155742438Y-107575595D01*
X155742438Y-107575595D02*
X155790057Y-107527976D01*
X155790057Y-107527976D02*
X155885295Y-107480357D01*
X155885295Y-107480357D02*
X156028152Y-107480357D01*
X156028152Y-107480357D02*
X156123390Y-107527976D01*
X156123390Y-107527976D02*
X156171009Y-107575595D01*
X156171009Y-107575595D02*
X156218628Y-107670833D01*
X156218628Y-107670833D02*
X156218628Y-108051785D01*
X155790057Y-107099404D02*
X155742438Y-107051785D01*
X155742438Y-107051785D02*
X155694819Y-106956547D01*
X155694819Y-106956547D02*
X155694819Y-106718452D01*
X155694819Y-106718452D02*
X155742438Y-106623214D01*
X155742438Y-106623214D02*
X155790057Y-106575595D01*
X155790057Y-106575595D02*
X155885295Y-106527976D01*
X155885295Y-106527976D02*
X155980533Y-106527976D01*
X155980533Y-106527976D02*
X156123390Y-106575595D01*
X156123390Y-106575595D02*
X156694819Y-107147023D01*
X156694819Y-107147023D02*
X156694819Y-106527976D01*
X155694819Y-106194642D02*
X155694819Y-105575595D01*
X155694819Y-105575595D02*
X156075771Y-105908928D01*
X156075771Y-105908928D02*
X156075771Y-105766071D01*
X156075771Y-105766071D02*
X156123390Y-105670833D01*
X156123390Y-105670833D02*
X156171009Y-105623214D01*
X156171009Y-105623214D02*
X156266247Y-105575595D01*
X156266247Y-105575595D02*
X156504342Y-105575595D01*
X156504342Y-105575595D02*
X156599580Y-105623214D01*
X156599580Y-105623214D02*
X156647200Y-105670833D01*
X156647200Y-105670833D02*
X156694819Y-105766071D01*
X156694819Y-105766071D02*
X156694819Y-106051785D01*
X156694819Y-106051785D02*
X156647200Y-106147023D01*
X156647200Y-106147023D02*
X156599580Y-106194642D01*
X144954819Y-81804166D02*
X144478628Y-82137499D01*
X144954819Y-82375594D02*
X143954819Y-82375594D01*
X143954819Y-82375594D02*
X143954819Y-81994642D01*
X143954819Y-81994642D02*
X144002438Y-81899404D01*
X144002438Y-81899404D02*
X144050057Y-81851785D01*
X144050057Y-81851785D02*
X144145295Y-81804166D01*
X144145295Y-81804166D02*
X144288152Y-81804166D01*
X144288152Y-81804166D02*
X144383390Y-81851785D01*
X144383390Y-81851785D02*
X144431009Y-81899404D01*
X144431009Y-81899404D02*
X144478628Y-81994642D01*
X144478628Y-81994642D02*
X144478628Y-82375594D01*
X143954819Y-81470832D02*
X143954819Y-80804166D01*
X143954819Y-80804166D02*
X144954819Y-81232737D01*
X158257142Y-87059580D02*
X158209523Y-87107200D01*
X158209523Y-87107200D02*
X158066666Y-87154819D01*
X158066666Y-87154819D02*
X157971428Y-87154819D01*
X157971428Y-87154819D02*
X157828571Y-87107200D01*
X157828571Y-87107200D02*
X157733333Y-87011961D01*
X157733333Y-87011961D02*
X157685714Y-86916723D01*
X157685714Y-86916723D02*
X157638095Y-86726247D01*
X157638095Y-86726247D02*
X157638095Y-86583390D01*
X157638095Y-86583390D02*
X157685714Y-86392914D01*
X157685714Y-86392914D02*
X157733333Y-86297676D01*
X157733333Y-86297676D02*
X157828571Y-86202438D01*
X157828571Y-86202438D02*
X157971428Y-86154819D01*
X157971428Y-86154819D02*
X158066666Y-86154819D01*
X158066666Y-86154819D02*
X158209523Y-86202438D01*
X158209523Y-86202438D02*
X158257142Y-86250057D01*
X158590476Y-86154819D02*
X159209523Y-86154819D01*
X159209523Y-86154819D02*
X158876190Y-86535771D01*
X158876190Y-86535771D02*
X159019047Y-86535771D01*
X159019047Y-86535771D02*
X159114285Y-86583390D01*
X159114285Y-86583390D02*
X159161904Y-86631009D01*
X159161904Y-86631009D02*
X159209523Y-86726247D01*
X159209523Y-86726247D02*
X159209523Y-86964342D01*
X159209523Y-86964342D02*
X159161904Y-87059580D01*
X159161904Y-87059580D02*
X159114285Y-87107200D01*
X159114285Y-87107200D02*
X159019047Y-87154819D01*
X159019047Y-87154819D02*
X158733333Y-87154819D01*
X158733333Y-87154819D02*
X158638095Y-87107200D01*
X158638095Y-87107200D02*
X158590476Y-87059580D01*
X159828571Y-86154819D02*
X159923809Y-86154819D01*
X159923809Y-86154819D02*
X160019047Y-86202438D01*
X160019047Y-86202438D02*
X160066666Y-86250057D01*
X160066666Y-86250057D02*
X160114285Y-86345295D01*
X160114285Y-86345295D02*
X160161904Y-86535771D01*
X160161904Y-86535771D02*
X160161904Y-86773866D01*
X160161904Y-86773866D02*
X160114285Y-86964342D01*
X160114285Y-86964342D02*
X160066666Y-87059580D01*
X160066666Y-87059580D02*
X160019047Y-87107200D01*
X160019047Y-87107200D02*
X159923809Y-87154819D01*
X159923809Y-87154819D02*
X159828571Y-87154819D01*
X159828571Y-87154819D02*
X159733333Y-87107200D01*
X159733333Y-87107200D02*
X159685714Y-87059580D01*
X159685714Y-87059580D02*
X159638095Y-86964342D01*
X159638095Y-86964342D02*
X159590476Y-86773866D01*
X159590476Y-86773866D02*
X159590476Y-86535771D01*
X159590476Y-86535771D02*
X159638095Y-86345295D01*
X159638095Y-86345295D02*
X159685714Y-86250057D01*
X159685714Y-86250057D02*
X159733333Y-86202438D01*
X159733333Y-86202438D02*
X159828571Y-86154819D01*
X169944642Y-92959580D02*
X169897023Y-93007200D01*
X169897023Y-93007200D02*
X169754166Y-93054819D01*
X169754166Y-93054819D02*
X169658928Y-93054819D01*
X169658928Y-93054819D02*
X169516071Y-93007200D01*
X169516071Y-93007200D02*
X169420833Y-92911961D01*
X169420833Y-92911961D02*
X169373214Y-92816723D01*
X169373214Y-92816723D02*
X169325595Y-92626247D01*
X169325595Y-92626247D02*
X169325595Y-92483390D01*
X169325595Y-92483390D02*
X169373214Y-92292914D01*
X169373214Y-92292914D02*
X169420833Y-92197676D01*
X169420833Y-92197676D02*
X169516071Y-92102438D01*
X169516071Y-92102438D02*
X169658928Y-92054819D01*
X169658928Y-92054819D02*
X169754166Y-92054819D01*
X169754166Y-92054819D02*
X169897023Y-92102438D01*
X169897023Y-92102438D02*
X169944642Y-92150057D01*
X170801785Y-92388152D02*
X170801785Y-93054819D01*
X170563690Y-92007200D02*
X170325595Y-92721485D01*
X170325595Y-92721485D02*
X170944642Y-92721485D01*
X171277976Y-92150057D02*
X171325595Y-92102438D01*
X171325595Y-92102438D02*
X171420833Y-92054819D01*
X171420833Y-92054819D02*
X171658928Y-92054819D01*
X171658928Y-92054819D02*
X171754166Y-92102438D01*
X171754166Y-92102438D02*
X171801785Y-92150057D01*
X171801785Y-92150057D02*
X171849404Y-92245295D01*
X171849404Y-92245295D02*
X171849404Y-92340533D01*
X171849404Y-92340533D02*
X171801785Y-92483390D01*
X171801785Y-92483390D02*
X171230357Y-93054819D01*
X171230357Y-93054819D02*
X171849404Y-93054819D01*
X114682953Y-85453492D02*
X115492476Y-85453492D01*
X115492476Y-85453492D02*
X115587714Y-85405873D01*
X115587714Y-85405873D02*
X115635334Y-85358254D01*
X115635334Y-85358254D02*
X115682953Y-85263016D01*
X115682953Y-85263016D02*
X115682953Y-85072540D01*
X115682953Y-85072540D02*
X115635334Y-84977302D01*
X115635334Y-84977302D02*
X115587714Y-84929683D01*
X115587714Y-84929683D02*
X115492476Y-84882064D01*
X115492476Y-84882064D02*
X114682953Y-84882064D01*
X115682953Y-84358254D02*
X115682953Y-84167778D01*
X115682953Y-84167778D02*
X115635334Y-84072540D01*
X115635334Y-84072540D02*
X115587714Y-84024921D01*
X115587714Y-84024921D02*
X115444857Y-83929683D01*
X115444857Y-83929683D02*
X115254381Y-83882064D01*
X115254381Y-83882064D02*
X114873429Y-83882064D01*
X114873429Y-83882064D02*
X114778191Y-83929683D01*
X114778191Y-83929683D02*
X114730572Y-83977302D01*
X114730572Y-83977302D02*
X114682953Y-84072540D01*
X114682953Y-84072540D02*
X114682953Y-84263016D01*
X114682953Y-84263016D02*
X114730572Y-84358254D01*
X114730572Y-84358254D02*
X114778191Y-84405873D01*
X114778191Y-84405873D02*
X114873429Y-84453492D01*
X114873429Y-84453492D02*
X115111524Y-84453492D01*
X115111524Y-84453492D02*
X115206762Y-84405873D01*
X115206762Y-84405873D02*
X115254381Y-84358254D01*
X115254381Y-84358254D02*
X115302000Y-84263016D01*
X115302000Y-84263016D02*
X115302000Y-84072540D01*
X115302000Y-84072540D02*
X115254381Y-83977302D01*
X115254381Y-83977302D02*
X115206762Y-83929683D01*
X115206762Y-83929683D02*
X115111524Y-83882064D01*
X111154819Y-87199999D02*
X111392914Y-87199999D01*
X111297676Y-87438094D02*
X111392914Y-87199999D01*
X111392914Y-87199999D02*
X111297676Y-86961904D01*
X111583390Y-87342856D02*
X111392914Y-87199999D01*
X111392914Y-87199999D02*
X111583390Y-87057142D01*
X111234353Y-87847537D02*
X111472448Y-87847537D01*
X111377210Y-88085632D02*
X111472448Y-87847537D01*
X111472448Y-87847537D02*
X111377210Y-87609442D01*
X111662924Y-87990394D02*
X111472448Y-87847537D01*
X111472448Y-87847537D02*
X111662924Y-87704680D01*
X152878628Y-79426190D02*
X153354819Y-79426190D01*
X152354819Y-79759523D02*
X152878628Y-79426190D01*
X152878628Y-79426190D02*
X152354819Y-79092857D01*
X153354819Y-78235714D02*
X153354819Y-78807142D01*
X153354819Y-78521428D02*
X152354819Y-78521428D01*
X152354819Y-78521428D02*
X152497676Y-78616666D01*
X152497676Y-78616666D02*
X152592914Y-78711904D01*
X152592914Y-78711904D02*
X152640533Y-78807142D01*
X103690475Y-95354819D02*
X103357142Y-94878628D01*
X103119047Y-95354819D02*
X103119047Y-94354819D01*
X103119047Y-94354819D02*
X103499999Y-94354819D01*
X103499999Y-94354819D02*
X103595237Y-94402438D01*
X103595237Y-94402438D02*
X103642856Y-94450057D01*
X103642856Y-94450057D02*
X103690475Y-94545295D01*
X103690475Y-94545295D02*
X103690475Y-94688152D01*
X103690475Y-94688152D02*
X103642856Y-94783390D01*
X103642856Y-94783390D02*
X103595237Y-94831009D01*
X103595237Y-94831009D02*
X103499999Y-94878628D01*
X103499999Y-94878628D02*
X103119047Y-94878628D01*
X104119047Y-94831009D02*
X104452380Y-94831009D01*
X104595237Y-95354819D02*
X104119047Y-95354819D01*
X104119047Y-95354819D02*
X104119047Y-94354819D01*
X104119047Y-94354819D02*
X104595237Y-94354819D01*
X105357142Y-94831009D02*
X105023809Y-94831009D01*
X105023809Y-95354819D02*
X105023809Y-94354819D01*
X105023809Y-94354819D02*
X105499999Y-94354819D01*
X106023809Y-94354819D02*
X106023809Y-94592914D01*
X105785714Y-94497676D02*
X106023809Y-94592914D01*
X106023809Y-94592914D02*
X106261904Y-94497676D01*
X105880952Y-94783390D02*
X106023809Y-94592914D01*
X106023809Y-94592914D02*
X106166666Y-94783390D01*
X106785714Y-94354819D02*
X106785714Y-94592914D01*
X106547619Y-94497676D02*
X106785714Y-94592914D01*
X106785714Y-94592914D02*
X107023809Y-94497676D01*
X106642857Y-94783390D02*
X106785714Y-94592914D01*
X106785714Y-94592914D02*
X106928571Y-94783390D01*
X107309524Y-94354819D02*
X107928571Y-94354819D01*
X107928571Y-94354819D02*
X107595238Y-94735771D01*
X107595238Y-94735771D02*
X107738095Y-94735771D01*
X107738095Y-94735771D02*
X107833333Y-94783390D01*
X107833333Y-94783390D02*
X107880952Y-94831009D01*
X107880952Y-94831009D02*
X107928571Y-94926247D01*
X107928571Y-94926247D02*
X107928571Y-95164342D01*
X107928571Y-95164342D02*
X107880952Y-95259580D01*
X107880952Y-95259580D02*
X107833333Y-95307200D01*
X107833333Y-95307200D02*
X107738095Y-95354819D01*
X107738095Y-95354819D02*
X107452381Y-95354819D01*
X107452381Y-95354819D02*
X107357143Y-95307200D01*
X107357143Y-95307200D02*
X107309524Y-95259580D01*
X154984819Y-107480357D02*
X154508628Y-107813690D01*
X154984819Y-108051785D02*
X153984819Y-108051785D01*
X153984819Y-108051785D02*
X153984819Y-107670833D01*
X153984819Y-107670833D02*
X154032438Y-107575595D01*
X154032438Y-107575595D02*
X154080057Y-107527976D01*
X154080057Y-107527976D02*
X154175295Y-107480357D01*
X154175295Y-107480357D02*
X154318152Y-107480357D01*
X154318152Y-107480357D02*
X154413390Y-107527976D01*
X154413390Y-107527976D02*
X154461009Y-107575595D01*
X154461009Y-107575595D02*
X154508628Y-107670833D01*
X154508628Y-107670833D02*
X154508628Y-108051785D01*
X154080057Y-107099404D02*
X154032438Y-107051785D01*
X154032438Y-107051785D02*
X153984819Y-106956547D01*
X153984819Y-106956547D02*
X153984819Y-106718452D01*
X153984819Y-106718452D02*
X154032438Y-106623214D01*
X154032438Y-106623214D02*
X154080057Y-106575595D01*
X154080057Y-106575595D02*
X154175295Y-106527976D01*
X154175295Y-106527976D02*
X154270533Y-106527976D01*
X154270533Y-106527976D02*
X154413390Y-106575595D01*
X154413390Y-106575595D02*
X154984819Y-107147023D01*
X154984819Y-107147023D02*
X154984819Y-106527976D01*
X154318152Y-105670833D02*
X154984819Y-105670833D01*
X153937200Y-105908928D02*
X154651485Y-106147023D01*
X154651485Y-106147023D02*
X154651485Y-105527976D01*
X150849580Y-81880357D02*
X150897200Y-81927976D01*
X150897200Y-81927976D02*
X150944819Y-82070833D01*
X150944819Y-82070833D02*
X150944819Y-82166071D01*
X150944819Y-82166071D02*
X150897200Y-82308928D01*
X150897200Y-82308928D02*
X150801961Y-82404166D01*
X150801961Y-82404166D02*
X150706723Y-82451785D01*
X150706723Y-82451785D02*
X150516247Y-82499404D01*
X150516247Y-82499404D02*
X150373390Y-82499404D01*
X150373390Y-82499404D02*
X150182914Y-82451785D01*
X150182914Y-82451785D02*
X150087676Y-82404166D01*
X150087676Y-82404166D02*
X149992438Y-82308928D01*
X149992438Y-82308928D02*
X149944819Y-82166071D01*
X149944819Y-82166071D02*
X149944819Y-82070833D01*
X149944819Y-82070833D02*
X149992438Y-81927976D01*
X149992438Y-81927976D02*
X150040057Y-81880357D01*
X149944819Y-81547023D02*
X149944819Y-80927976D01*
X149944819Y-80927976D02*
X150325771Y-81261309D01*
X150325771Y-81261309D02*
X150325771Y-81118452D01*
X150325771Y-81118452D02*
X150373390Y-81023214D01*
X150373390Y-81023214D02*
X150421009Y-80975595D01*
X150421009Y-80975595D02*
X150516247Y-80927976D01*
X150516247Y-80927976D02*
X150754342Y-80927976D01*
X150754342Y-80927976D02*
X150849580Y-80975595D01*
X150849580Y-80975595D02*
X150897200Y-81023214D01*
X150897200Y-81023214D02*
X150944819Y-81118452D01*
X150944819Y-81118452D02*
X150944819Y-81404166D01*
X150944819Y-81404166D02*
X150897200Y-81499404D01*
X150897200Y-81499404D02*
X150849580Y-81547023D01*
X150944819Y-79975595D02*
X150944819Y-80547023D01*
X150944819Y-80261309D02*
X149944819Y-80261309D01*
X149944819Y-80261309D02*
X150087676Y-80356547D01*
X150087676Y-80356547D02*
X150182914Y-80451785D01*
X150182914Y-80451785D02*
X150230533Y-80547023D01*
X151966833Y-65654819D02*
X151633500Y-65178628D01*
X151395405Y-65654819D02*
X151395405Y-64654819D01*
X151395405Y-64654819D02*
X151776357Y-64654819D01*
X151776357Y-64654819D02*
X151871595Y-64702438D01*
X151871595Y-64702438D02*
X151919214Y-64750057D01*
X151919214Y-64750057D02*
X151966833Y-64845295D01*
X151966833Y-64845295D02*
X151966833Y-64988152D01*
X151966833Y-64988152D02*
X151919214Y-65083390D01*
X151919214Y-65083390D02*
X151871595Y-65131009D01*
X151871595Y-65131009D02*
X151776357Y-65178628D01*
X151776357Y-65178628D02*
X151395405Y-65178628D01*
X152871595Y-64654819D02*
X152395405Y-64654819D01*
X152395405Y-64654819D02*
X152347786Y-65131009D01*
X152347786Y-65131009D02*
X152395405Y-65083390D01*
X152395405Y-65083390D02*
X152490643Y-65035771D01*
X152490643Y-65035771D02*
X152728738Y-65035771D01*
X152728738Y-65035771D02*
X152823976Y-65083390D01*
X152823976Y-65083390D02*
X152871595Y-65131009D01*
X152871595Y-65131009D02*
X152919214Y-65226247D01*
X152919214Y-65226247D02*
X152919214Y-65464342D01*
X152919214Y-65464342D02*
X152871595Y-65559580D01*
X152871595Y-65559580D02*
X152823976Y-65607200D01*
X152823976Y-65607200D02*
X152728738Y-65654819D01*
X152728738Y-65654819D02*
X152490643Y-65654819D01*
X152490643Y-65654819D02*
X152395405Y-65607200D01*
X152395405Y-65607200D02*
X152347786Y-65559580D01*
X141666666Y-117554819D02*
X141666666Y-118269104D01*
X141666666Y-118269104D02*
X141619047Y-118411961D01*
X141619047Y-118411961D02*
X141523809Y-118507200D01*
X141523809Y-118507200D02*
X141380952Y-118554819D01*
X141380952Y-118554819D02*
X141285714Y-118554819D01*
X142095238Y-117650057D02*
X142142857Y-117602438D01*
X142142857Y-117602438D02*
X142238095Y-117554819D01*
X142238095Y-117554819D02*
X142476190Y-117554819D01*
X142476190Y-117554819D02*
X142571428Y-117602438D01*
X142571428Y-117602438D02*
X142619047Y-117650057D01*
X142619047Y-117650057D02*
X142666666Y-117745295D01*
X142666666Y-117745295D02*
X142666666Y-117840533D01*
X142666666Y-117840533D02*
X142619047Y-117983390D01*
X142619047Y-117983390D02*
X142047619Y-118554819D01*
X142047619Y-118554819D02*
X142666666Y-118554819D01*
X161633333Y-53654809D02*
X161157143Y-53654809D01*
X161157143Y-53654809D02*
X161157143Y-52654809D01*
X162490476Y-53654809D02*
X161919048Y-53654809D01*
X162204762Y-53654809D02*
X162204762Y-52654809D01*
X162204762Y-52654809D02*
X162109524Y-52797666D01*
X162109524Y-52797666D02*
X162014286Y-52892904D01*
X162014286Y-52892904D02*
X161919048Y-52940523D01*
X170078142Y-82915470D02*
X170030523Y-82963090D01*
X170030523Y-82963090D02*
X169887666Y-83010709D01*
X169887666Y-83010709D02*
X169792428Y-83010709D01*
X169792428Y-83010709D02*
X169649571Y-82963090D01*
X169649571Y-82963090D02*
X169554333Y-82867851D01*
X169554333Y-82867851D02*
X169506714Y-82772613D01*
X169506714Y-82772613D02*
X169459095Y-82582137D01*
X169459095Y-82582137D02*
X169459095Y-82439280D01*
X169459095Y-82439280D02*
X169506714Y-82248804D01*
X169506714Y-82248804D02*
X169554333Y-82153566D01*
X169554333Y-82153566D02*
X169649571Y-82058328D01*
X169649571Y-82058328D02*
X169792428Y-82010709D01*
X169792428Y-82010709D02*
X169887666Y-82010709D01*
X169887666Y-82010709D02*
X170030523Y-82058328D01*
X170030523Y-82058328D02*
X170078142Y-82105947D01*
X171030523Y-83010709D02*
X170459095Y-83010709D01*
X170744809Y-83010709D02*
X170744809Y-82010709D01*
X170744809Y-82010709D02*
X170649571Y-82153566D01*
X170649571Y-82153566D02*
X170554333Y-82248804D01*
X170554333Y-82248804D02*
X170459095Y-82296423D01*
X171649571Y-82010709D02*
X171744809Y-82010709D01*
X171744809Y-82010709D02*
X171840047Y-82058328D01*
X171840047Y-82058328D02*
X171887666Y-82105947D01*
X171887666Y-82105947D02*
X171935285Y-82201185D01*
X171935285Y-82201185D02*
X171982904Y-82391661D01*
X171982904Y-82391661D02*
X171982904Y-82629756D01*
X171982904Y-82629756D02*
X171935285Y-82820232D01*
X171935285Y-82820232D02*
X171887666Y-82915470D01*
X171887666Y-82915470D02*
X171840047Y-82963090D01*
X171840047Y-82963090D02*
X171744809Y-83010709D01*
X171744809Y-83010709D02*
X171649571Y-83010709D01*
X171649571Y-83010709D02*
X171554333Y-82963090D01*
X171554333Y-82963090D02*
X171506714Y-82915470D01*
X171506714Y-82915470D02*
X171459095Y-82820232D01*
X171459095Y-82820232D02*
X171411476Y-82629756D01*
X171411476Y-82629756D02*
X171411476Y-82391661D01*
X171411476Y-82391661D02*
X171459095Y-82201185D01*
X171459095Y-82201185D02*
X171506714Y-82105947D01*
X171506714Y-82105947D02*
X171554333Y-82058328D01*
X171554333Y-82058328D02*
X171649571Y-82010709D01*
X158557142Y-93854819D02*
X158223809Y-93378628D01*
X157985714Y-93854819D02*
X157985714Y-92854819D01*
X157985714Y-92854819D02*
X158366666Y-92854819D01*
X158366666Y-92854819D02*
X158461904Y-92902438D01*
X158461904Y-92902438D02*
X158509523Y-92950057D01*
X158509523Y-92950057D02*
X158557142Y-93045295D01*
X158557142Y-93045295D02*
X158557142Y-93188152D01*
X158557142Y-93188152D02*
X158509523Y-93283390D01*
X158509523Y-93283390D02*
X158461904Y-93331009D01*
X158461904Y-93331009D02*
X158366666Y-93378628D01*
X158366666Y-93378628D02*
X157985714Y-93378628D01*
X159509523Y-93854819D02*
X158938095Y-93854819D01*
X159223809Y-93854819D02*
X159223809Y-92854819D01*
X159223809Y-92854819D02*
X159128571Y-92997676D01*
X159128571Y-92997676D02*
X159033333Y-93092914D01*
X159033333Y-93092914D02*
X158938095Y-93140533D01*
X160414285Y-92854819D02*
X159938095Y-92854819D01*
X159938095Y-92854819D02*
X159890476Y-93331009D01*
X159890476Y-93331009D02*
X159938095Y-93283390D01*
X159938095Y-93283390D02*
X160033333Y-93235771D01*
X160033333Y-93235771D02*
X160271428Y-93235771D01*
X160271428Y-93235771D02*
X160366666Y-93283390D01*
X160366666Y-93283390D02*
X160414285Y-93331009D01*
X160414285Y-93331009D02*
X160461904Y-93426247D01*
X160461904Y-93426247D02*
X160461904Y-93664342D01*
X160461904Y-93664342D02*
X160414285Y-93759580D01*
X160414285Y-93759580D02*
X160366666Y-93807200D01*
X160366666Y-93807200D02*
X160271428Y-93854819D01*
X160271428Y-93854819D02*
X160033333Y-93854819D01*
X160033333Y-93854819D02*
X159938095Y-93807200D01*
X159938095Y-93807200D02*
X159890476Y-93759580D01*
X140657142Y-86054819D02*
X140323809Y-85578628D01*
X140085714Y-86054819D02*
X140085714Y-85054819D01*
X140085714Y-85054819D02*
X140466666Y-85054819D01*
X140466666Y-85054819D02*
X140561904Y-85102438D01*
X140561904Y-85102438D02*
X140609523Y-85150057D01*
X140609523Y-85150057D02*
X140657142Y-85245295D01*
X140657142Y-85245295D02*
X140657142Y-85388152D01*
X140657142Y-85388152D02*
X140609523Y-85483390D01*
X140609523Y-85483390D02*
X140561904Y-85531009D01*
X140561904Y-85531009D02*
X140466666Y-85578628D01*
X140466666Y-85578628D02*
X140085714Y-85578628D01*
X141609523Y-86054819D02*
X141038095Y-86054819D01*
X141323809Y-86054819D02*
X141323809Y-85054819D01*
X141323809Y-85054819D02*
X141228571Y-85197676D01*
X141228571Y-85197676D02*
X141133333Y-85292914D01*
X141133333Y-85292914D02*
X141038095Y-85340533D01*
X142085714Y-86054819D02*
X142276190Y-86054819D01*
X142276190Y-86054819D02*
X142371428Y-86007200D01*
X142371428Y-86007200D02*
X142419047Y-85959580D01*
X142419047Y-85959580D02*
X142514285Y-85816723D01*
X142514285Y-85816723D02*
X142561904Y-85626247D01*
X142561904Y-85626247D02*
X142561904Y-85245295D01*
X142561904Y-85245295D02*
X142514285Y-85150057D01*
X142514285Y-85150057D02*
X142466666Y-85102438D01*
X142466666Y-85102438D02*
X142371428Y-85054819D01*
X142371428Y-85054819D02*
X142180952Y-85054819D01*
X142180952Y-85054819D02*
X142085714Y-85102438D01*
X142085714Y-85102438D02*
X142038095Y-85150057D01*
X142038095Y-85150057D02*
X141990476Y-85245295D01*
X141990476Y-85245295D02*
X141990476Y-85483390D01*
X141990476Y-85483390D02*
X142038095Y-85578628D01*
X142038095Y-85578628D02*
X142085714Y-85626247D01*
X142085714Y-85626247D02*
X142180952Y-85673866D01*
X142180952Y-85673866D02*
X142371428Y-85673866D01*
X142371428Y-85673866D02*
X142466666Y-85626247D01*
X142466666Y-85626247D02*
X142514285Y-85578628D01*
X142514285Y-85578628D02*
X142561904Y-85483390D01*
X188882680Y-54800595D02*
X188073157Y-54800595D01*
X188073157Y-54800595D02*
X187977919Y-54848214D01*
X187977919Y-54848214D02*
X187930300Y-54895833D01*
X187930300Y-54895833D02*
X187882680Y-54991071D01*
X187882680Y-54991071D02*
X187882680Y-55181547D01*
X187882680Y-55181547D02*
X187930300Y-55276785D01*
X187930300Y-55276785D02*
X187977919Y-55324404D01*
X187977919Y-55324404D02*
X188073157Y-55372023D01*
X188073157Y-55372023D02*
X188882680Y-55372023D01*
X188882680Y-56276785D02*
X188882680Y-56086309D01*
X188882680Y-56086309D02*
X188835061Y-55991071D01*
X188835061Y-55991071D02*
X188787442Y-55943452D01*
X188787442Y-55943452D02*
X188644585Y-55848214D01*
X188644585Y-55848214D02*
X188454109Y-55800595D01*
X188454109Y-55800595D02*
X188073157Y-55800595D01*
X188073157Y-55800595D02*
X187977919Y-55848214D01*
X187977919Y-55848214D02*
X187930300Y-55895833D01*
X187930300Y-55895833D02*
X187882680Y-55991071D01*
X187882680Y-55991071D02*
X187882680Y-56181547D01*
X187882680Y-56181547D02*
X187930300Y-56276785D01*
X187930300Y-56276785D02*
X187977919Y-56324404D01*
X187977919Y-56324404D02*
X188073157Y-56372023D01*
X188073157Y-56372023D02*
X188311252Y-56372023D01*
X188311252Y-56372023D02*
X188406490Y-56324404D01*
X188406490Y-56324404D02*
X188454109Y-56276785D01*
X188454109Y-56276785D02*
X188501728Y-56181547D01*
X188501728Y-56181547D02*
X188501728Y-55991071D01*
X188501728Y-55991071D02*
X188454109Y-55895833D01*
X188454109Y-55895833D02*
X188406490Y-55848214D01*
X188406490Y-55848214D02*
X188311252Y-55800595D01*
X182588219Y-50482499D02*
X182826314Y-50482499D01*
X182731076Y-50720594D02*
X182826314Y-50482499D01*
X182826314Y-50482499D02*
X182731076Y-50244404D01*
X183016790Y-50625356D02*
X182826314Y-50482499D01*
X182826314Y-50482499D02*
X183016790Y-50339642D01*
X183678580Y-50482500D02*
X183440485Y-50482500D01*
X183535723Y-50244405D02*
X183440485Y-50482500D01*
X183440485Y-50482500D02*
X183535723Y-50720595D01*
X183250009Y-50339643D02*
X183440485Y-50482500D01*
X183440485Y-50482500D02*
X183250009Y-50625357D01*
X191042319Y-113824404D02*
X191851842Y-113824404D01*
X191851842Y-113824404D02*
X191947080Y-113776785D01*
X191947080Y-113776785D02*
X191994700Y-113729166D01*
X191994700Y-113729166D02*
X192042319Y-113633928D01*
X192042319Y-113633928D02*
X192042319Y-113443452D01*
X192042319Y-113443452D02*
X191994700Y-113348214D01*
X191994700Y-113348214D02*
X191947080Y-113300595D01*
X191947080Y-113300595D02*
X191851842Y-113252976D01*
X191851842Y-113252976D02*
X191042319Y-113252976D01*
X191042319Y-112300595D02*
X191042319Y-112776785D01*
X191042319Y-112776785D02*
X191518509Y-112824404D01*
X191518509Y-112824404D02*
X191470890Y-112776785D01*
X191470890Y-112776785D02*
X191423271Y-112681547D01*
X191423271Y-112681547D02*
X191423271Y-112443452D01*
X191423271Y-112443452D02*
X191470890Y-112348214D01*
X191470890Y-112348214D02*
X191518509Y-112300595D01*
X191518509Y-112300595D02*
X191613747Y-112252976D01*
X191613747Y-112252976D02*
X191851842Y-112252976D01*
X191851842Y-112252976D02*
X191947080Y-112300595D01*
X191947080Y-112300595D02*
X191994700Y-112348214D01*
X191994700Y-112348214D02*
X192042319Y-112443452D01*
X192042319Y-112443452D02*
X192042319Y-112681547D01*
X192042319Y-112681547D02*
X191994700Y-112776785D01*
X191994700Y-112776785D02*
X191947080Y-112824404D01*
X195454819Y-118142499D02*
X195692914Y-118142499D01*
X195597676Y-118380594D02*
X195692914Y-118142499D01*
X195692914Y-118142499D02*
X195597676Y-117904404D01*
X195883390Y-118285356D02*
X195692914Y-118142499D01*
X195692914Y-118142499D02*
X195883390Y-117999642D01*
X196080719Y-118142499D02*
X196318814Y-118142499D01*
X196223576Y-118380594D02*
X196318814Y-118142499D01*
X196318814Y-118142499D02*
X196223576Y-117904404D01*
X196509290Y-118285356D02*
X196318814Y-118142499D01*
X196318814Y-118142499D02*
X196509290Y-117999642D01*
X149138095Y-92654819D02*
X149138095Y-93464342D01*
X149138095Y-93464342D02*
X149185714Y-93559580D01*
X149185714Y-93559580D02*
X149233333Y-93607200D01*
X149233333Y-93607200D02*
X149328571Y-93654819D01*
X149328571Y-93654819D02*
X149519047Y-93654819D01*
X149519047Y-93654819D02*
X149614285Y-93607200D01*
X149614285Y-93607200D02*
X149661904Y-93559580D01*
X149661904Y-93559580D02*
X149709523Y-93464342D01*
X149709523Y-93464342D02*
X149709523Y-92654819D01*
X150709523Y-93654819D02*
X150138095Y-93654819D01*
X150423809Y-93654819D02*
X150423809Y-92654819D01*
X150423809Y-92654819D02*
X150328571Y-92797676D01*
X150328571Y-92797676D02*
X150233333Y-92892914D01*
X150233333Y-92892914D02*
X150138095Y-92940533D01*
X166345180Y-104561905D02*
X165535657Y-104561905D01*
X165535657Y-104561905D02*
X165440419Y-104609524D01*
X165440419Y-104609524D02*
X165392800Y-104657143D01*
X165392800Y-104657143D02*
X165345180Y-104752381D01*
X165345180Y-104752381D02*
X165345180Y-104942857D01*
X165345180Y-104942857D02*
X165392800Y-105038095D01*
X165392800Y-105038095D02*
X165440419Y-105085714D01*
X165440419Y-105085714D02*
X165535657Y-105133333D01*
X165535657Y-105133333D02*
X166345180Y-105133333D01*
X165345180Y-106133333D02*
X165345180Y-105561905D01*
X165345180Y-105847619D02*
X166345180Y-105847619D01*
X166345180Y-105847619D02*
X166202323Y-105752381D01*
X166202323Y-105752381D02*
X166107085Y-105657143D01*
X166107085Y-105657143D02*
X166059466Y-105561905D01*
X166345180Y-106752381D02*
X166345180Y-106847619D01*
X166345180Y-106847619D02*
X166297561Y-106942857D01*
X166297561Y-106942857D02*
X166249942Y-106990476D01*
X166249942Y-106990476D02*
X166154704Y-107038095D01*
X166154704Y-107038095D02*
X165964228Y-107085714D01*
X165964228Y-107085714D02*
X165726133Y-107085714D01*
X165726133Y-107085714D02*
X165535657Y-107038095D01*
X165535657Y-107038095D02*
X165440419Y-106990476D01*
X165440419Y-106990476D02*
X165392800Y-106942857D01*
X165392800Y-106942857D02*
X165345180Y-106847619D01*
X165345180Y-106847619D02*
X165345180Y-106752381D01*
X165345180Y-106752381D02*
X165392800Y-106657143D01*
X165392800Y-106657143D02*
X165440419Y-106609524D01*
X165440419Y-106609524D02*
X165535657Y-106561905D01*
X165535657Y-106561905D02*
X165726133Y-106514286D01*
X165726133Y-106514286D02*
X165964228Y-106514286D01*
X165964228Y-106514286D02*
X166154704Y-106561905D01*
X166154704Y-106561905D02*
X166249942Y-106609524D01*
X166249942Y-106609524D02*
X166297561Y-106657143D01*
X166297561Y-106657143D02*
X166345180Y-106752381D01*
X168836219Y-102821849D02*
X169074314Y-102821849D01*
X168979076Y-103059944D02*
X169074314Y-102821849D01*
X169074314Y-102821849D02*
X168979076Y-102583754D01*
X169264790Y-102964706D02*
X169074314Y-102821849D01*
X169074314Y-102821849D02*
X169264790Y-102678992D01*
X169926580Y-102821850D02*
X169688485Y-102821850D01*
X169783723Y-102583755D02*
X169688485Y-102821850D01*
X169688485Y-102821850D02*
X169783723Y-103059945D01*
X169498009Y-102678993D02*
X169688485Y-102821850D01*
X169688485Y-102821850D02*
X169498009Y-102964707D01*
X138909580Y-89955357D02*
X138957200Y-90002976D01*
X138957200Y-90002976D02*
X139004819Y-90145833D01*
X139004819Y-90145833D02*
X139004819Y-90241071D01*
X139004819Y-90241071D02*
X138957200Y-90383928D01*
X138957200Y-90383928D02*
X138861961Y-90479166D01*
X138861961Y-90479166D02*
X138766723Y-90526785D01*
X138766723Y-90526785D02*
X138576247Y-90574404D01*
X138576247Y-90574404D02*
X138433390Y-90574404D01*
X138433390Y-90574404D02*
X138242914Y-90526785D01*
X138242914Y-90526785D02*
X138147676Y-90479166D01*
X138147676Y-90479166D02*
X138052438Y-90383928D01*
X138052438Y-90383928D02*
X138004819Y-90241071D01*
X138004819Y-90241071D02*
X138004819Y-90145833D01*
X138004819Y-90145833D02*
X138052438Y-90002976D01*
X138052438Y-90002976D02*
X138100057Y-89955357D01*
X138004819Y-89622023D02*
X138004819Y-89002976D01*
X138004819Y-89002976D02*
X138385771Y-89336309D01*
X138385771Y-89336309D02*
X138385771Y-89193452D01*
X138385771Y-89193452D02*
X138433390Y-89098214D01*
X138433390Y-89098214D02*
X138481009Y-89050595D01*
X138481009Y-89050595D02*
X138576247Y-89002976D01*
X138576247Y-89002976D02*
X138814342Y-89002976D01*
X138814342Y-89002976D02*
X138909580Y-89050595D01*
X138909580Y-89050595D02*
X138957200Y-89098214D01*
X138957200Y-89098214D02*
X139004819Y-89193452D01*
X139004819Y-89193452D02*
X139004819Y-89479166D01*
X139004819Y-89479166D02*
X138957200Y-89574404D01*
X138957200Y-89574404D02*
X138909580Y-89622023D01*
X138004819Y-88098214D02*
X138004819Y-88574404D01*
X138004819Y-88574404D02*
X138481009Y-88622023D01*
X138481009Y-88622023D02*
X138433390Y-88574404D01*
X138433390Y-88574404D02*
X138385771Y-88479166D01*
X138385771Y-88479166D02*
X138385771Y-88241071D01*
X138385771Y-88241071D02*
X138433390Y-88145833D01*
X138433390Y-88145833D02*
X138481009Y-88098214D01*
X138481009Y-88098214D02*
X138576247Y-88050595D01*
X138576247Y-88050595D02*
X138814342Y-88050595D01*
X138814342Y-88050595D02*
X138909580Y-88098214D01*
X138909580Y-88098214D02*
X138957200Y-88145833D01*
X138957200Y-88145833D02*
X139004819Y-88241071D01*
X139004819Y-88241071D02*
X139004819Y-88479166D01*
X139004819Y-88479166D02*
X138957200Y-88574404D01*
X138957200Y-88574404D02*
X138909580Y-88622023D01*
X159257142Y-88559580D02*
X159209523Y-88607200D01*
X159209523Y-88607200D02*
X159066666Y-88654819D01*
X159066666Y-88654819D02*
X158971428Y-88654819D01*
X158971428Y-88654819D02*
X158828571Y-88607200D01*
X158828571Y-88607200D02*
X158733333Y-88511961D01*
X158733333Y-88511961D02*
X158685714Y-88416723D01*
X158685714Y-88416723D02*
X158638095Y-88226247D01*
X158638095Y-88226247D02*
X158638095Y-88083390D01*
X158638095Y-88083390D02*
X158685714Y-87892914D01*
X158685714Y-87892914D02*
X158733333Y-87797676D01*
X158733333Y-87797676D02*
X158828571Y-87702438D01*
X158828571Y-87702438D02*
X158971428Y-87654819D01*
X158971428Y-87654819D02*
X159066666Y-87654819D01*
X159066666Y-87654819D02*
X159209523Y-87702438D01*
X159209523Y-87702438D02*
X159257142Y-87750057D01*
X159638095Y-87750057D02*
X159685714Y-87702438D01*
X159685714Y-87702438D02*
X159780952Y-87654819D01*
X159780952Y-87654819D02*
X160019047Y-87654819D01*
X160019047Y-87654819D02*
X160114285Y-87702438D01*
X160114285Y-87702438D02*
X160161904Y-87750057D01*
X160161904Y-87750057D02*
X160209523Y-87845295D01*
X160209523Y-87845295D02*
X160209523Y-87940533D01*
X160209523Y-87940533D02*
X160161904Y-88083390D01*
X160161904Y-88083390D02*
X159590476Y-88654819D01*
X159590476Y-88654819D02*
X160209523Y-88654819D01*
X160828571Y-87654819D02*
X160923809Y-87654819D01*
X160923809Y-87654819D02*
X161019047Y-87702438D01*
X161019047Y-87702438D02*
X161066666Y-87750057D01*
X161066666Y-87750057D02*
X161114285Y-87845295D01*
X161114285Y-87845295D02*
X161161904Y-88035771D01*
X161161904Y-88035771D02*
X161161904Y-88273866D01*
X161161904Y-88273866D02*
X161114285Y-88464342D01*
X161114285Y-88464342D02*
X161066666Y-88559580D01*
X161066666Y-88559580D02*
X161019047Y-88607200D01*
X161019047Y-88607200D02*
X160923809Y-88654819D01*
X160923809Y-88654819D02*
X160828571Y-88654819D01*
X160828571Y-88654819D02*
X160733333Y-88607200D01*
X160733333Y-88607200D02*
X160685714Y-88559580D01*
X160685714Y-88559580D02*
X160638095Y-88464342D01*
X160638095Y-88464342D02*
X160590476Y-88273866D01*
X160590476Y-88273866D02*
X160590476Y-88035771D01*
X160590476Y-88035771D02*
X160638095Y-87845295D01*
X160638095Y-87845295D02*
X160685714Y-87750057D01*
X160685714Y-87750057D02*
X160733333Y-87702438D01*
X160733333Y-87702438D02*
X160828571Y-87654819D01*
X122290475Y-67754819D02*
X121957142Y-67278628D01*
X121719047Y-67754819D02*
X121719047Y-66754819D01*
X121719047Y-66754819D02*
X122099999Y-66754819D01*
X122099999Y-66754819D02*
X122195237Y-66802438D01*
X122195237Y-66802438D02*
X122242856Y-66850057D01*
X122242856Y-66850057D02*
X122290475Y-66945295D01*
X122290475Y-66945295D02*
X122290475Y-67088152D01*
X122290475Y-67088152D02*
X122242856Y-67183390D01*
X122242856Y-67183390D02*
X122195237Y-67231009D01*
X122195237Y-67231009D02*
X122099999Y-67278628D01*
X122099999Y-67278628D02*
X121719047Y-67278628D01*
X122719047Y-67231009D02*
X123052380Y-67231009D01*
X123195237Y-67754819D02*
X122719047Y-67754819D01*
X122719047Y-67754819D02*
X122719047Y-66754819D01*
X122719047Y-66754819D02*
X123195237Y-66754819D01*
X123957142Y-67231009D02*
X123623809Y-67231009D01*
X123623809Y-67754819D02*
X123623809Y-66754819D01*
X123623809Y-66754819D02*
X124099999Y-66754819D01*
X124623809Y-66754819D02*
X124623809Y-66992914D01*
X124385714Y-66897676D02*
X124623809Y-66992914D01*
X124623809Y-66992914D02*
X124861904Y-66897676D01*
X124480952Y-67183390D02*
X124623809Y-66992914D01*
X124623809Y-66992914D02*
X124766666Y-67183390D01*
X125385714Y-66754819D02*
X125385714Y-66992914D01*
X125147619Y-66897676D02*
X125385714Y-66992914D01*
X125385714Y-66992914D02*
X125623809Y-66897676D01*
X125242857Y-67183390D02*
X125385714Y-66992914D01*
X125385714Y-66992914D02*
X125528571Y-67183390D01*
X125957143Y-66850057D02*
X126004762Y-66802438D01*
X126004762Y-66802438D02*
X126100000Y-66754819D01*
X126100000Y-66754819D02*
X126338095Y-66754819D01*
X126338095Y-66754819D02*
X126433333Y-66802438D01*
X126433333Y-66802438D02*
X126480952Y-66850057D01*
X126480952Y-66850057D02*
X126528571Y-66945295D01*
X126528571Y-66945295D02*
X126528571Y-67040533D01*
X126528571Y-67040533D02*
X126480952Y-67183390D01*
X126480952Y-67183390D02*
X125909524Y-67754819D01*
X125909524Y-67754819D02*
X126528571Y-67754819D01*
X149721666Y-50004819D02*
X149721666Y-50719104D01*
X149721666Y-50719104D02*
X149674047Y-50861961D01*
X149674047Y-50861961D02*
X149578809Y-50957200D01*
X149578809Y-50957200D02*
X149435952Y-51004819D01*
X149435952Y-51004819D02*
X149340714Y-51004819D01*
X150721666Y-51004819D02*
X150150238Y-51004819D01*
X150435952Y-51004819D02*
X150435952Y-50004819D01*
X150435952Y-50004819D02*
X150340714Y-50147676D01*
X150340714Y-50147676D02*
X150245476Y-50242914D01*
X150245476Y-50242914D02*
X150150238Y-50290533D01*
X190792319Y-90824404D02*
X191601842Y-90824404D01*
X191601842Y-90824404D02*
X191697080Y-90776785D01*
X191697080Y-90776785D02*
X191744700Y-90729166D01*
X191744700Y-90729166D02*
X191792319Y-90633928D01*
X191792319Y-90633928D02*
X191792319Y-90443452D01*
X191792319Y-90443452D02*
X191744700Y-90348214D01*
X191744700Y-90348214D02*
X191697080Y-90300595D01*
X191697080Y-90300595D02*
X191601842Y-90252976D01*
X191601842Y-90252976D02*
X190792319Y-90252976D01*
X191125652Y-89348214D02*
X191792319Y-89348214D01*
X190744700Y-89586309D02*
X191458985Y-89824404D01*
X191458985Y-89824404D02*
X191458985Y-89205357D01*
X196080719Y-95099999D02*
X196318814Y-95099999D01*
X196223576Y-95338094D02*
X196318814Y-95099999D01*
X196318814Y-95099999D02*
X196223576Y-94861904D01*
X196509290Y-95242856D02*
X196318814Y-95099999D01*
X196318814Y-95099999D02*
X196509290Y-94957142D01*
X196754819Y-95099999D02*
X196992914Y-95099999D01*
X196897676Y-95338094D02*
X196992914Y-95099999D01*
X196992914Y-95099999D02*
X196897676Y-94861904D01*
X197183390Y-95242856D02*
X196992914Y-95099999D01*
X196992914Y-95099999D02*
X197183390Y-94957142D01*
X143166667Y-72157200D02*
X143309524Y-72204819D01*
X143309524Y-72204819D02*
X143547619Y-72204819D01*
X143547619Y-72204819D02*
X143642857Y-72157200D01*
X143642857Y-72157200D02*
X143690476Y-72109580D01*
X143690476Y-72109580D02*
X143738095Y-72014342D01*
X143738095Y-72014342D02*
X143738095Y-71919104D01*
X143738095Y-71919104D02*
X143690476Y-71823866D01*
X143690476Y-71823866D02*
X143642857Y-71776247D01*
X143642857Y-71776247D02*
X143547619Y-71728628D01*
X143547619Y-71728628D02*
X143357143Y-71681009D01*
X143357143Y-71681009D02*
X143261905Y-71633390D01*
X143261905Y-71633390D02*
X143214286Y-71585771D01*
X143214286Y-71585771D02*
X143166667Y-71490533D01*
X143166667Y-71490533D02*
X143166667Y-71395295D01*
X143166667Y-71395295D02*
X143214286Y-71300057D01*
X143214286Y-71300057D02*
X143261905Y-71252438D01*
X143261905Y-71252438D02*
X143357143Y-71204819D01*
X143357143Y-71204819D02*
X143595238Y-71204819D01*
X143595238Y-71204819D02*
X143738095Y-71252438D01*
X144071429Y-71204819D02*
X144309524Y-72204819D01*
X144309524Y-72204819D02*
X144500000Y-71490533D01*
X144500000Y-71490533D02*
X144690476Y-72204819D01*
X144690476Y-72204819D02*
X144928572Y-71204819D01*
X145833333Y-72204819D02*
X145261905Y-72204819D01*
X145547619Y-72204819D02*
X145547619Y-71204819D01*
X145547619Y-71204819D02*
X145452381Y-71347676D01*
X145452381Y-71347676D02*
X145357143Y-71442914D01*
X145357143Y-71442914D02*
X145261905Y-71490533D01*
X146369580Y-81792857D02*
X146417200Y-81840476D01*
X146417200Y-81840476D02*
X146464819Y-81983333D01*
X146464819Y-81983333D02*
X146464819Y-82078571D01*
X146464819Y-82078571D02*
X146417200Y-82221428D01*
X146417200Y-82221428D02*
X146321961Y-82316666D01*
X146321961Y-82316666D02*
X146226723Y-82364285D01*
X146226723Y-82364285D02*
X146036247Y-82411904D01*
X146036247Y-82411904D02*
X145893390Y-82411904D01*
X145893390Y-82411904D02*
X145702914Y-82364285D01*
X145702914Y-82364285D02*
X145607676Y-82316666D01*
X145607676Y-82316666D02*
X145512438Y-82221428D01*
X145512438Y-82221428D02*
X145464819Y-82078571D01*
X145464819Y-82078571D02*
X145464819Y-81983333D01*
X145464819Y-81983333D02*
X145512438Y-81840476D01*
X145512438Y-81840476D02*
X145560057Y-81792857D01*
X145464819Y-81459523D02*
X145464819Y-80840476D01*
X145464819Y-80840476D02*
X145845771Y-81173809D01*
X145845771Y-81173809D02*
X145845771Y-81030952D01*
X145845771Y-81030952D02*
X145893390Y-80935714D01*
X145893390Y-80935714D02*
X145941009Y-80888095D01*
X145941009Y-80888095D02*
X146036247Y-80840476D01*
X146036247Y-80840476D02*
X146274342Y-80840476D01*
X146274342Y-80840476D02*
X146369580Y-80888095D01*
X146369580Y-80888095D02*
X146417200Y-80935714D01*
X146417200Y-80935714D02*
X146464819Y-81030952D01*
X146464819Y-81030952D02*
X146464819Y-81316666D01*
X146464819Y-81316666D02*
X146417200Y-81411904D01*
X146417200Y-81411904D02*
X146369580Y-81459523D01*
X145893390Y-80269047D02*
X145845771Y-80364285D01*
X145845771Y-80364285D02*
X145798152Y-80411904D01*
X145798152Y-80411904D02*
X145702914Y-80459523D01*
X145702914Y-80459523D02*
X145655295Y-80459523D01*
X145655295Y-80459523D02*
X145560057Y-80411904D01*
X145560057Y-80411904D02*
X145512438Y-80364285D01*
X145512438Y-80364285D02*
X145464819Y-80269047D01*
X145464819Y-80269047D02*
X145464819Y-80078571D01*
X145464819Y-80078571D02*
X145512438Y-79983333D01*
X145512438Y-79983333D02*
X145560057Y-79935714D01*
X145560057Y-79935714D02*
X145655295Y-79888095D01*
X145655295Y-79888095D02*
X145702914Y-79888095D01*
X145702914Y-79888095D02*
X145798152Y-79935714D01*
X145798152Y-79935714D02*
X145845771Y-79983333D01*
X145845771Y-79983333D02*
X145893390Y-80078571D01*
X145893390Y-80078571D02*
X145893390Y-80269047D01*
X145893390Y-80269047D02*
X145941009Y-80364285D01*
X145941009Y-80364285D02*
X145988628Y-80411904D01*
X145988628Y-80411904D02*
X146083866Y-80459523D01*
X146083866Y-80459523D02*
X146274342Y-80459523D01*
X146274342Y-80459523D02*
X146369580Y-80411904D01*
X146369580Y-80411904D02*
X146417200Y-80364285D01*
X146417200Y-80364285D02*
X146464819Y-80269047D01*
X146464819Y-80269047D02*
X146464819Y-80078571D01*
X146464819Y-80078571D02*
X146417200Y-79983333D01*
X146417200Y-79983333D02*
X146369580Y-79935714D01*
X146369580Y-79935714D02*
X146274342Y-79888095D01*
X146274342Y-79888095D02*
X146083866Y-79888095D01*
X146083866Y-79888095D02*
X145988628Y-79935714D01*
X145988628Y-79935714D02*
X145941009Y-79983333D01*
X145941009Y-79983333D02*
X145893390Y-80078571D01*
X151611905Y-115754819D02*
X151611905Y-116564342D01*
X151611905Y-116564342D02*
X151659524Y-116659580D01*
X151659524Y-116659580D02*
X151707143Y-116707200D01*
X151707143Y-116707200D02*
X151802381Y-116754819D01*
X151802381Y-116754819D02*
X151992857Y-116754819D01*
X151992857Y-116754819D02*
X152088095Y-116707200D01*
X152088095Y-116707200D02*
X152135714Y-116659580D01*
X152135714Y-116659580D02*
X152183333Y-116564342D01*
X152183333Y-116564342D02*
X152183333Y-115754819D01*
X152611905Y-116707200D02*
X152754762Y-116754819D01*
X152754762Y-116754819D02*
X152992857Y-116754819D01*
X152992857Y-116754819D02*
X153088095Y-116707200D01*
X153088095Y-116707200D02*
X153135714Y-116659580D01*
X153135714Y-116659580D02*
X153183333Y-116564342D01*
X153183333Y-116564342D02*
X153183333Y-116469104D01*
X153183333Y-116469104D02*
X153135714Y-116373866D01*
X153135714Y-116373866D02*
X153088095Y-116326247D01*
X153088095Y-116326247D02*
X152992857Y-116278628D01*
X152992857Y-116278628D02*
X152802381Y-116231009D01*
X152802381Y-116231009D02*
X152707143Y-116183390D01*
X152707143Y-116183390D02*
X152659524Y-116135771D01*
X152659524Y-116135771D02*
X152611905Y-116040533D01*
X152611905Y-116040533D02*
X152611905Y-115945295D01*
X152611905Y-115945295D02*
X152659524Y-115850057D01*
X152659524Y-115850057D02*
X152707143Y-115802438D01*
X152707143Y-115802438D02*
X152802381Y-115754819D01*
X152802381Y-115754819D02*
X153040476Y-115754819D01*
X153040476Y-115754819D02*
X153183333Y-115802438D01*
X153945238Y-116231009D02*
X154088095Y-116278628D01*
X154088095Y-116278628D02*
X154135714Y-116326247D01*
X154135714Y-116326247D02*
X154183333Y-116421485D01*
X154183333Y-116421485D02*
X154183333Y-116564342D01*
X154183333Y-116564342D02*
X154135714Y-116659580D01*
X154135714Y-116659580D02*
X154088095Y-116707200D01*
X154088095Y-116707200D02*
X153992857Y-116754819D01*
X153992857Y-116754819D02*
X153611905Y-116754819D01*
X153611905Y-116754819D02*
X153611905Y-115754819D01*
X153611905Y-115754819D02*
X153945238Y-115754819D01*
X153945238Y-115754819D02*
X154040476Y-115802438D01*
X154040476Y-115802438D02*
X154088095Y-115850057D01*
X154088095Y-115850057D02*
X154135714Y-115945295D01*
X154135714Y-115945295D02*
X154135714Y-116040533D01*
X154135714Y-116040533D02*
X154088095Y-116135771D01*
X154088095Y-116135771D02*
X154040476Y-116183390D01*
X154040476Y-116183390D02*
X153945238Y-116231009D01*
X153945238Y-116231009D02*
X153611905Y-116231009D01*
X155135714Y-116754819D02*
X154564286Y-116754819D01*
X154850000Y-116754819D02*
X154850000Y-115754819D01*
X154850000Y-115754819D02*
X154754762Y-115897676D01*
X154754762Y-115897676D02*
X154659524Y-115992914D01*
X154659524Y-115992914D02*
X154564286Y-116040533D01*
%TO.C,C7*%
D11*
X154209748Y-73770890D02*
X154732252Y-73770890D01*
X154209748Y-75240890D02*
X154732252Y-75240890D01*
%TO.C,U7*%
D12*
X186597800Y-74396900D02*
X185353200Y-74396900D01*
X186597800Y-75108100D02*
X185353200Y-75108100D01*
X186597800Y-75666900D02*
X185353200Y-75666900D01*
X186597800Y-76378100D02*
X185353200Y-76378100D01*
X186597800Y-76936900D02*
X185353200Y-76936900D01*
X186597800Y-77648100D02*
X185353200Y-77648100D01*
X186597800Y-78206900D02*
X185353200Y-78206900D01*
X186597800Y-78918100D02*
X185353200Y-78918100D01*
X186597800Y-79476900D02*
X185353200Y-79476900D01*
X186597800Y-80188100D02*
X185353200Y-80188100D01*
X186597800Y-80746900D02*
X185353200Y-80746900D01*
X186597800Y-81458100D02*
X185353200Y-81458100D01*
X186597800Y-82016900D02*
X185353200Y-82016900D01*
X186597800Y-82728100D02*
X185353200Y-82728100D01*
X186699400Y-78245000D02*
X186699400Y-78880000D01*
X186699400Y-78880000D02*
X187080400Y-78880000D01*
X187080400Y-73330100D02*
X187080400Y-78245000D01*
X187080400Y-78245000D02*
X186699400Y-78245000D01*
X187080400Y-78880000D02*
X187080400Y-83794900D01*
X187080400Y-83794900D02*
X196783200Y-83794900D01*
X196783200Y-73330100D02*
X187080400Y-73330100D01*
X196783200Y-73949860D02*
X196783200Y-73330100D01*
X196783200Y-83794900D02*
X196783200Y-83175140D01*
%TO.C,D1*%
D11*
X166581000Y-56855890D02*
X159571000Y-56855890D01*
X166581000Y-60155890D02*
X159571000Y-60155890D01*
X166581000Y-60155890D02*
X166581000Y-56855890D01*
%TO.C,R16*%
X176800000Y-51960000D02*
X176800000Y-55160000D01*
X180200000Y-53840000D02*
X180200000Y-57040000D01*
%TO.C,C5*%
X153565000Y-69038748D02*
X153565000Y-69561252D01*
X155035000Y-69038748D02*
X155035000Y-69561252D01*
%TO.C,C4*%
X149015000Y-67776248D02*
X149015000Y-68298752D01*
X150485000Y-67776248D02*
X150485000Y-68298752D01*
%TO.C,R2*%
X154975724Y-59933390D02*
X154466276Y-59933390D01*
X154975724Y-60978390D02*
X154466276Y-60978390D01*
%TO.C,J4*%
X162340000Y-113816856D02*
X162340000Y-114290000D01*
X162340000Y-120210000D02*
X162340000Y-116010000D01*
X163060000Y-113816856D02*
X163060000Y-114290000D01*
X163060000Y-116010000D02*
X163060000Y-120210000D01*
X163060000Y-120210000D02*
X162340000Y-120210000D01*
X163700000Y-114290000D02*
X163700000Y-116010000D01*
X164340000Y-113816856D02*
X164340000Y-114290000D01*
X164340000Y-120210000D02*
X164340000Y-116010000D01*
X165060000Y-113816856D02*
X165060000Y-114290000D01*
X165060000Y-116010000D02*
X165060000Y-120210000D01*
X165060000Y-120210000D02*
X164340000Y-120210000D01*
X165700000Y-114290000D02*
X165700000Y-116010000D01*
X166340000Y-113816856D02*
X166340000Y-114290000D01*
X166340000Y-120210000D02*
X166340000Y-116010000D01*
X167060000Y-113816856D02*
X167060000Y-114290000D01*
X167060000Y-116010000D02*
X167060000Y-120210000D01*
X167060000Y-120210000D02*
X166340000Y-120210000D01*
X167700000Y-114290000D02*
X167700000Y-116010000D01*
X168340000Y-113885000D02*
X168340000Y-114290000D01*
X168700000Y-111900000D02*
X169700000Y-111900000D01*
X169060000Y-113885000D02*
X169060000Y-114290000D01*
X169700000Y-111900000D02*
X169700000Y-112900000D01*
X168340000Y-116010000D02*
X169060000Y-116010000D01*
X169060000Y-120210000D01*
X168340000Y-120210000D01*
X168340000Y-116010000D01*
G36*
X168340000Y-116010000D02*
G01*
X169060000Y-116010000D01*
X169060000Y-120210000D01*
X168340000Y-120210000D01*
X168340000Y-116010000D01*
G37*
X161590000Y-114290000D02*
X169810000Y-114290000D01*
X169810000Y-116010000D01*
X161590000Y-116010000D01*
X161590000Y-114290000D01*
%TO.C,R6*%
X148477500Y-84045276D02*
X148477500Y-84554724D01*
X149522500Y-84045276D02*
X149522500Y-84554724D01*
%TO.C,C27*%
X168303733Y-85490000D02*
X168596267Y-85490000D01*
X168303733Y-86510000D02*
X168596267Y-86510000D01*
%TO.C,C24*%
X162390000Y-90011252D02*
X162390000Y-88588748D01*
X165110000Y-90011252D02*
X165110000Y-88588748D01*
%TO.C,R12*%
X154975724Y-62933390D02*
X154466276Y-62933390D01*
X154975724Y-63978390D02*
X154466276Y-63978390D01*
%TO.C,U8*%
D12*
X186597800Y-97396900D02*
X185353200Y-97396900D01*
X186597800Y-98108100D02*
X185353200Y-98108100D01*
X186597800Y-98666900D02*
X185353200Y-98666900D01*
X186597800Y-99378100D02*
X185353200Y-99378100D01*
X186597800Y-99936900D02*
X185353200Y-99936900D01*
X186597800Y-100648100D02*
X185353200Y-100648100D01*
X186597800Y-101206900D02*
X185353200Y-101206900D01*
X186597800Y-101918100D02*
X185353200Y-101918100D01*
X186597800Y-102476900D02*
X185353200Y-102476900D01*
X186597800Y-103188100D02*
X185353200Y-103188100D01*
X186597800Y-103746900D02*
X185353200Y-103746900D01*
X186597800Y-104458100D02*
X185353200Y-104458100D01*
X186597800Y-105016900D02*
X185353200Y-105016900D01*
X186597800Y-105728100D02*
X185353200Y-105728100D01*
X186699400Y-101245000D02*
X186699400Y-101880000D01*
X186699400Y-101880000D02*
X187080400Y-101880000D01*
X187080400Y-96330100D02*
X187080400Y-101245000D01*
X187080400Y-101245000D02*
X186699400Y-101245000D01*
X187080400Y-101880000D02*
X187080400Y-106794900D01*
X187080400Y-106794900D02*
X196783200Y-106794900D01*
X196783200Y-96330100D02*
X187080400Y-96330100D01*
X196783200Y-96949860D02*
X196783200Y-96330100D01*
X196783200Y-106794900D02*
X196783200Y-106175140D01*
%TO.C,C3*%
D11*
X151165000Y-67776248D02*
X151165000Y-68298752D01*
X152635000Y-67776248D02*
X152635000Y-68298752D01*
%TO.C,C21*%
X154690000Y-100053733D02*
X154690000Y-100346267D01*
X155710000Y-100053733D02*
X155710000Y-100346267D01*
%TO.C,C28*%
X152715000Y-102248752D02*
X152715000Y-101726248D01*
X154185000Y-102248752D02*
X154185000Y-101726248D01*
%TO.C,C9*%
X166072248Y-77895890D02*
X167494752Y-77895890D01*
X166072248Y-80615890D02*
X167494752Y-80615890D01*
%TO.C,R17*%
X175502500Y-99002500D02*
X175502500Y-102202500D01*
X178902500Y-100882500D02*
X178902500Y-104082500D01*
%TO.C,C44*%
X165803733Y-100640000D02*
X166096267Y-100640000D01*
X165803733Y-101660000D02*
X166096267Y-101660000D01*
%TO.C,R25*%
X152277500Y-110254724D02*
X152277500Y-109745276D01*
X153322500Y-110254724D02*
X153322500Y-109745276D01*
%TO.C,C16*%
X166661000Y-62047123D02*
X166661000Y-62339657D01*
X167681000Y-62047123D02*
X167681000Y-62339657D01*
%TO.C,C23*%
X141446267Y-90540000D02*
X141153733Y-90540000D01*
X141446267Y-91560000D02*
X141153733Y-91560000D01*
%TO.C,C1*%
X151490000Y-61153733D02*
X151490000Y-61446267D01*
X152510000Y-61153733D02*
X152510000Y-61446267D01*
%TO.C,C8*%
X165947248Y-75870890D02*
X166469752Y-75870890D01*
X165947248Y-77340890D02*
X166469752Y-77340890D01*
%TO.C,R22*%
X150477500Y-110254724D02*
X150477500Y-109745276D01*
X151522500Y-110254724D02*
X151522500Y-109745276D01*
%TO.C,CR1*%
D12*
X170823200Y-60761500D02*
X170823200Y-62067060D01*
X170823200Y-65932940D02*
X170823200Y-67238500D01*
X170823200Y-67238500D02*
X179205200Y-67238500D01*
X179205200Y-60761500D02*
X170823200Y-60761500D01*
X179205200Y-62067060D02*
X179205200Y-60761500D01*
X179205200Y-67238500D02*
X179205200Y-65932940D01*
X179586200Y-64000000D02*
X180856200Y-64000000D01*
X179840200Y-64635000D02*
X179840200Y-63365000D01*
X180602200Y-64000000D02*
X179840200Y-63365000D01*
X180602200Y-64000000D02*
X179840200Y-63492000D01*
X180602200Y-64000000D02*
X179840200Y-63619000D01*
X180602200Y-64000000D02*
X179840200Y-63746000D01*
X180602200Y-64000000D02*
X179840200Y-63873000D01*
X180602200Y-64000000D02*
X179840200Y-64127000D01*
X180602200Y-64000000D02*
X179840200Y-64254000D01*
X180602200Y-64000000D02*
X179840200Y-64381000D01*
X180602200Y-64000000D02*
X179840200Y-64508000D01*
X180602200Y-64000000D02*
X179840200Y-64635000D01*
X180602200Y-64635000D02*
X180602200Y-63365000D01*
%TO.C,U3*%
X182981800Y-61830100D02*
X182981800Y-62449860D01*
X182981800Y-71675140D02*
X182981800Y-72294900D01*
X182981800Y-72294900D02*
X192684600Y-72294900D01*
X192684600Y-61830100D02*
X182981800Y-61830100D01*
X192684600Y-66745000D02*
X192684600Y-61830100D01*
X192684600Y-67380000D02*
X193065600Y-67380000D01*
X192684600Y-72294900D02*
X192684600Y-67380000D01*
X193065600Y-66745000D02*
X192684600Y-66745000D01*
X193065600Y-67380000D02*
X193065600Y-66745000D01*
X193167200Y-62896900D02*
X194411800Y-62896900D01*
X193167200Y-63608100D02*
X194411800Y-63608100D01*
X193167200Y-64166900D02*
X194411800Y-64166900D01*
X193167200Y-64878100D02*
X194411800Y-64878100D01*
X193167200Y-65436900D02*
X194411800Y-65436900D01*
X193167200Y-66148100D02*
X194411800Y-66148100D01*
X193167200Y-66706900D02*
X194411800Y-66706900D01*
X193167200Y-67418100D02*
X194411800Y-67418100D01*
X193167200Y-67976900D02*
X194411800Y-67976900D01*
X193167200Y-68688100D02*
X194411800Y-68688100D01*
X193167200Y-69246900D02*
X194411800Y-69246900D01*
X193167200Y-69958100D02*
X194411800Y-69958100D01*
X193167200Y-70516900D02*
X194411800Y-70516900D01*
X193167200Y-71228100D02*
X194411800Y-71228100D01*
%TO.C,C37*%
D11*
X146990000Y-84446267D02*
X146990000Y-84153733D01*
X148010000Y-84446267D02*
X148010000Y-84153733D01*
%TO.C,C45*%
X161640000Y-108046267D02*
X161640000Y-107753733D01*
X162660000Y-108046267D02*
X162660000Y-107753733D01*
%TO.C,C32*%
X157740000Y-82646267D02*
X157740000Y-82353733D01*
X158760000Y-82646267D02*
X158760000Y-82353733D01*
%TO.C,C22*%
X143390000Y-99053733D02*
X143390000Y-99346267D01*
X144410000Y-99053733D02*
X144410000Y-99346267D01*
%TO.C,C13*%
X166990000Y-72109623D02*
X166990000Y-72402157D01*
X168010000Y-72109623D02*
X168010000Y-72402157D01*
%TO.C,C6*%
X154209748Y-71770890D02*
X154732252Y-71770890D01*
X154209748Y-73240890D02*
X154732252Y-73240890D01*
%TO.C,C29*%
X140851248Y-95715000D02*
X141373752Y-95715000D01*
X140851248Y-97185000D02*
X141373752Y-97185000D01*
%TO.C,U2*%
D12*
X158288543Y-75298490D02*
X164066057Y-75298490D01*
X164066057Y-61201490D02*
X158288543Y-61201490D01*
X161482100Y-61201490D02*
G75*
G02*
X160872500Y-61201490I-304800J0D01*
G01*
D13*
G36*
X156465600Y-66190495D02*
G01*
X156211600Y-66190495D01*
X156211600Y-65809494D01*
X156465600Y-65809494D01*
X156465600Y-66190495D01*
G37*
G36*
X156465600Y-71190484D02*
G01*
X156211600Y-71190484D01*
X156211600Y-70809484D01*
X156465600Y-70809484D01*
X156465600Y-71190484D01*
G37*
G36*
X166143000Y-64690498D02*
G01*
X165889000Y-64690498D01*
X165889000Y-64309498D01*
X166143000Y-64309498D01*
X166143000Y-64690498D01*
G37*
G36*
X166143000Y-69690488D02*
G01*
X165889000Y-69690488D01*
X165889000Y-69309488D01*
X166143000Y-69309488D01*
X166143000Y-69690488D01*
G37*
G36*
X166143000Y-74690478D02*
G01*
X165889000Y-74690478D01*
X165889000Y-74309477D01*
X166143000Y-74309477D01*
X166143000Y-74690478D01*
G37*
%TO.C,R18*%
D11*
X166054724Y-109777500D02*
X165545276Y-109777500D01*
X166054724Y-110822500D02*
X165545276Y-110822500D01*
%TO.C,C15*%
X166661000Y-65397123D02*
X166661000Y-65689657D01*
X167681000Y-65397123D02*
X167681000Y-65689657D01*
%TO.C,C2*%
X154867267Y-61445890D02*
X154574733Y-61445890D01*
X154867267Y-62465890D02*
X154574733Y-62465890D01*
%TO.C,C33*%
X155003733Y-78440000D02*
X155296267Y-78440000D01*
X155003733Y-79460000D02*
X155296267Y-79460000D01*
%TO.C,C14*%
X166661000Y-68747123D02*
X166661000Y-69039657D01*
X167681000Y-68747123D02*
X167681000Y-69039657D01*
%TO.C,TH1*%
X176845276Y-107777500D02*
X177354724Y-107777500D01*
X176845276Y-108822500D02*
X177354724Y-108822500D01*
%TO.C,R23*%
X155727500Y-110254724D02*
X155727500Y-109745276D01*
X156772500Y-110254724D02*
X156772500Y-109745276D01*
%TO.C,R7*%
X143977500Y-84554724D02*
X143977500Y-84045276D01*
X145022500Y-84554724D02*
X145022500Y-84045276D01*
%TO.C,C30*%
X155753733Y-86190000D02*
X156046267Y-86190000D01*
X155753733Y-87210000D02*
X156046267Y-87210000D01*
%TO.C,C42*%
X167303733Y-92090000D02*
X167596267Y-92090000D01*
X167303733Y-93110000D02*
X167596267Y-93110000D01*
%TO.C,U9*%
D12*
X112548434Y-82316688D02*
X112548434Y-87066488D01*
X112548434Y-87066488D02*
X112767593Y-87066488D01*
X112767595Y-82316688D02*
X112548434Y-82316688D01*
X117688673Y-87066488D02*
X117907834Y-87066488D01*
X117907834Y-82316688D02*
X117688675Y-82316688D01*
X117907834Y-87066488D02*
X117907834Y-82316688D01*
D13*
G36*
X116068633Y-80881588D02*
G01*
X115687633Y-80881588D01*
X115687633Y-80627588D01*
X116068633Y-80627588D01*
X116068633Y-80881588D01*
G37*
%TO.C,Y1*%
D11*
X152840000Y-85210000D02*
X157460000Y-85210000D01*
X157460000Y-85210000D02*
X157460000Y-79690000D01*
%TO.C,R24*%
X154027500Y-110254724D02*
X154027500Y-109745276D01*
X155072500Y-110254724D02*
X155072500Y-109745276D01*
%TO.C,C31*%
X149980000Y-84446267D02*
X149980000Y-84153733D01*
X151000000Y-84446267D02*
X151000000Y-84153733D01*
%TO.C,R5*%
X154466276Y-64433390D02*
X154975724Y-64433390D01*
X154466276Y-65478390D02*
X154975724Y-65478390D01*
%TO.C,J2*%
X137790000Y-105740000D02*
X141990000Y-105740000D01*
X137790000Y-106460000D02*
X137790000Y-105740000D01*
X137790000Y-107740000D02*
X141990000Y-107740000D01*
X137790000Y-108460000D02*
X137790000Y-107740000D01*
X137790000Y-109740000D02*
X141990000Y-109740000D01*
X137790000Y-110460000D02*
X137790000Y-109740000D01*
X137790000Y-111740000D02*
X141990000Y-111740000D01*
X137790000Y-112460000D02*
X137790000Y-111740000D01*
X137790000Y-113740000D02*
X141990000Y-113740000D01*
X137790000Y-114460000D02*
X137790000Y-113740000D01*
X141990000Y-106460000D02*
X137790000Y-106460000D01*
X141990000Y-108460000D02*
X137790000Y-108460000D01*
X141990000Y-110460000D02*
X137790000Y-110460000D01*
X141990000Y-112460000D02*
X137790000Y-112460000D01*
X141990000Y-114460000D02*
X137790000Y-114460000D01*
X143710000Y-107100000D02*
X141990000Y-107100000D01*
X143710000Y-109100000D02*
X141990000Y-109100000D01*
X143710000Y-111100000D02*
X141990000Y-111100000D01*
X143710000Y-113100000D02*
X141990000Y-113100000D01*
X143710000Y-115100000D02*
X141990000Y-115100000D01*
X144115000Y-115740000D02*
X143710000Y-115740000D01*
X144115000Y-116460000D02*
X143710000Y-116460000D01*
X144183144Y-105740000D02*
X143710000Y-105740000D01*
X144183144Y-106460000D02*
X143710000Y-106460000D01*
X144183144Y-107740000D02*
X143710000Y-107740000D01*
X144183144Y-108460000D02*
X143710000Y-108460000D01*
X144183144Y-109740000D02*
X143710000Y-109740000D01*
X144183144Y-110460000D02*
X143710000Y-110460000D01*
X144183144Y-111740000D02*
X143710000Y-111740000D01*
X144183144Y-112460000D02*
X143710000Y-112460000D01*
X144183144Y-113740000D02*
X143710000Y-113740000D01*
X144183144Y-114460000D02*
X143710000Y-114460000D01*
X146100000Y-116100000D02*
X146100000Y-117100000D01*
X146100000Y-117100000D02*
X145100000Y-117100000D01*
X137790000Y-115740000D02*
X141990000Y-115740000D01*
X141990000Y-116460000D01*
X137790000Y-116460000D01*
X137790000Y-115740000D01*
G36*
X137790000Y-115740000D02*
G01*
X141990000Y-115740000D01*
X141990000Y-116460000D01*
X137790000Y-116460000D01*
X137790000Y-115740000D01*
G37*
X141990000Y-104990000D02*
X143710000Y-104990000D01*
X143710000Y-117210000D01*
X141990000Y-117210000D01*
X141990000Y-104990000D01*
%TO.C,L1*%
X158500000Y-49999990D02*
X165100000Y-49999990D01*
X158500000Y-51699990D02*
X158500000Y-49999990D01*
X158500000Y-56399990D02*
X158500000Y-54699990D01*
X165100000Y-49999990D02*
X165100000Y-51699990D01*
X165100000Y-54699990D02*
X165100000Y-56399990D01*
X165100000Y-56399990D02*
X158500000Y-56399990D01*
%TO.C,C10*%
X166072248Y-81195890D02*
X167494752Y-81195890D01*
X166072248Y-83915890D02*
X167494752Y-83915890D01*
%TO.C,R15*%
X158145276Y-91427500D02*
X158654724Y-91427500D01*
X158145276Y-92472500D02*
X158654724Y-92472500D01*
%TO.C,R19*%
X141107776Y-86527500D02*
X141617224Y-86527500D01*
X141107776Y-87572500D02*
X141617224Y-87572500D01*
%TO.C,U6*%
D12*
X186587800Y-51396900D02*
X185343200Y-51396900D01*
X186587800Y-52108100D02*
X185343200Y-52108100D01*
X186587800Y-52666900D02*
X185343200Y-52666900D01*
X186587800Y-53378100D02*
X185343200Y-53378100D01*
X186587800Y-53936900D02*
X185343200Y-53936900D01*
X186587800Y-54648100D02*
X185343200Y-54648100D01*
X186587800Y-55206900D02*
X185343200Y-55206900D01*
X186587800Y-55918100D02*
X185343200Y-55918100D01*
X186587800Y-56476900D02*
X185343200Y-56476900D01*
X186587800Y-57188100D02*
X185343200Y-57188100D01*
X186587800Y-57746900D02*
X185343200Y-57746900D01*
X186587800Y-58458100D02*
X185343200Y-58458100D01*
X186587800Y-59016900D02*
X185343200Y-59016900D01*
X186587800Y-59728100D02*
X185343200Y-59728100D01*
X186689400Y-55245000D02*
X186689400Y-55880000D01*
X186689400Y-55880000D02*
X187070400Y-55880000D01*
X187070400Y-50330100D02*
X187070400Y-55245000D01*
X187070400Y-55245000D02*
X186689400Y-55245000D01*
X187070400Y-55880000D02*
X187070400Y-60794900D01*
X187070400Y-60794900D02*
X196773200Y-60794900D01*
X196773200Y-50330100D02*
X187070400Y-50330100D01*
X196773200Y-50949860D02*
X196773200Y-50330100D01*
X196773200Y-60794900D02*
X196773200Y-60175140D01*
%TO.C,U5*%
X182986100Y-107830100D02*
X182986100Y-108449860D01*
X182986100Y-117675140D02*
X182986100Y-118294900D01*
X182986100Y-118294900D02*
X192688900Y-118294900D01*
X192688900Y-107830100D02*
X182986100Y-107830100D01*
X192688900Y-112745000D02*
X192688900Y-107830100D01*
X192688900Y-113380000D02*
X193069900Y-113380000D01*
X192688900Y-118294900D02*
X192688900Y-113380000D01*
X193069900Y-112745000D02*
X192688900Y-112745000D01*
X193069900Y-113380000D02*
X193069900Y-112745000D01*
X193171500Y-108896900D02*
X194416100Y-108896900D01*
X193171500Y-109608100D02*
X194416100Y-109608100D01*
X193171500Y-110166900D02*
X194416100Y-110166900D01*
X193171500Y-110878100D02*
X194416100Y-110878100D01*
X193171500Y-111436900D02*
X194416100Y-111436900D01*
X193171500Y-112148100D02*
X194416100Y-112148100D01*
X193171500Y-112706900D02*
X194416100Y-112706900D01*
X193171500Y-113418100D02*
X194416100Y-113418100D01*
X193171500Y-113976900D02*
X194416100Y-113976900D01*
X193171500Y-114688100D02*
X194416100Y-114688100D01*
X193171500Y-115246900D02*
X194416100Y-115246900D01*
X193171500Y-115958100D02*
X194416100Y-115958100D01*
X193171500Y-116516900D02*
X194416100Y-116516900D01*
X193171500Y-117228100D02*
X194416100Y-117228100D01*
%TO.C,U1*%
X144769200Y-88069200D02*
X144769200Y-88965608D01*
X144769200Y-97434392D02*
X144769200Y-98330800D01*
X144769200Y-98330800D02*
X145665608Y-98330800D01*
X145665608Y-88069200D02*
X144769200Y-88069200D01*
X154134392Y-98330800D02*
X155030800Y-98330800D01*
X155030800Y-88069200D02*
X154134392Y-88069200D01*
X155030800Y-88965608D02*
X155030800Y-88069200D01*
X155030800Y-98330800D02*
X155030800Y-97434392D01*
X153726200Y-86349100D02*
G75*
G02*
X153573800Y-86349100I-76200J0D01*
G01*
X153573800Y-86349100D02*
G75*
G02*
X153726200Y-86349100I76200J0D01*
G01*
D13*
G36*
X143299101Y-91140499D02*
G01*
X143045101Y-91140499D01*
X143045101Y-90759499D01*
X143299101Y-90759499D01*
X143299101Y-91140499D01*
G37*
G36*
X143299101Y-96140500D02*
G01*
X143045101Y-96140500D01*
X143045101Y-95759500D01*
X143299101Y-95759500D01*
X143299101Y-96140500D01*
G37*
G36*
X149340499Y-86599101D02*
G01*
X148959499Y-86599101D01*
X148959499Y-86345101D01*
X149340499Y-86345101D01*
X149340499Y-86599101D01*
G37*
G36*
X149840501Y-100054899D02*
G01*
X149459500Y-100054899D01*
X149459500Y-99800899D01*
X149840501Y-99800899D01*
X149840501Y-100054899D01*
G37*
G36*
X156754899Y-91640501D02*
G01*
X156500899Y-91640501D01*
X156500899Y-91259501D01*
X156754899Y-91259501D01*
X156754899Y-91640501D01*
G37*
G36*
X156754899Y-96640501D02*
G01*
X156500899Y-96640501D01*
X156500899Y-96259501D01*
X156754899Y-96259501D01*
X156754899Y-96640501D01*
G37*
%TO.C,U10*%
D12*
X163171100Y-103679100D02*
X163171100Y-107920900D01*
X168428900Y-107920900D02*
X168428900Y-103679100D01*
%TO.C,C35*%
D11*
X141373752Y-88065000D02*
X140851248Y-88065000D01*
X141373752Y-89535000D02*
X140851248Y-89535000D01*
%TO.C,C20*%
X156753733Y-87690000D02*
X157046267Y-87690000D01*
X156753733Y-88710000D02*
X157046267Y-88710000D01*
%TO.C,J1*%
X138135000Y-51890000D02*
X144135000Y-51890000D01*
X138135000Y-52750000D02*
X138135000Y-51890000D01*
X138135000Y-54430000D02*
X144135000Y-54430000D01*
X138135000Y-55290000D02*
X138135000Y-54430000D01*
X138135000Y-56970000D02*
X144135000Y-56970000D01*
X138135000Y-57830000D02*
X138135000Y-56970000D01*
X138135000Y-59510000D02*
X144135000Y-59510000D01*
X138135000Y-60370000D02*
X138135000Y-59510000D01*
X144135000Y-52750000D02*
X138135000Y-52750000D01*
X144135000Y-55290000D02*
X138135000Y-55290000D01*
X144135000Y-57830000D02*
X138135000Y-57830000D01*
X144135000Y-60370000D02*
X138135000Y-60370000D01*
X146895000Y-53590000D02*
X144135000Y-53590000D01*
X146895000Y-56130000D02*
X144135000Y-56130000D01*
X146895000Y-58670000D02*
X144135000Y-58670000D01*
X146895000Y-61210000D02*
X144135000Y-61210000D01*
X147125000Y-62050000D02*
X146895000Y-62050000D01*
X147125000Y-62910000D02*
X146895000Y-62910000D01*
X147207642Y-51890000D02*
X146895000Y-51890000D01*
X147207642Y-52750000D02*
X146895000Y-52750000D01*
X147207642Y-54430000D02*
X146895000Y-54430000D01*
X147207642Y-55290000D02*
X146895000Y-55290000D01*
X147207642Y-56970000D02*
X146895000Y-56970000D01*
X147207642Y-57830000D02*
X146895000Y-57830000D01*
X147207642Y-59510000D02*
X146895000Y-59510000D01*
X147207642Y-60370000D02*
X146895000Y-60370000D01*
X149555000Y-62480000D02*
X149555000Y-63750000D01*
X149555000Y-63750000D02*
X148285000Y-63750000D01*
X138135000Y-62050000D02*
X144135000Y-62050000D01*
X144135000Y-62910000D01*
X138135000Y-62910000D01*
X138135000Y-62050000D01*
G36*
X138135000Y-62050000D02*
G01*
X144135000Y-62050000D01*
X144135000Y-62910000D01*
X138135000Y-62910000D01*
X138135000Y-62050000D01*
G37*
X144135000Y-50940000D02*
X146895000Y-50940000D01*
X146895000Y-63860000D01*
X144135000Y-63860000D01*
X144135000Y-50940000D01*
%TO.C,U4*%
D12*
X182986100Y-84830100D02*
X182986100Y-85449860D01*
X182986100Y-94675140D02*
X182986100Y-95294900D01*
X182986100Y-95294900D02*
X192688900Y-95294900D01*
X192688900Y-84830100D02*
X182986100Y-84830100D01*
X192688900Y-89745000D02*
X192688900Y-84830100D01*
X192688900Y-90380000D02*
X193069900Y-90380000D01*
X192688900Y-95294900D02*
X192688900Y-90380000D01*
X193069900Y-89745000D02*
X192688900Y-89745000D01*
X193069900Y-90380000D02*
X193069900Y-89745000D01*
X193171500Y-85896900D02*
X194416100Y-85896900D01*
X193171500Y-86608100D02*
X194416100Y-86608100D01*
X193171500Y-87166900D02*
X194416100Y-87166900D01*
X193171500Y-87878100D02*
X194416100Y-87878100D01*
X193171500Y-88436900D02*
X194416100Y-88436900D01*
X193171500Y-89148100D02*
X194416100Y-89148100D01*
X193171500Y-89706900D02*
X194416100Y-89706900D01*
X193171500Y-90418100D02*
X194416100Y-90418100D01*
X193171500Y-90976900D02*
X194416100Y-90976900D01*
X193171500Y-91688100D02*
X194416100Y-91688100D01*
X193171500Y-92246900D02*
X194416100Y-92246900D01*
X193171500Y-92958100D02*
X194416100Y-92958100D01*
X193171500Y-93516900D02*
X194416100Y-93516900D01*
X193171500Y-94228100D02*
X194416100Y-94228100D01*
%TO.C,SW1*%
D14*
X141520000Y-72550000D02*
X147550000Y-72550000D01*
X141520000Y-78650000D02*
X141520000Y-72550000D01*
X147550000Y-72550000D02*
X147550000Y-78650000D01*
X147550000Y-78650000D02*
X141520000Y-78650000D01*
X142800000Y-73420000D02*
G75*
G02*
X141880000Y-73420000I-460000J0D01*
G01*
X141880000Y-73420000D02*
G75*
G02*
X142800000Y-73420000I460000J0D01*
G01*
X142890000Y-77700000D02*
G75*
G02*
X141970000Y-77700000I-460000J0D01*
G01*
X141970000Y-77700000D02*
G75*
G02*
X142890000Y-77700000I460000J0D01*
G01*
X146030000Y-75600000D02*
G75*
G02*
X142970000Y-75600000I-1530000J0D01*
G01*
X142970000Y-75600000D02*
G75*
G02*
X146030000Y-75600000I1530000J0D01*
G01*
X147100000Y-73460000D02*
G75*
G02*
X146180000Y-73460000I-460000J0D01*
G01*
X146180000Y-73460000D02*
G75*
G02*
X147100000Y-73460000I460000J0D01*
G01*
X147100000Y-77700000D02*
G75*
G02*
X146180000Y-77700000I-460000J0D01*
G01*
X146180000Y-77700000D02*
G75*
G02*
X147100000Y-77700000I460000J0D01*
G01*
D15*
X149030000Y-78600000D02*
G75*
G02*
X148970000Y-78600000I-30000J0D01*
G01*
X148970000Y-78600000D02*
G75*
G02*
X149030000Y-78600000I30000J0D01*
G01*
%TO.C,C38*%
D11*
X145490000Y-84153733D02*
X145490000Y-84446267D01*
X146510000Y-84153733D02*
X146510000Y-84446267D01*
%TO.C,USB1*%
D14*
X149150000Y-114940000D02*
X149150000Y-116730000D01*
X149150000Y-118970000D02*
X149150000Y-120450000D01*
X149150000Y-120450000D02*
X158050000Y-120450000D01*
X158050000Y-116730000D02*
X158050000Y-114940000D01*
X158050000Y-120450000D02*
X158050000Y-118970000D01*
D15*
X149160000Y-112550000D02*
G75*
G02*
X149100000Y-112550000I-30000J0D01*
G01*
X149100000Y-112550000D02*
G75*
G02*
X149160000Y-112550000I30000J0D01*
G01*
%TD*%
M02*
