M48
; DRILL file KiCad 10.0.3 date 2026-07-30T17:37:55
; FORMAT={-:-/ absolute / metric / decimal}
; #@! TF.CreationDate,2026-07-30T17:37:55+08:00
; #@! TF.GenerationSoftware,Kicad,Pcbnew,10.0.3
; #@! TF.FileFunction,MixedPlating,1,4
FMAT,2
METRIC
; #@! TA.AperFunction,Plated,PTH,ViaDrill
T1C0.300
; #@! TA.AperFunction,Plated,PTH,ViaDrill
T2C0.400
; #@! TA.AperFunction,Plated,PTH,ComponentDrill
T3C0.600
; #@! TA.AperFunction,Plated,PTH,ComponentDrill
T4C0.800
; #@! TA.AperFunction,Plated,PTH,ComponentDrill
T5C1.000
; #@! TA.AperFunction,Plated,PTH,ComponentDrill
T6C3.750
; #@! TA.AperFunction,NonPlated,NPTH,ComponentDrill
T7C0.650
%
G90
G05
T1
X137.208Y-87.176
X137.218Y-92.167
X137.4Y-57.2
X137.4Y-62.2
X137.4Y-67.2
X137.4Y-72.2
X137.4Y-77.2
X137.4Y-82.2
X137.4Y-97.2
X137.4Y-102.2
X137.6Y-52.2
X137.6Y-117.2
X141.276Y-49.525
X141.3Y-90.1
X141.481Y-119.943
X142.2Y-93.0
X143.768Y-86.248
X143.8Y-87.1
X143.8Y-88.3
X143.8Y-106.3
X144.4Y-114.8
X145.0Y-88.2
X145.0Y-107.6
X145.0Y-110.0
X145.075Y-86.8
X145.1Y-108.7
X145.5Y-89.4
X145.95Y-86.2
X146.276Y-49.525
X146.3Y-97.853
X146.481Y-119.943
X146.9Y-82.4
X147.176Y-97.782
X147.775Y-86.2
X148.0Y-97.8
X148.7Y-76.6
X148.7Y-88.8
X148.7Y-89.8
X149.1Y-96.2
X149.6Y-82.05
X149.6Y-86.2
X149.8Y-88.8
X149.8Y-97.7
X150.1Y-111.7
X150.7Y-97.6
X151.276Y-49.525
X151.481Y-119.943
X151.7Y-97.6
X151.9Y-72.9
X152.25Y-77.7
X152.3Y-64.4
X152.339Y-71.739
X152.5Y-97.6
X152.6Y-70.8
X152.713Y-70.028
X152.825Y-77.2
X153.151Y-94.849
X153.2Y-95.7
X153.3Y-92.6
X153.9Y-91.0
X154.0Y-90.1
X154.2Y-96.05
X154.553Y-97.1
X154.9Y-88.1
X155.4Y-103.5
X155.7Y-58.0
X155.8Y-77.3
X156.016Y-66.908
X156.134Y-69.575
X156.2Y-107.2
X156.24Y-70.5
X156.276Y-49.525
X156.299Y-71.493
X156.4Y-66.0
X156.481Y-119.943
X156.518Y-75.518
X156.7Y-92.825
X156.8Y-94.8
X157.2Y-53.2
X157.2Y-90.0
X157.2Y-111.7
X157.269Y-94.214
X157.3Y-96.9
X157.467Y-93.439
X158.05Y-76.7
X158.1Y-60.8
X158.275Y-72.0
X158.329Y-65.552
X158.346Y-70.072
X158.4Y-69.0
X158.434Y-64.721
X158.44Y-67.0
X158.458Y-70.889
X158.47Y-74.131
X158.7Y-62.5
X158.725Y-73.188
X159.3Y-64.5
X159.5Y-55.8
X159.85Y-76.25
X160.268Y-66.2
X160.268Y-67.2
X160.268Y-68.2
X160.268Y-69.2
X160.268Y-70.2
X160.8Y-89.1
X160.8Y-92.0
X160.9Y-104.7
X161.1Y-90.4
X161.268Y-66.2
X161.268Y-67.2
X161.268Y-68.2
X161.268Y-69.2
X161.268Y-70.2
X161.276Y-49.525
X161.6Y-81.3
X161.7Y-63.7
X161.8Y-73.7
X162.1Y-99.8
X162.2Y-58.5
X162.268Y-66.2
X162.268Y-67.2
X162.268Y-68.2
X162.268Y-69.2
X162.268Y-70.2
X162.5Y-64.625
X163.0Y-104.1
X163.2Y-95.0
X163.3Y-86.0
X163.342Y-72.784
X163.487Y-71.981
X163.666Y-67.353
X163.7Y-73.5
X163.72Y-66.522
X163.8Y-65.6
X163.807Y-68.14
X163.844Y-69.035
X164.006Y-71.0
X164.9Y-111.9
X165.0Y-60.8
X165.3Y-106.0
X166.0Y-114.0
X166.1Y-61.7
X166.2Y-73.1
X166.242Y-73.942
X166.276Y-49.525
X166.284Y-74.784
X166.4Y-81.7
X167.2Y-81.5
X167.3Y-113.5
X167.5Y-94.1
X168.3Y-66.6
X168.4Y-69.8
X168.4Y-91.1
X168.6Y-104.0
X168.8Y-73.1
X169.545Y-79.255
X169.65Y-74.8
X170.6Y-64.8
X170.701Y-61.9
X171.276Y-49.525
X171.481Y-119.943
X171.5Y-68.8
X171.7Y-73.1
X171.8Y-76.7
X171.8Y-80.9
X172.1Y-67.361
X173.0Y-87.6
X174.9Y-104.0
X175.1Y-108.3
X175.195Y-95.9
X175.6Y-87.1
X176.276Y-49.525
X176.3Y-51.0
X176.481Y-119.943
X177.7Y-96.6
X179.5Y-54.2
X179.7Y-56.7
X180.2Y-97.3
X180.6Y-59.4
X180.6Y-83.4
X181.276Y-49.525
X181.481Y-119.943
X181.7Y-50.5
X186.276Y-49.525
X186.481Y-119.943
X191.276Y-49.525
X191.481Y-119.943
X193.6Y-116.3
X194.9Y-95.0
X195.1Y-71.9
X196.276Y-49.525
X196.481Y-119.943
X201.276Y-49.525
X201.481Y-119.943
X206.1Y-50.2
X206.2Y-119.0
X207.944Y-54.203
X207.944Y-59.203
X207.944Y-64.203
X207.944Y-69.203
X207.944Y-74.203
X207.944Y-79.203
X207.944Y-84.203
X207.944Y-89.203
X207.944Y-94.203
X207.944Y-99.203
X207.944Y-104.203
X207.944Y-109.203
X207.949Y-114.203
T2
X163.1Y-82.8
X163.136Y-83.831
X163.5Y-62.6
X163.6Y-84.4
X163.8Y-83.3
X164.2Y-82.6
X164.2Y-84.0
X164.2Y-84.9
X164.9Y-84.4
X165.3Y-85.1
X165.8Y-84.4
X180.4Y-62.0
X180.4Y-63.0
X180.4Y-64.0
X180.4Y-65.0
X180.4Y-66.0
X180.4Y-67.0
X180.4Y-68.0
X180.4Y-69.0
X180.4Y-70.0
X180.4Y-71.0
X180.4Y-72.0
X180.4Y-85.1
X180.4Y-86.1
X180.4Y-87.1
X180.4Y-88.1
X180.4Y-89.1
X180.4Y-90.1
X180.4Y-91.1
X180.4Y-92.1
X180.4Y-93.1
X180.4Y-94.1
X180.4Y-95.1
X180.4Y-108.0
X180.4Y-109.0
X180.4Y-110.0
X180.4Y-111.0
X180.4Y-112.0
X180.4Y-113.0
X180.4Y-114.0
X180.4Y-115.0
X180.4Y-116.0
X180.4Y-117.0
X180.4Y-118.0
X181.4Y-62.0
X181.4Y-72.0
X181.4Y-85.1
X181.4Y-95.1
X181.4Y-108.0
X181.4Y-118.0
X182.385Y-62.022
X182.4Y-72.0
X182.4Y-85.1
X182.4Y-95.1
X182.4Y-108.0
X182.4Y-118.0
X183.4Y-62.0
X183.4Y-72.0
X183.4Y-85.1
X183.4Y-95.1
X183.4Y-108.0
X183.4Y-118.0
X184.4Y-62.0
X184.4Y-72.0
X184.4Y-85.1
X184.4Y-95.1
X184.4Y-108.0
X184.4Y-118.0
X185.4Y-62.0
X185.4Y-72.0
X185.4Y-85.1
X185.4Y-95.1
X185.4Y-108.0
X185.4Y-118.0
X186.4Y-62.0
X186.4Y-72.0
X186.4Y-85.1
X186.4Y-95.1
X186.4Y-108.0
X186.4Y-118.0
X187.4Y-62.0
X187.4Y-72.0
X187.4Y-85.1
X187.4Y-95.1
X187.4Y-108.0
X187.4Y-118.0
X188.4Y-62.0
X188.4Y-72.0
X188.4Y-85.1
X188.4Y-95.1
X188.4Y-108.0
X188.4Y-118.0
X189.4Y-62.0
X189.4Y-72.0
X189.4Y-85.1
X189.4Y-95.1
X189.4Y-108.0
X189.4Y-118.0
X190.4Y-62.0
X190.4Y-63.0
X190.4Y-64.0
X190.4Y-65.0
X190.4Y-66.0
X190.4Y-67.0
X190.4Y-68.0
X190.4Y-69.0
X190.4Y-70.0
X190.4Y-71.0
X190.4Y-72.0
X190.4Y-85.1
X190.4Y-86.1
X190.4Y-87.1
X190.4Y-88.1
X190.4Y-89.1
X190.4Y-90.1
X190.4Y-91.1
X190.4Y-92.1
X190.4Y-93.1
X190.4Y-94.1
X190.4Y-95.1
X190.4Y-108.0
X190.4Y-109.0
X190.4Y-110.0
X190.4Y-111.0
X190.4Y-112.0
X190.4Y-113.0
X190.4Y-114.0
X190.4Y-115.0
X190.4Y-116.0
X190.4Y-117.0
X190.4Y-118.0
T4
X174.7Y-53.2
X174.7Y-58.2
X176.8Y-110.4
X176.8Y-115.4
X177.7Y-88.7
X177.7Y-93.7
T5
X148.285Y-52.32
X148.285Y-54.86
X148.285Y-57.4
X148.285Y-59.94
X148.285Y-62.48
T6
X176.8Y-71.1
X176.8Y-79.3
X203.2Y-107.2
X203.4Y-61.3
X203.4Y-84.562
T7
X150.71Y-114.2
X156.49Y-114.2
T3
G00X149.28Y-113.12
M15
G01X149.28Y-114.22
M16
G05
G00X149.28Y-117.45
M15
G01X149.28Y-118.25
M16
G05
G00X157.92Y-113.12
M15
G01X157.92Y-114.22
M16
G05
G00X157.92Y-117.45
M15
G01X157.92Y-118.25
M16
G05
M30
